<svg xmlns="http://www.w3.org/2000/svg" xmlns:xlink="http://www.w3.org/1999/xlink" viewBox="0 0 109.62 116.47"><defs><style>.cls-1{fill:none;}.cls-2{isolation:isolate;}.cls-3{clip-path:url(#clip-path);}.cls-4{fill:#74523e;}.cls-5{fill:#efc8a4;}.cls-6{fill:#b1836e;opacity:0.4;}.cls-6,.cls-8{mix-blend-mode:multiply;}.cls-7{fill:#d4ab8b;}.cls-8{fill:#c4917a;opacity:0.2;}.cls-9{fill:#502a13;}.cls-10{fill:#a84a35;}</style><clipPath id="clip-path"><path class="cls-1" d="M109.62,85.52c0,14.61-12.28,26.45-27.42,26.45H27.42C12.28,112,0,100.13,0,85.52V26.45C0,11.84,12.28,0,27.42,0H82.21c15.14,0,27.42,11.84,27.42,26.45V85.52Z"/></clipPath></defs><title>female4</title><g class="cls-2"><g id="Layer_1" data-name="Layer 1"><g class="cls-3"><path class="cls-4" d="M27.56,2L59.9,17.28,26.76,2.91S24.36,1.23,27.56,2Z"/><path class="cls-4" d="M75.88,5.89L48.12,20.26,76.88,6.46S78.87,4,75.88,5.89Z"/><path class="cls-5" d="M65.89,65.3s-1.23,17.34,1.61,24.06c2,4.71,8.75,7.91,14.13,8.08,5.8,0.18,10.35-.18,11,10.06,0.54,9.23.9,12.11,0.9,12.11L16,119.35s-2.41-16.85,1.79-20.29c4.74-3.88,19.85,2.79,23.67-10.44,2.36-8.19,1.16-30.22,1.16-30.22Z"/><path class="cls-5" d="M32.79,42.17c-0.11-.47-1.46-3.89-3.95-3.89s0.06,6.39,1.55,10.84a12.6,12.6,0,0,0,3.12,5.4c0.67,0.57,1.25.69,1.59,0.3C35.93,53.84,32.79,42.17,32.79,42.17Z"/><path class="cls-6" d="M42.74,68.52l0.43,4.61,24,17.59S64.91,85,65.74,71.25,42.74,68.52,42.74,68.52Z"/><path class="cls-5" d="M76.64,25.57s2.75,14.55-.86,26.24c-1.75,5.68-2.87,11.1-5.57,15.41-2.35,3.76-10.84,8.64-15.65,8.9-4.12.23-13.6-6.61-14.8-8.32C36,62.4,34.79,55.47,33,49.43c-2.23-7.49,1-22.36,4.18-26.17S72.47,15.45,76.64,25.57Z"/><path class="cls-7" d="M76.9,42.92c0.08-.43,1.13-3.66,3.54-3.83,7.52-.53-0.69,10.06-0.68,10-1.11,4.18-3.25,6.36-4.14,5.53S76.9,42.92,76.9,42.92Z"/><path class="cls-8" d="M55.18,19.6V76.43c4.89-.61,12.78-5.24,15-8.84,2.69-4.31,3.82-9.73,5.57-15.41,3.6-11.69.86-26.24,0.86-26.24C74.45,20.61,64.55,19.2,55.18,19.6Z"/><path class="cls-9" d="M32.37,43.2S26.08,28.27,30.52,22C40.3,8.13,73,10.12,79.64,20.57S76.9,43.7,76.9,43.7s-0.45-6.3-3.25-9.49S73.3,22.92,54.53,23.27,37.71,30.14,36.91,33.5,32.16,39.48,32.37,43.2Z"/><path class="cls-9" d="M42.5,16.91S39.9,6.28,54.88,6.28s13,9.89,8.59,11S42.5,16.91,42.5,16.91Z"/><path class="cls-10" d="M40.3,87.7s2.89,2.6,9.88,2.21,13.68,0.29,14.88,3a16.66,16.66,0,0,1,1.3,3.47S60.27,100.13,48.89,98s-10-3.75-10-3.75Z"/><path class="cls-10" d="M15.94,100c2.2-3,23-5.78,23-5.78s5.39,2.89,15,2.5a82.06,82.06,0,0,0,18-2.89s20,2.31,21.57,7.71S95,121,95,121H13.95S12.35,104.85,15.94,100Z"/><path class="cls-10" d="M69.89,88.09l1.16,5.78-4,2.51S68.09,89.44,69.89,88.09Z"/></g></g></g></svg>