<svg xmlns="http://www.w3.org/2000/svg" xmlns:xlink="http://www.w3.org/1999/xlink" viewBox="0 0 109.62 116.05"><defs><style>.cls-1{fill:none;}.cls-2{isolation:isolate;}.cls-3{clip-path:url(#clip-path);}.cls-4{fill:#502a13;}.cls-5{fill:#a47a61;}.cls-10,.cls-5,.cls-7{mix-blend-mode:multiply;}.cls-6{fill:#efc8a4;}.cls-7{fill:#b1836e;opacity:0.4;}.cls-8{fill:#6bb3c6;}.cls-9{fill:#fff;}.cls-10{fill:#c4917a;opacity:0.2;}</style><clipPath id="clip-path"><path class="cls-1" d="M109.62,85.52c0,14.61-12.28,26.45-27.42,26.45H27.42C12.27,112,0,100.13,0,85.52V26.45C0,11.84,12.27,0,27.42,0H82.2c15.14,0,27.42,11.84,27.42,26.45V85.52Z"/></clipPath></defs><title>female3</title><g class="cls-2"><g id="Layer_1" data-name="Layer 1"><g class="cls-3"><path class="cls-4" d="M82,19.56a15.06,15.06,0,0,0-6.41-4.18L76,13.73l0-.52S69.85,5,51.58,7C27.63,9.8,15.57,33.1,18.66,51.83a120.23,120.23,0,0,0,7,24.54l-0.23.13c-9,5-12.64-2-12.64-2-3,6.81-1.15,11.29,2.53,12.7a17.43,17.43,0,0,1-4.89-.35S16.73,107,31.94,111c11.78,3.05,15.08-3.44,16-5.9,0.32-.9.26-3.24-0.08-6.14,7.44-3.13,11.42-18.27,11.42-18.27l1-3.83c2.52,8,10.52,31,11.7,23.76,1.35-8.27,11-12.18,17.77-31.87S86.92,24.93,82,19.56Z"/><path class="cls-5" d="M28.76,43.28s12,33.08,6,53.32c-8.9,29.87,39.55,1.62,39.54,1.19S73.89,68,77,54.37s-5.5-14.6-6.1-14.87S28.76,43.28,28.76,43.28Z"/><path class="cls-6" d="M65.67,66.45s-1.23,17.34,1.61,24.06c2,4.71,11.81,5.85,17.19,6,5.8,0.18,7.29,1.88,7.89,12.12,0.54,9.23.9,12.11,0.9,12.11l-77.51-.24s-2.41-16.85,1.79-20.29C22.29,96.34,37.4,103,41.22,89.78c2.36-8.19,1.16-30.22,1.16-30.22Z"/><path class="cls-6" d="M32.57,41.88C32.45,41.41,31.1,38,28.62,38s0.06,6.38,1.55,10.84a12.61,12.61,0,0,0,3.11,5.4c0.67,0.57,1.25.69,1.59,0.3C35.71,53.55,32.57,41.88,32.57,41.88Z"/><path class="cls-7" d="M42.52,69.67l0.43,4.61L67,91.88S64.7,86.15,65.51,72.4,42.52,69.67,42.52,69.67Z"/><path class="cls-6" d="M76.42,23.51S79.16,39,75.56,51.41c-1.75,6-2.87,11.81-5.57,16.38-2.35,4-10.84,9.18-15.65,9.46-4.12.24-13.6-7-14.8-8.84-3.79-5.74-5-13.11-6.79-19.53-2.24-8,1-23.77,4.18-27.82S72.25,12.75,76.42,23.51Z"/><path class="cls-6" d="M76.67,42c0.08-.46,1.13-3.89,3.54-4.07s0.43,6.21-.67,10.65-3.25,6.76-4.14,5.88S76.67,42,76.67,42Z"/><path class="cls-8" d="M26.92,40.26S15.12,21.57,34.42,9.51,75.23,5.14,80,17.45c5.8,14.88-3.16,21.33-3.16,21.33S80.78,23.06,65,16.39s-27-1.33-31.84,7.75-2.8,12.36-2.8,12.36l-2.52,4.85Z"/><path class="cls-4" d="M76.84,42.26a0.88,0.88,0,0,0,.27-0.5C76.95,42.08,76.84,42.26,76.84,42.26Z"/><path class="cls-4" d="M74.49,20.88c-0.77-.8-1.46-1.48-2.1-2.09-2.78-4.21-12.19-8.65-24.89-5.67-21.43,5-25.79,26.1-25.79,26.1a2.77,2.77,0,0,0,.78.15c1.92,1.5,7.54,3.36,16.77,2.21C63.68,38.53,68.76,25.5,70.49,22.64c2.3,3.34,4.88,7.92,5.66,12.45,1,5.81.78,8,.53,8.89C78,41.48,83.15,29.86,74.49,20.88Z"/><path class="cls-8" d="M31.46,98s2.44,6.3,24.73,4.51,19.4-7,19.4-7l7.55,0.63,0,24.18-58.72.06L23.68,99Z"/><ellipse class="cls-9" cx="28.16" cy="103.78" rx="2.32" ry="2.39" transform="translate(-2.7 0.77) rotate(-1.49)"/><ellipse class="cls-9" cx="36.48" cy="114.82" rx="2.45" ry="2.51" transform="translate(-2.94 0.98) rotate(-1.48)"/><path class="cls-9" d="M49.22,106.64a2.39,2.39,0,1,1-2.46-2.45A2.44,2.44,0,0,1,49.22,106.64Z"/><ellipse class="cls-9" cx="58.37" cy="114.68" rx="2.83" ry="2.51" transform="translate(-2.97 1.56) rotate(-1.49)"/><ellipse class="cls-9" cx="64.68" cy="105.74" rx="2.26" ry="2.14" transform="translate(-2.7 1.7) rotate(-1.47)"/><path class="cls-9" d="M77.8,114.38a2.08,2.08,0,1,1-2.13-2.21A2.18,2.18,0,0,1,77.8,114.38Z"/><ellipse class="cls-9" cx="81.27" cy="101.38" rx="2.01" ry="1.96" transform="translate(-2.61 2.15) rotate(-1.49)"/><path class="cls-10" d="M55,17.17V77.58c4.89-.64,12.78-5.57,15-9.4,2.69-4.58,3.81-10.34,5.57-16.38,3.6-12.43.85-27.9,0.85-27.9C74.23,18.25,64.33,16.74,55,17.17Z"/></g></g></g></svg>