<svg xmlns="http://www.w3.org/2000/svg" xmlns:xlink="http://www.w3.org/1999/xlink" viewBox="0 0 83.56 108.71"><defs><style>.cls-1{fill:none;}.cls-2{fill:#698da3;}.cls-3{isolation:isolate;}.cls-4{clip-path:url(#clip-path);}.cls-5{fill:#efc8a4;}.cls-6{fill:#b1836e;opacity:0.4;}.cls-6,.cls-8{mix-blend-mode:multiply;}.cls-7{fill:#d4ab8b;}.cls-8{fill:#c4917a;opacity:0.2;}.cls-9{fill:#009b9f;}.cls-10{fill:#a25a35;}.cls-11{clip-path:url(#clip-path-2);}.cls-12{fill:#fff;}</style><clipPath id="clip-path" transform="translate(-49.72 -69.28)"><path class="cls-1" d="M147,149.69c0,14.61-12.27,26.45-27.42,26.45H64.76c-15.14,0-27.42-11.84-27.42-26.45V90.62c0-14.61,12.28-26.45,27.42-26.45h54.79C134.69,64.17,147,76,147,90.62v59.07Z"/></clipPath><clipPath id="clip-path-2" transform="translate(-49.72 -69.28)"><path id="_Clipping_Path_" data-name="&lt;Clipping Path&gt;" class="cls-2" d="M73.48,154.09s4.59,7.9,18.87,7,17.37-9.34,17.37-9.34,18.12,2.12,20.12,6.55S131.79,178,131.79,178H52.72s-2.5-16.76,2-20.8S73.48,154.09,73.48,154.09Z"/></clipPath></defs><title>female1</title><g class="cls-3"><g id="Layer_1" data-name="Layer 1"><g class="cls-4"><path class="cls-5" d="M72.07,105.7c-0.11-.39-1.41-3.26-3.89-3.23s0,5.37,1.4,9.11a10.06,10.06,0,0,0,3,4.5c0.67,0.47,1.24.57,1.58,0.24C75.05,115.49,72.07,105.7,72.07,105.7Z" transform="translate(-49.72 -69.28)"/><path class="cls-5" d="M103.77,123.69s-1.18,18.39,1.67,25.1c2,4.71,10.4,5.61,15.77,5.78,5.8,0.18,8.65,1.07,9.25,11.31,0.54,9.23.9,12.11,0.9,12.11l-77.51-.24s-2.42-16.85,1.79-20.29c4.74-3.88,19.85,2.79,23.67-10.44,2.36-8.19,1.16-30.23,1.16-30.23Z" transform="translate(-49.72 -69.28)"/><path class="cls-6" d="M80.61,126.91L81,131.52l24,17.59s-2.25-5.72-1.44-19.47S80.61,126.91,80.61,126.91Z" transform="translate(-49.72 -69.28)"/><path class="cls-7" d="M113.14,105.23c0.08-.39,1.18-3.29,3.59-3.47s0.35,5.22-.81,9-3.33,5.73-4.21,5S113.14,105.23,113.14,105.23Z" transform="translate(-49.72 -69.28)"/><path class="cls-5" d="M114.51,80.75s2.75,15.47-.85,27.89c-1.75,6-2.87,11.81-5.57,16.38-2.35,4-10.84,9.18-15.65,9.46-4.12.24-13.6-7-14.79-8.84-3.79-5.74-5-13.11-6.79-19.53-2.24-8,1-23.77,4.18-27.82S110.35,70,114.51,80.75Z" transform="translate(-49.72 -69.28)"/><path class="cls-8" d="M93.05,74.41v60.41c4.89-.64,12.78-5.57,15-9.4,2.69-4.58,3.82-10.35,5.57-16.38,3.6-12.43.85-27.89,0.85-27.89C112.32,75.48,102.42,74,93.05,74.41Z" transform="translate(-49.72 -69.28)"/><path class="cls-9" d="M103.43,100.63c-7.08.6-6.81,4.07-10.26,4.31-2.62.19-3.62-4.12-11.63-4-7.39.09-10.23,2.37-10.23,2.37L71.14,106a1.44,1.44,0,0,1,1.6,1.21c0.49,2.11,1.7,7.83,8.8,8.25A8.5,8.5,0,0,0,90.46,110c1.34-3.14,4-2.22,5-.06s3.51,5.66,9.28,5.24c6.64-.49,7.36-4.58,8.91-7.69,0.74-1.47,1.58-1.11,1.58-1.11l-0.43-2.12S111.28,100,103.43,100.63Zm-14.3,9.21c-1.08,2.39-3,4.58-7.38,4.34-4.52-.25-8.81-3.32-7.24-8.66,0.77-2.62,5.75-4.13,10.07-3.24S90.75,106.27,89.13,109.85Zm20.52,2.46c-2.87,2.46-8.54,2.31-10.87-.16s-1.9-6.3-.84-7.56c2.11-2.5,6.37-4,11.18-1.87C112.81,104.32,112.45,109.91,109.66,112.3Z" transform="translate(-49.72 -69.28)"/><path class="cls-10" d="M73.08,79.44s-2,8.67,9.78,15.41,19.57,3.66,23.36,2.7a40.46,40.46,0,0,1-10.58-7.71s0.6,1.16,6.79,4.43,9,1.54,9,1.54-4.79-2.31-3.59-6.36c3,5.78,7.06,6.2,7.49,9.92a27.41,27.41,0,0,1,.1,5.88s6.39-11.75.6-23.69C109.43,68,81.47,63.46,73.08,79.44Z" transform="translate(-49.72 -69.28)"/><path class="cls-10" d="M74.68,77.52s-7.39,1-7.19,11.37S70.66,102,70.66,102s-2.57-3.11,1.62-9.66S74.68,77.52,74.68,77.52Z" transform="translate(-49.72 -69.28)"/><path id="_Clipping_Path_2" data-name="&lt;Clipping Path&gt;" class="cls-2" d="M73.48,154.09s4.59,7.9,18.87,7,17.37-9.34,17.37-9.34,18.12,2.12,20.12,6.55S131.79,178,131.79,178H52.72s-2.5-16.76,2-20.8S73.48,154.09,73.48,154.09Z" transform="translate(-49.72 -69.28)"/><g class="cls-11"><polygon class="cls-12" points="0.3 90.93 81.77 87.75 81.92 90.06 0 92.52 0.3 90.93"/><polygon class="cls-12" points="0.45 94.83 82.07 94.54 82.52 97.14 0.75 96.27 0.45 94.83"/><path class="cls-12" d="M50.32,169.6l82.07-.29s0.6,2.74.15,2.6-82.37-.14-82.37-0.14Z" transform="translate(-49.72 -69.28)"/><polygon class="cls-12" points="0.15 104.65 83.56 105.23 83.26 106.97 1.2 106.97 0.15 104.65"/></g></g></g></g></svg>