<svg xmlns="http://www.w3.org/2000/svg" xmlns:xlink="http://www.w3.org/1999/xlink" viewBox="0 0 98.78 114.06"><defs><style>.cls-1{fill:none;}.cls-2{isolation:isolate;}.cls-3{clip-path:url(#clip-path);}.cls-4{fill:#945b31;}.cls-5{fill:#d4ab8b;}.cls-6{fill:#efc8a4;}.cls-7{fill:#b1836e;opacity:0.4;}.cls-7,.cls-9{mix-blend-mode:multiply;}.cls-8{fill:#db6933;}.cls-9{fill:#c4917a;opacity:0.2;}.cls-10{fill:#ae6b3c;}</style><clipPath id="clip-path"><path class="cls-1" d="M109.62,85.52c0,14.61-12.28,26.45-27.42,26.45H27.42C12.28,112,0,100.13,0,85.52V26.45C0,11.84,12.28,0,27.42,0H82.2c15.14,0,27.42,11.84,27.42,26.45V85.52Z"/></clipPath></defs><title>female5</title><g class="cls-2"><g id="Layer_1" data-name="Layer 1"><g class="cls-3"><path class="cls-4" d="M35.71,10.28S20,19.08,25.55,44.86c3.81,17.75,21.57,25.71,27,40.09s-3.81,13.77-3.81,13.77S83.93,88,84.24,59.24,65.52-2.27,35.71,10.28Z"/><path class="cls-5" d="M77.64,38c0.11-.45,1.35-3.78,3.75-3.83s0.05,6.18-1.31,10.51c-1.22,3.88.2,10.78-4.45,5.59C74.81,49.3,77.64,38,77.64,38Z"/><path class="cls-6" d="M66.5,60.52s-1.7,17.15.94,23.88c1.85,4.72,11.55,6.1,16.87,6.4,5.75,0.32,7.18,2,7.49,12.21,0.28,9.16.56,12,.56,12L13.92,113s0.14-15.52,4-20.19S37.47,96,41.62,83c2.57-8.06,2-29.93,2-29.93Z"/><path class="cls-7" d="M45.05,62.38L67.22,86.83s-2.38-18.53-1.39-26S45.05,62.38,45.05,62.38Z"/><path class="cls-8" d="M93.22,105.69c-0.48,0-35.66,1.24-49.16-4.19S29.13,90.81,29.13,90.34s-3.05,0-3.05,0-1.93,16.74-2.41,24.49,70.68,3.72,70.68,3.72Z"/><path class="cls-6" d="M34.94,37.57c-0.09-.47-1.22-3.93-3.67-4.07s-0.33,6.32.88,10.81a12.4,12.4,0,0,0,2.76,5.51c0.63,0.6,1.2.75,1.55,0.39C37.35,49.31,34.94,37.57,34.94,37.57Z"/><path class="cls-6" d="M78.22,18.9s2.39,15.39-1.46,27.64C72.4,60.47,63.51,71.41,55.17,71.72s-17.53-16-20.77-28.57c-2-7.93,1.85-21.58,5.11-25.53S74.33,8.15,78.22,18.9Z"/><path class="cls-9" d="M55.4,11.91V71.85c8.27-.5,17-11.36,21.37-25.17C80.61,34.43,78.22,19,78.22,19,76.23,13.54,65.67,11.78,55.4,11.91Z"/><path class="cls-8" d="M29,93.52s7-2.14,5.71-12.24S26.19,67.5,26.19,67.5a25.86,25.86,0,0,0-1,15.91C27.46,92.6,29,93.52,29,93.52Z"/><path class="cls-8" d="M13.82,81.58C4,81.28,2.4,85.87,2.4,85.87s15.23,7.65,23.79,8.26,2.94-3.79,2.94-3.79S23.65,81.89,13.82,81.58Z"/><path class="cls-10" d="M33.17,11.19S29.75,31,48.24,36.29c20.78,6,24.9,9.49,24.9,9.49s1.11-7.19-1-12.4a20.27,20.27,0,0,0-9.52-10.87s12.06,6.12,14.28,20.2S73.46,76.07,55.69,89.85c-15.28,11.85-9.68,25.4,5.39,26.93,12.06,1.22,18.08-12.55,18.08-12.55s-9.2,4.28-7.3-5.51S93.12,74.54,90.27,40,49-2.27,33.17,11.19Z"/></g></g></g></svg>