<svg xmlns="http://www.w3.org/2000/svg" xmlns:xlink="http://www.w3.org/1999/xlink" viewBox="0 0 109.62 116.41"><defs><style>.cls-1{fill:none;}.cls-2{isolation:isolate;}.cls-3{clip-path:url(#clip-path);}.cls-4{fill:#7a4d0a;}.cls-5{fill:#efc8a4;}.cls-6{fill:#b1836e;opacity:0.4;}.cls-6,.cls-8{mix-blend-mode:multiply;}.cls-7{fill:#d4ab8b;}.cls-8{fill:#c4917a;opacity:0.2;}.cls-9{fill:#a96d1f;}.cls-10{fill:#db6933;}</style><clipPath id="clip-path"><path class="cls-1" d="M109.62,85.52c0,14.61-12.28,26.45-27.42,26.45H27.42C12.28,112,0,100.13,0,85.52V26.45C0,11.84,12.28,0,27.42,0H82.21c15.14,0,27.42,11.84,27.42,26.45V85.52Z"/></clipPath></defs><title>female2</title><g class="cls-2"><g id="Layer_1" data-name="Layer 1"><g class="cls-3"><path class="cls-4" d="M28.55,35.89c-0.54,1.05-9.19,32.94,15,37.18s39.93-7.32,39.93-27.55S36.74,19.9,28.55,35.89Z"/><path class="cls-5" d="M63.63,61.06S62.4,78.4,65.25,85.12c2,4.71,11.81,5.85,17.18,6,5.8,0.18,7.29,1.88,7.89,12.12,0.54,9.23.9,12.11,0.9,12.11l-77.51-.24S11.3,98.27,15.5,94.83C20.25,91,35.35,97.62,39.17,84.39c2.36-8.19,1.16-30.22,1.16-30.22Z"/><path class="cls-5" d="M30.53,36.49c-0.12-.47-1.47-3.89-3.95-3.89S26.63,39,28.12,43.43a12.62,12.62,0,0,0,3.12,5.4c0.67,0.57,1.25.69,1.59,0.3C33.66,48.16,30.53,36.49,30.53,36.49Z"/><path class="cls-6" d="M40.48,64.28l0.43,4.61,24,17.59S62.65,80.76,63.47,67,40.48,64.28,40.48,64.28Z"/><path class="cls-5" d="M74.37,18.13s2.75,15.47-.85,27.9c-1.75,6-2.87,11.81-5.57,16.38-2.35,4-10.84,9.18-15.65,9.46-4.12.24-13.6-7-14.79-8.84-3.79-5.74-5-13.11-6.79-19.53-2.24-8,1-23.77,4.18-27.82S70.21,7.36,74.37,18.13Z"/><path class="cls-7" d="M74.63,36.57c0.08-.46,1.13-3.89,3.54-4.07s0.43,6.21-.67,10.65S74.25,49.91,73.37,49,74.63,36.57,74.63,36.57Z"/><path class="cls-8" d="M52.91,11.78V72.19c4.89-.64,12.79-5.57,15-9.4,2.69-4.58,3.81-10.35,5.57-16.38,3.6-12.43.85-27.89,0.85-27.89C72.19,12.86,62.28,11.35,52.91,11.78Z"/><path class="cls-9" d="M33.15,13.93s5.19,10.79,23.76,17.72S82.27,46.48,76.28,58.42s-9.78,12.14-9.78,12.14,29.35-4.43,23.76-38.33S47.92-2.26,33.15,13.93Z"/><path class="cls-9" d="M40.34,72.87s-18.17-4-20-29.67S33.15,13.93,33.15,13.93s5.39,6.93,2.4,14.45S18.17,57.27,40.34,72.87Z"/><path class="cls-10" d="M24,93.87s9,17.34,30.15,16.18A32.77,32.77,0,0,0,82.43,91.13s7.63-2.08,8.63,11.6l1,13.68L12,116.21s-1.4-10.79,1-17.53S22.16,93.29,24,93.87Z"/></g></g></g></svg>