<svg xmlns="http://www.w3.org/2000/svg" xmlns:xlink="http://www.w3.org/1999/xlink" viewBox="0 0 105.46 113.45"><defs><style>.cls-1{fill:none;}.cls-2{isolation:isolate;}.cls-3{clip-path:url(#clip-path);}.cls-4{fill:#efc8a4;}.cls-5{fill:#b1836e;opacity:0.4;}.cls-10,.cls-5{mix-blend-mode:multiply;}.cls-6{fill:#945f2a;}.cls-7{fill:#c59580;}.cls-8{fill:#b27336;}.cls-9{fill:#3e8fa3;}.cls-10{fill:#c4917a;opacity:0.2;}.cls-11{fill:#e2bb5d;}</style><clipPath id="clip-path"><path class="cls-1" d="M107.88,82.84c0,14.61-12.28,26.45-27.42,26.45H25.68c-15.14,0-27.42-11.84-27.42-26.45V23.77c0-14.61,12.28-26.45,27.42-26.45H80.46c15.14,0,27.42,11.84,27.42,26.45V82.84Z"/></clipPath></defs><title>female6</title><g class="cls-2"><g id="Layer_1" data-name="Layer 1"><g class="cls-3"><path class="cls-4" d="M61,50.89S60.21,68.53,62.15,76s16.62,7.75,16.62,7.75-1.29,26.9-30.38,26.63S22,85.9,22,85.9s15.23,2.94,18.56-6.41-2.22-30.73-2.22-30.73Z"/><path class="cls-5" d="M41.54,56.83L62.46,100a24.55,24.55,0,0,0,6.32-8.71c2.11-5.23.84-8.81,0.84-8.81S63.06,80.49,62.15,76A118.05,118.05,0,0,1,60.5,58.28Z"/><path class="cls-6" d="M30.9,63.6s5-4.71,19.59-5.08,21.36,5.74,21.36,5.74,6.31-18.16-1.06-34.43-36.9-9.72-37.48-9.72S25,30.71,24.57,31.27,24,54.29,30.9,63.6Z"/><path class="cls-7" d="M29.67,30.72c-2.4.56-4.5,8.69-1,14.51S31.58,42,31.58,42Z"/><path class="cls-4" d="M28,24.32A56.78,56.78,0,0,0,32.9,50.9c3.1,6.36,14.5,16,17.31,16.41,4.48,0.63,17-8.82,20.41-15.3a48.6,48.6,0,0,0,4.22-28.95C71.33,2.45,29.77,4.25,28,24.32Z"/><path class="cls-8" d="M64.28,8.3s-2.44,6.74-12.86,13C40.61,27.78,41,31.23,29.3,34.75c0,0-3.57,10.26-.57,18.21s5.44,14.37,5.44,14.37-17-9.45-14.28-36.87S53.7-1.43,64.28,8.3Z"/><path class="cls-8" d="M67.55,11.92s1.91,13,6.39,20.3a70.67,70.67,0,0,1,6,11.71S79.14,15.66,67.55,11.92Z"/><path class="cls-8" d="M22.66,35.85s1.15,15.06,7,23.42,12.6,11.47,12.6,11.47-14.42-14-14.95-24.2-0.12-11.76-.12-11.76Z"/><path class="cls-9" d="M37.63,83.25S36.81,102,54,101.55c16-.44,15.59-19.12,15.59-19.12H83.51s12.64-11.62,9,34.85c-0.42,5.44-79.89.55-79.89,0.55s-1.2-1.16-1.5-8.57C9.66,72.79,21.22,84,21.22,84Z"/><path class="cls-10" d="M51.32,8.57V67.41c5.23-.87,16.06-9.3,19.14-15.25a48.62,48.62,0,0,0,4.22-28.95C73,13.12,62.14,8.4,51.32,8.57Z"/><path class="cls-8" d="M64.48,8.12s15.09,3.69,16.89,22.4C83,47.05,68.78,69.64,68.38,70.2s9.51-19.39,2.52-34.53S60.11,13.51,64.48,8.12Z"/><path class="cls-8" d="M63.29,9.48s-4.67,15.22-23,24.17-26.67,7.68-26.67,7.68,18-6.8,24.88-19.35S53.16,5.09,53.16,5.09,58.53,3.44,63.29,9.48Z"/><path class="cls-8" d="M64.64,13.21s1.25,17.63,8.61,26.19S84.89,49.66,84.89,49.66s-5.25-13.38-9.63-24.39S64.64,13.21,64.64,13.21Z"/><path class="cls-11" d="M43.75,95.5L37,96.91l0-.25-6.82.19,0,0.27-5.4-.8-0.45,8.22,6.27-3.39,0,0.45,0.59,0.07c-0.84,2.73-2.9,9.66-2.9,9.66l3.43-.85L31,115.39l8.36,2.23L36.05,102.2l1.47,0.17,0-.39,5.75,3.48Zm-10.58,6.65,0-.27h0.08Z"/></g></g></g></svg>