<svg xmlns="http://www.w3.org/2000/svg" xmlns:xlink="http://www.w3.org/1999/xlink" viewBox="0 0 106.21 118.83"><defs><style>.cls-1{fill:none;}.cls-2{isolation:isolate;}.cls-3{clip-path:url(#clip-path);}.cls-4{fill:#a25a35;}.cls-5{fill:#efc8a4;}.cls-10,.cls-6{fill:#b1836e;}.cls-6{opacity:0.4;}.cls-6,.cls-7{mix-blend-mode:multiply;}.cls-7{fill:#c4917a;opacity:0.2;}.cls-8{fill:#d7836f;}.cls-9{fill:#fff;}</style><clipPath id="clip-path"><path class="cls-1" d="M109.62,85.53c0,14.61-12.28,26.45-27.42,26.45H27.42C12.28,112,0,100.13,0,85.53V26.45C0,11.84,12.28,0,27.42,0H82.2c15.14,0,27.42,11.84,27.42,26.45V85.53Z"/></clipPath></defs><title>female7</title><g class="cls-2"><g id="Layer_1" data-name="Layer 1"><g class="cls-3"><ellipse class="cls-4" cx="54.81" cy="11.42" rx="12.28" ry="10.11"/><path class="cls-4" d="M31.45,43.21s-7.73-18.07,1.8-26.87c14.08-13,40.06-7.8,45.53,7.22,3.89,10.69-1.8,20.8-1.8,20.8s1.5-25.14-19.77-24.85S31.45,43.21,31.45,43.21Z"/><path class="cls-5" d="M64.8,69.41s-1.71,17.3,1,24.09c1.86,4.76.64,7.36,17,6.46,5.8-.32,7.24,2.07,7.56,12.31,0.28,9.24.57,12.13,0.57,12.13l-79.12-2.11s0.86-13.4,4.71-18.11,17.67,5.49,23.23-12.07c2.57-8.13,2-30.18,2-30.18Z"/><path class="cls-6" d="M41.46,70.61C41.53,71.43,56.11,90.5,61.7,94.16S68.49,97,68.49,97s-4.59.19-4.39-16.37,1-17.53,1-17.53Z"/><path class="cls-5" d="M79.89,42.61c-1.47.08-2.46,1.38-3,2.48a80.2,80.2,0,0,0-1.38-18.74c-4.39-13.48-34.35-13.48-40.14-4.24-2,3.18-3.73,13.31-3.73,21.68a3.57,3.57,0,0,0-2.71-1.67c-2.48,0-.07,6.38,1.33,10.87a12.59,12.59,0,0,0,3,5.45,1.27,1.27,0,0,0,1.45.44C39,69.9,46.5,81,53.43,80.71,61.49,80.4,70,70.22,74.6,57A3.88,3.88,0,0,0,74.75,59c0.87,0.9,3.06-1.38,4.25-5.8S82.31,42.48,79.89,42.61Z"/><path class="cls-7" d="M79.49,42.61c-1.47.08-2.46,1.38-3,2.48a80.2,80.2,0,0,0-1.38-18.74c-2.4-7.36-12.42-10.71-22-10.72V80.71c8-.38,16.54-10.54,21.08-23.72A3.88,3.88,0,0,0,74.35,59c0.87,0.9,3.06-1.38,4.25-5.8S81.91,42.48,79.49,42.61Z"/><path class="cls-8" d="M35,99.26a35.61,35.61,0,0,0,17.37,4.33,34.52,34.52,0,0,0,16.77-5.2s21.77,0.43,23.36,4C95,108,94.95,125,94.95,125l-83.18-.58s-1.88-20.52,1.71-22.54S35,99.26,35,99.26Z"/><path class="cls-9" d="M38,93.77s0.9,2.6,6.59,6.64,8.44,3.18,8.44,3.18L44.93,112,35,99.26Z"/><path class="cls-9" d="M53.06,103.6l8.64,7.8,8.44-12.57L68,94.64S58.76,102.15,53.06,103.6Z"/><path class="cls-4" d="M32,18.65c-4.49,5.2,2.4,20.8,2.4,20.8l7.76,0.11,0.65-4.41L45.2,39.5,77.28,40s3.29-15.89-4.88-22.26C58.57,7,32,18.65,32,18.65Z"/><polygon class="cls-6" points="22.77 125.94 23.86 106.63 25.56 126.33 22.77 125.94"/><polygon class="cls-10" points="79.87 129.41 81.82 106.92 83.47 129.03 79.87 129.41"/><polygon class="cls-9" points="52.42 103.74 53.22 123 56.01 123.39 54.01 103.74 52.42 103.74"/></g></g></g></svg>