<svg xmlns="http://www.w3.org/2000/svg" xmlns:xlink="http://www.w3.org/1999/xlink" viewBox="0 0 109.99 113"><defs><style>.cls-1{fill:none;}.cls-2{isolation:isolate;}.cls-3{clip-path:url(#clip-path);}.cls-4{fill:#efc8a4;}.cls-5{fill:#b1836e;opacity:0.4;}.cls-5,.cls-7{mix-blend-mode:multiply;}.cls-6{fill:#d4ab8b;}.cls-7{fill:#c4917a;opacity:0.2;}.cls-8{fill:#694521;}.cls-9{fill:#abbe4a;}</style><clipPath id="clip-path"><path class="cls-1" d="M110,85.53C110,100.13,97.71,112,82.57,112H27.79C12.64,112,.37,100.13.37,85.53V26.45C0.37,11.84,12.64,0,27.79,0H82.57C97.71,0,110,11.84,110,26.45V85.53Z"/></clipPath></defs><title>male2</title><g class="cls-2"><g id="Layer_1" data-name="Layer 1"><g class="cls-3"><path class="cls-4" d="M104.75,108.12c-0.19-3.56-6.11-10.44-12-11.78-12.5-2.84-20.29-6.48-20.87-10.22s-0.42-25.94-.42-25.94l-32.27.76S40.33,79.33,35,85.73,9.56,97.25,8.23,102.23c-2.4,8.93-5.28,6.06-5.28,6.06Z"/><path class="cls-5" d="M41.05,71.33s17.07,37.8,17.22,38.24S77.74,91.08,77.74,91.08s-4.8-1-5.39-4C71.41,82.21,71,67.43,71,67.43Z"/><path class="cls-6" d="M82.75,43.58c-0.86-.78-5.58-0.59-6.68-0.15s-2.94,11.3-2.94,11.3-0.22,3.8,2.59,4c1.45,0.09,5.25-1.23,6.49-4,2.23-4.92,2.19-6.64,2.18-7.65A8.09,8.09,0,0,0,82.75,43.58Z"/><path class="cls-4" d="M75.23,36.07c-0.06,1.31,4.41,7,3.55,11s-2.85,11.32-3.63,13.57c-1.58,4.58.32,3.4-5.8,9.8-2.33,2.44-6.83,7.54-9.78,8.09s-8.64,1.2-10.58.38-10.35-8.54-12-11c-1-1.47-.76-8.49-3-15.4-2.11-6.65-1.39-7.49-1.53-10s-2.14-7.59-1.36-13S29.62,20,38.29,17.35,63,12,68.94,16.71,75.23,36.07,75.23,36.07Z"/><path class="cls-4" d="M32.58,44.2a10.06,10.06,0,0,0-5.18.2c-1.17.61-1.86,1.85-2,4.14-0.05,1.21,2.74,9.67,5.63,10.89,1.54,0.65,5.18.8,6.41-1a3.51,3.51,0,0,0,.57-3.27L35.57,45Z"/><path class="cls-7" d="M53.69,14.39c6.17-.53,12.09-0.09,15.23,2.36,6,4.66,6.29,19.36,6.29,19.36-0.06,1.31,4.41,7,3.55,11s-2.85,11.32-3.62,13.57c-1.58,4.58.32,3.4-5.8,9.8C67,72.88,62.5,78,59.54,78.53a50.84,50.84,0,0,1-5.85.71V14.39Z"/><path class="cls-8" d="M78.49,44.41s7-20.52,2.84-28.32A11.74,11.74,0,0,0,69.21,9.79S59.62,1.07,44.35,5.55,24.28,18.12,26.23,29.67s5,14.82,5,14.82l1.58,0.06s-0.6-9.25.9-13.58,6.89-6.07,6.89-6.07a15.34,15.34,0,0,1-2.4,4.62c-1.5,1.73-2.1,1.88-2.1,1.88s6.44,0.87,17.37-3,14.08-6.93,14.08-6.93a8.49,8.49,0,0,1,4.64,5.78C73.4,31.7,75.79,41.38,78.49,44.41Z"/><path class="cls-9" d="M108.17,112.91S107.25,99,103,97.25s-25.11-7.72-27.41-7.76-1,4.43-9.39,10.82c-8.67,6.61-20.11,1.66-25.46-2.54-3.48-2.72-7.79-9.61-7.79-9.61S7,95.34,3.65,97.06s-3.78,15-3.62,15.59S108.17,112.91,108.17,112.91Z"/></g></g></g></svg>