<svg xmlns="http://www.w3.org/2000/svg" xmlns:xlink="http://www.w3.org/1999/xlink" viewBox="0 0 100.42 111.98"><defs><style>.cls-1{fill:none;}.cls-2{fill:#ada94b;}.cls-3{isolation:isolate;}.cls-4{clip-path:url(#clip-path);}.cls-5{fill:#5e4936;}.cls-6{fill:#7c634b;}.cls-7{fill:#efc8a4;}.cls-8{fill:#b1836e;opacity:0.4;}.cls-11,.cls-12,.cls-8{mix-blend-mode:multiply;}.cls-9{fill:#cd9377;}.cls-10{fill:#e2b495;}.cls-11{fill:#c4917a;opacity:0.2;}.cls-12{fill:#e4e5e6;}.cls-13{clip-path:url(#clip-path-2);}.cls-14{fill:#788235;}</style><clipPath id="clip-path"><path class="cls-1" d="M105,85.52C105,100.13,92.68,112,77.54,112H22.75C7.61,112-4.67,100.13-4.67,85.52V26.45C-4.67,11.84,7.61,0,22.75,0H77.54C92.68,0,105,11.84,105,26.45V85.52Z"/></clipPath><clipPath id="clip-path-2"><path id="_Clipping_Path_" data-name="&lt;Clipping Path&gt;" class="cls-2" d="M29.56,86.14S36,95.35,53.33,94.07s19.55-5.36,19.55-5.36,17.55,2.14,23.33,8.79,12.44,23,12.44,23l-87.47.73-27.5.23s5.44-17.79,11.44-24.43S29.56,86.14,29.56,86.14Z"/></clipPath></defs><title>male5</title><g class="cls-3"><g id="Layer_1" data-name="Layer 1"><g class="cls-4"><path class="cls-5" d="M60.69,77c0.45,0,10.84-11.86,12.77-3.75,0.33,1.4,3.89-20.15,3.67-20.58s-11.22,2.79-11.55,2.9S60.69,77,60.69,77Z"/><path class="cls-6" d="M33.09,6.54a112.27,112.27,0,0,0-10.9,9.53c-4.2,4.42-4.08,23-1.37,34.31S31.92,76.44,31.92,76.44s0.29-10.93,1.26-14.62,37.48-8.34,37.48-8.34,3.57,6.88,3.47,12.73-0.42,7.09-.42,7.09a60.51,60.51,0,0,0,6.57-24.67c0.39-13.5.87-23.72-10.08-33.81S51.61,3.76,47.59,3.42,36.75,4.12,33.09,6.54Z"/><path class="cls-7" d="M32.17,66.5s0.86,13.19,0,18.45-2.1,4.55-11.37,9.58S8.27,120.76,8.27,120.76l91.17-3.28S92.47,101.24,87.9,97,75.17,93.69,73,91.52,69,59.67,69,59.67Z"/><path class="cls-8" d="M33,73.26L54.13,95.69a35.93,35.93,0,0,0,10.62-1.44C71.34,92.52,72.34,91,72.34,91s-2.79-12.71-2.6-20.81S33,70.94,33,70.94v2.31Z"/><path class="cls-9" d="M77.62,39.54c1.36,2.37.19,10.29-2.06,10.93a5.26,5.26,0,0,1-3.55,0L70.29,38.74S76.29,37.22,77.62,39.54Z"/><path class="cls-10" d="M22.8,40C21.28,42.39,22.6,50.31,25.09,51a6.47,6.47,0,0,0,4,0L31,39.22S24.29,37.7,22.8,40Z"/><path class="cls-7" d="M72.76,32s0.45,4.91.57,7.73,2,18.47,1.33,21.71S60.38,78,58.45,80.1s-12.11.52-13.67-.36S28.63,68.46,27.88,65.28s-0.76-23.82-.81-27.73,0.42-19,4.39-22.32,19.47-5.78,31.6-1.15C69.78,16.63,72.88,28.1,72.76,32Z"/><path class="cls-11" d="M72.61,32.44c0.11-3.9-3-15.37-9.71-17.93a40.63,40.63,0,0,0-11.38-2.41V81.47c2.92,0.22,5.84.07,6.78-.94,1.93-2.06,15.51-15.41,16.22-18.65S73.32,43,73.19,40.17,72.61,32.44,72.61,32.44Z"/><path class="cls-12" d="M27.26,52.36s0.19,12.34.75,13.44,14.63,12.94,16.52,14,10.81,2.35,13.33.54c1.6-1.15,6-5.57,10.73-11C72.45,65,74.86,62.53,75,61.17s-0.9-10.69-.9-10.69-7.79,4.19-10,7.08c-0.3.58,2.07,7.49-2.91,11s-7.15.75-14.76,1.47S39.16,68,37.25,66s-0.56-7.91-.56-7.91S30.3,52.94,27.26,52.36Z"/><path id="_Clipping_Path_2" data-name="&lt;Clipping Path&gt;" class="cls-2" d="M29.56,86.14S36,95.35,53.33,94.07s19.55-5.36,19.55-5.36,17.55,2.14,23.33,8.79,12.44,23,12.44,23l-87.47.73-27.5.23s5.44-17.79,11.44-24.43S29.56,86.14,29.56,86.14Z"/><g class="cls-13"><path class="cls-14" d="M22.39,105.62c5.19-2.31,7.29-3.56,24.46-3.18s27.86-2.6,35,1.64,4.39,19.65,4.39,19.65l-37.14,1.93a14.6,14.6,0,0,0-4.09-14.83C34.85,100.83,22.39,105.62,22.39,105.62Z"/><ellipse class="cls-14" cx="31.28" cy="118.72" rx="8.99" ry="8.67"/></g><path class="cls-6" d="M37.15,6.7S25.62,13.06,20.22,28.81s-1,27.45-1,27.45l5.91-17.43,0.08,6.74s3.44-6.65,7.49-16.9,3.14-15,3.14-15,0.6,5.78,12.28,12.43S73.84,40.51,73.84,40.51L78.48,60.3S80,47,80,43.11a28,28,0,0,0,9.44,2,194,194,0,0,1-18.57-26C62.91,5.4,38.49,7,37.15,6.7Z"/></g></g></g></svg>