<svg xmlns="http://www.w3.org/2000/svg" xmlns:xlink="http://www.w3.org/1999/xlink" viewBox="0 0 109.62 114.45"><defs><style>.cls-1{fill:none;}.cls-2{isolation:isolate;}.cls-3{clip-path:url(#clip-path);}.cls-4{fill:#efc8a4;}.cls-5{fill:#73aaaf;}.cls-6{fill:#b3b5b8;}.cls-11,.cls-6,.cls-7{mix-blend-mode:multiply;}.cls-7{fill:#b1836e;opacity:0.4;}.cls-8{fill:#d4ab8b;}.cls-9{fill:#7c6248;}.cls-10{fill:#6f4f3b;}.cls-11{fill:#c4917a;opacity:0.2;}.cls-12{fill:#427678;}</style><clipPath id="clip-path"><path class="cls-1" d="M109.62,85.52c0,14.61-12.28,26.45-27.42,26.45H27.42C12.28,112,0,100.13,0,85.52V26.45C0,11.84,12.28,0,27.42,0H82.2c15.14,0,27.42,11.84,27.42,26.45V85.52Z"/></clipPath></defs><title>male6</title><g class="cls-2"><g id="Layer_1" data-name="Layer 1"><g class="cls-3"><path class="cls-4" d="M105.48,107.44c-0.19-3.56-6.11-10.44-12-11.78C81,92.83,73.18,89.18,72.61,85.44s-0.42-25.94-.42-25.94l-32.27.76s1.14,18.38-4.19,24.78S10.29,96.58,9,101.56c-2.4,8.93-5.28,6.06-5.28,6.06Z"/><path class="cls-5" d="M106.51,112.24s1.47-13.95-2.79-15.66S78.6,88.86,76.3,88.81s-1.73.59-10.11,7c-8.67,6.61-19.38,5.49-24.74,1.3-3.48-2.72-7.79-9.61-7.79-9.61s-26,7.18-29.29,8.9S0.6,111.41.76,112,106.51,112.24,106.51,112.24Z"/><polygon class="cls-6" points="32.92 88.57 40.44 108.08 57.36 102.3 72.03 107.35 79.22 89.58 54.81 100.27 32.92 88.57"/><path class="cls-7" d="M41.78,70.66S55.9,99.48,56.05,99.91,72.61,85.44,72.61,85.44L71.73,66.76Z"/><path class="cls-8" d="M83.48,42.9c-0.86-.78-5.57-0.59-6.68-0.15s-2.95,11.3-2.95,11.3-0.22,3.8,2.6,4c1.45,0.09,5.25-1.23,6.49-4,2.23-4.92,2.19-6.64,2.18-7.65A8.07,8.07,0,0,0,83.48,42.9Z"/><path class="cls-4" d="M76,35.39c-0.06,1.31,4.41,7,3.55,11s-2.85,11.32-3.63,13.57c-1.58,4.58.32,3.4-5.8,9.8-2.34,2.44-6.83,7.54-9.79,8.09s-8.64,1.2-10.58.38-10.35-8.54-12-11c-1-1.47-.76-8.49-3-15.39-2.11-6.65-1.39-7.49-1.53-10S35,33.64,35.74,28.23,30.35,19.35,39,16.67s24.69-5.3,30.65-.64S76,35.39,76,35.39Z"/><path class="cls-4" d="M33.31,43.53a10.07,10.07,0,0,0-5.18.2c-1.17.61-1.86,1.85-2,4.14-0.05,1.21,2.74,9.67,5.63,10.89,1.54,0.65,5.18.8,6.41-1a3.51,3.51,0,0,0,.57-3.27L36.3,44.3Z"/><path class="cls-9" d="M48,36.4c-0.27-.65-4.19-1.65-7.14-1.06s-4.16,2.14-4.44,2.87a25.2,25.2,0,0,0-.65,3,7.19,7.19,0,0,1,3.34-3.4c2.36-1.08,2.33-1.25,4.7-1.61C46.77,35.7,48,36.4,48,36.4Z"/><path class="cls-10" d="M70.27,15.4S64.13,27.25,59,33.9,52.75,41,52.75,41,58,25.52,70.27,15.4Z"/><polygon class="cls-5" points="74.25 83.3 56.05 99.91 68.26 108.22 78.74 88.64 74.25 83.3"/><polygon class="cls-5" points="35.61 82.29 32.32 88.57 42.58 107.86 54.81 100.27 35.61 82.29"/><path class="cls-11" d="M54.42,13.72c6.17-.53,12.09-0.09,15.23,2.36,6,4.66,6.29,19.36,6.29,19.36-0.06,1.31,4.41,7,3.55,11S76.64,57.72,75.86,60c-1.58,4.58.32,3.4-5.8,9.8-2.34,2.44-6.83,7.54-9.78,8.09a50.53,50.53,0,0,1-5.85.71V13.72Z"/><path class="cls-12" d="M42.31,38.53c8.12,0.21,9.26,1.58,12.83,1.67,2.71,0.07,5.16-2.17,12.78-2.54S80,39.34,80,39.34l0.4,1.77L78,43.52c-1.57,1.57-2.09,8.21-10.69,8.56C60,52.38,59,49,57.46,45.85s-3.23-1.48-4.17.79S52.41,52.5,43.69,53c-6.87.39-8.26-3.71-9.92-6.89s-2.6-3.8-2.6-3.8l0-1.61S34.18,38.32,42.31,38.53Zm17.26,8.23c1.79,3.65,3.16,4.1,7.83,4.13s9.57-3,7.83-10.17c-0.38-1.57-8-1.93-12.5-1.18C57.75,40.38,57.77,43.12,59.56,46.76ZM38.27,50.28c2.37,1.86,9.33,1.77,11.62-.88s2.83-6.71,1.57-7.87c-1.77-1.65-9.25-2-13.54-.85C33.9,41.77,35.9,48.42,38.27,50.28Z"/><path class="cls-10" d="M71.28,8.82A31.34,31.34,0,0,0,44.63,5.21C29.2,10,24,18.65,29.5,35.4s5.24,12.28,5.24,12.28S48.52,38.15,52.41,34.1s3.74-4.77,3.74-4.77a16.69,16.69,0,0,1-2.1,6.21C52.41,38,52,38.73,52,38.73A37.09,37.09,0,0,0,62.75,28.47a58.37,58.37,0,0,0,7.13-12.25s5.3,12.82,5.6,16.73,4,11,4,11,5.63-13.15,3.94-24.06S71.28,8.82,71.28,8.82Z"/></g></g></g></svg>