<?xml version="1.0" encoding="utf-8"?>
<!-- Generator: Adobe Illustrator 19.2.1, SVG Export Plug-In . SVG Version: 6.00 Build 0)  -->
<!DOCTYPE svg PUBLIC "-//W3C//DTD SVG 1.1//EN" "http://www.w3.org/Graphics/SVG/1.1/DTD/svg11.dtd">
<svg version="1.1" id="Layer_1" xmlns="http://www.w3.org/2000/svg" xmlns:xlink="http://www.w3.org/1999/xlink" x="0px" y="0px"
	 viewBox="0 0 117 119.8" style="enable-background:new 0 0 117 119.8;" xml:space="preserve">
<style type="text/css">
	.st0{clip-path:url(#SVGID_2_);}
	.st1{fill:#EFC8A4;}
	.st2{opacity:0.4;fill:#B1836E;enable-background:new    ;}
	.st3{fill:#D4AB8B;}
	.st4{fill:#959187;}
	.st5{opacity:0.2;fill:#C4917A;enable-background:new    ;}
	.st6{fill:#7B593C;}
	.st7{opacity:0.2;fill:#A47966;enable-background:new    ;}
</style>
<title>male4</title>
<g>
	<g id="Layer_1_1_">
		<g>
			<defs>
				<path id="SVGID_1_" d="M112.4,88.8c0,14.6-12.3,26.4-27.4,26.4H30.2c-15.1,0-27.4-11.8-27.4-26.4V29.7
					c0-14.6,12.3-26.4,27.4-26.4H85c15.1,0,27.4,11.8,27.4,26.5L112.4,88.8L112.4,88.8z"/>
			</defs>
			<clipPath id="SVGID_2_">
				<use xlink:href="#SVGID_1_"  style="overflow:visible;"/>
			</clipPath>
			<g class="st0">
				<path class="st1" d="M39.3,59.4c-0.2,0.1-1.7,16.7-5,23.6s-22.7,12-23.4,13S4,119,4.4,119.8s121.8-1.8,121.8-1.8
					s-2.4-13-11.3-20.3S89.5,86,88.3,82.4s-7.5-24.8-7.5-24.8L39.3,59.4z"/>
				<path class="st2" d="M37.2,69.1l21.4,27.3c7.1,2.8,15.1,2.1,21.6-1.9c11.1-6.8,11.1-9.2,11.1-9.2s-2.6-1.4-3.1-3
					s-5.2-17.5-5.2-17.5L37.2,69.1z"/>
				<path class="st3" d="M83,35.3c0.8-0.6,2.7-2.3,3.4-2.8s2.4,0.2,2.3,0.9s-1.1,3.8-0.7,5.9s0.7,3.5,0.3,4.3s-2.6,4.2-4,4.4
					c-0.9,0.1-1.8-0.2-2.4-0.8L83,35.3z"/>
				<path class="st1" d="M35.5,35.6c0,0-1.2-2.4-2.7-3s-1.7-0.4-2.2,0.2s-0.3,5.3-0.2,8.2s0.7,3.8,2.5,5.8s3.5,4.5,5,4.4
					S35.5,35.6,35.5,35.6z"/>
				<path class="st1" d="M39.7,17.1c-2.9,3.8-4.1,13.1-4.3,16.6c-0.4,5.6,0.3,19.4,0,22.4s0.1,4.1,2.1,6S49.2,72.7,50,73.6
					s19.6,0.8,22.1-0.8s13.6-10.7,13.9-14.2s-1.8-11.9-1.8-12.8s-0.5-5.3-0.5-6.5s-0.5-3.5-1.4-8.8s-4.6-13.2-4.6-13.2
					s-4.2-8.6-19.1-8C46.2,9.8,42,14.2,39.7,17.1z"/>
				<path class="st4" d="M33.7,84.3c0,0,8,11.9,30.3,10.9s27.4-10.7,27.4-10.7s24.5,6.7,32.4,13.4s11.1,19.5,11.1,19.5L-6,118.4
					c0,0,1.7-13.3,7.4-19.5S33.7,84.3,33.7,84.3z"/>
				<path class="st5" d="M83.7,39.3c0-1.3-0.5-3.5-1.4-8.8s-4.6-13.2-4.6-13.2s-4.9-8.7-17.4-8.2l0.2,65c5.1-0.1,10.4-0.6,11.6-1.3
					c2.5-1.5,13.6-10.7,13.9-14.2s-1.8-11.9-1.8-12.8S83.6,40.5,83.7,39.3z"/>
				<path class="st6" d="M86.9,64.6c-0.4-5.5-1.1-11-2.2-16.5c0,0-1.6,8.8-4.4,12c-0.3,0.3-2.8,3.2-7.2-1.2
					c-1.3-1.3-4.6-3.1-9.8-3.1s-7.5,0.2-10,1.3c-1.9,0.8-4.4,3.6-7,5.3c-1.5,1-3,1.7-5.7-0.2c-2.2-1.5-5.1-12.5-5.1-12.5
					c0,0.3-0.9,6.6-1.3,11.1c-0.8,9.3,2,18.6,7.9,25.8c9.8,11.7,16.1,11.6,17,18c0.5,4.3-5.3,7.3-5.3,7.3s6.1,3.4,15.5-2.6
					C83.9,100.2,88.1,83.8,86.9,64.6z M61.3,62.1c8.8-0.4,11.7,2.4,12.3,3c-2.4,1.5-4.8,2.6-5.9,2.7C67,68,66.3,67.6,66.2,67
					c-0.1-0.2-0.1-0.5,0-0.8l-8.8,0.1c0.1,0.5,0.2,0.9,0.2,1.4c0,0.4-5,0.4-7.7-1.6C52,64.3,55.6,62.4,61.3,62.1z"/>
				<path class="st6" d="M60.7,14.6c-3,0-6-0.8-8.6-2.4C50,10.7,48.6,9,52.5,6s14.1-2.2,14.1-2.2s-3.3,0.6-1.2,3.5s6.7,2.8,4.1,4.2
					C66.7,12.9,63.7,13.9,60.7,14.6z"/>
				<path class="st7" d="M84.7,48.3c0,0-1.6,8.8-4.4,12c-0.3,0.3-2.8,3.2-7.2-1.2c-1.3-1.3-4.6-3.1-9.8-3.1c-1.1,0-2.1,0-3,0v6.4
					l1-0.1c8.8-0.4,11.7,2.4,12.3,3c-2.4,1.5-4.8,2.7-5.9,2.7c-0.6,0.2-1.3-0.2-1.5-0.8c-0.1-0.2-0.1-0.5,0-0.8l-5.9,0.1V113
					c3.2-0.5,6.2-1.6,8.9-3.4c14.7-9.3,18.9-25.6,17.7-44.8C86.4,59.3,85.7,53.7,84.7,48.3z"/>
				<path class="st7" d="M65.4,7.3c-2.1-2.9,1.2-3.5,1.2-3.5c-2.1-0.1-4.2-0.1-6.3,0v10.7h0.4c3.1-0.6,6.1-1.7,8.9-3.1
					C72.1,10.1,67.5,10.2,65.4,7.3z"/>
			</g>
		</g>
	</g>
</g>
</svg>
