<svg xmlns="http://www.w3.org/2000/svg" xmlns:xlink="http://www.w3.org/1999/xlink" viewBox="0 0 112.25 117.65"><defs><style>.cls-1{fill:none;}.cls-2{isolation:isolate;}.cls-3{clip-path:url(#clip-path);}.cls-4{fill:#efc8a4;}.cls-5{fill:#b1836e;opacity:0.4;}.cls-11,.cls-5,.cls-8{mix-blend-mode:multiply;}.cls-6{fill:#d4ab8b;}.cls-7{fill:#ca7d34;}.cls-8{fill:#c4917a;}.cls-11,.cls-8{opacity:0.2;}.cls-9{fill:#5e5049;}.cls-10{fill:#7c6248;}.cls-11{fill:#a47966;}</style><clipPath id="clip-path"><path class="cls-1" d="M109.62,88.13c0,14.61-12.28,26.45-27.42,26.45H27.42C12.28,114.58,0,102.74,0,88.13V29.05C0,14.45,12.28,2.6,27.42,2.6H82.2c15.14,0,27.42,11.84,27.42,26.45V88.13Z"/></clipPath></defs><title>male7</title><g class="cls-2"><g id="Layer_1" data-name="Layer 1"><g class="cls-3"><path class="cls-4" d="M36.93,62.14s0.81,12.43,0,17.38-2,4.29-10.71,9-11.81,24.71-11.81,24.71l85.87-3.09S93.72,94.86,89.42,90.9s-12-3.14-14-5.19-3.85-30-3.85-30Z"/><path class="cls-5" d="M37.71,68.51l19.9,21.13a33.83,33.83,0,0,0,10-1.36c6.21-1.63,7.15-3.09,7.15-3.09s-2.63-12-2.44-19.6-34.61.73-34.61,0.73v2.18Z"/><path class="cls-6" d="M79.73,36.75C81,39,79.91,46.44,77.8,47a5,5,0,0,1-3.35,0L72.83,36S78.48,34.56,79.73,36.75Z"/><path class="cls-4" d="M28.1,37.2c-1.43,2.23-.2,9.69,2.16,10.3a6.1,6.1,0,0,0,3.73,0l1.81-11.05S29.5,35,28.1,37.2Z"/><path class="cls-4" d="M75.16,29.65s0.42,4.63.54,7.28S77.63,54.34,77,57.39,63.5,73,61.68,75s-11.41.49-12.88-.34S33.59,64,32.88,61s-0.72-22.44-.76-26.12,0.4-17.88,4.13-21S54.59,8.4,66,12.76C72.35,15.17,75.27,26,75.16,29.65Z"/><path class="cls-7" d="M35.21,82.17s6.07,8.68,22.39,7.47S74.2,81.75,74.2,81.75,92.56,86.61,98,92.87s11.72,21.7,11.72,21.7l-108.3.91s5.13-16.76,10.78-23S35.21,82.17,35.21,82.17Z"/><path class="cls-8" d="M75,30.06c0.11-3.68-2.81-14.48-9.15-16.89a38.33,38.33,0,0,0-10.72-2.27V76.24c2.75,0.2,5.5.07,6.39-.88,1.82-1.94,14.61-14.51,15.28-17.56S75.68,40,75.56,37.34,75,30.06,75,30.06Z"/><path class="cls-9" d="M66.24,32c-8.14.54-7.5,2.19-11.08,2.43-2.71.18-4.44-2.67-12.1-2.74s-10.56,2.12-10.56,2.12L32.3,36.67a4.08,4.08,0,0,1,.92,1.54c0.92,2,1.54,8.16,10.19,8.16,7.32,0,8.2-3.4,9.6-6.65s3.17-1.62,4.21.62,1.14,5.84,9.91,6c6.91,0.11,8.23-4,9.85-7.16A14.14,14.14,0,0,1,78,37.24L78,34.2S74.37,31.48,66.24,32Zm-15.3,8.69c-1.64,3.73-3,4.24-7.68,4.46s-8.84-2.78-7.41-10.09C36.16,33.5,42.9,33,47.45,33.6,52.47,34.24,52.58,37,50.93,40.71Zm21.52,2.66c-2.3,2-9.28,2.15-11.69-.42s-3.12-6.62-1.92-7.84c1.71-1.73,9.19-2.4,13.54-1.4C76.46,34.66,74.75,41.41,72.45,43.37Z"/><path class="cls-10" d="M32.32,47s0.24,15.42.69,16.47c1.55,3.69,11.08,9.25,16.44,12.34A47.55,47.55,0,0,0,56.88,79l2.22,0.68,0.12-2.31,0.58,1.22S73,68.91,75.47,64.74s1-17.66,1-17.66S73,52.5,69.15,57.37c-1.24,1.58-2.52,3.11-3.72,4.37a11.75,11.75,0,0,1-4,3.14c-4.42,1.36-3.2-2.45-3.2-2.45H52.47s0.75,3-1.41,3.33c-1.5.25-3.81-1.29-6.84-3.88a89.17,89.17,0,0,1-6.06-6.74C35.91,52.33,32.32,47,32.32,47Z"/><path class="cls-10" d="M55.36,49.85s-3.17-1.57-8.82,1.36-7.9,2-10,.41c-1.9-1.47-3.45-2.72-3.45-2.72S30.61,51.42,37,56.66s15.24,2,16.93-1.22A11,11,0,0,0,55.36,49.85Z"/><path class="cls-10" d="M41.33,11.4s-2.68,3.13-6.07,11a39.9,39.9,0,0,0-3,15.92s-5.92-10.62-6.06-15.92C26,12.07,37.52,10.85,37.52,10.85s-2.31-3.54-2.07-6.4c0,0,3.34,3.81,5.31,5-1.41-5.85,3.39-7.35,12.7-6.12S68.7,9.08,76.31,7.31C72.79,10.72,71.8,10,71.8,10s7.67,0.63,9.41,6.78-4,16.76-4.19,18.26l-0.14,1.5A28.75,28.75,0,0,1,67.57,29c1,3.4,1.41,6,5.22,8C65.63,37.81,43.44,26.5,41.33,11.4Z"/><path class="cls-11" d="M69.15,57.37c-1.24,1.58-2.52,3.11-3.72,4.37a11.75,11.75,0,0,1-4,3.14c-4.42,1.36-3.2-2.45-3.2-2.45H54.73V78.27c0.83,0.32,1.59.59,2.15,0.77l2.22,0.68,0.12-2.31,0.58,1.22S73,68.91,75.47,64.74s1-17.66,1-17.66S73,52.5,69.15,57.37Z"/><path class="cls-10" d="M55.36,49.85a14.23,14.23,0,0,1,7.62.61c3.95,1.5,6.28,3.66,9.45,2.91a3.92,3.92,0,0,0,3.25-3.53s1.06,2.11-1.27,6.06-11.28,3.8-14.67,2S54.59,51.55,55.36,49.85Z"/><path class="cls-11" d="M55.46,49.85a14.24,14.24,0,0,1,7.62.61c3.95,1.5,6.28,3.66,9.45,2.91a3.91,3.91,0,0,0,3.24-3.53S76.83,52,74.5,55.91s-11.28,3.8-14.67,2S54.68,51.56,55.46,49.85Z"/></g></g></g></svg>