<svg xmlns="http://www.w3.org/2000/svg" xmlns:xlink="http://www.w3.org/1999/xlink" viewBox="0 0 109.62 111.97"><defs><style>.cls-1{fill:none;}.cls-2{isolation:isolate;}.cls-3{clip-path:url(#clip-path);}.cls-4{fill:#efc8a4;}.cls-5{fill:#b1836e;opacity:0.4;}.cls-10,.cls-5,.cls-8{mix-blend-mode:multiply;}.cls-6{fill:#d4ab8b;}.cls-7{fill:#366d81;}.cls-8{fill:#c4917a;}.cls-10,.cls-8{opacity:0.2;}.cls-9{fill:#7b593c;}.cls-10{fill:#a47966;}</style><clipPath id="clip-path"><path class="cls-1" d="M109.62,85.52c0,14.61-12.28,26.45-27.42,26.45H27.42C12.28,112,0,100.13,0,85.52V26.45C0,11.84,12.28,0,27.42,0H82.2c15.14,0,27.42,11.84,27.42,26.45V85.52Z"/></clipPath></defs><title>male8</title><g class="cls-2"><g id="Layer_1" data-name="Layer 1"><g class="cls-3"><path class="cls-4" d="M34.83,59.58c-0.24.08-1.69,16.56-4.93,23.44S7.37,94.93,6.72,95.94s-7,22.68-6.57,23.54,120.8-1.8,120.8-1.8-2.43-12.9-11.19-20.1S84.55,85.93,83.42,82.33,76,57.78,76,57.78Z"/><path class="cls-5" d="M32.72,69.19L54,96.3a23.86,23.86,0,0,0,21.45-1.9c11.05-6.78,11.05-9.13,11.05-9.13s-2.57-1.36-3.06-2.94-5.18-17.39-5.18-17.39Z"/><path class="cls-6" d="M78.11,35.64c0.83-.61,2.71-2.29,3.36-2.74s2.43,0.16,2.3.94-1.07,3.78-.73,5.83,0.67,3.51.33,4.28-2.59,4.17-3.94,4.4A3,3,0,0,1,77,47.51Z"/><path class="cls-4" d="M31,36S29.78,33.58,28.38,33s-1.67-.4-2.22.16-0.34,5.26-.25,8.18,0.72,3.82,2.51,5.79,3.51,4.51,5,4.39S31,36,31,36Z"/><path class="cls-4" d="M33,20.49s0.82,3.16-.22,9.49c-0.64,3.91-.46,4.09-0.46,4.09s-2.87,5.53-2.67,7c0,0.08,0-.06,0,0,0.46,1.26,3.4,4.81,3.4,4.81a93,93,0,0,0-2.2,10.4c-0.23,3,.06,4.07,2.13,6S44.61,72.69,45.4,73.64s19.44,0.74,21.91-.77S80.81,62.23,81,58.8,79.25,47,79.27,46.06s-0.53-5.25-.5-6.5-0.52-3.5-1.37-8.68-4.56-13.11-4.56-13.11S67.34,10,52.7,11.85,33,20.49,33,20.49Z"/><path class="cls-7" d="M29.25,84.28s8,11.84,30,10.79S86.46,84.43,86.46,84.43s24.32,6.63,32.1,13.26,6,20.06,6,20.06l-130.81,3s-2.17-15.88,3.44-22S29.25,84.28,29.25,84.28Z"/><path class="cls-8" d="M78.77,39.56c0-1.25-.52-3.5-1.37-8.68s-4.56-13.11-4.56-13.11-4.72-6.69-17.07-6.18V74.18c5.06-.12,10.31-0.55,11.54-1.31C69.78,71.37,80.81,62.23,81,58.8S79.25,47,79.27,46.06,78.74,40.81,78.77,39.56Z"/><path class="cls-9" d="M79.81,48.34S78.2,57,75.46,60.21c-0.29.33-2.74,3.2-7.14-1.24-1.3-1.32-4.52-3.06-9.76-3.06s-7.41.24-10,1.32c-1.92.81-4.32,3.6-7,5.29-1.49.95-3,1.7-5.69-.19-2.14-1.5-4.5-11.62-4.5-11.62,0,0.41-2.84,12.71-.46,16.27s14.9,15,19.36,16.28,14,0.27,15.86-1S79.17,71,81,68.43C83.78,64.65,79.81,48.34,79.81,48.34ZM62.91,67.93a1.2,1.2,0,0,1-1.44-1.59l-8.71.08a4.32,4.32,0,0,1,.18,1.38c0,0.45-5,.43-7.62-1.62,2.05-1.81,5.62-3.68,11.27-4,8.7-.42,11.61,2.38,12.2,3C66.38,66.68,64,67.85,62.91,67.93Z"/><path class="cls-10" d="M75.46,60.08c-0.29.33-2.74,3.2-7.14-1.24-1.3-1.32-4.52-3.06-9.76-3.06-1.09,0-2,0-2.91,0v6.35l0.94-.06c8.7-.42,11.61,2.38,12.2,3-2.39,1.45-4.73,2.62-5.87,2.7a1.2,1.2,0,0,1-1.44-1.59l-5.83.05V83.72c4.38,0,9.26-.75,10.53-1.66C68,80.75,79.17,70.82,81,68.29c2.76-3.78-1.21-20.09-1.21-20.09S78.2,56.88,75.46,60.08Z"/><path class="cls-9" d="M32.37,34.18s1.2-11.09,3.9-14.38,7.07-5.63,8.28-5.51S53,19.45,55.11,19.41s5.74-4.93,8.92-4.86,7.41,3.51,8.89,8.24,5.18,12.86,5.18,12.86-1.17-13-2.42-18.76C73.41,6.44,54,2.66,54.48,2.67c0.28,0,4.67,3.07,4,4.07C56.37,10,53.72,3.11,51,3.32s-17.24,6.39-18.7,14C31.66,20.61,32.37,34.18,32.37,34.18Z"/><path class="cls-10" d="M55.64,3.11V3.54C57,4.51,59,6.18,58.5,6.87c-0.88,1.35-1.84,1-2.86.09V19.44c2.18-.68,5.46-4.83,8.39-4.76,3.18,0.07,7.41,3.51,8.89,8.24s5.18,12.86,5.18,12.86-1.17-13-2.42-18.76C73.77,8.25,59.81,4.19,55.64,3.11Z"/></g></g></g></svg>