<svg xmlns="http://www.w3.org/2000/svg" xmlns:xlink="http://www.w3.org/1999/xlink" viewBox="0 0 114.97 116.33"><defs><style>.cls-1{fill:none;}.cls-2{isolation:isolate;}.cls-3{clip-path:url(#clip-path);}.cls-4{fill:#efc8a4;}.cls-5{fill:#b1836e;opacity:0.4;}.cls-5,.cls-8{mix-blend-mode:multiply;}.cls-6{fill:#d4ab8b;}.cls-7{fill:#528b9a;}.cls-8{fill:#c4917a;opacity:0.2;}.cls-9{fill:#7c6248;}.cls-10{fill:#274e57;}.cls-11{fill:#5e5049;}</style><clipPath id="clip-path"><path class="cls-1" d="M111.41,85.53C111.41,100.13,99.13,112,84,112H29.21C14.06,112,1.79,100.13,1.79,85.53V26.45C1.79,11.84,14.06,0,29.21,0H84c15.14,0,27.42,11.84,27.42,26.45V85.53Z"/></clipPath></defs><title>male3</title><g class="cls-2"><g id="Layer_1" data-name="Layer 1"><g class="cls-3"><path class="cls-4" d="M37.7,66.5s0.86,13.19,0,18.45-2.1,4.55-11.37,9.58-12.54,26.23-12.54,26.23L105,117.49S98,101.24,93.42,97s-12.74-3.33-14.85-5.5-4.09-31.85-4.09-31.85Z"/><path class="cls-5" d="M38.53,73.26L59.65,95.69a35.94,35.94,0,0,0,10.62-1.44C76.87,92.52,77.87,91,77.87,91s-2.79-12.71-2.59-20.8-36.74.77-36.74,0.77v2.31Z"/><path class="cls-6" d="M83.14,39.54c1.36,2.37.19,10.29-2.06,10.93a5.26,5.26,0,0,1-3.55,0L75.82,38.74S81.81,37.22,83.14,39.54Z"/><path class="cls-4" d="M28.33,40C26.81,42.4,28.12,50.31,30.62,51a6.47,6.47,0,0,0,4,0l1.92-11.74S29.81,37.7,28.33,40Z"/><path class="cls-4" d="M78.29,32s0.45,4.91.57,7.73,2,18.47,1.33,21.71S65.91,78,64,80.1s-12.11.52-13.67-.36S34.16,68.46,33.41,65.28s-0.76-23.82-.81-27.73S33,18.56,37,15.23s19.47-5.78,31.6-1.16C75.31,16.63,78.4,28.1,78.29,32Z"/><path class="cls-7" d="M35.88,87.77S42.32,97,59.65,95.69s18.61-8,18.61-8,18.49,4.78,24.27,11.42,12.44,23,12.44,23l-115,1S5.45,105.34,11.44,98.7,35.88,87.77,35.88,87.77Z"/><path class="cls-8" d="M78.14,32.44c0.12-3.9-3-15.37-9.71-17.94A40.67,40.67,0,0,0,57,12.09V81.47c2.92,0.22,5.84.07,6.78-.94C65.76,78.47,79.33,65.12,80,61.88S78.84,43,78.71,40.17,78.14,32.44,78.14,32.44Z"/><path class="cls-9" d="M32.81,50.47s0.26,16.37.73,17.48c1.65,3.91,12.14,12.48,17.82,15.76,2,1.15,8,.94,10.63.29,4-1,14-10.31,16.62-14.74s1.07-18.74,1.07-18.74S76,56.26,71.9,61.43c-1.32,1.68-2.67,3.3-3.95,4.64-1.64,1.72-3.14,3-4.27,3.34-4.7,1.44-3.39-2.6-3.39-2.6H54.2a2.37,2.37,0,0,1-1.95,2.75c-1.59.26-3.59-.58-6.81-3.32A95.1,95.1,0,0,1,39,59.07C36.62,56.08,32.81,50.47,32.81,50.47Z"/><polygon class="cls-5" points="33.34 89.06 49.91 106 59.5 97.34 67.88 105.04 80.86 89.63 76.07 86.55 58.9 96.57 33.34 89.06"/><polygon class="cls-7" points="36.33 81.54 57.3 95.03 52.7 104.85 33.34 88.28 36.33 81.54"/><polygon class="cls-7" points="61.09 94.25 65.48 104.46 80.86 89.63 78.06 83.47 61.09 94.25"/><path class="cls-10" d="M54.8,101.29c0.1,0.29,2.1,6.74,2.1,6.74l-2.5,14.45,14.08-.1-5.59-14.93,1.8-4.62-3.3-7.71L57.3,95Z"/><path class="cls-9" d="M36.68,10.75s-10,2.31-9.43,11.27S32,40.08,32,40.08l1.2,0.14s-0.3-9.1,1.65-12.57,6-4.77,7-8.67,0.6-5.06.6-5.06S46.42,17,57,19,73.52,23.75,74,25.63s3.3,12,3.3,12l2.4,0.58s6.44-15.75,2.84-23.4-15.87-13-27.85-11S36.68,10.75,36.68,10.75Z"/><path class="cls-11" d="M68.81,34.52c-8.64.57-8,2.32-11.75,2.58-2.88.19-4.72-2.84-12.85-2.91S33,36.44,33,36.44l-0.2,3a4.39,4.39,0,0,1,1,1.63c1,2.13,1.64,8.66,10.82,8.66,7.77,0,8.7-3.61,10.19-7.06s3.37-1.72,4.47.66,1.21,6.2,10.51,6.35c7.34,0.11,8.74-4.2,10.46-7.61a15,15,0,0,1,1.13-2l-0.1-3.23S77.45,34,68.81,34.52ZM52.57,43.75c-1.74,4-3.17,4.5-8.15,4.74s-9.38-3-7.87-10.71c0.33-1.69,7.48-2.19,12.31-1.58C54.2,36.88,54.31,39.79,52.57,43.75Zm22.84,2.83C73,48.65,65.56,48.86,63,46.13s-3.32-7-2-8.32c1.81-1.83,9.76-2.54,14.38-1.49C79.67,37.32,77.86,44.49,75.41,46.57Z"/><path class="cls-9" d="M39.08,62.33s6-6.07,16.77-6.79S74,62.33,74,62.33H39.08Z"/></g></g></g></svg>