<?xml version="1.0" encoding="utf-8"?>
<!-- Generator: Adobe Illustrator 19.2.1, SVG Export Plug-In . SVG Version: 6.00 Build 0)  -->
<!DOCTYPE svg PUBLIC "-//W3C//DTD SVG 1.1//EN" "http://www.w3.org/Graphics/SVG/1.1/DTD/svg11.dtd">
<svg version="1.1" id="Layer_1" xmlns="http://www.w3.org/2000/svg" xmlns:xlink="http://www.w3.org/1999/xlink" x="0px" y="0px"
	 viewBox="0 0 110.9 116.8" style="enable-background:new 0 0 110.9 116.8;" xml:space="preserve">
<style type="text/css">
	.st0{clip-path:url(#SVGID_2_);}
	.st1{fill:#EFC8A4;}
	.st2{fill:#D4AB8B;}
	.st3{opacity:0.4;fill:#B1836E;enable-background:new    ;}
	.st4{fill:#366D81;}
	.st5{opacity:0.2;fill:#C4917A;enable-background:new    ;}
	.st6{fill:#735338;}
</style>
<title>male1</title>
<g>
	<g id="Layer_1_1_">
		<g>
			<defs>
				<path id="SVGID_1_" d="M110.9,85.5c0,14.6-12.3,26.5-27.4,26.5H28.7c-15.2,0-27.4-11.8-27.4-26.5V26.5C1.3,11.8,13.5,0,28.7,0
					h54.8c15.1,0,27.4,11.8,27.4,26.5V85.5z"/>
			</defs>
			<clipPath id="SVGID_2_">
				<use xlink:href="#SVGID_1_"  style="overflow:visible;"/>
			</clipPath>
			<g class="st0">
				<path class="st1" d="M37.2,61.4c0,0,1.5,11.9,0.4,17.6c-0.9,4.6-3.1,8.7-6.4,12c-2.5,2.5-15.9,6.6-20.5,9.7s-7,15-7,15
					s115.1,1.3,115.2,1c-0.3,1.1-12.1-19.9-13.6-20.7c-4.4-2.2-17-2.8-20.4-4.4s-8-11.1-8.6-15.4S75.6,57,75.6,57L37.2,61.4z"/>
				<path class="st2" d="M77.1,33.8c0,0,4.2-2.5,5.3-2.6s2.5,0.2,1.6,2.6s-2.7,6.2-2.3,9.5s0.1,4.4-1.8,3.9L75.8,46L77.1,33.8z"/>
				<path class="st3" d="M36.5,59.2l30.7,51.7L84.5,91c0,0-9-4.3-8.7-27.4C76.2,38.7,36.5,59.2,36.5,59.2z"/>
				<path class="st1" d="M32.2,37.2c0,0-3.4-3.2-4.3-3.4c-0.8-0.1-1.5,0.4-1.6,1.2c0,0.2,0,0.4,0.1,0.6c0.7,2.1,1,4.3,0.9,6.5
					c-0.1,3.1-0.1,6.7,2.3,7.1s5.8-1.5,5.8-1.5L32.2,37.2z"/>
				<path class="st1" d="M33.7,18.2c0,0-1.7,15.2-1.7,18s-1,5.1-0.6,6c0.8,1.1,1.7,2,2.8,2.8c0,0,0.1,4.7,0.8,10.7s0.7,5.7,3,8.1
					s11.2,12.3,13.5,13s11.8-0.1,12.9-1.2S74.3,65,76.2,63s0.7-8.1,1.1-14.6s0.5-7.5,0.5-7.5c0.2-1,0.3-2.1,0.3-3.1
					c-0.1-0.7-0.8-1.2-0.8-3.5s-1.6-22.6-8.6-24.8s-21.4-3-27.1,0C38,11.5,35.3,14.5,33.7,18.2z"/>
				<path class="st4" d="M32,89.7c0,0,4.6,10.5,29.9,9S83,89.9,83,89.9s16.3,2.4,25,6.3s12.2,21.1,12.2,21.1L0,116.3
					c0-5.2,1.9-10.2,5.3-14.1C11.1,95.9,32,89.7,32,89.7z"/>
				<path class="st5" d="M77.4,34.3c0-2.3-1.6-22.6-8.6-24.8c-3.9-1.1-7.9-1.7-12-1.9V77c3.4-0.2,7.1-0.7,7.8-1.4
					c1.1-1,9.9-10.6,11.7-12.6s0.7-8.1,1.1-14.6s0.5-7.5,0.5-7.5c0.4-0.9,0.6-1.9,0.7-2.8C78.4,37.4,77.4,36.6,77.4,34.3z"/>
				<path class="st6" d="M30.9,13.1C34.2,6.7,39.6,8,39.6,8s1.5-3.9,4.8-4.9c13-4,30.3,0.5,34.1,8.2c4.9,10.1-1.2,24-1.2,24L76,34.6
					c0,0,0.7-6.6-2.2-8.6c-0.4-2,0.6-0.7-1.7-7.4c-2.7-8.1-33-10.1-34.7,1.7c-1.2,8.4-0.3,5.1-0.9,6.8c-2.8,1.8-2.5,12.1-2.5,12.1
					l-1.1-0.4C32.8,38.9,28.1,18.5,30.9,13.1z"/>
			</g>
		</g>
	</g>
</g>
</svg>
