<?xml version="1.0" encoding="utf-8"?>
<!-- Generator: Adobe Illustrator 19.2.1, SVG Export Plug-In . SVG Version: 6.00 Build 0)  -->
<!DOCTYPE svg PUBLIC "-//W3C//DTD SVG 1.1//EN" "http://www.w3.org/Graphics/SVG/1.1/DTD/svg11.dtd">
<svg version="1.1" id="Layer_1" xmlns="http://www.w3.org/2000/svg" xmlns:xlink="http://www.w3.org/1999/xlink" x="0px" y="0px"
	 viewBox="0 0 259 222" style="enable-background:new 0 0 259 222;" xml:space="preserve">
<style type="text/css">
	.st0{display:none;fill:#FFFFFF;}
	.st1{clip-path:url(#SVGID_7_);}
	.st2{clip-path:url(#SVGID_8_);fill:url(#SVGID_9_);}
	.st3{display:none;}
	.st4{display:inline;}
	.st5{clip-path:url(#SVGID_12_);}
	.st6{clip-path:url(#SVGID_13_);fill:url(#SVGID_14_);}
	.st7{display:inline;fill:url(#SVGID_15_);}
	.st8{display:inline;fill:#FFFAFA;}
	.st9{display:inline;fill:#F37778;}
	.st10{display:inline;fill:#272010;}
	.st11{display:inline;fill:#FFFFFF;}
	.st12{fill:#4A271E;}
	.st13{display:none;fill:#4A271E;}
</style>
<rect x="-92" y="-94" class="st0" width="416.2" height="420"/>
<g>
	<g>
		<defs>
			<polygon id="SVGID_5_" points="-91,-93 -90,-93 -91,-92 			"/>
		</defs>
		<defs>
			<polygon id="SVGID_6_" points="-93,-95 -94,-95 -93,-96 			"/>
		</defs>
		<clipPath id="SVGID_7_">
			<use xlink:href="#SVGID_5_"  style="overflow:visible;"/>
		</clipPath>
		<clipPath id="SVGID_8_" class="st1">
			<use xlink:href="#SVGID_6_"  style="overflow:visible;"/>
		</clipPath>
		
			<radialGradient id="SVGID_9_" cx="123.3" cy="-707.4001" r="154.3006" gradientTransform="matrix(1 0 0 -0.2197 0 98.6842)" gradientUnits="userSpaceOnUse">
			<stop  offset="0" style="stop-color:#FFFFFF"/>
			<stop  offset="1" style="stop-color:#000000"/>
		</radialGradient>
		<path class="st2" d="M277.6,254.1c0,18.7-69.1,33.9-154.3,33.9S-31,272.8-31,254.1c0-18.7,69.1-33.9,154.3-33.9
			S277.6,235.3,277.6,254.1z"/>
	</g>
</g>
<g class="st3">
	<g class="st4">
		<g>
			<defs>
				<polygon id="SVGID_10_" points="-91,-93 -90,-93 -91,-92 				"/>
			</defs>
			<defs>
				<polygon id="SVGID_11_" points="-93,-95 -94,-95 -93,-96 				"/>
			</defs>
			<clipPath id="SVGID_12_">
				<use xlink:href="#SVGID_10_"  style="overflow:visible;"/>
			</clipPath>
			<clipPath id="SVGID_13_" class="st5">
				<use xlink:href="#SVGID_11_"  style="overflow:visible;"/>
			</clipPath>
			
				<radialGradient id="SVGID_14_" cx="123.3" cy="-707.4001" r="154.3006" gradientTransform="matrix(1 0 0 -0.2197 0 98.6842)" gradientUnits="userSpaceOnUse">
				<stop  offset="0" style="stop-color:#FFFFFF"/>
				<stop  offset="9.731854e-02" style="stop-color:#F9F9F9"/>
				<stop  offset="0.2213" style="stop-color:#EAEAEA"/>
				<stop  offset="0.3599" style="stop-color:#CFCFCF"/>
				<stop  offset="0.5091" style="stop-color:#ABABAB"/>
				<stop  offset="0.6668" style="stop-color:#7C7C7C"/>
				<stop  offset="0.8317" style="stop-color:#434343"/>
				<stop  offset="1" style="stop-color:#000000"/>
			</radialGradient>
			<path class="st6" d="M277.6,254.1c0,18.7-69.1,33.9-154.3,33.9S-31,272.8-31,254.1c0-18.7,69.1-33.9,154.3-33.9
				S277.6,235.3,277.6,254.1z"/>
		</g>
	</g>
	
		<radialGradient id="SVGID_15_" cx="123.3" cy="-707.4001" r="154.3006" gradientTransform="matrix(1 0 0 -0.2197 0 98.6842)" gradientUnits="userSpaceOnUse">
		<stop  offset="0" style="stop-color:#5F6772"/>
		<stop  offset="0.1372" style="stop-color:#636B76"/>
		<stop  offset="0.3119" style="stop-color:#6E7680"/>
		<stop  offset="0.5071" style="stop-color:#838A94"/>
		<stop  offset="0.7172" style="stop-color:#A2ABB2"/>
		<stop  offset="0.9368" style="stop-color:#D2DDE2"/>
		<stop  offset="1" style="stop-color:#E5F4F8"/>
	</radialGradient>
	<path class="st7" d="M277.6,254.1c0,18.7-69.1,33.9-154.3,33.9S-31,272.8-31,254.1c0-18.7,69.1-33.9,154.3-33.9
		S277.6,235.3,277.6,254.1z"/>
</g>
<g class="st3">
	<path class="st8" d="M257.8-68.2c1.4-0.3,3.2,0.1,4.6,0.2c1.9,0,3.8,0.1,5.7-0.1c0-0.1,0-0.3,0-0.4c0-0.2,0-0.3-0.1-0.5
		c0-0.1,0-0.1,0-0.2c-2.1,0.6-4.4,0.5-6.6,0.1c-0.2,0-0.4-0.4-0.2-0.5c1.8-1.2,3.9-1.9,6-2.3c-0.1-0.4-0.1-0.9,0-1.3
		c-1.7,0.1-3.4,0.1-5-0.1c-1.4-0.1-3.3,0.1-4.6-0.5c-0.1,0.4-0.1,0.7,0,1.1c0,0.2,0.1,0.3,0,0.5c1.9-0.1,3.9,0,5.8-0.2
		c0.3,0,0.4,0.4,0.1,0.5c-0.2,0.1-0.5,0.1-0.7,0.2c-1,0.6-2,1-3.1,1.4c-0.5,0.2-1.4,0.8-2.1,0.8C257.8-69.1,257.9-68.6,257.8-68.2z"
		/>
	<path class="st8" d="M270.1-90.8L270.1-90.8c-0.2-0.3-0.5-0.7-0.7-0.3c-0.2,0.3-0.2,0.8-0.1,1.1c0.1,0.2,0.6,0.8,0.8,0.5
		c0.1-0.1,0.2-0.4,0.2-0.6C270.2-90.3,270.1-90.6,270.1-90.8z"/>
	<path class="st8" d="M267.5-90.8L267.5-90.8c-3.2,0.7-6.5,0.2-9.7,0c0.2,0.8,0.2,1.3,1.3,1.2c0.9-0.1,1.9-0.1,2.8-0.1
		c1.1,0,2.3,0.1,3.4,0.2C266.5-89.4,268.2-88.9,267.5-90.8z"/>
	<path class="st8" d="M263.4-87.3c-1.1-0.1-2.5-0.1-3.5,0.5c-1.9,1.1-2,3-0.7,4.5c0.2-0.2,0.5-0.3,0.7-0.5c-3.4-4.2,8-4.4,5.9,0.2
		c0.5,0,0.9,0.1,1.4,0.2C267.8-85.1,266.3-87.1,263.4-87.3z"/>
	<path class="st8" d="M262.9-75.6c2.1-0.3,3.6-1.4,3.5-3.6v-0.1c-1.5-1.8-8-2.4-7.8,0.8C258.6-76.3,261-75.4,262.9-75.6z
		 M259.8-78.2c0-2.4,4.1-2,5.2-0.6h0.1l0,0c0.1,0.1,0.1,0.2,0.1,0.3C264.6-76.3,259.8-75.4,259.8-78.2z"/>
	<path class="st9" d="M264.4-78.1c0.1-0.2,0.1-0.3,0.2-0.5c-0.6-0.7-1.6-0.9-2.4-0.8c-0.7,0.1-2.3,0.4-1.8,1.5c0.5,1,1.9,1,2.8,0.6
		C263.7-77.4,264.2-77.7,264.4-78.1z"/>
	<path class="st9" d="M275.5-85.7c0.3-1.7,0.7-3.9,0.3-5.7c-0.2-0.9-0.5-1.8-0.6-2.7h-22.3c0,1.3,0.1,2.6,0,4
		c-0.2,1.6-0.4,3.3-0.8,4.9c-0.5,2.2-0.9,4.4-0.9,6.6c0,2,0.4,4,0.8,6c0.3,1.6,0.6,3.2,0.6,4.9c0.1,2.1-0.2,4.2-0.1,6.3
		c0.2,3.9,1.3,7.9,2.4,11.7c2.2-1.6,2.9-4.5,4.4-6.6c1.5-2,4.1-3.2,4.7-5.8c0.1-0.3,0.4-0.4,0.6-0.2c2,2,3.3,4.6,5.2,6.6
		c1.8,1.9,3.8,3.7,5.6,5.6c-0.3-7.8-2.1-15.5-1.8-23.3C273.9-77.6,274.9-81.6,275.5-85.7z M252.7-77.2c0,0.1-0.2,0.1-0.2,0
		c-0.3-0.4-0.2-1-0.2-1.5c0-0.6,0-1.2,0.2-1.8c0.1-0.2,0.4-0.1,0.4,0.1c-0.1,0.6-0.1,1.2-0.1,1.8C252.8-78.1,253-77.5,252.7-77.2z
		 M257.5-91.4c3.4,0.3,6.8,0.7,10.2,0.2c0.1,0,0.1,0,0.2,0s0.2,0,0.2,0.2c0.2,0.6,0.2,1.2,0.1,1.9c0,0.2-0.2,0.2-0.3,0.2
		c-3.3,0.1-6.7-0.5-10,0c-0.1,0-0.3-0.1-0.3-0.2c0-0.7-0.1-1.2-0.4-1.9C257.1-91.2,257.2-91.4,257.5-91.4z M265.4-82.1
		c-0.2,0-0.3-0.3-0.2-0.5c1.2-1.9-1-2.8-2.6-2.9c-1.8,0-3.4,0.7-1.9,2.5c0.1,0.1,0.1,0.3-0.1,0.4c-0.4,0.1-0.8,0.3-1.1,0.5
		c0,0.1-0.2,0.2-0.3,0.1c-1.5-0.8-1.8-2.6-0.9-4c1-1.6,2.6-2,4.4-2c3.3,0,6.8,2.3,5,5.9l0,0c-0.1,0.1-0.2,0.2-0.4,0.2
		C266.6-82,266-82.1,265.4-82.1z M258.1-77.8c-1-4.2,6.8-4.6,8.6-1.8c0.1,0,0.2,0,0.2,0.2C268.5-74.8,259.1-73.1,258.1-77.8z
		 M253.9-92.6c0-0.2,0.3-0.3,0.3-0.1c0.1,0.5,0.2,1.1,0.1,1.7c-0.1,0.3-0.5,0.3-0.5-0.1C253.9-91.6,254-92.1,253.9-92.6z
		 M253.8-87.3c0.1-0.4,0.2-0.9,0.1-1.3c0-0.3,0-0.2,0.1-0.5l0,0c0.4,0.3,0.4,1.1,0.3,1.6s-0.1,1.2-0.3,1.7c-0.1,0.1-0.2,0.1-0.3,0
		C253.5-86.2,253.7-86.8,253.8-87.3z M253.1-82.9c0.1-0.4,0.2-0.8,0.3-1.1c0.1-0.2,0.4-0.2,0.4,0.1c-0.1,0.4-0.1,0.9-0.3,1.3
		c-0.1,0.3-0.1,0.6-0.4,0.6c-0.1,0-0.1,0-0.2-0.1C252.8-82.4,253-82.6,253.1-82.9z M253.2-71.7c0.2-0.9,0.1-1.6-0.1-2.5
		c-0.1-0.5-0.3-0.9,0-1.4c0-0.1,0.1-0.1,0.2,0c0.3,0.6,0.5,1.4,0.6,2c0.1,0.7,0.3,1.4,0,2C253.6-71.3,253.1-71.4,253.2-71.7z
		 M253.4-69.6c0-0.1,0.1-0.1,0.1-0.2l0,0c0,0.1,0.1,0.1,0.2,0.2c0.1,0.2,0.1,0.4,0.1,0.6c0.1,0.5,0.2,1,0.3,1.5
		c0,0.3-0.5,0.4-0.5,0.1c-0.1-0.5-0.1-1-0.2-1.5C253.5-69.2,253.4-69.4,253.4-69.6z M253.7-63.1c-0.3-0.8-0.1-1.7,0-2.5
		c0-0.2,0.4-0.2,0.4,0.1c-0.1,0.8-0.1,1.5,0.1,2.3C254.3-63,253.8-62.9,253.7-63.1z M254.6-58.1c0,0.1-0.1,0.1-0.2,0.1
		c-0.3-0.3-0.3-0.8-0.4-1.2c-0.1-0.5-0.1-1-0.1-1.5c0-0.2,0.3-0.3,0.3,0c0,0.5,0.1,1,0.2,1.5C254.5-58.9,254.7-58.5,254.6-58.1z
		 M256.8-54.9c-0.1,0.1-0.2,0.3-0.2,0.5c-0.1,0.2-0.2,0.5-0.4,0.7c-0.1,0.2-0.4,0.1-0.5,0c-0.5-1-0.5-2.1-0.9-3.2
		c-0.1-0.2,0.3-0.4,0.4-0.1c0.4,0.8,0.5,1.7,0.8,2.5v-0.1c0-0.1,0.1-0.2,0.2-0.2c0.1-0.1,0.2-0.2,0.2-0.3c0.2-0.2,0.4-0.6,0.7-0.6
		c0,0,0.1,0,0.1,0.1C257.3-55.3,257-55.1,256.8-54.9z M259.3-58.5c-0.3,0.6-0.5,1.3-0.8,1.9c-0.2,0.3-0.6,0.1-0.5-0.2
		c0.2-0.7,0.6-1.3,1-1.9C259-58.9,259.4-58.7,259.3-58.5z M262-61.6c-0.3,0.2-0.5,0.5-0.8,0.7c-0.2,0.2-0.4,0.5-0.6,0.7
		c-0.2,0.1-0.5-0.1-0.4-0.3c0.2-0.3,0.4-0.5,0.7-0.8c0.3-0.3,0.6-0.5,0.9-0.7C262-62,262.2-61.7,262-61.6z M263.6-63.6
		c-0.1,0.3-0.3,0.8-0.6,0.9c-0.1,0-0.2,0-0.2-0.1c-0.1-0.4,0.3-0.7,0.4-1.1c0.2-0.4,0.4-0.8,0.5-1.2c0.1-0.3,0.4-0.1,0.4,0.2
		C264-64.4,263.8-64,263.6-63.6z M263.5-67.4c-1.7,0-4.2,0.2-5.8-0.6c-0.2,0.1-0.4,0.1-0.4-0.2c0-0.2,0-0.5,0-0.7
		c0-0.3,0-0.6-0.1-0.8c0-0.1,0.1-0.2,0.2-0.2c0.2-0.3,0.7-0.4,1-0.5c0.7-0.3,1.3-0.5,2-0.8c0.4-0.2,0.8-0.3,1.2-0.5
		c-1.4,0.1-2.9-0.1-4.2-0.2c-0.1,0-0.1,0-0.1-0.1l0,0c-0.2-0.2-0.1-0.7-0.1-1c0-0.4,0.1-0.8,0.2-1.2c0.1-0.1,0.2-0.1,0.3-0.1
		c1.2-0.4,3,0.1,4.2,0.2c1.9,0.2,3.9,0.3,5.8,0.2c0.2,0,0.3,0.2,0.2,0.3c0.1,0.5,0,1.1,0.1,1.6c0,0.1-0.1,0.3-0.2,0.3
		c-1.8,0.5-3.8,1-5.4,2c1.9,0.3,3.9,0.3,5.7-0.2c0.1,0,0.3,0,0.3,0.1l0,0c0.1,0,0.1,0.1,0.1,0.2c0.1,0.3,0.1,0.7,0.2,1
		c0,0.2,0.1,0.4,0.1,0.7c0,0.2,0,0.4-0.2,0.4C266.9-67.4,265.2-67.4,263.5-67.4z M266.6-62.7c-0.3,0.1-0.7-0.3-0.9-0.6
		c-0.1-0.2-0.3-0.3-0.4-0.5c0-0.1-0.1-0.2-0.1-0.2c0-0.1,0-0.2,0-0.3l0,0c0.1,0.2,0.2,0.1,0.3,0.2c0,0.1,0.1,0.1,0.2,0.2
		c0.1,0.1,0.3,0.3,0.4,0.4c0.2,0.2,0.7,0.3,0.7,0.6C266.7-62.8,266.6-62.7,266.6-62.7z M268.9-59.9c-0.2-0.2-0.4-0.5-0.5-0.7
		s-0.4-0.4-0.3-0.6l0.1-0.1c0.2,0,0.4,0.3,0.6,0.5s0.4,0.4,0.6,0.7C269.5-60,269.1-59.7,268.9-59.9z M268.7-89.8
		c-0.2-0.6-0.1-1.3,0.4-1.7c0.5-0.5,1,0.1,1.3,0.5h0.1c0.3,0.2,0.3,0.8,0.3,1.1c0,0.3-0.2,0.7-0.4,0.8
		C269.7-88.6,268.9-89.3,268.7-89.8z M270.7-57.4c-0.3-0.2-0.4-0.5-0.5-0.8c-0.1-0.2-0.3-0.5-0.2-0.8c0-0.1,0.1-0.1,0.2-0.1
		c0.1,0.1,0.1,0.2,0.2,0.3c0.1,0.2,0.2,0.3,0.3,0.4c0.2,0.2,0.4,0.4,0.5,0.6C271.1-57.4,270.9-57.3,270.7-57.4z M273-92.6
		c0.5,0.4,0.8,0.8,1,1.4c0.1,0.4,0.2,1,0,1.4c-0.1,0.1-0.2,0.1-0.3,0c-0.2-0.4-0.2-0.9-0.3-1.3c-0.1-0.5-0.3-0.9-0.7-1.3
		C272.6-92.5,272.8-92.8,273-92.6z M273.1-81.2c-0.1,0-0.1,0-0.2,0c-0.2-0.3,0-0.8,0-1.1c0-0.3-0.1-0.7,0.2-1l0,0
		c0.3,0.3,0.2,0.8,0.2,1.1C273.3-81.9,273.4-81.4,273.1-81.2z M272.5-61c0-0.4-0.1-1,0.2-1.4h0.1c0.2,0.4,0.1,1,0.2,1.5
		c0,0.4,0.2,1-0.2,1.3c-0.1,0.1-0.2,0-0.2,0C272.4-60,272.5-60.6,272.5-61z M272.1-65.7c0-0.4-0.1-0.9,0-1.4c0-0.2,0.3-0.2,0.4,0
		c0.1,0.5,0.1,1,0.2,1.5c0,0.2,0.3,1-0.1,1C272.1-64.5,272.1-65.4,272.1-65.7z M272.1-77.4c0.1-0.3,0.3-1,0.7-1.1c0,0,0.1,0,0.1,0.1
		c0,0.2,0,0.3-0.1,0.5c-0.1,0.3-0.2,0.5-0.2,0.8c0,0.4,0,0.9-0.2,1.3c-0.1,0.1-0.2,0.1-0.3,0C271.8-76.4,271.9-77,272.1-77.4z
		 M272-72.9c0-0.1,0.2-0.1,0.2,0c0.2,0.8,0.1,1.6,0.1,2.4c0,0.5,0.1,1-0.1,1.5c0,0.1-0.2,0.1-0.2,0c-0.3-0.7-0.2-1.5-0.2-2.3
		C271.9-71.7,271.8-72.4,272-72.9z M274.3-53.6c0.1,0.2-0.2,0.4-0.3,0.3c-0.8-0.7-1.4-1.5-2-2.4c-0.2-0.3,0.3-0.5,0.5-0.2
		c0.3,0.6,0.7,1.1,1.1,1.6c0-0.2,0-0.4,0-0.6c0-0.1,0.1-0.1,0.2-0.1c0.1,0.1,0.2,0.2,0.2,0.4C274.1-54.3,274.2-54,274.3-53.6z
		 M273.8-56.1c0,0.1-0.1,0.1-0.2,0.1c-0.4-0.2-0.4-0.7-0.4-1.1c-0.1-0.5-0.2-0.9-0.1-1.3c0-0.1,0.1-0.1,0.1,0
		c0.2,0.3,0.3,0.7,0.4,1.1C273.7-56.9,274-56.4,273.8-56.1z M273.5-85.3c-0.1,0.1-0.2,0-0.2-0.1c-0.1-0.4,0.1-0.9,0.2-1.3
		c0.1-0.4,0-0.9,0.3-1.3c0,0,0.1-0.1,0.1,0c0.2,0.3,0.1,0.9,0.1,1.3C273.9-86.2,273.8-85.6,273.5-85.3z"/>
	<path class="st10" d="M276.4-90.1c0-1.4-0.5-2.6-0.8-3.9h-0.4c0.1,0.9,0.4,1.8,0.6,2.7c0.4,1.7-0.1,3.9-0.3,5.7
		c-0.6,4.1-1.6,8.1-1.8,12.2c-0.3,7.8,1.5,15.5,1.8,23.3c-1.8-2-3.7-3.7-5.6-5.6c-1.9-2-3.3-4.6-5.2-6.6c-0.2-0.2-0.6-0.1-0.6,0.2
		c-0.6,2.6-3.2,3.8-4.7,5.8c-1.5,2.1-2.2,5-4.4,6.6c-1.1-3.8-2.2-7.7-2.4-11.7c-0.1-2.1,0.1-4.2,0.1-6.3c0-1.6-0.3-3.3-0.6-4.9
		c-0.4-2-0.7-3.9-0.8-6c0-2.2,0.4-4.4,0.9-6.6c0.3-1.6,0.6-3.2,0.8-4.9c0.2-1.4,0-2.7,0-4h-0.8c0,1.1,0.1,2.2,0,3.3
		c-0.2,2.3-0.6,4.5-1.1,6.7c-0.8,3.7-0.7,7.2,0,11c0.4,2,0.7,4,0.8,6.1c0.1,2.1-0.1,4.2,0,6.3c0.2,3.9,1.5,7.9,2.5,11.7
		c0.1,0.2,0.3,0.4,0.6,0.2c2.3-1.4,3.4-4.2,4.7-6.5c1.3-2.3,4.1-3.5,5-6c1.7,1.9,3.1,4.2,4.8,6.1c2,2.2,4.3,4.1,6.2,6.3
		c0.2,0.2,0.6,0.1,0.6-0.2c-0.2-7.9-2.2-15.6-2-23.6c0.1-4.1,0.9-8.1,1.6-12.2C276.2-86.6,276.4-88.3,276.4-90.1z"/>
	<path class="st11" d="M272.8-92.4c0.4,0.3,0.6,0.8,0.7,1.3c0.1,0.4,0,0.9,0.3,1.3c0.1,0.1,0.2,0.1,0.3,0c0.2-0.4,0.1-1,0-1.4
		c-0.2-0.6-0.5-1.1-1-1.4C272.8-92.8,272.6-92.5,272.8-92.4z"/>
	<path class="st11" d="M273.4-86.7c-0.1,0.4-0.3,0.9-0.2,1.3c0,0.1,0.1,0.1,0.2,0.1c0.4-0.3,0.4-0.9,0.4-1.3s0.1-1-0.1-1.3h-0.1
		C273.5-87.6,273.5-87.1,273.4-86.7z"/>
	<path class="st11" d="M273.1-81.2c0.3-0.2,0.2-0.7,0.2-1c0-0.3,0.1-0.8-0.2-1.1l0,0c-0.3,0.2-0.2,0.6-0.2,1c0,0.3-0.2,0.8,0,1.1
		C272.9-81.2,273-81.1,273.1-81.2z"/>
	<path class="st11" d="M272.1-77.4c-0.1,0.5-0.3,1.1-0.1,1.6c0.1,0.1,0.2,0.1,0.3,0c0.2-0.4,0.2-0.9,0.2-1.3c0-0.3,0.1-0.6,0.2-0.8
		c0.1-0.2,0.2-0.3,0.1-0.5c0,0,0-0.1-0.1-0.1C272.3-78.5,272.2-77.8,272.1-77.4z"/>
	<path class="st11" d="M272-72.9c-0.2,0.5-0.2,1.1-0.2,1.7c0,0.7-0.1,1.6,0.2,2.3c0,0.1,0.2,0.1,0.2,0c0.2-0.5,0.1-1,0.1-1.5
		c0-0.8,0.1-1.7-0.1-2.4C272.2-73,272.1-73,272-72.9z"/>
	<path class="st11" d="M272.5-64.5c0.4,0,0.1-0.8,0.1-1c-0.1-0.5-0.1-1-0.2-1.5c0-0.2-0.3-0.2-0.4,0c-0.1,0.4,0,0.9,0,1.4
		C272.1-65.4,272.1-64.5,272.5-64.5z"/>
	<path class="st11" d="M272.5-61c0,0.4-0.1,1,0.1,1.4c0,0.1,0.1,0.1,0.2,0c0.4-0.3,0.2-0.8,0.2-1.3s0-1.1-0.2-1.5c0,0-0.1-0.1-0.1,0
		C272.4-62.1,272.5-61.5,272.5-61z"/>
	<path class="st11" d="M273.1-57.1c0.1,0.4,0.1,0.9,0.4,1.1c0.1,0,0.2,0,0.2-0.1c0.2-0.4-0.1-0.8-0.2-1.2s-0.1-0.8-0.4-1.1H273
		C273-57.9,273.1-57.5,273.1-57.1z"/>
	<path class="st11" d="M273.7-55c-0.1,0.2-0.1,0.4,0,0.6c-0.4-0.5-0.8-1-1.1-1.6c-0.2-0.3-0.6-0.1-0.5,0.2c0.5,0.9,1.2,1.7,2,2.4
		c0.2,0.2,0.4-0.1,0.3-0.3c-0.2-0.3-0.2-0.7-0.3-1.1c0-0.2-0.1-0.2-0.2-0.4C273.8-55.2,273.7-55.1,273.7-55z"/>
	<path class="st11" d="M269.9-58.9c-0.1,0.2,0.1,0.6,0.2,0.8c0.1,0.3,0.3,0.6,0.5,0.8c0.2,0.1,0.5,0,0.3-0.3
		c-0.1-0.2-0.3-0.4-0.5-0.6c-0.1-0.1-0.2-0.3-0.3-0.4C270-58.7,270-58.8,269.9-58.9C270-59.1,270-59,269.9-58.9z"/>
	<path class="st11" d="M269.3-60.2c-0.2-0.2-0.4-0.5-0.6-0.7s-0.3-0.5-0.6-0.5c0,0-0.1,0-0.1,0.1c-0.1,0.2,0.2,0.5,0.3,0.6
		c0.2,0.2,0.4,0.5,0.5,0.7C269.1-59.7,269.5-60,269.3-60.2z"/>
	<path class="st11" d="M265.2-64c0,0.1,0.1,0.2,0.1,0.2c0.1,0.2,0.2,0.3,0.4,0.5c0.2,0.2,0.6,0.7,0.9,0.6c0.1,0,0.1-0.1,0.1-0.1
		c0-0.3-0.5-0.5-0.7-0.6c-0.1-0.1-0.3-0.3-0.4-0.4s-0.1-0.1-0.2-0.2s-0.2-0.1-0.3-0.2l0,0C265.2-64.2,265.2-64.1,265.2-64z"/>
	<path class="st11" d="M263.6-63.6c0.2-0.4,0.4-0.9,0.5-1.3c0.1-0.2-0.3-0.4-0.4-0.2c-0.2,0.4-0.3,0.8-0.5,1.2
		c-0.2,0.3-0.5,0.7-0.4,1.1c0,0.1,0.1,0.1,0.2,0.1C263.3-62.8,263.5-63.3,263.6-63.6z"/>
	<path class="st11" d="M260.3-60.4c-0.1,0.2,0.2,0.4,0.4,0.3c0.2-0.2,0.4-0.5,0.6-0.7c0.2-0.3,0.5-0.5,0.8-0.7
		c0.2-0.1,0-0.4-0.2-0.3c-0.3,0.2-0.6,0.5-0.9,0.7C260.7-60.9,260.4-60.7,260.3-60.4z"/>
	<path class="st11" d="M258.9-58.8c-0.4,0.6-0.8,1.2-1,1.9c-0.1,0.3,0.3,0.5,0.5,0.2c0.3-0.6,0.5-1.3,0.8-1.9
		C259.4-58.7,259-58.9,258.9-58.8z"/>
	<path class="st11" d="M254.4-91c0.1-0.6,0-1.2-0.1-1.7c0-0.2-0.4-0.1-0.3,0.1c0.1,0.5,0,1-0.1,1.6C253.8-90.7,254.3-90.7,254.4-91z
		"/>
	<path class="st11" d="M254-85.7c0.3-0.5,0.3-1.2,0.3-1.7c0.1-0.5,0.1-1.3-0.3-1.6l0,0c-0.1,0.2-0.1,0.2-0.1,0.5
		c0,0.4-0.1,0.9-0.1,1.3c-0.1,0.5-0.3,1.1-0.1,1.5C253.7-85.6,253.9-85.6,254-85.7z"/>
	<path class="st11" d="M253.5-82.7c0.1-0.4,0.2-0.9,0.3-1.3c0-0.2-0.3-0.3-0.4-0.1c-0.1,0.4-0.2,0.8-0.3,1.1
		c-0.1,0.3-0.3,0.6-0.1,0.8c0,0.1,0.1,0.1,0.2,0.1C253.4-82.1,253.4-82.4,253.5-82.7z"/>
	<path class="st11" d="M252.8-78.5c-0.1-0.6-0.1-1.2,0.1-1.8c0.1-0.2-0.3-0.3-0.4-0.1c-0.2,0.6-0.2,1.2-0.2,1.8
		c0,0.5-0.1,1.1,0.2,1.5c0.1,0.1,0.2,0,0.2,0C253-77.5,252.8-78.1,252.8-78.5z"/>
	<path class="st11" d="M253.7-71.6c0.3-0.6,0.2-1.3,0-2c-0.1-0.6-0.3-1.4-0.6-2c0-0.1-0.1-0.1-0.2,0c-0.2,0.4-0.1,0.9,0,1.4
		c0.2,0.9,0.3,1.6,0.1,2.5C253.1-71.4,253.6-71.3,253.7-71.6z"/>
	<path class="st11" d="M254.2-67.6c-0.1-0.5-0.2-1-0.3-1.5c0-0.2-0.1-0.4-0.1-0.6c0-0.1-0.1-0.1-0.2-0.2l0,0c0,0.1-0.1,0.1-0.1,0.2
		c0,0.2,0,0.4,0,0.6c0.1,0.5,0.1,1,0.2,1.5C253.8-67.2,254.3-67.2,254.2-67.6z"/>
	<path class="st11" d="M254.2-63.3c-0.2-0.8-0.2-1.5-0.1-2.3c0-0.2-0.3-0.3-0.4-0.1c-0.2,0.8-0.3,1.7,0,2.5
		C253.8-62.9,254.3-63,254.2-63.3z"/>
	<path class="st11" d="M254.6-58.1c0.1-0.4-0.1-0.8-0.1-1.2c-0.1-0.5-0.1-1-0.2-1.5c0-0.2-0.3-0.2-0.3,0c0,0.5,0,1,0.1,1.5
		c0.1,0.4,0.1,0.9,0.4,1.2C254.4-58,254.6-58,254.6-58.1z"/>
	<path class="st11" d="M256.2-53.7c0.1-0.2,0.3-0.5,0.4-0.7s0.2-0.3,0.2-0.5c0.2-0.2,0.4-0.5,0.5-0.8c0,0,0-0.1-0.1-0.1
		c-0.3,0-0.5,0.4-0.7,0.6c-0.1,0.1-0.2,0.2-0.2,0.3c-0.1,0-0.2,0.1-0.2,0.2v0.1c-0.3-0.8-0.4-1.7-0.8-2.5c-0.1-0.2-0.5-0.1-0.4,0.1
		c0.4,1,0.4,2.2,0.9,3.2C255.8-53.6,256.1-53.5,256.2-53.7z"/>
	<path class="st10" d="M257.9-88.9c3.3-0.5,6.7,0.1,10,0c0.1,0,0.3-0.1,0.3-0.2c0-0.7,0.1-1.3-0.1-1.9c0-0.1-0.1-0.2-0.2-0.2
		c0,0-0.1-0.1-0.2,0c-3.4,0.5-6.8,0.1-10.2-0.2c-0.2,0-0.4,0.2-0.3,0.4c0.2,0.7,0.3,1.2,0.4,1.9C257.5-88.9,257.7-88.8,257.9-88.9z
		 M265.3-89.5c-1.1-0.1-2.3-0.1-3.4-0.2c-0.9,0-1.9,0-2.8,0.1c-1.1,0.1-1.1-0.4-1.3-1.2c3.2,0.3,6.5,0.7,9.7,0l0,0
		C268.2-88.9,266.5-89.4,265.3-89.5z"/>
	<path class="st10" d="M270.5-91C270.4-91,270.4-91,270.5-91c-0.4-0.5-0.8-1-1.4-0.6c-0.5,0.4-0.6,1.2-0.4,1.7
		c0.2,0.6,1,1.2,1.6,0.8c0.3-0.2,0.4-0.5,0.4-0.8C270.8-90.2,270.8-90.8,270.5-91z M269.2-90c-0.1-0.3-0.1-0.8,0.1-1.1
		c0.2-0.4,0.6,0,0.7,0.3l0,0c0,0.2,0.1,0.5,0.1,0.7c0,0.2,0,0.4-0.2,0.6C269.8-89.2,269.3-89.8,269.2-90z"/>
	<path class="st10" d="M267.6-82.1L267.6-82.1c1.8-3.6-1.7-5.9-5-5.9c-1.8,0-3.4,0.4-4.4,2c-0.9,1.4-0.6,3.2,0.9,4
		c0.1,0.1,0.2,0,0.3-0.1c0.4-0.1,0.8-0.3,1.1-0.5c0.2-0.1,0.2-0.3,0.1-0.4c-1.5-1.8,0.1-2.6,1.9-2.5c1.6,0,3.8,1,2.6,2.9
		c-0.1,0.2,0,0.5,0.2,0.5c0.6,0,1.2,0.1,1.8,0.2C267.4-81.8,267.5-81.9,267.6-82.1z M265.9-82.7c2.2-4.5-9.3-4.3-5.9-0.2
		c-0.3,0.1-0.5,0.3-0.7,0.5c-1.3-1.5-1.2-3.3,0.7-4.5c1-0.6,2.4-0.5,3.5-0.5c2.9,0.2,4.4,2.2,3.8,4.8
		C266.8-82.6,266.4-82.6,265.9-82.7z"/>
	<path class="st10" d="M266.9-79.4c0-0.1-0.1-0.2-0.2-0.2c-1.8-2.8-9.6-2.5-8.6,1.8C259.1-73.1,268.5-74.8,266.9-79.4z M258.5-78.6
		c-0.1-3.2,6.3-2.6,7.8-0.8v0.1c0.1,2.2-1.4,3.3-3.5,3.6C261-75.4,258.6-76.3,258.5-78.6z"/>
	<path class="st10" d="M265.2-78.4c0-0.1,0-0.2-0.1-0.3l0,0H265c-1.1-1.4-5.2-1.8-5.2,0.6C259.8-75.4,264.6-76.3,265.2-78.4z
		 M260.4-77.9c-0.5-1,1.1-1.4,1.8-1.5c0.8-0.1,1.8,0.1,2.4,0.8c-0.1,0.1-0.1,0.3-0.2,0.5c-0.3,0.4-0.8,0.6-1.2,0.8
		C262.3-76.9,260.9-76.8,260.4-77.9z"/>
	<path class="st10" d="M257.2-69.7c0,0.3,0.1,0.6,0.1,0.8c0,0.2,0,0.5,0,0.7c0,0.2,0.3,0.3,0.4,0.2c1.6,0.8,4.1,0.6,5.8,0.6
		c1.7,0,3.4,0,5.1-0.1c0.2,0,0.3-0.2,0.2-0.4c0-0.2-0.1-0.5-0.1-0.7c-0.1-0.3-0.1-0.7-0.2-1c0-0.1-0.1-0.2-0.1-0.2l0,0
		c-0.1-0.1-0.2-0.1-0.3-0.1c-1.8,0.6-3.8,0.5-5.7,0.2c1.7-1,3.6-1.4,5.4-2c0.1,0,0.2-0.2,0.2-0.3c-0.1-0.5,0-1.1-0.1-1.6
		c0.1-0.1,0-0.3-0.2-0.3c-1.9,0.1-3.9-0.1-5.8-0.2c-1.2-0.1-3-0.6-4.2-0.2c-0.1-0.1-0.2,0-0.3,0.1c-0.2,0.4-0.2,0.8-0.2,1.2
		c0,0.3-0.1,0.7,0.1,1l0,0l0.1,0.1c1.4,0.1,2.8,0.3,4.2,0.2c-0.4,0.2-0.8,0.3-1.2,0.5c-0.7,0.3-1.3,0.5-2,0.8
		c-0.3,0.1-0.8,0.2-1,0.5C257.3-69.9,257.2-69.8,257.2-69.7z M259.8-70.4c1-0.4,2.1-0.9,3.1-1.4c0.2,0,0.5-0.1,0.7-0.2
		c0.3-0.1,0.3-0.5-0.1-0.5c-1.9,0.1-3.9,0.1-5.8,0.2c0-0.2,0-0.3,0-0.5c0-0.4,0-0.7,0-1.1c1.3,0.5,3.3,0.3,4.6,0.5
		c1.7,0.1,3.4,0.2,5,0.1c-0.1,0.4-0.1,0.9,0,1.3c-2.1,0.5-4.2,1.1-6,2.3c-0.2,0.2-0.1,0.5,0.2,0.5c2.1,0.4,4.5,0.5,6.6-0.1
		c0,0.1,0,0.1,0,0.2c0,0.2,0,0.3,0.1,0.5c0,0.1,0,0.3,0,0.4c-1.9,0.2-3.8,0.2-5.7,0.1c-1.4,0-3.2-0.4-4.6-0.2c0.1-0.4,0-0.9-0.2-1.4
		C258.3-69.6,259.3-70.2,259.8-70.4z"/>
</g>
<g>
	<path class="st12" d="M19.3,154.6c0,0.1,0.1,0.1,0.1,0.1c-1.3,8.8,3.2,20.1,5.7,27.3c3.3,9.6,14.5,14.4,19.5,2.9
		c5.2-12.2,1.4-29.5-8.9-38.2c-3.9-3.3-8.3-5.5-13.1-2.8C19.5,145.8,18.5,151.5,19.3,154.6z M38,153.3c6.6,8.7,8.8,22.8,3.2,32.4
		c-2.5,1.5-4.6,2.3-6.4,2.5l0.1-0.1c0.6-0.7,1.3-1.3,1.9-1.9c1.1-1.1,2.3-2.1,3.4-3.2c0.6-0.6-0.2-1.5-0.8-0.9
		c-1.2,1.2-2.5,2.4-3.7,3.5c-0.7,0.7-1.9,1.6-2.5,2.6c-2-0.3-3.5-1.6-4.5-3.9c-0.5-1.1-1-2.2-1.4-3.4c-0.2-0.5-0.4-1.1-0.6-1.6
		c0.1,0,0.3,0,0.4-0.1c2.8-4.3,7.1-7.6,11.5-10.2c0.8-0.4,0.1-1.6-0.6-1.2c-2.6,1.5-5,3.3-7.3,5.2c-1.5,1.2-4.2,3.3-4.3,5.5
		c-0.2-0.7-0.4-1.4-0.6-2.2c0.1,0,0.2,0,0.2-0.1c0.6-0.6,0.8-1.5,1.3-2.2c0.9-1.3,2.1-2.3,3.2-3.3c1.9-1.6,4.1-3,6.2-4.5
		c0.6-0.4-0.1-1.2-0.7-0.9c-2.4,1.6-4.9,3.2-7.1,5.2c-0.9,0.8-3,2.6-3.5,4.2c-0.1-0.5-0.3-1.1-0.4-1.6c0.6-0.6,1-1.4,1.5-2
		c0.7-0.9,1.7-1.7,2.6-2.5c1.6-1.4,3.4-2.5,5.1-3.9c0.6-0.5-0.2-1.3-0.7-0.9c-1.8,1.5-3.7,2.8-5.5,4.2c-1.1,0.9-2.7,2.2-3.3,3.7
		c-0.1-0.2-0.1-0.5-0.2-0.7c-0.1-0.4-0.2-0.9-0.3-1.3c2-2.1,3.7-4.3,5.8-6.3c2.4-2.2,5.1-4.2,7.6-6.3c0.6-0.4-0.2-1.3-0.7-0.9
		c-4.4,3.4-10.4,7.2-13,12.4c-0.2-1-0.5-2.1-0.6-3.1c0.5-0.8,1-1.5,1.7-2.2c1.1-1.2,2.3-2.3,3.5-3.4c2.4-2.1,5.4-4,7.1-6.7
		c0.2-0.2-0.2-0.5-0.4-0.4c-3,2.2-5.8,4.8-8.7,7.2c-1.1,0.9-2.5,2.2-3.5,3.5c-0.1-0.5-0.2-1.1-0.2-1.6c0.9-1.4,1.7-2.9,2.6-4.2
		c1.6-2.5,3.4-5,5.8-6.8c0.5-0.4-0.1-1.2-0.6-0.8c-2.5,1.8-4.4,4.4-6.2,6.9c-0.6,0.8-1.2,1.6-1.8,2.5c-0.1-0.8-0.1-1.5-0.1-2.3
		c1.3-1.6,2.4-3.5,3.7-5.1c1.6-2,3.9-3.8,5-6.1v-0.1c0.5,0.3,1,0.7,1.5,1.1C34.8,149,36.5,151.3,38,153.3z M30.7,146.2L30.7,146.2
		c-2.1,1.4-3.8,3.8-5.5,5.7c-0.9,1-1.9,2-2.7,3.2c0.1-2.1,0.4-4.4,0.8-6.7C25.8,145.6,28.3,144.9,30.7,146.2z"/>
	<path class="st12" d="M83.3,148.7c-0.1,0.5,0.4,1.1,0.9,1c1.5-0.3,2-1.9,2.6-3.1c0.3-0.6,0.6-1.2,1-1.8c0.3-0.5,0.6-0.6,0.9-0.8
		c0.1,0,0.1,0.1,0.2,0.1c0.1,0.1,0.2,0,0.2-0.1c0-0.2-0.1-0.4-0.1-0.6c0-0.4-0.5-0.8-0.9-0.7c-1.2,0.2-2,1.4-2.6,2.3
		C84.7,146.1,83.7,147.3,83.3,148.7z"/>
	<path class="st12" d="M74.2,134.7c1.5-0.4,3.2-0.6,4.5-1.3c0.4-0.2,0.3-0.8-0.1-1c-1.6-0.8-3.5,0.2-5.1,0.8
		C72.6,133.5,73.2,135,74.2,134.7z"/>
	<path class="st12" d="M67.1,126c1,0.4,2,0.2,3.1,0c1.5-0.3,3-0.3,4.5,0.1c0.8,0.2,1.1-1,0.4-1.3c-2.3-1-6.3-1.7-8.3,0.2
		C66.6,125.2,66.8,125.8,67.1,126z"/>
	<path class="st12" d="M198.7,151.5c-0.4-0.7-0.1-1.5,0.5-1.9c0.8-0.5,0-1.8-0.8-1.4c-1.6,0.8-2.2,2.6-1.7,4.2
		C197.2,153.6,199.3,152.7,198.7,151.5z"/>
	<path class="st13" d="M203.8,144.6L203.8,144.6L203.8,144.6z"/>
	<path class="st12" d="M205.4,145.5c-0.4-0.2-0.9-0.1-1.4,0c-0.2,0.1-0.4,0.2-0.6,0.3c0.1-0.1,0.1-0.3,0.1-0.4
		c0.1-0.2,0.1-0.2,0.2-0.4v-0.1c0,0,0-0.1,0.1-0.2v-0.1c0,0,0,0,0,0.1l0,0c0-0.1,0-0.1,0-0.1c0-0.3-0.1-0.5-0.4-0.7
		c-1.2-0.6-1.8,1.4-2.1,2.2c-0.2,0.4,0,0.8,0.3,1.1c0.7,0.6,1.5,0.8,2.3,0.5c0.7-0.2,1.6-0.8,1.7-1.6
		C205.7,145.8,205.6,145.6,205.4,145.5z"/>
	<path class="st12" d="M206.9,141.6c0.6,0.1,1.2-0.6,0.7-1.1c-0.1-0.1-0.1-0.2-0.1-0.4c0.1-1.2-1.7-1.2-1.6,0
		C205.9,140.7,206.1,141.5,206.9,141.6z"/>
	<path class="st12" d="M201.6,141.4c0.6-0.4,0.7-0.9,1-1.6c0.1-0.1,0.2-0.5,0.3-0.5c0.1-0.1,0.4-0.2,0.4-0.4c0-0.1,0-0.1,0-0.2
		c0-0.2-0.1-0.4-0.3-0.5c-1.6-0.6-2.9,1.5-2.4,2.8C200.8,141.5,201.2,141.7,201.6,141.4z"/>
	<path class="st12" d="M202.9,155.6c-0.4-0.1-0.6,0-1,0.1c0,0-0.4,0-0.2,0c0,0,0,0-0.1,0l0,0l0,0l0,0l0,0l0,0l0,0l0,0l0,0
		c0-0.1,0-0.1,0-0.2c0-0.1,0-0.1,0-0.2c0,0,0-0.1,0-0.2c0-0.4-0.1-0.8-0.4-1c-0.4-0.3-1-0.2-1.3,0.2c-0.6,0.8-0.3,2.2,0.3,2.9
		c0.9,0.9,2.6,0.9,3.5,0C204.2,156.5,203.8,155.8,202.9,155.6z M201.6,155.7L201.6,155.7L201.6,155.7L201.6,155.7z M201.7,155.8
		L201.7,155.8L201.7,155.8L201.7,155.8z"/>
	<path class="st13" d="M201.7,155.7h-0.1H201.7z"/>
	<path class="st12" d="M207.4,151.5c-0.2,0-0.4,0.1-0.5,0.2c0-0.2,0.1-0.3,0.1-0.4c0.4-0.8-0.8-1.5-1.3-0.8s-0.7,1.9,0,2.6
		c0.6,0.7,1.2,0.4,2,0.3C208.8,153.3,208.6,151.3,207.4,151.5z"/>
	<path class="st12" d="M209.8,144.8c-0.7,0.5-1.2,1.2-1.3,2.1c-0.1,0.8,0.2,1.7,0.9,2.2c0.3,0.2,0.7,0.3,1,0.1
		c0.8-0.5,0.6-1,0.2-1.9c-0.2-0.4,0.2-1.2,0.4-1.5C211.3,145,210.3,144.4,209.8,144.8z"/>
	<path class="st12" d="M194.8,158.2c-0.2-0.1-0.2-0.1-0.3-0.2c-0.1-0.3,0.2-0.9,0.6-1.3c0.7-0.8-0.5-1.9-1.2-1.2
		c-1.1,0.9-1.9,2.4-1.2,3.8c0.7,1.5,3.3,2.2,4.2,0.5c0.2-0.3,0-0.7-0.2-0.9C196.2,158.4,195.4,158.4,194.8,158.2z"/>
	<path class="st12" d="M202.3,162.1c-0.4-0.1-1,0-1.4,0c-0.1-0.1-0.2-0.5-0.3-0.6c-0.5-1.4-2.5-0.4-2,0.9c0.3,0.8,0.7,1.5,1.5,1.8
		c1,0.4,2-0.1,2.7-0.8C203.3,163,202.9,162.2,202.3,162.1z"/>
	<path class="st12" d="M190.7,125.5c0.5,3.3,0.9,8.2,4.3,9.9c0.4,0.2,0.9-0.2,0.7-0.6c-0.6-1.6-1.4-3-2-4.6c-0.5-1.6-0.8-3.3-1-4.9
		C192.5,124,190.5,124.2,190.7,125.5z"/>
	<path class="st12" d="M201.9,108.4c-1.3,0.1-2,1.4-2.3,2.5c-0.4,1.6-0.3,3,0.1,4.6c0.2,0.7,1.1,0.5,1.2-0.1
		c0.3-1.2,0.2-2.2,0.3-3.3c0-0.5,0.1-1.1,0.3-1.6c0.2-0.5,0.7-0.9,1-1.3C202.7,108.9,202.3,108.4,201.9,108.4z"/>
	<path class="st12" d="M208.9,109.3c-0.9,2.4-3,6.2-1.8,8.8c0.3,0.6,1,0.6,1.3,0.1c0.6-1.2,0.6-2.5,0.7-3.8c0.2-1.7,0.5-3.3,0.5-5
		C209.6,108.9,209,108.9,208.9,109.3z"/>
	<path class="st12" d="M232,149.4c-2.9-1.1-6.4,0.1-9.4,0.3c-0.8,0.1-0.9,1.5-0.1,1.5c2.1,0.1,4.5,0.3,6.8,0c-2,1-4.2,1.6-6.5,0.8
		c-0.6-0.2-1,0.7-0.4,1c3.8,1.5,8-0.2,10.5-3.3c0.2-0.3-0.1-0.7-0.4-0.5c-0.1,0.1-0.3,0.2-0.4,0.3
		C232.1,149.4,232.1,149.4,232,149.4z"/>
	<path class="st12" d="M180.9,159c-0.6,0.4-1,1.4-0.2,1.9c0.5,0.3,0.8,0.3,1.3,0.3c1.5,0,1.7-2.3,0.2-2.3
		C181.8,158.8,181.3,158.7,180.9,159z"/>
	<path class="st12" d="M45,124.8c2.3-1,4.6-1.1,7-1.6c0.3-0.1,0.2-0.6,0-0.6c-2.4-0.5-5.1,0.4-7.2,1.4C44.3,124.2,44.5,125,45,124.8
		z"/>
	<path class="st12" d="M48.9,127c3.1-1.2,6.3-0.8,9.5-1.3c0.3-0.1,0.4-0.6,0-0.6c-2.8-0.5-7.6-0.5-9.7,1.7
		C48.7,126.9,48.8,127.1,48.9,127z"/>
	<path class="st12" d="M53.4,130.3c2.2-0.5,4.4-1,6.6-1.6c0.3-0.1,0.2-0.6-0.1-0.6c-2.3,0.2-4.4,0.8-6.6,1.4
		C52.8,129.6,53,130.4,53.4,130.3z"/>
	<path class="st12" d="M55.9,131.9c-0.5,0.1-0.9,0-1.2,0.4v0.1c0.6,0.8,2.2,0.2,3,0.1c1.9-0.2,3.8-0.5,5.7-0.9
		c0.3-0.1,0.2-0.5,0-0.6c-1.6-0.3-3.2,0-4.8,0.3C57.7,131.6,56.8,131.8,55.9,131.9z"/>
	<path class="st12" d="M63.4,134.6c-0.9,0.2-1.8,0.6-2.7,0.9c-1.1,0.4-2.2,0.7-3.4,1.1c-0.3,0.1-0.2,0.7,0.1,0.6
		c2-0.4,4.6-0.7,6.2-2.1C63.8,135,63.7,134.5,63.4,134.6z"/>
	<path class="st12" d="M41.2,122.9c0.1-0.8,1.1-0.7,1.7-0.8c0.3-0.1,0.2-0.5,0-0.5c-1-0.2-2.3-0.1-2.4,1.2
		C40.5,123.3,41.2,123.4,41.2,122.9z"/>
	<path class="st12" d="M60.5,141.9c1.4-0.3,2.9-0.6,4.3-0.9c1.3-0.3,2.5-0.3,3.8-0.7c0.4-0.1,0.3-0.6-0.1-0.7
		c-2.6-0.7-5.7,0.8-8.1,1.4C59.7,141.1,59.8,142,60.5,141.9z"/>
	<path class="st12" d="M60.3,146.1c-0.4,0.2-0.2,0.6,0.1,0.6c1.5,0.1,3.1-0.5,4.6-0.9c1.6-0.4,3.1-0.9,4.6-1.6
		c0.3-0.2,0.3-0.8-0.2-0.7c-1.4,0.3-2.7,0.7-4,1.1C63.7,145.2,61.9,145.4,60.3,146.1z"/>
	<path class="st12" d="M62.5,149c-0.5-0.1-0.7,0.7-0.2,0.9c3.1,1.2,6.8-0.5,9.3-2.2c0.3-0.2,0-0.5-0.2-0.5
		C68.5,147.7,65.4,149.7,62.5,149z"/>
	<path class="st12" d="M63.8,152.6c-0.5,0.2-0.2,0.9,0.3,0.8c2.6-0.9,5.3-0.7,7.9-1.2c0.2,0,0.2-0.4,0-0.5
		C69.2,151.2,66.4,151.5,63.8,152.6z"/>
	<path class="st12" d="M65.5,155.2c-0.3,0-0.4,0.3-0.2,0.5c2.1,1.4,6.2,1.2,8.3,0c0.2-0.1,0.1-0.5-0.1-0.6c-1.1-0.2-2.2,0.1-3.3,0.3
		C68.5,155.6,67.1,155.3,65.5,155.2z"/>
	<path class="st12" d="M73.6,160.7c0.2-0.1,0.1-0.4-0.1-0.4c-2.6,0-4.8,1.6-7.4,0.9c-0.4-0.1-0.6,0.5-0.2,0.7
		C68.4,162.8,71.2,161.8,73.6,160.7z"/>
	<path class="st12" d="M67.1,166.1c-0.5-0.2-0.8,0.6-0.3,0.8c2.4,0.9,5.1,0.2,7.7,0.4c0.3,0,0.3-0.3,0.1-0.4
		C72.2,165.3,69.6,166.9,67.1,166.1z"/>
	<path class="st12" d="M72,174.3c-1.1-0.2-2.3-0.2-3.4-0.6c-0.4-0.2-0.7,0.4-0.3,0.6c1.2,0.6,2.5,0.6,3.7,0.4
		C72.2,174.6,72.2,174.3,72,174.3z"/>
	<path class="st12" d="M58.4,208.4c-2.1-0.5-4.4-0.4-6.6-0.4c-0.1,0-0.2,0.2-0.1,0.3c2,0.9,4.6,1.1,6.6,0.6
		C58.7,208.7,58.6,208.4,58.4,208.4z"/>
	<path class="st12" d="M63,205.3c-1.4-0.1-2.9,0.3-4.3,0.3c-1.3,0-2.6,0-3.9,0c-0.6,0-0.6,1,0,1c2.5,0.1,6.3,1.1,8.3-0.8
		C63.3,205.6,63.2,205.3,63,205.3z"/>
	<path class="st12" d="M65.9,200.7c-2.2,0.4-4.3,0.8-6.6,0.9c-0.6,0-0.6,1,0,1c2.2,0,5,0.3,6.8-1.2
		C66.4,201.1,66.3,200.6,65.9,200.7z"/>
	<path class="st12" d="M69.5,195.7c-1.8-0.1-3.7,0.3-5.5,0.3c-0.7,0-0.9,1.2-0.1,1.2c1.9,0,4.1,0.2,5.8-0.8
		C69.9,196.2,69.8,195.7,69.5,195.7z"/>
	<path class="st12" d="M71.3,188.2c-1.3,0.3-2.4,0.9-3.6,1.3c-0.7,0.2-0.2,1.4,0.5,1.1c1.3-0.4,2.4-0.9,3.5-1.8
		C72,188.5,71.7,188.1,71.3,188.2z"/>
	<path class="st12" d="M29,180.9c0,0.3,0.3,0.6,0.6,0.3c1.6-2.1,2.8-4,4.9-5.8c2-1.7,4.2-3,6.3-4.5c0.6-0.5-0.2-1.4-0.8-0.9
		c-2.3,1.6-4.6,3.1-6.7,4.9C31.5,176.4,29.2,178.5,29,180.9z"/>
	<path class="st12" d="M40.6,173.6c-2.2,1.8-4.5,3.5-6.7,5.5c-1.3,1.2-4.2,3.5-3.9,5.5c0,0.3,0.4,0.4,0.6,0.2
		c0.6-0.6,0.9-1.5,1.4-2.2c0.8-1.1,1.9-2.1,2.9-3.1c2-1.8,4.2-3.4,6.2-5.1C41.7,174,41.1,173.2,40.6,173.6z"/>
	<path class="st12" d="M24.9,134c1.8-0.9,2.7-2.1,4.9-2.1c2.4,0,4.7,1.5,6.6,2.8c3.2,2.1,5.4,5.1,8.3,7.4c0.2,0.1,0.5,0,0.4-0.2
		c-1.3-4-6.8-8-10.5-9.7C31.9,130.9,25.6,129.4,24.9,134C24.8,133.9,24.8,134,24.9,134z"/>
	<path class="st12" d="M28.8,136.8c-0.1,0-0.1,0.1,0,0.1c3.1,0.8,6,1.7,8.7,3.3c2.8,1.6,5,4,7.7,5.8c0.2,0.1,0.4-0.2,0.3-0.3
		C42.1,140.9,35,136.6,28.8,136.8z"/>
	<path class="st12" d="M40.4,146.1c-0.5-0.1-0.6,0.6-0.1,0.7c2.7,0.7,3.5,3.3,4.8,5.4c0.2,0.3,0.8,0.1,0.7-0.3
		C45.2,149.3,43.1,146.6,40.4,146.1z"/>
	<path class="st12" d="M50.6,156.4c-0.4-1.6-0.5-3.1-1.7-4.5c-0.1-0.1-0.2,0-0.1,0.1c0.7,1.4,0.8,3.1,1.4,4.5
		C50.3,156.8,50.7,156.7,50.6,156.4z"/>
	<path class="st12" d="M17.5,156.5c0.5-2.8,0.6-5.6,1.1-8.4c0.3-1.9,0.8-3.7,1.6-5.4c0.5-1.2,1.7-2,2.1-3.2l0,0
		c-2.5,0.1-3.7,4.9-4.2,6.8c-0.9,3.2-1.6,7.1-1,10.3C17.2,156.7,17.5,156.7,17.5,156.5z"/>
	<path class="st12" d="M14.8,160.5c1.1,8.2,2.2,16.9,5.2,24.7c0.1,0.4,0.8,0.2,0.7-0.2C19.1,176.8,16.5,168.7,14.8,160.5
		C14.8,160.4,14.8,160.4,14.8,160.5z"/>
	<path class="st12" d="M37,194.7c0.1-0.1,0-0.4-0.2-0.3C23.6,200,22.7,177,18.3,169.5h-0.1C20.1,175.8,25.7,205.2,37,194.7z"/>
	<path class="st12" d="M46.5,191.5v0.1c-1.3,0.8-2.5,2-3.7,2.9c-1.7,1.3-3.5,2.3-5.6,2.8c-0.3,0.1-0.2,0.5,0,0.6
		c2,0.3,3.7-0.7,5.3-1.8c1.7-1.1,3.9-2.6,5-4.3c0.1-0.2,0-0.4-0.1-0.5c3.4-4.7,10-15.2,4.6-20.1c-0.3-0.3-0.9,0.2-0.6,0.6
		C56.3,177.7,48,185.6,46.5,191.5z"/>
	<path class="st12" d="M49.6,193.3c-0.2,0.3,0.1,0.7,0.4,0.5c4.4-2.9,6.3-10.3,6.1-15.3c0-0.4-0.6-0.4-0.6,0c-0.7,2.7-1,5.3-1.9,7.9
		C52.8,189,51.3,191.1,49.6,193.3z"/>
	<path class="st12" d="M48,180c0.1,0.4,0.6,0.4,0.7,0c0.3-2.5-0.1-4.9-0.4-7.4c-0.4-3.2-0.5-6.5-0.9-9.7h-0.1
		c-0.6,2.4-0.4,4.8-0.2,7.4C47.3,173.5,47.5,176.8,48,180z"/>
	<path class="st12" d="M46.3,196.2c-3.1,1.2-6.3,5.2-9.9,4.6c-0.3,0-0.5,0.4-0.2,0.5c1.7,0.8,3.6-0.2,5.1-1c1.9-1,3.7-2.1,5.2-3.5
		C46.8,196.6,46.6,196.1,46.3,196.2z"/>
	<path class="st12" d="M33.8,201.2c-2.8,0.1-5.5-0.6-7.4-2.8c-0.1-0.2-0.3,0.1-0.3,0.2c1.4,3,4.7,4,7.8,3.2
		C34.4,201.8,34.2,201.2,33.8,201.2z"/>
	<path class="st12" d="M212.3,175.9L212.3,175.9c-0.1,3.7-1.4,10.6,3.4,11.9c0.3,0.1,0.4-0.3,0.2-0.5c-3.2-3-2.8-6.8-2.8-10.8
		c0.1,0.1,0.2,0.2,0.3,0.3c-0.1,0.2-0.1,0.3,0,0.5c0.6,2,1.3,10.6,4.8,9.9c0.3-0.1,0.6-0.2,0.6-0.6c0.1-1.5-1.4-2.9-2-4.2
		c-0.4-1-0.8-2-1.1-3.1c1.5,1.6,3.1,3.4,5.3,3.9c0.3,0.1,0.5-0.3,0.2-0.5c-2.2-1.7-4-4-6-5.9c-1.1-1.1-3.2-3.2-4.9-2.2
		c-0.3,0.2-0.1,0.6,0.2,0.6C211.3,175.3,211.8,175.5,212.3,175.9z"/>
	<path class="st12" d="M224.1,125.7c-1,0.7-2.2,1.3-2.8,2.4c-0.4,0.7,0.6,1.2,0.9,0.5c0.3-0.5,0.7-0.9,1.1-1.3
		c0.4-0.4,0.7-0.8,1.1-1.2C224.6,125.8,224.4,125.5,224.1,125.7z"/>
	<path class="st12" d="M224.4,123.7c-1.3,0.8-2.7,1.5-4.1,2.3c-1,0.6-2.6,1.5-3,2.7c-0.1,0.4,0.2,0.7,0.6,0.6c1.1-0.3,2.1-1.4,3.1-2
		c1.3-0.8,2.8-1.5,4.1-2.3C226,124.6,225.2,123.2,224.4,123.7z"/>
	<path class="st12" d="M210.7,113.9C210.8,113.9,210.8,113.8,210.7,113.9C210.7,113.8,210.7,113.9,210.7,113.9z"/>
	<path class="st12" d="M227.6,116c-0.4,0.1-0.2,0.8,0.2,0.7c1.9-0.4,3.7-0.9,5.5-1.7c0.2-0.1,0.2-0.5-0.1-0.5
		C231.3,114.8,229.5,115.5,227.6,116z"/>
	<path class="st12" d="M249.8,141.2c0.3-0.1,0.4-0.6,0-0.6c-0.1,0-0.2,0-0.4-0.1c-1.4-9.7-5.1-19.2-11.9-25.7
		c-4.4-6.9-12.8-8.9-21.1-9.6c-2.5-5.9-5.4-11.7-7.3-17.9c-2.2-7-2.9-13.4-6.4-20c-3-5.6-6.1-10.7-10.6-15.2c-4.6-4.6-7.9-10-12-15
		c-3.9-4.6-9-8-14.6-10.5c0.1-0.4-0.5-0.7-0.8-0.4l0,0c-5.8-2.5-12.1-4.1-18-5.1c-15.3-2.7-30.2-5.6-45.8-3.1
		c-14.1,2.2-28.7,5.2-41.7,11.3C47,35,37,45,29.1,55.8C21,66.9,16.5,80.5,14.4,93.9c-1.7,10.8-2.5,25.6,4.2,35
		c-0.2,0.3-0.5,0.6-0.7,0.9c-4.5,6-9.5,16.6-9.5,25.2C8,160.3,9,168,9.2,169.8c1.3,11.1,5.9,23,12.5,32c1.2,1.6,2.6,3.2,4.2,4.6
		c0,0.2,0.1,0.3,0.2,0.5c8.2,8.5,21,9.4,31.6,5.5c2.2,2.2,6.4,1.6,9.4,1.1c6.8-1.1,11.6-5.1,16.1-10.1c9.7-11.1,14-26.4,13.6-40.9
		c-0.4-16.2-9.4-30-20.7-40.9c-6.9-6.7-19.9-11-28-4.5c-2.1-0.3-4.2-0.4-6.2-0.3c-1.2,0.1-2.9,0.4-4.8,0.8c-0.1-3-1.1-6.2-1.5-9.1
		c-0.9-6.3-1.2-12.7-1.2-19c0.1-10.9,4-19.9,10.1-28.8c12.1-17.6,34-26.8,54.3-31.4c3.4,1.5,8.1,0.9,12.6,0.3c4,1.1,7.5,2.2,8.8,2.5
		c9.1,2.4,17.6,5.2,25.8,9.4v0.1c0.1,0,0.2,0,0.3,0.1c1.6,0.9,3.2,1.7,4.9,2.7c2.2,1.3,4.2,2.8,6.1,4.3c-0.1,0.1-0.2,0.1-0.3,0.2
		c-0.2,0.1-0.1,0.5,0.2,0.4c0.2,0,0.4-0.1,0.7-0.1c4.2,3.5,7.7,7.5,10.8,11.9l0,0c-0.1,0.4,0.1,0.5,0.4,0.6
		c2.3,3.4,4.3,6.9,6.2,10.7c5.9,11.6,15.6,21.1,20.6,33.2c-0.6,0.2-1.3,0.5-1.9,0.8c-0.7,0.3-0.9,0.9-0.8,1.4
		c-6.4,3.9-11.3,11.9-14.1,18.1c-2.1,4.7-4.2,9.8-5.8,15.2c0,0.1-0.1,0.1-0.1,0.2c-0.9,2.8-1.6,5.6-2.2,8.5
		c-0.2-0.1-0.4-0.2-0.5-0.4c-0.5-0.4-1.2,0.5-0.6,0.9c0.3,0.2,0.6,0.5,0.9,0.7c-0.3,1.7-0.6,3.4-0.7,5c-0.4-0.5-1.2,0.2-0.8,0.7
		c0.2,0.3,0.4,0.5,0.7,0.8c-0.2,2.3-0.2,4.5,0,6.7c0.6,8.4,2.2,15,6.9,20.8c0.1,0.3,0.2,0.5,0.4,0.8c0.1,0.2,0.3,0.2,0.4,0.2
		c1.2,1.4,2.7,2.7,4.3,4c8.3,6.5,18.2,9.5,28.3,6.8c5.6,2.8,13.4-1.8,18.4-6.2c6-0.5,11.3-6.6,14.4-11.3c4.4-6.6,6.2-14.7,7-22.5
		C250.6,151.9,250.5,146.5,249.8,141.2C249.7,141.3,249.8,141.3,249.8,141.2z M241.1,122.9c2.1,3.7,3.6,7.9,4.6,12.1
		c-0.3-0.1-0.6-0.1-0.8-0.1c-0.8,0-0.9,1.2-0.1,1.2c0.5,0,0.8,0.1,1.2,0.2c0.3,1.4,0.6,2.7,0.8,4.1c-0.6,0-1.3,0-1.9,0
		c-0.2,0-0.4,0.1-0.5,0.2C243.9,134.4,242.9,128.3,241.1,122.9z M237.1,119.6c1.1,2.3,1.9,4.8,2.6,7.5c-1.3,0.2-2.5,0.6-3.8,1
		c-0.9,0.3-1.8,0.4-2.8,0.5c-0.4-1.2-0.9-2.4-1.5-3.6c1.6-0.3,3.2-0.7,4.7-1.4c0.3-0.1,0.2-0.5-0.1-0.5c-1.7,0.1-3.4,0.5-5.1,0.9
		c-0.5-1-1.1-2-1.7-3c1.8,0.1,3.9-0.5,5.4-1.3c0.4-0.2,0.3-0.8-0.2-0.7c-1.9,0.1-3.9,1.2-5.8,1c-3.1-4.9-7.1-9.1-11.8-11.9
		c4.8,0.6,9.5,1.3,13.4,3.7c-1.4,0.2-2.9,0.5-4.2,1c0,0,0,0,0,0.1c0.8,0.2,1.5,0.2,2.3,0.1c0.9-0.1,1.9-0.3,2.8-0.5
		C233.6,114,235.6,116.3,237.1,119.6z M232.2,146c0.4,0.5,1,0.8,1.5,1.1c0.1,1.9,0.1,3.7,0.1,5.6c-0.1,0.2-0.1,0.4,0,0.6
		c0,1.8-0.2,3.5-0.3,5.3c-0.1,0.1-0.1,0.1-0.2,0.2c-3,0.1-5.9-0.6-8.8-1.4c-0.8-0.2-1.2,1-0.4,1.2c2.9,0.8,6.2,1.9,9.3,1.2
		c-0.4,2.8-0.9,5.6-1.6,8.3c-0.8-0.1-1.7-0.4-2.5-0.7c0.2-0.1,0.4-0.2,0.6-0.3c0.4-0.2,0.4-0.8,0.2-1.2c-1-1.3-3.1-1.7-4.6-2.3
		c-1-0.4-2-0.8-3-1.1l-0.1-0.1c-0.3-0.3-0.6-0.3-0.9-0.1l0,0c-0.3,0-0.5,0-0.7,0.2c-0.6-0.5-1.2-1.1-1.8-1.6
		c0.2-0.3,0.2-0.9-0.2-1.1c-0.5-0.5-1.2-0.8-1.9-1.1c-0.8-1.1-1.4-2.2-1.6-3.4c0.3,0.2,0.5,0.3,0.8,0.5c1.5,0.9,2.5,1.1,4.2,1.2
		c0.5,0,0.7-0.7,0.3-1c-0.8-0.7-1.5-1.4-2.5-1.9c-1.3-0.6-2.5-1.3-3.8-2c0.3-1.3,0.5-2.6,0.7-3.8c1.7,4.2,7.5,5.8,11.1,7.8
		c0.2,0.1,0.4-0.2,0.3-0.4c-2.9-3.2-9.2-4.1-10.7-8.5c-0.1-0.3-0.3-0.3-0.5-0.3c0-0.3,0-0.6,0.1-0.9c2.9,1.5,6.8,2.4,10,2.1
		c0.2,0,0.3-0.4,0.1-0.4c-3.1-1.2-6.8-1.4-10.1-1.9c0-0.7,0.1-1.3,0-1.9c0-1.2-0.4-2.5-0.9-3.8c0.4,0,0.9-0.1,1.4-0.1
		c1.8,0,3.6,0,5.4,0.1c-1.5,0.8-2.8,1.7-3.9,2.6c-0.7,0.6,0.1,1.8,0.9,1.2c0.7-0.5,1.4-0.9,2.1-1.2c0.1,0.1,0.1,0.1,0.2,0.1
		c3.6,1,7-0.8,9.4-3.3c0.2-0.2-0.1-0.6-0.4-0.4c-0.1,0-0.1,0.1-0.2,0.1c-0.1-0.3-0.3-0.5-0.6-0.5c-2-0.5-4.4,0-6.5,0.9
		c-2.7-1-5.7-1.1-8.5-0.6c-0.2-0.3-0.3-0.6-0.5-0.8c1.8-2.5,3.7-4.9,6.3-6.6c-0.8,1-1.3,2.3-1.7,3.5c-0.3,1,1,1.6,1.5,0.7
		c0.1-0.2,0.2-0.4,0.3-0.5c2.9-1.7,6.4-3.4,8.2-6.2c0.2-0.2-0.2-0.5-0.4-0.3c-1.4,0.8-2.6,1.9-4,2.9c-0.8,0.6-1.6,1.2-2.5,1.7
		c0.9-1.1,2-2.1,3-3.1c0.3-0.3,0-0.9-0.4-0.9c-1.4,0-2.5,0.5-3.5,1.5c0-0.4-0.3-0.8-0.7-0.5c-2.8,1.7-5.1,4.1-6.8,6.9
		c-0.5-0.7-1-1.3-1.6-1.9c-0.4-3.7,3-7.3,6.4-8.5c0.7-0.2,0.3-1.4-0.4-1.2c-2.4,0.7-7,4.6-7.8,8c-1.4-1.1-2.9-1.9-4.5-2.3
		c1.7-3.9,1.7-9.8,6-11.7c0.1,0,0.2-0.1,0.2-0.2c0.7-0.4,1.4-0.9,2.1-1.2c1.7-0.9,3.3-1.9,4.8-3.1c0.4-0.4-0.1-1-0.5-0.7
		c-1.5,1.1-3.1,2-4.7,2.8c-1.3,0.7-2.9,1.2-3.8,2.3c-0.1,0.1-0.1,0.2-0.1,0.2c-3.3,2.4-4.1,7.5-4.9,11.4c-0.9-0.2-1.9-0.2-2.8,0
		c-0.1-0.1-0.2-0.2-0.3-0.3c-0.6-4.9-1.2-10.7,1.8-14.8c0.4-0.5-0.4-1-0.7-0.6c-1.5,1.9-2.5,4.7-2.9,7.7c-0.2,0.1-0.4,0.2-0.4,0.5
		c-0.2,0.7-0.4,1.6-0.7,2.5c-1.1-2.8-1.2-5.8,0.4-8.6c0.4-0.7-0.6-1.4-1-0.7c-1.7,3-1.9,9,0.3,12.5c0,0.1,0,0.2,0,0.3
		c-0.8-1-1.5-2-2.1-3.2c-0.8-1.8-1.2-3.8-1.2-5.8c0-0.7-1.2-0.9-1.2-0.1c0,3.4,1.2,9.7,4.9,10.9c0.2,0.1,0.4,0,0.5-0.2
		c0.2,0.1,0.5,0,0.7-0.2c0.2,0.1,0.4,0.2,0.6,0.3c-1.2,0.6-2.3,1.6-3.2,3.1c-2.1,1.5-4,3.9-5.6,6.6c-1.3-0.6-2.6-0.9-3.8-1.7
		c-1.2-0.8-2.2-1.7-3.3-2.6c-1.5-2.3-2.6-4.9-3.3-7.7c0.8-2.2,2-4.7,3.3-7.1c0.1,2.2,0.2,4.7,0.7,7.2c-2.4,3.7,2.1,10.2,6.2,10
		c0.5,0,0.7-0.6,0.3-0.9c-0.5-0.4-1-0.8-1.5-1.2c0-0.1,0-0.1,0-0.2c-0.6-0.8-1.1-1.5-1.5-2.3c0.4,0.4,0.9,0.8,1.3,1.2
		c1,0.9,2.4,1.9,3.8,1.8c0.3,0,0.5-0.5,0.2-0.7c-1.1-0.7-2.3-1.1-3.4-1.9c-1.1-0.8-2-1.7-3-2.6c-1.4-3.6-1.8-7.4-2.5-11.3
		c0-0.1-0.1-0.1-0.1-0.2c0.7-1.2,1.4-2.4,2.2-3.5c-1.4,5.8,0.7,14.5,5.4,16.1c0.3,0.1,0.7-0.2,0.4-0.5c-3.8-4-6.5-11.7-4.5-17.3
		c0.8-1.1,1.7-2.1,2.6-3c-0.9,2.9-0.7,6.5,0.5,8.5c0.3,0.6,1.3,0.3,1.4-0.3c0.3-2.2-0.2-4.3,0.1-6.5c0.2-1.7,1.1-3.1,1.5-4.7
		c0.2-0.2,0.5-0.3,0.7-0.5c0.2,0,0.5,0,0.7-0.1c8.2-3.6,19.7-0.4,26.1,5.3c0.4,0.4,0.8,0.8,1.2,1.2c-0.1,0-0.1,0-0.2,0
		c-1.1,0.5-3.9,2.5-5.6,4.4s-3.3,3.9-4.9,5.9c-1.3,1.8-2.7,3.6-3.2,5.7c-0.1,0.5,0.5,0.6,0.8,0.3c1.4-1.6,2.4-3.6,3.6-5.3
		c0.8-1.2,1.7-2.4,2.6-3.6c0,0.1,0.1,0.1,0.1,0.2c-0.4,0.4-0.8,0.8-1,1.3c-0.1,0.3,0.1,0.6,0.5,0.5c1-0.3,1.9-1.4,2.8-2
		c1.2-0.8,2.6-1.5,3.8-2.3c0.7-0.4,0.1-1.6-0.6-1.2c-1.2,0.8-2.5,1.5-3.7,2.3l-0.1,0.1c0.5-0.9,1.4-1.6,2.3-2.2
		c1.3-1,2.7-1.8,3.5-3.3c0-0.1,0-0.1,0.1-0.2c3.2,3.6,5.4,8.1,7,12.7c-0.1,0.2,0,0.4,0.2,0.5c0.9,2.9,1.6,5.9,2.1,8.8
		c0.2,1.4,0.4,2.7,0.6,4.1c-0.3,0-0.5,0.4-0.2,0.6c0.1,0,0.2,0.1,0.2,0.1c0.1,1,0.2,2,0.3,3.1c-0.4-0.2-0.9-0.3-1.3-0.5
		C232.2,145.8,232.1,145.9,232.2,146z M224.6,182.9c-1.1-1.7-1.9-3.6-2.4-5.6c0.3,0.1,0.6,0.2,0.9,0.2c0.4,0,0.9-0.3,0.7-0.8
		c-0.2-0.4-0.3-0.8-0.5-1.1c-0.2-0.4-0.6-0.7-0.9-1c-0.5-0.6-0.9-1.3-1.2-2.1c0-0.1-0.1-0.2-0.1-0.2c0.5,0.5,1.1,1,1.6,1.5
		c1.5,1.4,3.3,2.9,5.4,3.3C227.1,179.2,225.9,181.1,224.6,182.9z M228.5,176.5c-2.1-1.4-4.2-2.8-6.2-4.5c-0.6-0.5-1.2-1-1.7-1.5
		c-2-3.6-6.1-6-7.5-10c1.5,0.7,3,1.1,4.5,0.9c0.8,0.9,1.7,1.8,2.6,2.5c0.1,0.2,0.2,0.3,0.4,0.4c0.3,0.2,0.6,0.4,1,0.6
		c0.7,0.5,1.4,0.9,2,1.3c0.1,0,0.2,0,0.2,0c0.5,0.2,0.9,0.5,1.4,0.7c1.9,1.3,4.1,2.3,6.1,2.3C230.6,171.7,229.7,174.2,228.5,176.5z
		 M200.3,167c-1.2,0.3-2.3,0.3-3.3,0.1c0.1-0.3,0-0.6-0.3-0.8c-0.4-0.3-0.8-0.5-1.2-0.7c-0.2-0.3-0.6-0.6-0.9-0.6
		c-2-1.3-3.3-2.6-3.7-5.7c-0.4-3.8,1-7.8,2.4-11.2c1.4-3.5,3.6-6.9,6.2-9.6c1.9-1.9,3.3-2.1,5.7-2.7c0.2,0,0.2-0.2,0.2-0.4
		c1.2,0.3,2.4,1,3.8,2.2c3.1,2.8,3.2,7.2,2.6,11C210.8,155.2,207.4,165,200.3,167z M197.1,194.8c-0.8-0.2-1.7-0.5-2.5-0.8
		c-0.5-2-0.7-3.9-0.5-6.2c0.1-1.4,0.3-2.7,0.4-4.1c0.4-1.1,0.6-2.3,0.8-3.5c0.4-2,0.7-4,1.3-6c0,0.1,0,0.2,0,0.2
		c-0.2,2.1-0.6,4.6,0.7,6.5c0,0.1,0.1,0.1,0.2,0.1c0.1,0.4,0.3,0.8,0.6,1.2l0,0c-0.1,1.1-0.1,2.1,0,3.2c0,0,0,0.1-0.1,0.1
		C196.6,188.4,195.6,192,197.1,194.8z M188.5,190.5c0.1-1.4,0.6-2.8,1-4.1c0.1-0.3,0.3-0.7,0.4-1c0,0,0,0,0,0.1
		c0,0.3,0.4,0.3,0.5,0.1c0.5-1.2,0.8-2.4,1.1-3.6c0.3-0.6,0.6-1.1,0.8-1.7c0.2-0.4,0-0.7-0.3-0.9c0.5-2.3,0.9-4.6,1.9-6.8
		c0.2-0.5-0.5-0.8-0.8-0.3c-1.2,2.4-2,5.1-2.6,7.8c-1.2,2-4.3,6.4-4.7,9.7c-0.4-0.2-0.7-0.5-1.1-0.7c-2.3-3.7-0.8-10.7,1-15.6
		c1.4-0.8,2.7-1.8,3.8-2.8c0.2-0.2,0-0.5-0.3-0.4c-1,0.6-2,1.2-3,1.8c0.4-0.9,0.7-1.7,1.1-2.4c0.2-0.4-0.5-0.9-0.8-0.4
		c-0.5,0.8-1.1,2.1-1.7,3.6c-1.1,0.6-2.3,1.1-3.4,1.5c0.5-1.3,1.4-2.3,2.7-2.9c0.3-0.1,0.3-0.4,0.2-0.7c0.3-0.2,0.6-0.5,0.9-0.8
		c1.6-1.3,3-2.5,5-3.2c0.3-0.1,0.5-0.3,0.5-0.6c0.3,0.3,0.5,0.5,0.9,0.8c0.2,0.2,0.4,0.4,0.7,0.5c-1.2,1.7-2.6,3.4-3.8,5.1
		c-1,1.4-3.2,4-2.1,5.8c0.2,0.3,0.5,0.3,0.7,0.2c0.6-0.1,0.9-0.3,1.2-0.9c0.8-1.6,1.7-3,2.7-4.4c1.1-1.5,2.1-3.1,3-4.7
		c1,0.5,2,0.8,3,1c-0.3,0.8-0.5,1.7-0.7,2.6c-0.1,0-0.2,0-0.3,0.1c-0.9,2-1.4,4.1-1.9,6.3c-0.1,0.5-0.2,1-0.4,1.5
		c-0.2,0-0.4,0.1-0.4,0.3c-0.2,3.4-2.1,8.9-1.1,12.8c-1.4-0.6-2.8-1.3-4.2-2C188.5,191,188.5,190.8,188.5,190.5z M199.4,135.9
		c-3.7,3.4-7.4,10.1-8.4,12.1c0-0.1,0-0.1,0-0.2C192.7,143.8,195.9,137.6,199.4,135.9z M189.6,152.5c0.1-1,0.3-1.8,0.5-2.6
		c0.2-0.5,0.4-1,0.6-1.7l0.1-0.1l0,0c0,0.1-0.1,0.1-0.1,0.2C190.4,149.4,189.9,150.8,189.6,152.5z M214.3,154.7
		c0.1,1.2,0.4,2.3,1,3.5c-0.9-0.2-1.7-0.4-2.6-0.6c0.4-1.1,0.8-2.1,1.1-3.2C214,154.5,214.1,154.6,214.3,154.7z M223.4,141.6
		c1-0.3,2-0.4,3.1-0.7c-1.4,0.7-2.9,1.2-4.4,1.1C222.5,141.9,222.9,141.8,223.4,141.6z M193.6,94.7c1.6,0.3,3.3-0.2,4.9-0.6
		c1.5-0.4,4.3-1.1,5.4-2.6c0.2,0.5,0.4,0.9,0.7,1.4c-1,0.2-2,0.7-2.9,1.1c-0.6,0.2-5.3,2.2-6.9,2.8C194.4,96,194,95.3,193.6,94.7z
		 M188.1,86.4c0.1,0,0.1,0,0.2,0c3.5-0.2,8.4-0.5,11.6-2.6c0.4,0.8,0.9,1.5,1.3,2.3c-1,0.2-2,0.6-3,1c-2.5,1-5,2-7.5,3.1
		C189.8,88.9,188.9,87.7,188.1,86.4z M179.3,72.7c1.3,0,2.7-0.6,3.8-0.9c2.3-0.7,5.6-1.2,7.5-2.8c0.3,0.4,0.6,0.8,0.9,1.3
		c-0.1,0-0.1,0-0.2,0c-1.4,0.6-2.7,1.5-4.1,2.2c-1.5,0.7-3.1,1.3-4.7,1.8c-0.8,0.2-1.3,0.3-1.8,0.6
		C180.1,74.2,179.7,73.4,179.3,72.7z M176.6,68.1c1.8-0.1,3.8-1,5.5-1.5c1.8-0.5,3.9-0.7,5.6-1.6c0.6,0.8,1.2,1.7,1.8,2.5
		c-2.2,0.2-4.4,1.5-6.4,2.1c-1.3,0.5-3.4,0.7-4.7,1.7C177.8,70.3,177.2,69.2,176.6,68.1z M185.1,75.3c1.9-0.5,6-1.5,7.4-3.4
		c0.3,0.5,0.6,1,1,1.5c-3.4-0.1-7.8,3.7-11,4.6c-0.4-0.7-0.8-1.3-1.3-2C182.5,76.3,184.2,75.6,185.1,75.3z M186.2,78.4
		c1.6-0.6,3.1-1.4,4.7-2c1.2-0.5,2.5-0.7,3.8-0.9c0.4,0.7,0.8,1.4,1.3,2.1c-1.3,0-2.6,0.9-3.8,1.5c-1.1,0.5-2.2,1-3.4,1.4
		c-1.3,0.5-2.6,0.5-3.6,1.5c-0.1,0.1-0.1,0.1-0.1,0.2c-0.7-1.1-1.4-2.2-2.1-3.3C184,79.1,184.8,78.9,186.2,78.4z M191.1,81.9
		c1.6-0.6,4.7-1.3,5.8-2.9c0.6,1,1.2,2,1.8,3c-1.1,0.4-2.2,0.9-3.3,1.2c-2.4,0.7-4.8,1.4-7.3,1.9c-0.3,0.1-0.5,0.3-0.6,0.6
		c-0.7-1-1.3-1.9-2-2.9C187.3,83.5,189.5,82.5,191.1,81.9z M195.1,90.1c1.8-0.6,3.5-1.2,5.3-1.7c0.6-0.2,1.2-0.3,1.8-0.4
		c0.3,0.6,0.6,1.1,0.9,1.7c-1.5,0.3-3.1,1.6-4.4,2.2c-1.8,0.8-3.8,1.3-5.7,1.6c-0.6-0.9-1.1-1.7-1.7-2.6
		C192.4,90.9,193.6,90.5,195.1,90.1z M205.7,97.7c-1.2-1.4-3.4,0-4.6,0.5c-1.3,0.6-2.8,1.5-4.3,1.9c-0.4-0.7-0.8-1.4-1.2-2.1
		c1.7-0.1,3.4-0.8,5-1.4c1.2-0.4,2.4-0.9,3.6-1.2c0.5-0.1,0.9-0.2,1.4-0.3c0,0,0,0,0.1,0c1.4,3.2,2.6,6.5,3.4,9.7
		c-1.2-0.3-2.5-0.4-3.7-0.5c0.6-0.5,1-1.1,1.2-1.9c0.1-0.4-0.3-0.9-0.7-0.9c-1.1-0.1-1.9,0.5-2.8,1.1c-1.3,0.9-2.7,1.5-4.3,1.5h-0.1
		c-0.3-0.7-0.6-1.3-0.9-2c1.1-0.3,2.2-0.7,3.3-1.1c0.8-0.3,1.7-0.7,2.5-0.9c0.7-0.2,1.4-0.2,1.9-0.7C206,99,206.1,98.2,205.7,97.7z
		 M212.3,105c0-0.2,0-0.4,0-0.6c-0.2-0.9-0.5-1.9-0.8-2.8c0.5,1.1,1,2.3,1.4,3.4C212.7,105,212.5,105,212.3,105z M198,64.5
		c-1.5,1.2-3.5,3.4-2.6,5.3c0.1,0.3,0.5,0.3,0.6,0c0.4-0.7,0.4-1.5,0.8-2.3s1.1-1.4,1.8-2c1.4,2.6,2.6,5.2,3.8,7.7
		c2.7,5.5,2.8,11.8,4.7,17.6c-3-6-6.6-11.8-9.8-17.1c0.3-0.6,0.6-1.1,0.9-1.7c0.4-0.8-0.7-1.4-1.1-0.6c-0.2,0.4-0.4,0.8-0.5,1.1
		c-1.3-2.1-2.7-4.2-4.1-6.1c0.7-0.3,1.4-1,1.7-1.3c0.7-0.6-0.3-1.7-1-1c-0.3,0.3-1,0.7-1.5,1.2c-1-1.5-2.1-2.9-3.2-4.3l0,0
		c0.5-0.3,0.7-1.1,1.1-1.6c0.5-0.7,1.2-1.2,1.9-1.6c0.8-0.5,0.1-1.8-0.6-1.3c-0.8,0.6-1.6,1.2-2.3,2c-0.4,0.4-0.8,1-0.9,1.6
		c-1.8-2.3-3.6-4.5-5.6-6.6c0.2-0.2,0.4-0.4,0.6-0.6c0.6-0.6,1.2-1.2,1.8-1.8c0.5-0.5-0.2-1.4-0.8-0.9c-0.6,0.6-1.2,1.2-1.8,1.8
		c-0.2,0.2-0.4,0.4-0.6,0.6c-0.2-0.2-0.4-0.5-0.6-0.7c1.4-1.1,2.7-2.4,4.2-3.4c1.1,1.3,2.2,2.6,3.4,3.9c-1.5,1-3.9,2.5-3,4.4
		c0.1,0.3,0.4,0.3,0.6,0c0.4-0.7,0.8-1.5,1.4-2.1c0.6-0.5,1.3-0.9,1.9-1.3c0.7,0.8,1.5,1.5,2.3,2.3C194.1,58.2,196.1,61.3,198,64.5z
		 M172.5,61.4c3.1-0.8,6.1-1.7,9-2.9c0.3-0.1,0.4-0.3,0.5-0.6c0.5,0.6,0.9,1.1,1.4,1.7c-1.2,0.1-2.4,0.7-3.6,1.1
		c-2.1,0.7-4.1,1.8-6,2.8C173.4,62.7,173,62,172.5,61.4z M165.5,52.5c3-1.1,6.1-2,9.2-3.1c0.3,0.3,0.5,0.5,0.8,0.8
		c-1.7-0.1-3.8,1.2-5,1.7c-1.1,0.4-2.1,0.8-3.1,1.3c-0.1,0.1-0.5,0.2-0.8,0.3C166.1,53.2,165.8,52.9,165.5,52.5z M171.8,53.9
		c1.5-0.5,4-0.8,5-2.1c0.5,0.6,1.1,1.2,1.6,1.8c-1.8-0.1-3.8,1.1-5.5,1.7c-1.2,0.4-2.5,0.9-3.7,1.6c-0.5-0.6-1-1.2-1.5-1.8
		C169.1,54.7,170.4,54.3,171.8,53.9z M170.5,58.4c1.1-0.4,2.2-0.9,3.3-1.3c1.8-0.6,4.3-0.8,5.5-2.4c0,0,0-0.1,0.1-0.1
		c0.6,0.6,1.1,1.3,1.7,2c-1.6,0-4.3,1.3-5,1.5c-1.5,0.6-3,1.1-4.6,1.6C171.1,59.2,170.8,58.8,170.5,58.4z M109.5,20.1
		c2.4-0.2,4.7-0.2,7.1-0.2c-0.1,0.8-0.2,1.8,0.2,2.4c0.1,0.2,0.4,0.1,0.5,0c0.2-0.4,0.2-0.8,0.2-1.3c0-0.4,0-0.7,0-1.1
		c1.6,0,3.1,0.1,4.7,0.3c0,0.4,0,0.7,0,1.1c0,0.5-0.1,1,0.1,1.5c0.1,0.2,0.5,0.3,0.5,0c0.2-0.5,0.1-0.9,0.1-1.4c0-0.4,0-0.8,0-1.2
		c4,0.4,8,0.9,12,1.6c0.1,0.4,0.2,0.9,0.3,1.3c0.1,0.5,0.2,0.9,0.6,1.2c0.2,0.1,0.5,0.1,0.5-0.2c0.1-0.5-0.2-1-0.4-1.5
		c-0.1-0.2-0.2-0.5-0.2-0.7c5.2,0.9,10.3,2,15.3,3c4.3,0.9,8.3,2.2,12.1,3.9c-0.2,0.5-0.5,1.1-0.4,1.7c0,0.3,0.4,0.4,0.6,0.2
		c0.4-0.4,0.5-1,0.7-1.5c1,0.5,1.9,1,2.9,1.5c-0.7,0.8-1.4,1.7-1.6,2.7c-0.1,0.3,0.3,0.5,0.5,0.3c0.7-0.5,1.1-1.3,1.5-2
		c0.1-0.2,0.3-0.4,0.4-0.5c1.2,0.7,2.4,1.5,3.5,2.3c-0.1-0.1-0.3-0.1-0.5,0.1c-0.8,0.5-1.5,1.1-2.2,1.8c-0.5,0.6-1.5,1.4-1.3,2.2
		c0,0.1,0.2,0.2,0.3,0.2c0.7-0.1,1.2-1.1,1.7-1.6c0.6-0.7,1.4-1.3,2.2-1.8c0.3-0.2,0.3-0.5,0.1-0.7c2.7,2,5.2,4.3,7.5,6.9
		c-1.7,0.9-5.7,3.3-3.6,5.1c0.2,0.2,0.5,0,0.5-0.2c-0.2-0.9,0.6-1.7,1.2-2.2c0.8-0.7,1.7-1.2,2.7-1.7c1,1.2,1.9,2.4,2.7,3.6
		c0.5,0.8,1.1,1.6,1.7,2.3c-0.9,0.6-1.7,1.3-2.5,2c-0.5,0.5-1.2,1-1.5,1.7c-1-1.1-2-2.1-3-3.2c0.1-0.1,0.1-0.2,0.1-0.3
		c0-0.2,0-0.4-0.1-0.6c-0.1-0.3-0.5-0.6-0.9-0.6c-0.2,0-0.4,0-0.6,0c-1-1.1-2-2.1-3.1-3.1c-0.2-0.2-0.4-0.4-0.6-0.5
		c0.5-0.7,1-1.4,1.5-2c0.7-0.8,1.4-1.6,2.2-2.4c0.4-0.4-0.1-1.2-0.6-0.7c-1.3,1.3-3,2.8-3.8,4.6c-0.7-0.7-1.4-1.3-2.1-2
		c0.5-0.3,0.9-1,1.2-1.4c0.7-0.8,1.5-1.4,2.3-1.9c0.6-0.4-0.1-1.3-0.7-0.9c-0.8,0.5-1.5,1.1-2.2,1.8c-0.4,0.4-1.2,1.1-1.3,1.8
		c-1.2-1-2.3-1.9-3.6-2.8c0-0.3-0.2-0.5-0.5-0.6c-0.1,0-0.3,0-0.4-0.1c-6.6-4.5-13.9-7.7-21.7-9.7c-0.1-0.2-0.2-0.3-0.5-0.3
		s-0.5-0.1-0.8-0.1c-0.1-0.1-0.2-0.2-0.4-0.2c-0.4,0-0.9,0-1.3-0.1c-10.2-2.2-21-2.7-31.4-1.9c-6.4,0.5-12.9,1.6-19.3,3.1
		c0.1-0.1,0.3-0.2,0.2-0.4c-0.4-0.8-1.3-1.4-2-2c-0.7-0.5-1.5-0.9-2.2-1.3C93.1,21.9,101.3,20.7,109.5,20.1z M151.7,41.7
		c1.1-0.2,2.1-0.5,3.2-0.8c2.4-0.6,5.5-1,8-2c0.4,0.3,0.8,0.6,1.2,0.9c-1.1,0.2-2.3,0.7-3.4,1c-2.2,0.6-5.1,1-7.4,1.9
		C152.8,42.4,152.3,42,151.7,41.7z M138.2,34.9c1.9-0.2,3.9-1.2,5.8-1.6c1.9-0.4,3.5-0.6,4.9-1.7c0.8,0.3,1.7,0.6,2.5,0.9
		c-1.7,0.2-3.3,0.8-4.9,1.2c-2.1,0.6-4.1,1.1-5.9,2.1C139.8,35.6,139,35.2,138.2,34.9z M129.8,29.4c0.1,0,0.3-0.1,0.4-0.1
		c1.1,0,2.2,0,3.3-0.1c-1.3,0.8-2.5,1.7-3.1,2.9c0,0.1,0,0.2,0.1,0.2c2,0,3.8-1.1,5.7-1.8c1.2-0.4,2.5-0.9,3.8-1.4
		c0.6,0.1,1.2,0.3,1.8,0.4c-1.4,0.3-2.8,0.8-4.3,1.4s-3.4,1.1-4.7,2.2c-2.1-0.7-4.3-1.3-6.5-1.9c0.2-0.1,0.4-0.3,0.6-0.5
		C127.8,30,128.8,29.7,129.8,29.4z M109.2,27c-0.2,0-0.3-0.1-0.5-0.1c3.8-0.4,7.7-0.5,11.5-0.4c-0.9,0-1.9,0.1-2.8,0.1
		C114.9,26.7,112.1,26.8,109.2,27z M144.2,30.2c0.5,0.1,1.1,0.3,1.6,0.5c-1.2,0.3-2.4,0.7-3.6,1c-0.4,0.1-0.8,0.2-1.3,0.4
		C142.1,31.6,143.1,31,144.2,30.2z M139.1,32.6c0.1,0,0.2-0.1,0.3-0.1c-0.9,0.4-1.7,0.9-2,1.7c-0.1,0.1,0,0.3,0,0.4
		c-0.6-0.2-1.2-0.4-1.8-0.7C136.8,33.5,138,33,139.1,32.6z M147,35.7c2.5-0.5,5-0.6,7.2-1.9c0.3,0.1,0.5,0.2,0.8,0.4
		c-1.7,0.3-3.3,0.8-4.7,1.2c-1.7,0.5-4.1,1.1-5.7,2.5c-0.7-0.4-1.4-0.7-2.2-1.1C144.1,36.4,145.5,36,147,35.7z M151.7,37.3
		c2.3-0.5,4.9-0.3,7.2-1.1c0.4,0.2,0.7,0.5,1.1,0.7c-1.1,0.3-2.2,0.7-3.2,1.1c-2.4,0.8-4.9,1.4-7.4,2.3c-0.7-0.4-1.5-0.9-2.3-1.3
		C148.7,38.4,150.2,37.7,151.7,37.3z M23.6,200.4c-5.4-6.6-8-15.2-10.4-23.2c-1.5-5-2.2-10.2-2.4-15.4c0-0.4-0.1-1.2-0.2-2.1
		c2.2-8.1,3.1-15.4,7-23.1c5-9.8,13.2-14.5,23.2-8.1c7.2,4.5,11.4,15.9,14.9,23.3c4.3,9.2,6,19.3,5,29.4c-1,9.8-6.2,17.7-13.3,24.2
		C39,213.1,29.7,207.9,23.6,200.4z M61.4,211c0.5-0.2,1-0.5,1.4-0.7c2.1-1.2,4-2.6,5.8-4.2c0.7,0.2,1.6,0,2.5-0.2
		c2.1-0.6,5.2-1.7,6.8-3.3c0.8-0.8,0.2-2.2-1-2.1c-2,0.2-3.9,2-5.9,3c1.2-1.4,2.4-2.9,3.4-4.5c0.9,0.2,2,0.1,2.8,0
		c3-0.6,6.9-2.3,8.3-5.1c0.3-0.6-0.3-1.1-0.9-1c-2.7,0.6-6,3.9-9,4c1.1-1.9,2-4,2.7-6c2.5,0.3,8.8-4.2,9.9-5.2
		c0.5-0.5,0.2-1.3-0.5-1.3c-2.3,0-4.3,1.7-6.1,2.9c-0.9,0.6-1.7,1.2-2.7,1.6c1.2-3.7,2.1-7.6,2.6-11.5c0.4,0.3,0.8,0.6,1.2,0.8
		c1.7,1,3.6,1.5,5.4,0.5c0.5-0.3,0.3-1.2-0.3-1.3c-2.3-0.3-4-1.1-6-2.1h-0.1c0.3-2.3,0.4-4.6,0.4-6.9c1.2,0.1,2.3,0.1,3.4,0.2
		c1,0.1,1.8,0,2.6-0.2c-1.1,1.2-2.3,2.3-3.7,3.4c-0.3,0.2-0.2,0.6,0.2,0.7c2.7,0.1,4.9-1.6,6.5-3.7c0.7-1,1.3-2.1,2-3.2
		c0.2-0.4,0.5-0.8,0.8-1.1c0,0.1,0,0.2,0,0.4C94.8,183.9,83.2,212,61.4,211z M77.8,127c-0.2,0-0.4-0.1-0.7-0.1
		c-1.3-0.1-2.8,0-3.4,1.2c-0.2,0.3,0,0.8,0.2,1c0.8,0.6,1.5,0.4,2.4,0.2c1.3-0.2,2.6,0.1,3.9,0.4c4.5,5.3,8.1,11.1,10.5,17.3
		c-0.3-0.1-0.7-0.1-1,0.2c-0.9,1.2-1.6,2.1-3,2.7c-1.2,0.5-2.4,0.7-3.6,1.2c-0.6,0.3-0.7,1.1,0,1.4c1.8,0.8,3.6,0.1,5.2-0.8
		c1.3-0.8,2.6-1.9,2.9-3.4c0.5,1.4,1,2.9,1.3,4.3c-0.1,0-0.2,0-0.4,0c-1.9,0.6-3.4,2-4.8,3.5c-0.8,0.9-1.6,1.8-2.4,2.8
		c-0.5,0.7-1.1,1.3-0.8,2.2c0.1,0.2,0.3,0.4,0.5,0.5c1.6,0.2,2.5-2.1,3.3-3.2c1.2-1.7,2.6-3.5,4.6-4.3c0.1,0,0.1-0.1,0.1-0.1
		c0.6,2.5,1,5,1.2,7.6c-1.5,0.8-2.6,2.7-3.5,4c-0.3,0.4-0.6,0.8-1,1.2c0,0,0,0-0.1,0c-1.4-0.4-2.3-0.5-3.7-0.4
		c-1.1,0.1-2.3,0.1-3.4,0.2c0-0.4,0-0.7,0-1.1c-0.1-6.7-2.2-12.9-4.9-18.9c2.5,0.2,4.8-0.5,6.7-2.3c0.5-0.5,0.2-1.4-0.6-1.1
		c-2.3,0.8-4.6,1.7-7,1.5c-0.1-0.2-0.2-0.5-0.3-0.8c-0.4-1-0.9-2-1.3-2.9c2.1-0.4,4-0.7,6.2-0.8c1.7-0.1,3.5-0.2,4.7-1.4
		c0.3-0.3,0.2-0.9-0.2-1.1c-1.8-0.6-4.1,0-5.9,0.3c-1.8,0.3-3.8,0.6-5.3,1.7c-2.8-6.6-5.6-13-11.8-17.1c0.3-0.2,0.6-0.3,0.9-0.4
		c1-0.4,1.8-0.8,2.9-1.1c0.9-0.2,1.7-0.1,2.5-0.4c0.4-0.1,0.5-0.6,0.2-0.9C72.5,122,75.4,124.6,77.8,127z M60,116L60,116L60,116
		L60,116z M63,117.6c0.3,0,0.6-0.3,0.6-0.5c1.8,0.7,3.6,1.6,5.2,2.6c-1.5-0.6-3.3-0.3-4.8,0.1c-1.1,0.3-2.6,0.8-3.7,1.6
		c-1-0.5-2-1-3-1.5c0.6-0.4,1.1-0.8,1.8-1.2C60.3,118,61.7,117.8,63,117.6z M56.7,115.8c-1.3,0.3-2.5,0.8-3.3,1.7
		c-0.3,0.4,0,1,0.5,1c1,0,1.8-0.5,2.7-0.9c0.1-0.1,0.3-0.1,0.4-0.2c-0.7,0.5-1.2,1.1-1.6,1.8c-1.7-0.6-3.4-1.2-5.2-1.5
		C52.3,116.4,54.5,115.8,56.7,115.8z M47,119.5c0.2,0.1,0.4,0.2,0.6,0.1c5.4,1,11,3.7,15,6.2c6.1,3.9,8.2,13.4,11.1,19.6
		c3,6.5,5.3,12.7,5.8,20c0.2,3,0.1,6.1-0.1,9.2c-0.4,0.1-0.6,0.5-0.9,0.8v0.1c0.2,0,0.5,0.2,0.8,0.3c-0.8,7.1-3,14.1-6.6,20.2
		c-0.2,0.1-0.3,0.3-0.3,0.5c-2.1,3.5-4.7,6.6-7.7,9.2c-6.8,5.8-14.9,7.2-22.8,5.8c0.4-0.1,0.8-0.2,1.1-0.4
		c9.2-3.7,15.9-13.7,19-22.7c3.9-11.7,1.6-24.8-2.8-36c-4-10.3-9.7-23.2-20-28.5c-3.5-1.8-7-2.2-10.2-1.6c3.5-1.2,8.3-1.9,10.8-2.6
		C42,119.1,44.5,119.1,47,119.5z M26,122c-0.8,0.3-1.7,1.2-2.2,1.7c-0.9,0.8-2.3,1.9-2.9,3.1c-0.3,0.3-0.6,0.6-0.9,0.9
		c-9-25.4-0.6-55.4,16.1-75.8c4.1-5,8.8-9.2,13.8-12.8c-0.1,0.3-0.1,0.6,0.3,0.8c0.7,0.3,1.4,0.6,2,0.8c0.3,0.1,0.7-0.1,0.5-0.5
		c-0.4-0.9-1.4-1-2.2-1.4c-0.1,0-0.2-0.1-0.2-0.1c2-1.4,4-2.7,6.1-3.9c0.1,0,0.1,0.1,0.2,0.1c1,0.6,2.1,1.2,3.2,1.6
		c0.2,0.1,0.4-0.2,0.2-0.4c-0.7-0.9-1.7-1.4-2.8-1.8c1.8-1,3.7-2,5.6-2.9c0.8,0.2,1.5,0.8,2.3,1.1c0.2,0.1,0.6-0.1,0.4-0.4
		c-0.3-0.6-0.8-1-1.4-1.4c4.6-2.1,9.4-3.8,14.4-5.2c0.3,0.3,0.5,0.6,0.9,0.9c0.8,0.6,1.7,1.5,2.8,1.7c0.3,0,0.5-0.3,0.3-0.5
		c-0.5-0.8-1.3-1.2-2-1.7c-0.3-0.2-0.6-0.5-1-0.7c1.6-0.4,3.2-0.9,4.8-1.3c0.6,0.6,1.2,1.2,1.9,1.7c0.8,0.6,1.5,1.5,2.4,1.9h0.1
		c-17.1,4.2-33.6,12.3-45.4,24.8c-16.4,17.3-21.6,44.5-13,66.5c0.4,1.1,2,0.4,1.6-0.7c-0.5-1.5-0.9-3.1-1.3-4.6
		c0.3,0.2,0.7,0.3,1.1,0.1c0.5-0.3,1.1-0.5,1.6-0.8c0.3,1.9,0.7,3.9,1.4,5.6C31.6,119.3,28.2,120.5,26,122z M30.6,112
		c-0.3-1.5-0.6-3-0.8-4.6c0.5-0.1,0.9-0.1,1.4-0.1c0.6,0,1.3,0.1,1.9,0c0.1,1,0.2,2,0.3,3c-0.1,0.1-0.3,0.1-0.4,0.2
		c-0.6,0.3-1.2,0.6-1.8,1C30.8,111.6,30.7,111.8,30.6,112z M31.1,105.4c-0.6,0-1.1,0.1-1.7,0.2c-0.2-1.2-0.3-2.4-0.3-3.7
		c0.2,0,0.5,0.1,0.7,0.1c0.8,0,1.9,0,2.6-0.5c0.1,1.3,0.2,2.5,0.4,3.8C32.3,105.3,31.7,105.3,31.1,105.4z M32.4,100.2
		c-0.7-0.2-1.3,0.1-2,0.1c-0.5,0-0.9-0.1-1.3-0.1C29,99,29,97.8,29,96.6c0.1,0.1,0.3,0.1,0.4,0.1c0.7,0.2,2,0.2,2.3-0.6
		c0.3-0.7-0.2-1.1-0.9-1.1c-0.5,0-0.8,0.2-1.3,0.2c-0.1,0-0.3,0-0.4,0c0-1.3,0.1-2.6,0.2-3.8c0.2,0.1,0.4,0.2,0.6,0.2
		c0.7,0.2,1.2-0.2,1.8-0.6c0.4-0.3,0.1-1-0.4-0.8c-0.4,0.1-0.9,0.1-1.3,0.3c-0.2,0.1-0.4,0.2-0.6,0.3c0.2-1.7,0.4-3.5,0.7-5.2
		c0.2,0.1,0.4,0.1,0.5,0.1c0.4,0.1,0.7,0.3,1.1,0.4c0.2,0.1,0.4,0.1,0.6,0.1c0,0.1,0,0.1,0,0.2C31.8,91.2,32,95.7,32.4,100.2z
		 M32.3,84.8c-0.6-0.3-1.4-0.4-2-0.4c0.2-0.7,0.3-1.5,0.5-2.2c0,0,0,0,0.1,0c0.4,0,0.4-0.6,0.1-0.7c0.5-1.8,1-3.7,1.6-5.5
		c0,0.1,0.1,0.1,0.1,0.2c0.2,0.2,0.4,0.2,0.7,0.1c0.4-0.1,0.7-0.4,0.8-0.8c0.1-0.3-0.1-0.6-0.4-0.5s-0.5,0-0.7,0c-0.1,0-0.1,0-0.2,0
		c0.6-1.6,1.3-3.2,2-4.8c0.1,0.1,0.1,0.1,0.2,0.2c0.4,0.2,0.8,0.2,1.1,0.1C34.2,75,32.9,79.7,32.3,84.8z M43.9,57.5
		c-2.7,3.7-5.1,7.5-7,11.4l0,0c-0.2-0.3-0.6-0.4-0.9-0.2c-0.2,0.1-0.3,0.2-0.5,0.2c2.9-6,6.6-11.5,11.3-16.5
		c6.7-7.1,15.3-12.4,24.5-16.3c-0.5,0.3-1,0.5-1.4,0.8C60.3,42.2,50.4,48.7,43.9,57.5z M102.5,27.9L102.5,27.9L102.5,27.9
		L102.5,27.9z M117.1,28.9c0.6-0.1,1.2-0.1,1.8-0.1c2.2-0.1,4.6,0.1,7,0.3c-0.5,0.5-0.9,1.1-1.1,1.7
		C122.3,30.1,119.7,29.5,117.1,28.9z M161.1,48.5c0.4-0.1,0.7-0.2,1.1-0.3c2.5-0.8,4.9-0.7,7.5-1.1c0.7-0.1,1.1-1.3,0.2-1.6
		c-3.2-1.1-7,0.3-10.1,1.9c-1.3-1.1-2.7-2.1-4.2-3.1c1.2-0.2,2.5-0.6,3.6-0.9c1.8-0.5,3.5-0.9,5.3-1.3c0.8-0.2,1.5-0.2,2.1-0.3
		c2,1.7,3.9,3.5,5.9,5.4c0.1,0.1,0.1,0.1,0.2,0.2c-0.8,0.3-1.5,0.6-2.1,0.9c-2.1,0.9-4.1,2-6,3.2C163.5,50.5,162.3,49.5,161.1,48.5z
		 M174.7,64.8c1.5-0.5,2.9-1,4.4-1.5c1.8-0.6,4.1-1,5.6-2.2c0.5,0.7,1.1,1.4,1.6,2.1c-1.3,0.2-2.6,0.7-3.9,1.1
		c-2,0.7-4.8,1.2-6.6,2.5c-0.3-0.6-0.7-1.2-1-1.8C174.7,64.9,174.7,64.8,174.7,64.8z M177.3,153.1c-1.4-0.5-2.7-1.1-4-1.8
		c0.5-2.1,1.1-4.2,1.7-6.3c1.4,1.6,3.2,2.6,5.5,2.7c0.5,0,0.6-0.6,0.1-0.7c-0.2-0.1-0.5-0.1-0.7-0.2c0.2-0.2,0.3-0.5,0.1-0.8
		c-0.3-0.4-0.5-0.8-0.8-1.1c-0.4-0.3-0.9-0.6-1.3-1c-0.8-0.6-1.4-1.4-1.9-2.3c0.6-1.7,1.2-3.3,1.8-5c0.5,2.4,2.2,4.5,4.7,5.3
		c0.3,0.1,0.4-0.3,0.2-0.5c-2.6-2-5-4.7-3.7-8.1l0,0c0.3-0.8,0.5-1.6,0.8-2.3c0,0,0,0,0-0.1c1,4.1,2.8,8.9,6.7,10.1
		c0.1,0,0.1,0,0.1,0c1.2,0.8,2.4,1.3,3.6,1.2c-0.9,1.7-1.7,3.4-2.3,5.1c-0.6-0.1-1.3-0.2-1.9-0.4c0.1,0,0.2,0,0.3-0.1
		c0.6-0.2,0.6-1.1,0.1-1.3c-1.2-0.5-2-0.9-2.5-2.2c-0.4-1.1-2-0.4-1.6,0.7c0.2,0.6,0.5,1.2,0.9,1.7c-1.1-0.6-2.2-1.3-3.2-2
		c-0.7-0.4-1.4,0.6-0.7,1c1.9,1.3,5.2,3.7,8.2,4.1c-0.3,0.9-0.5,1.7-0.7,2.5c-2.7-0.1-5.4-0.5-7.9-2c-0.5-0.3-1.1,0.4-0.6,0.8
		c2.5,1.6,5.3,2.5,8.2,2.4c-0.1,0.9-0.2,1.8-0.1,2.6c-2.4,0.1-4.5-0.8-6.6-2.2c-0.4-0.3-0.9,0.3-0.5,0.6c1.8,1.5,4.7,3.3,7.1,2.8
		c0.3,3.2,1.6,6.2,3.5,8.5c-0.1,0-0.2,0-0.2,0c-1.8,0.5-3.3,1.5-4.8,2.6c-1.4,1-3.3,1.9-4.3,3.3c-0.2,0.4-0.2,1,0.4,1.1
		c0.2,0,0.4,0,0.6,0c-0.7,0.7-1.2,1.6-1.6,2.6c-1.3,0.2-2.5,0.3-3.8,0c0.1-0.5,0.3-1,0.5-1.5c0.5-1.1,1-2.1,1.7-3.2
		c2-0.6,3.8-1.7,5.4-2.9c0.2-0.2,0.1-0.6-0.2-0.5c-1.3,0.5-2.7,1.2-4.2,1.8c0.2-0.4,0.5-0.8,0.7-1.2c0.3-0.6-0.5-1.2-0.9-0.6
		c-0.3,0.5-0.7,1-1.1,1.6c-0.1-0.3-0.5-0.6-0.9-0.3c-0.4,0.3-0.9,0.5-1.3,0.8c-0.1,0.1-0.3,0.2-0.4,0.4c0.6-1.7,1.2-3.4,2-5
		c2.3,0,4.6-0.3,6.7-0.8c0.3-0.1,0.2-0.6-0.1-0.6c-2,0-4,0.2-6,0.2c0.3-0.6,0.5-1.2,0.8-1.8c0.2-0.4-0.4-0.6-0.6-0.3
		c-0.4,0.7-0.7,1.4-1.1,2.1c-1.7,0-3.4-0.1-5-0.6c-0.1-1-0.1-2,0-3c2.1,1.1,4.7,1.4,7,0.9c0.3-0.1,0.2-0.6-0.1-0.6
		c-2.3,0.1-4.8-0.3-6.9-1.6c0-0.6,0.1-1.3,0.2-1.9c1.1,1,2.7,1.4,4,1.9c1.7,0.6,3.4,0.9,5.2,0.6c0.7-0.1,0.9-1,0.2-1.3
		c-1.4-0.7-2.8-0.9-4.3-1.2c-1.7-0.3-3.2-1.3-4.9-1.6c0.1-0.7,0.2-1.3,0.4-2c1.3,0.7,2.6,1.2,4,1.3
		C177.5,153.8,177.7,153.3,177.3,153.1z M176.7,180.9c-0.3-0.4-0.5-0.9-0.7-1.3c0-0.1,0-0.1,0-0.2c-0.2-1.4-0.2-2.5,0-3.7
		c1.2,0.3,2.4,0.3,3.6,0.2c-0.1,0.3-0.1,0.6-0.2,0.8C178.2,177.8,177.2,179.3,176.7,180.9z M174.1,169.3c-0.4-0.1-0.8-0.2-1.1-0.3
		c-0.3-1.7-0.5-3.4-0.6-5.2c0-0.2,0-0.4,0-0.5c1.4,0.4,2.8,0.6,4.3,0.7C175.7,165.7,174.7,167.5,174.1,169.3z M173.2,170.2h0.1
		c0,0-0.1,0-0.1,0.1C173.2,170.3,173.2,170.3,173.2,170.2z M173.5,171.6c0,0.1,0,0.1,0,0.2C173.5,171.8,173.4,171.7,173.5,171.6
		C173.4,171.6,173.5,171.6,173.5,171.6z M174.8,171.5c0.2-0.1,0.4-0.1,0.6-0.2c0.4-0.1,0.8-0.3,1.2-0.6c-1,1.6-1.9,3.4-2.1,5
		c-0.1-0.4-0.3-0.9-0.4-1.4C174.3,173.4,174.5,172.4,174.8,171.5z M178.6,183.6c0.2-0.9,0.4-1.9,0.7-2.8c0.1,1.4,0.5,2.8,1,3.9
		c0.2,0.4,0.8,0.3,0.8-0.2c0-1.8-0.3-4.3-0.2-6.6c0.6-0.6,1.4-1.1,2.3-1.2s0.8-1.4-0.1-1.4c-0.6,0-1.3,0.1-1.9,0.4c0,0,0,0,0-0.1
		c1.1-0.3,2.2-0.7,3.3-1.3c-1.5,4.1-2.8,9.4-2,13C180.9,186.2,179.7,184.9,178.6,183.6z M198.2,195c0.1-0.1,0.2-0.2,0.2-0.4
		c0.2-1.4,0.3-2.7,0.5-4.1c0.5,1.3,1.2,2.6,2.1,3.7c0.2,0.3,0.8,0.1,0.6-0.3c-0.8-2.1-1.7-4.2-2.2-6.4c0.1-0.4,0.2-0.7,0.3-1.1
		c0.3-0.7-0.2-1.2-0.8-1.4c-0.2-2.1-0.1-4.3,0.7-6.4c0.1-0.4-0.3-0.7-0.6-0.5c0-0.6-0.1-1.2-0.1-1.8c0-0.3,0-0.6,0-1
		c0.3-1.4,0.8-2.8,1.3-4.2c0.2-0.6-0.6-1-0.9-0.5c0.1-0.3,0.2-0.6,0.2-0.9c0.8,0,1.6-0.1,2.4-0.3c-1.5,4.1-1.3,10,1.1,13.6
		c0.2,0.3,0.6,0.1,0.6-0.2c-0.5-4.8-2.4-9-0.3-13.8l0,0c0.1,0,0.2-0.1,0.3-0.1c-0.1,0.9-0.1,1.8,0.1,2.7c0.4,1.9,2.6,4.9,4.7,4.4
		c0.5,0.6,1,1.1,1.6,1.6c0.3,0.2,0.7-0.1,0.6-0.4c-1.6-3.2-4.6-5.9-4.3-9.8c0,0,0,0,0-0.1c0.5-0.4,0.9-0.8,1.4-1.2
		c0.6,3.8,4.1,7.5,6.9,9.6c0.3,0.2,0.8-0.1,0.5-0.5c-2.2-3-6.3-6.3-6.3-10.3c1.2-1.5,2.2-3.2,3-5c0.5,2.2,1.9,4.1,3.3,5.8
		c0.5,0.6,0.9,1.1,1.4,1.7c-0.3-0.2-0.6-0.4-1-0.5c-0.6-0.3-1,0.7-0.4,0.9c2.2,1,4,2.5,5.7,4.1c-0.7-0.3-1.8,0.4-1.5,1.4
		c0.3,0.9,0.7,1.7,1.2,2.5c0.1,0.1,0.2,0.3,0.3,0.5c0.4,2.7,1.3,5.3,3.1,7.3c-2.4,3-5.3,5.7-8.7,7.9c-0.7-0.6-1.4-1-2.1-1.7
		c-1.2-1.1-2.1-2.4-2.9-3.8c-1.3-2.2-2-4.6-3.2-6.8c-0.2-0.4-0.8-0.3-0.8,0.2c0.2,1.8,0.9,3.7,1.8,5.5c-0.2,0-0.3,0.1-0.4,0.3
		c-0.6,1.3-0.9,3.3-0.6,5.1c-2-3-1.8-6.8-0.9-10.2c0.2-0.7-0.8-1.1-1-0.4c-1.1,3.7-1.9,8.9,1.8,11.4c0.1,0.1,0.2,0.1,0.3,0
		c0.4,1.1,1,1.9,2.1,2.4c0.6,0.2,1.2-0.4,0.8-1c-1.3-2.2-2.2-4.1-1.6-6.7c0.4,0.7,0.7,1.3,1.1,1.9c0.9,1.4,2.5,4,4.4,4.5
		c-0.4,0.2-0.8,0.5-1.2,0.7c-1.3,0.7-2.6,1.3-4,1.7c-1.7-0.4-3.2-0.7-4.5-2s-1.7-3.3-2.1-5c-0.5-2-0.8-5.2-3.2-5.7
		c-0.1,0-0.1,0.1-0.1,0.1c2,2.3,1.7,6.2,2.7,9c0.8,2.1,2.2,3.8,4.2,4.3C203.4,195.7,200.8,195.6,198.2,195z M217.8,193.6
		c11.3-6.8,16.4-19.9,18-33.3c1.1,0.2,2.3,0.1,3.2-0.5c0.3-0.2,0.1-0.7-0.2-0.6c-1,0-1.9,0.1-2.9,0c0.2-1.7,0.3-3.5,0.4-5.2
		c0.9,0.1,1.7,0.1,2.6-0.1c0.4-0.1,0.4-0.6,0-0.7c-0.9-0.2-1.7-0.2-2.6-0.3c0-1.7,0-3.3,0-5c1.2,0.1,2.5-0.1,3.6-0.7
		c0.2-0.1,0-0.4-0.1-0.3c-1.2,0.3-2.4,0.3-3.5,0.2c0-1-0.1-2-0.2-3c1.8,0.2,3.6,0.1,5.3-0.2c0.3-0.1,0.4-0.5,0-0.6
		c-1.8-0.3-3.6,0-5.4-0.1c-0.1-1.5-0.3-3-0.5-4.5c1.9,0.2,3.9-0.2,5.4-0.9c0.3-0.2,0.2-0.6-0.1-0.6c-1.7,0-3.7,0.5-5.5,0.4
		c-0.1-0.6-0.2-1.1-0.3-1.7c-0.1-0.8-0.3-1.6-0.5-2.5c1.5-0.2,2.9-0.6,4.3-1.1c0.3-0.1,0.2-0.6-0.1-0.5c-1.5,0.2-3,0.5-4.5,0.6
		c-0.2-0.8-0.5-1.6-0.7-2.4c2.2-0.2,4.5-0.9,6.3-1.9c1.8,8.3,2,17.9,1.6,25.4c0,0.6-0.1,1.1-0.1,1.7c-0.4-0.1-0.7,0.5-0.3,0.7
		c0.1,0,0.2,0.1,0.3,0.1c-0.2,1.7-0.4,3.4-0.7,5.1c-0.3,0.1-0.5,0.5-0.2,0.8l0,0c-0.6,2.7-1.3,5.4-2.3,8c-0.4,0.1-0.7,0.5-0.5,1
		c0,0.1,0,0.1,0.1,0.2c-1.5,3.9-3.3,7.6-5.5,11.1c-2.8,4.4-6.5,8-11,10.5C220.1,193.1,219,193.4,217.8,193.6z M242.3,175.5
		c-2.3,4.4-5.3,7-8.7,9.4c2.8-3.9,5-8.1,6.6-12.6c0.3-0.1,0.5-0.3,0.7-0.5s0.1-0.6-0.2-0.6h-0.1c0.6-1.8,1.2-3.7,1.7-5.6
		c0.6,0,1.2,0,1.8,0c0.6,0,1.2,0,1.8-0.1C245.1,168.9,243.9,172.3,242.3,175.5z M247.6,153.5c-0.1,3.7-0.5,7.5-1.4,11.1
		c-1.1-0.4-2.4-0.3-3.5-0.3c0.1-0.5,0.2-1.1,0.4-1.6c0.1,0,0.2,0,0.3,0c1,0,2.8-0.1,3.4-1.1c0.1-0.1,0-0.4-0.1-0.5
		c-0.7-0.5-1.6-0.1-2.4,0c-0.3,0.1-0.6,0.1-0.9,0.1c0.3-1.4,0.5-2.9,0.7-4.4c1,0.2,2,0.3,2.8,0.2c0.3,0,0.3-0.4,0.1-0.5
		c-0.8-0.6-1.8-0.7-2.8-0.9c0-0.2,0.1-0.5,0.1-0.7c0.2-2.1,0.4-4.3,0.4-6.6c0.9,0.4,2,0.5,3,0.2
		C247.6,150.3,247.6,151.9,247.6,153.5z M247.2,143.6c-0.6,0.2-1.1,0.5-1.6,0.8c-0.7,0.3-0.2,1.4,0.5,1.1c0.4-0.2,0.8-0.4,1.3-0.6
		c0.1,1,0.1,1.9,0.2,2.8c-1,0.1-1.9,0.1-2.9-0.1c0-2,0-4-0.2-6.1c0.1,0.1,0.2,0.1,0.3,0.1c0.7,0,1.5,0,2.2,0
		C247,142.2,247.1,142.9,247.2,143.6z"/>
	<path class="st12" d="M178.1,48.1L178.1,48.1h0.1c0.3,0.1,0.6-0.2,0.8-0.4c0.5-0.5,1-1,1.6-1.5c0.6-0.6-0.3-1.6-0.9-1
		c-0.5,0.5-1,1-1.5,1.6C178,47,177.4,48,178.1,48.1z"/>
	<path class="st12" d="M128.1,22.7c0-0.3,0-0.7,0-1c0-0.1-0.1-0.1-0.1,0C128,22,128,22.3,128.1,22.7C128,22.7,128.1,22.7,128.1,22.7
		z"/>
	<path class="st12" d="M142.4,24.6c0.4,0.2,0.7,0.4,1,0.8c0.2,0.3,0.2,0.7,0.4,1c0.1,0.2,0.5,0.2,0.6,0c0.6-1.1-0.8-2.1-1.6-2.5
		C142.2,23.5,141.9,24.3,142.4,24.6z"/>
	<path class="st12" d="M94.6,25.9c0.3-0.1,0.2-0.4,0-0.5c-1.4-0.4-2.8-0.9-4-1.8c0,0-0.1,0-0.1,0.1C91.4,25,92.8,26.3,94.6,25.9z"/>
	<path class="st12" d="M116,136.6c-0.2,0.4-0.4,0.7-0.5,0.9c-0.1,0.3,0.1,0.7,0.3,0.8c0,0.1,0,0.2,0.1,0.3c0.2,1.9,0.8,3.8,1.9,4.8
		c0.8,0.8,1.7,0.8,2.4,0.4c0.1,0.1,0.3,0.2,0.4,0.1c0,0,0,0,0.1,0c0.1-0.1,0.2-0.2,0.2-0.3c0.1-0.2,0.2-0.4,0.3-0.6
		c0.6-0.6,1-1.4,1.3-2.1c1.2-3.1,0.8-5.5-0.5-8.5c-1-2.4-1.8-4.8-2.5-7.2c3.6-1.4,7.3-5.4,9.4-8.2c0.4-0.6,0.2-1.4-0.6-1.4
		c-2.5-0.1-4.8,0.4-7.2,0.8c-0.2,0-0.4,0-0.6,0.1c-1.4,0.3-2.8,0.5-4.2,0.6c-0.5,0-1,0.5-0.8,1c1.3,3.8,2,8,3.6,11.7
		c0.5,1.2,1.2,2.5,1.7,3.8C118,131.4,116.3,133.6,116,136.6z M117.6,138.9c0,0.2,0,0.3,0,0.5c0,0.3,0.2,0.6,0.5,0.7
		c-0.1,0.2-0.2,0.4-0.2,0.6v0.1c-0.3-0.6-0.5-1.3-0.6-1.9C117.3,138.9,117.4,138.9,117.6,138.9z M121.4,140.1
		C121.4,140.1,121.3,140.1,121.4,140.1c-0.2,0.1-0.2,0.1-0.3,0.2c0.1-0.1,0.2-0.3,0.4-0.4C121.4,139.9,121.4,140,121.4,140.1z
		 M118.1,141.5c0.1,0.1,0.2,0.1,0.4,0.1c0,0.2,0,0.3,0.1,0.5C118.3,141.9,118.2,141.7,118.1,141.5z M119.3,142.5
		c-0.1,0-0.1-0.1-0.2-0.1c0,0,0,0,0.1,0c0.3,0,0.5,0,0.7,0C119.7,142.5,119.5,142.5,119.3,142.5z M126,117.9
		c-0.1-0.1-0.1-0.3-0.1-0.6c0.3,0,0.5,0,0.8-0.1C126.4,117.4,126.2,117.7,126,117.9z M123.9,117.8c-0.1,0.1-0.2,0.2-0.3,0.3
		c0-0.1,0-0.2-0.1-0.3c0-0.1-0.1-0.1-0.1-0.2c0.2,0,0.5-0.1,0.7-0.1C124,117.6,123.9,117.7,123.9,117.8z M120.7,118.1
		c0.1,0.3,0.1,0.5,0.2,0.8c0,0.1,0,0.2,0,0.3s0,0.2,0,0.3c-0.1-0.4-0.3-0.9-0.5-1.2C120.5,118.1,120.6,118.1,120.7,118.1z
		 M118.8,118.4c0.2,1,0.5,2.1,0.9,3.1c0,0.6-0.1,1.1-0.1,1c-0.8-1.1-0.7-2.7-1.2-4C118.5,118.5,118.6,118.5,118.8,118.4z"/>
	<path class="st12" d="M97.6,108.9c-6.7,2.5-14.7,4.4-20.2,9c0,0,0,0.1,0.1,0.1c5-4,14.5-5.5,20.6-8.1c8.4-3.6,17.3-2.6,26-0.8
		c6.8,1.4,13.6,2.2,20.5,2.1c8.3-0.2,15.6-4.7,24.2-3.8c0.3,0,0.5-0.4,0.2-0.6c-5.3-2-12.3,0.3-17.4,2c-10.2,3.5-22.1,0.1-32.3-1.8
		C111.8,105.8,104.6,106.3,97.6,108.9z"/>
	<path class="st12" d="M113.3,112.8c-3.6-1.6-22.5-1.5-21.3,5.2c0,0.1,0.2,0.1,0.2,0.1c5.5-6.4,13.5-3.9,21-4.7
		C113.5,113.4,113.6,113,113.3,112.8z"/>
	<path class="st12" d="M176,100.1c-7.4-1.6-14.6,0-21.9,1.2c-3.5,0.6-7,1.8-10.5,2.5c-4.1,0.7-8.2-0.8-12.4-0.6
		c-0.1,0-0.1,0.2,0,0.2c6.3,1.2,11.4,1.8,17.7,0.3c9-2.1,17.6-4.1,27-3.2C176.1,100.6,176.2,100.2,176,100.1z"/>
	<path class="st12" d="M186.6,106.6c0.3-0.1,0.1-0.5-0.2-0.5c-4.2-0.2-8.2-0.6-12.3-1.6c-0.4-0.1-0.6,0.6-0.1,0.7
		c2.2,0.6,4.4,1.1,6.7,1.5C182.5,107,184.8,107.5,186.6,106.6z"/>
	<path class="st12" d="M176.2,111.3c-1.3,0.1-2.7,0.3-4,0.5s-2.8-0.1-3.9,0.5c-0.1,0-0.1,0.2,0,0.2c1,0.5,2.4,0.4,3.5,0.3
		c1.6,0,3.1-0.1,4.6-0.9C176.7,111.8,176.7,111.2,176.2,111.3z"/>
	<path class="st12" d="M103.7,190.5C103.7,190.6,103.7,190.6,103.7,190.5c5.2-3.5,10.9-2.6,16.7-3.5c4.6-0.7,15.3,1.1,19.2-2.3
		c0.2-0.1,0-0.4-0.2-0.3c-4.1,1.3-9.7,0.7-14,0.8c-3.4,0.1-6.9,0.9-10.3,1.1C112.2,186.4,104.1,186.4,103.7,190.5z"/>
	<path class="st12" d="M167.8,185.1c0.3-0.2,0.1-0.6-0.3-0.5c-3.1,1-6.1,2.6-9.2,3.8c-4.2,1.5-8.3,1.6-12.5,2.5c0,0,0,0,0,0.1
		C152.2,192.6,162.8,189.2,167.8,185.1z"/>
	<path class="st12" d="M140.1,190.3c-9.8,2.8-18.5,4.4-28.7,4.6c-7.1,0.2-15.1,2.1-20.6,6.8c-0.1,0.1,0,0.3,0.2,0.2
		c8.1-4.3,16-5.9,25.1-6c8.2-0.1,16.9-1.3,24.2-5.2C140.6,190.6,140.4,190.2,140.1,190.3z"/>
	<path class="st12" d="M149.6,175.9c-1.4,0-2.8,0.5-4.1,0.8c-1.8,0.5-3.7,0.7-5.6,0.6c-0.5,0-0.7,0.8-0.1,0.8c3.2,0.4,7.2,0,10-1.6
		C150.1,176.3,149.9,175.9,149.6,175.9z"/>
	<path class="st12" d="M177.3,196.2c-6.7,2.6-12.8,0.8-19.7,0.8c-2.7,0-7,0-8.8,2.5c0,0,0,0.1,0.1,0.1c5.1-1.8,10.5-1.6,15.8-1
		c4.7,0.6,8.9,1,13-1.8C177.9,196.6,177.6,196.1,177.3,196.2z"/>
	<path class="st12" d="M161.6,127.4c0.4,0.1,0.6-0.5,0.2-0.7c-1.9-1-4.2-0.9-6.2-0.8c-0.9,0-4.5-0.1-4.7,1.2c0,0.2,0.1,0.3,0.2,0.4
		c0.8,0.1,2.9-0.4,4-0.4C157.2,127,159.5,127,161.6,127.4z"/>
	<path class="st12" d="M92.5,123.7c2.9-1.2,6.2-0.4,8.8-2.1c0.2-0.1,0.1-0.4-0.1-0.4c-5.6,0.5-10.6,1.7-15.4,4.7c-0.1,0,0,0.1,0,0.1
		C88.1,126.2,90.3,124.5,92.5,123.7z"/>
	<path class="st12" d="M94.7,134.4c1.2-0.1,2.3-0.3,3.5-0.4c1.1-0.1,2-0.2,3-0.6c0.3-0.1,0.2-0.6-0.1-0.6c-2-0.1-4.8,0.1-6.5,1.3
		C94.5,134.1,94.5,134.4,94.7,134.4z"/>
	<path class="st12" d="M147.7,154.4c-2,0.8-3.4,3-3,5.2c0.3,1.8,1.8,2.3,3.3,2.2l0.1,0.1c0.3,0.3,0.9,0.3,1.1-0.1
		c0.1-0.1,0.1-0.2,0.1-0.3c0.4-0.1,0.7-0.2,1-0.4c2.5-1.1,3.7-3.5,2.8-6V155c0-0.2-0.1-0.4-0.3-0.5c0,0,0,0-0.1-0.1l0,0
		c-0.1-0.1-0.3-0.2-0.5-0.2c-1-2.7-1.8-5.4-2.8-8.1c-0.4-1.2-1.8-6.1-3.2-8c-0.5-1-1-1.9-1.4-2.9c-0.1-0.3-0.6-0.5-0.8-0.4
		c-1.5,0.6-3,1.4-4.5,1.9c-2.3,0.8-5,0.6-7.4,1.1c0-0.1,0-0.2-0.1-0.3c0-0.2-0.4-0.2-0.5,0c0,0.2-0.1,0.5-0.1,0.7v0.1
		c-0.4,4.3,1.2,8.7,2.3,12.9c-1.2-0.9-2.7-0.8-3.9,0.1c-3.7,0.9-4.1,7.2-0.2,8.3c2.1,0.6,4.5-1.2,5.4-2.9c0.3-0.5,0.4-1.1,0.4-1.7
		c0.2-0.1,0.3-0.3,0.3-0.6c-0.4-2.8-1.1-5.5-1.7-8.2c1.2-0.1,2.3-0.3,3.5-0.5c0.2,0.1,0.5,0,0.7-0.1c2.9-0.6,5.7-1.2,8.6-0.9h0.1
		c0.8,1.8,1.4,3.6,1.9,5.5c0.3,1.1,0.6,2.8,1.2,4.1C149.4,154.1,148.4,154.1,147.7,154.4z M135.9,142.9c-0.1-0.2-0.3-0.2-0.3,0
		c-0.1,0.3-0.2,0.5-0.2,0.8c-0.6-1.3-1-3.8-1.4-4.9c1-0.1,2-0.1,3-0.2c0.1,0.8,0.2,1.9,0.5,2.9c0,0.2,0,0.4,0,0.6
		c-0.4-0.7-0.9-1.5-1.4-2.2c-0.6-1-2.1,0-1.5,0.9c0.8,1.2,1.5,2.3,2.2,3.6c-0.2,0-0.3,0.1-0.5,0.1
		C136.2,143.9,136,143.4,135.9,142.9z M142.5,138.3c-0.6-0.3-1.5,0.1-1.3,1c0.2,0.8,0.4,1.6,0.7,2.4l-0.1,0.1c0,0.1,0,0.2-0.1,0.2
		c-0.7-1.2-1.2-2.5-1.7-3.8c0.8-0.2,1.5-0.5,2.2-0.9C142.4,137.7,142.4,138,142.5,138.3z M139.6,140.8c0.1,0.5,0.1,1,0,1.5
		c-0.1-0.2-0.2-0.4-0.3-0.6c-0.5-1-0.7-2.2-1.2-3.2c0.3,0,0.6,0,0.9-0.1C139.1,139.2,139.3,140,139.6,140.8z M138.4,144.1
		c-0.2-0.5-0.4-0.9-0.6-1.3c0-0.1-0.1-0.3-0.1-0.4c0.2,0.7,0.5,1.3,0.9,1.7C138.5,144.1,138.5,144.1,138.4,144.1z M140,141.9
		c0.3,0.6,0.6,1.2,1,1.7c-0.2,0-0.4,0.1-0.6,0.1C140.2,143.1,140.1,142.5,140,141.9z M132.4,152.3c-0.1,0-0.3,0.1-0.4,0.1
		c-0.1,0-0.3,0-0.4,0c-0.3,0-0.6,0.2-0.9,0.4C131.3,152.4,131.8,152.2,132.4,152.3z M132.5,139c0.2,0,0.4,0,0.6-0.1
		c-0.2,0.9,0.2,2.5,0.3,3c0.2,0.9,0.5,2.2,1.1,3.2c-0.2,0.1-0.3,0.2-0.5,0.3C133.4,143.2,132.9,141.1,132.5,139z M144.4,143.1
		c0-0.2,0.1-0.3,0.1-0.5c0.2,0,0.4,0,0.4-0.3c0.2-0.9-0.1-1.7-0.4-2.6c-0.3-1-0.6-2-0.9-3c0.1-0.1,0.2-0.1,0.4-0.1
		c0,0.1,0.1,0.2,0.1,0.3s0,0.3,0.2,0.4c0.1,0.1,0.1,0.2,0.2,0.3c0.3,0.6,0.6,1.3,0.9,2c0.3,1,0.5,1.9,0.8,2.9c0,0.2,0,0.3,0,0.5
		C145.5,143,145,143,144.4,143.1z M151.4,156.5C151.5,156.5,151.5,156.5,151.4,156.5C151.5,156.5,151.5,156.5,151.4,156.5
		C151.5,156.5,151.5,156.5,151.4,156.5z M148.1,156L148.1,156c0.2,0.7,0.3,1.3,0.4,1.8c0.1,0.7,0.1,1.3,0,2
		c-0.1-0.3-0.2-0.5-0.3-0.8s-0.2-0.6-0.4-0.9c-0.1-0.2-0.3-1-0.3-0.8c0.1-0.3-0.1-0.6-0.4-0.6C147.5,156.4,147.8,156.2,148.1,156z
		 M146.2,158.9c0-0.5,0.1-1.1,0.4-1.5c0,0.5,0.2,1.2,0.3,1.6c0.1,0.4,0.2,0.8,0.3,1.2C146.7,160,146.3,159.7,146.2,158.9z
		 M149.8,155.6c0,0.5,0,1-0.1,1.5c-0.2-0.5-0.3-0.9-0.5-1.4c0-0.1-0.1-0.1-0.1-0.1C149.3,155.5,149.5,155.6,149.8,155.6z"/>
	<path class="st12" d="M172.4,123c-0.4-2-1-3.9-1.4-5.9c-0.1-0.6-0.9-0.8-1.3-0.5c0,0-0.1,0-0.1,0.1c-1-0.1-2,0.4-3,0.7
		s-1.9,0.6-2.9,0.9c-1.1,0.1-2.2,0.1-3.3,0.2c-0.7,0-1.2,0.9-0.6,1.4c2,1.7,2.3,5.5,2.8,8c0.4,2.4,0.9,4.7,1.6,7
		c-1-0.5-2.1-0.6-3.2-0.4c-2.4,0.4-5,2.4-3.8,5.1c0.6,1.3,1.9,2.2,3.4,2.6c0.2,0.1,0.4,0.2,0.6,0.1c0.9,0.1,1.7,0,2.5-0.3
		c0,0.1,0.1,0.2,0.1,0.2c0.3,0.4,0.8,0.6,1.2,0.3c0.7-0.6,1.1-1.3,1.2-2.1c0.3-0.3,0.6-0.7,0.7-1.1c0.1-0.6,0-1-0.3-1.4
		c0.1-0.1,0.1-0.3,0-0.5s-0.1-0.4-0.2-0.6c-0.1-2.7-1-5.2-1.6-7.8c-0.3-1.2-0.5-2.5-0.7-3.7c2.6-0.2,5.2-0.7,7.8-1.2
		C172.2,124,172.5,123.5,172.4,123z M160.7,139.7c-0.2-0.4-0.3-0.8-0.5-1.2s-0.3-0.9-0.5-1.3c0,0,0-0.1-0.1-0.2
		c0.3-0.2,0.5-0.3,0.8-0.4c0,0.1,0,0.1,0,0.2C160.5,137.6,160.8,138.7,160.7,139.7z M164.3,137.9c0.1,0.1,0.1,0.2,0.2,0.2
		c0,0.4,0.1,0.8,0.1,1.1l-0.1,0.1C164.4,138.9,164.3,138.4,164.3,137.9z M168.8,119.1c-0.1-0.1-0.1-0.1-0.2-0.1c0.1,0,0.1,0,0.2-0.1
		C168.8,119,168.8,119.1,168.8,119.1z M167.4,120.1c0-0.1-0.1-0.2-0.1-0.3c0.1,0,0.2-0.1,0.4-0.1c0,0,0,0,0,0.1c0,0.5,0,0.9-0.1,1.4
		C167.5,120.7,167.4,120.4,167.4,120.1z M165.4,121.2c0-0.4,0-0.7-0.1-1.1c0.2,0,0.5,0,0.7-0.1C165.9,120.5,165.7,121.4,165.4,121.2
		z M163.7,123.4c-0.1-0.4-0.1-0.7-0.2-1.1c0.1,0.2,0.2,0.4,0.4,0.6c0,0.1,0.1,0.1,0.1,0.1C163.9,123.2,163.8,123.3,163.7,123.4z
		 M162.3,136.2c0,0.1,0,0.2,0,0.2c0,0.9,0.2,1.9,0.1,2.8c-0.3-0.9-0.4-1.8-0.7-2.7l0,0l0,0c0-0.1,0-0.1,0-0.2v-0.1
		C161.8,136.2,162.1,136.2,162.3,136.2z M158.8,137.7c0.1,0.5,0.2,1.1,0.3,1.6C158.5,138.7,158.5,138.2,158.8,137.7z"/>
	<path class="st12" d="M97.8,144.1l0.1,0.1c0.4,3.4,2.7,6.7,3.6,10c0.8,2.5,1.3,5.3,2.4,7.8c-1.4-0.6-3.1-0.2-4.3,1.1
		c-1.6,1.7-1.1,4.5,0.7,5.9c1.2,0.9,3,1.1,4.4,0.4c0.2,0.1,0.5,0.2,0.7,0.1c0.3-0.2,0.3-0.5,0.2-0.8c0.1-0.1,0.2-0.1,0.2-0.2
		c0.8-1.1,0.8-2.3,0.3-3.3c0.1-0.1,0.2-0.2,0.2-0.4c-0.9-3.7-2.1-7.7-3.5-11.5c0,0,0,0,0.1-0.1c0.3-0.2,0.5-0.5,0.7-0.8
		c0.8-0.9,1.7-1.6,2.5-2.4c1.4-1.3,3-2.5,4.3-4c0.3-0.4,0.3-1.1-0.3-1.2c-2.4-0.6-4.9-0.6-7.4-0.9c-1.3-0.2-2.9-0.4-4.2-0.3
		c-0.1-0.2-0.2-0.4-0.3-0.5c-0.1-0.2-0.4-0.1-0.4,0.1c0,0.2,0,0.4,0,0.5C97.8,143.8,97.8,144,97.8,144.1z M107.5,145.7
		c-0.2,0.2-0.4,0.1-0.6-0.1C107.1,145.7,107.3,145.7,107.5,145.7L107.5,145.7z M103.9,145.4c0.4,0,0.8,0.1,1.2,0.1
		C105.2,147,104.4,146.3,103.9,145.4z M102.3,151.8c-0.1-0.2-0.2-0.5-0.3-0.7c0.1,0.2,0.3,0.3,0.4,0.5l0,0
		C102.4,151.7,102.4,151.7,102.3,151.8z M103.6,150.3L103.6,150.3L103.6,150.3L103.6,150.3z M101,145.1L101,145.1
		c0.2,0.7,0.3,1.4,0.6,2.1c0.1,0.4,0.2,0.8,0.3,1.2c-0.7-1.1-1.2-2.2-1.7-3.4C100.5,145,100.8,145.1,101,145.1z M104.7,167.1
		c-0.1-0.1-0.2-0.3-0.2-0.3c-0.3-0.5-0.4-1.2-0.9-1.7c-0.1-0.4-0.2-0.7-0.3-1.1C104.4,164.8,105.3,166,104.7,167.1z M101.7,163.6
		c-0.1-0.1-0.2-0.1-0.3-0.1c0.1-0.1,0.2-0.1,0.3-0.2C101.7,163.4,101.7,163.5,101.7,163.6z M100.2,165.5c0.1,0.6,0.3,1.2,0.6,1.8
		C100.3,166.8,100.2,166.2,100.2,165.5z M104.3,149.7c0.1-0.6,0.2-1.1,0.1-1.6c0.2,0.1,0.4,0.1,0.6,0.1c0.7,0,1.1-0.4,1.3-1
		c0.2,0.1,0.3,0.2,0.5,0.2C106,148.2,105.1,148.9,104.3,149.7z"/>
</g>
</svg>
