<?xml version="1.0" encoding="UTF-8" standalone="no"?>
<!DOCTYPE svg PUBLIC "-//W3C//DTD SVG 1.1//EN" "http://www.w3.org/Graphics/SVG/1.1/DTD/svg11.dtd">
<svg xmlns="http://www.w3.org/2000/svg" version="1.1" width="698.82" height="185.1" viewBox="0 0 2329.6812 617.16643">
 <metadata id="metadata970"/>
 <path d="m 101.53283,144.23324 294.6769,0" id="polyline14" fill="none" stroke="#000000" stroke-linejoin="bevel" stroke-width="1.667"/>
 <path d="m 101.53283,165.06659 294.6769,0" id="polyline16" fill="none" stroke="#000000" stroke-linejoin="bevel" stroke-width="1.667"/>
 <path d="m 101.53283,185.89994 294.6769,0" id="polyline18" fill="none" stroke="#000000" stroke-linejoin="bevel" stroke-width="1.667"/>
 <path d="m 101.53283,206.73329 294.6769,0" id="polyline20" fill="none" stroke="#000000" stroke-linejoin="bevel" stroke-width="1.667"/>
 <path d="m 101.53283,227.56664 294.6769,0" id="polyline22" fill="none" stroke="#000000" stroke-linejoin="bevel" stroke-width="1.667"/>
 <path d="m 101.53283,362.98324 294.6769,0" id="polyline26" fill="none" stroke="#000000" stroke-linejoin="bevel" stroke-width="1.667"/>
 <path d="m 101.53283,383.81659 294.6769,0" id="polyline28" fill="none" stroke="#000000" stroke-linejoin="bevel" stroke-width="1.667"/>
 <path d="m 101.53283,404.64994 294.6769,0" id="polyline30" fill="none" stroke="#000000" stroke-linejoin="bevel" stroke-width="1.667"/>
 <path d="m 101.53283,425.48329 294.6769,0" id="polyline32" fill="none" stroke="#000000" stroke-linejoin="bevel" stroke-width="1.667"/>
 <path d="m 101.53283,446.31664 294.6769,0" id="polyline34" fill="none" stroke="#000000" stroke-linejoin="bevel" stroke-width="1.667"/>
 <path d="m 148.79781,185.4116 c 0.1085,0 0.28484,-0.0135 0.52896,-0.0407 0.24417,-0.0271 0.42046,-0.0407 0.529,-0.0407 6.07638,0 11.06768,2.12946 14.97393,6.38834 3.90625,4.25892 5.85959,9.20955 5.85959,14.85192 0,6.99868 -2.90292,12.69531 -8.70792,17.08986 -1.57334,1.19358 -3.55355,2.17012 -5.94072,2.92967 0.27129,3.14671 0.40692,5.99504 0.40692,8.54496 0,1.08504 -0.0543,2.65842 -0.16279,4.72005 -0.27125,5.04558 -1.9938,9.3995 -5.16763,13.06159 -3.17384,3.66209 -7.09363,5.49292 -11.75947,5.49292 -4.3945,0 -8.13801,-1.55958 -11.23047,-4.67917 -3.09246,-3.11958 -4.63867,-6.90375 -4.63867,-11.35255 0,-2.33292 0.90875,-4.31317 2.72625,-5.94075 1.81751,-1.62763 3.94692,-2.44142 6.38834,-2.44142 2.17013,0 4.00121,0.82737 5.49317,2.48208 1.49196,1.65475 2.23796,3.62142 2.23796,5.90009 0,2.11588 -0.75954,3.93338 -2.27866,5.45246 -1.51909,1.51925 -3.33659,2.27884 -5.45247,2.27884 -0.86804,0 -1.70896,-0.16292 -2.52279,-0.48834 2.33292,3.52626 5.50675,5.28959 9.52151,5.28959 3.7435,0 6.82238,-1.5325 9.23667,-4.59792 2.41425,-3.06538 3.75705,-6.71392 4.0283,-10.94572 0.1085,-1.95312 0.16279,-3.44508 0.16279,-4.47592 0,-2.76691 -0.10854,-5.26258 -0.32554,-7.48696 -2.49567,0.434 -4.90997,0.65104 -7.24284,0.65104 -7.59551,0 -14.01097,-2.9975 -19.24644,-8.99255 -5.23547,-5.995 -7.8532,-13.14289 -7.8532,-21.44368 0,-1.73613 0.17632,-3.49934 0.52897,-5.28971 0.35265,-1.79038 0.74599,-3.3773 1.18002,-4.76076 0.43402,-1.38346 1.18001,-2.98396 2.23795,-4.80142 1.05793,-1.8175 1.89889,-3.25521 2.52281,-4.31317 0.62391,-1.05796 1.69541,-2.53633 3.2145,-4.43521 1.51908,-1.89888 2.60417,-3.22809 3.25521,-3.98763 0.65104,-0.75958 1.88533,-2.18371 3.70279,-4.27246 1.8175,-2.08883 2.99751,-3.43175 3.54005,-4.02842 -1.95313,-6.40167 -3.17384,-11.55584 -3.66209,-15.4621 -0.37979,-3.30958 -0.56967,-7.54125 -0.56967,-12.69542 0,-4.66584 1.07151,-9.10084 3.21451,-13.30585 2.143,-4.20458 5.11342,-7.69042 8.91113,-10.45709 0.27129,-0.16291 0.54254,-0.24416 0.81383,-0.24416 0.37975,0 0.65105,0.0812 0.8138,0.24416 2.92966,3.47209 5.46604,8.05668 7.60904,13.75335 2.14301,5.69625 3.21451,10.82334 3.21451,15.38084 0,5.26251 -1.26138,10.14543 -3.78417,14.64835 -2.5228,4.50292 -6.14422,9.49417 -10.86426,14.97393 1.35633,4.34029 2.87542,9.95555 4.55729,16.84572 m 6.91734,37.84182 c 2.71267,-0.97654 4.9233,-2.72621 6.63247,-5.249 1.70916,-2.5228 2.56333,-5.22193 2.56333,-8.09735 0,-3.79775 -1.30208,-7.21572 -3.90625,-10.25392 -2.604,-3.03821 -5.99484,-4.77429 -10.17239,-5.20834 2.38717,11.50175 4.01476,21.10465 4.88284,28.80861 m -31.49419,-18.79883 c 0,5.42535 2.18371,10.13186 6.55113,14.11949 4.36742,3.98763 9.34517,5.98142 14.93326,5.98142 2.27867,0 4.50305,-0.16275 6.67317,-0.48825 -0.92229,-8.30079 -2.63129,-18.17494 -5.12692,-29.62244 -3.09246,0.32555 -5.54742,1.41059 -7.36492,3.25521 -1.8175,1.84463 -2.72625,3.98763 -2.72625,6.42905 0,4.17752 2.19725,7.51413 6.5918,10.00976 0.37979,0.37979 0.56966,0.78671 0.56966,1.22071 0,0.43404 -0.17633,0.84096 -0.52896,1.22071 -0.35266,0.37979 -0.77312,0.56967 -1.26141,0.56967 -0.16275,0 -0.40688,-0.0543 -0.73242,-0.16276 -3.14671,-1.68187 -5.5203,-3.86558 -7.12076,-6.55112 -1.6005,-2.68555 -2.40071,-5.52029 -2.40071,-8.50422 0,-3.7435 1.16642,-7.1208 3.49934,-10.13184 2.33292,-3.01109 5.50671,-4.9778 9.52151,-5.90009 -1.35634,-5.53384 -2.60417,-10.28105 -3.74351,-14.24155 -2.27866,2.54992 -4.02833,4.55729 -5.24904,6.02213 -1.22071,1.46487 -2.72621,3.43154 -4.51659,5.90008 -1.79038,2.46855 -3.14671,4.67938 -4.069,6.63251 -0.92234,1.95313 -1.73613,4.19109 -2.44142,6.71384 -0.70529,2.52279 -1.05796,5.03204 -1.05796,7.52769 m 27.18102,-82.76392 c -4.01475,1.95334 -7.21571,4.82876 -9.60288,8.62668 -2.38713,3.7975 -3.58071,7.94792 -3.58071,12.45084 0,3.90625 0.97654,9.16917 2.92967,15.78793 3.79775,-4.61167 6.72746,-8.97876 8.78909,-13.1021 2.06162,-4.12333 3.09246,-8.545 3.09246,-13.26501 0,-3.58083 -0.54254,-7.08 -1.62763,-10.49834" id="path40"/>
 <path d="m 164.58553,373.39956 c 0,-1.19358 0.40709,-2.19725 1.22084,-3.01108 0.81375,-0.81379 1.8175,-1.22067 3.01083,-1.22067 1.19375,0 2.19751,0.40688 3.01126,1.22067 0.81375,0.81383 1.22083,1.8175 1.22083,3.01108 0,1.19359 -0.40708,2.19726 -1.22083,3.01109 -0.81375,0.81379 -1.81751,1.22067 -3.01126,1.22067 -1.19333,0 -2.19708,-0.40688 -3.01083,-1.22067 -0.81375,-0.81383 -1.22084,-1.8175 -1.22084,-3.01109 m 0,20.83335 c 0,-1.19358 0.40709,-2.19725 1.22084,-3.01108 0.81375,-0.81379 1.8175,-1.22067 3.01083,-1.22067 1.19375,0 2.19751,0.40688 3.01126,1.22067 0.81375,0.81383 1.22083,1.8175 1.22083,3.01108 0,1.19359 -0.40708,2.19726 -1.22083,3.01109 -0.81375,0.81379 -1.81751,1.22067 -3.01126,1.22067 -1.19333,0 -2.19708,-0.40688 -3.01083,-1.22067 -0.81375,-0.81383 -1.22084,-1.8175 -1.22084,-3.01109 m -27.01818,-32.30798 c 7.32421,0 13.23784,1.8175 17.74088,5.45251 4.4488,3.68921 6.67314,8.84329 6.67314,15.46224 0,4.23177 -0.86792,8.24652 -2.60413,12.04428 -1.68184,3.852 -3.82488,7.21571 -6.42905,10.09113 -2.60417,2.87546 -5.8865,5.69663 -9.84701,8.46359 -3.9605,2.76692 -7.8125,5.0998 -11.55601,6.99867 -8.08375,4.06901 -12.53254,6.10351 -13.34634,6.10351 -0.7053,0 -1.05794,-0.3525 -1.05794,-1.05792 0,-0.27125 0.1085,-0.51542 0.32552,-0.73242 3.90625,-2.27867 7.29709,-4.36742 10.17251,-6.26629 2.82121,-1.89888 5.85942,-4.23176 9.11459,-6.99872 3.20096,-2.71267 5.80513,-5.37109 7.81251,-7.97525 2.06167,-2.65842 3.79775,-5.69659 5.20834,-9.11459 1.35637,-3.47222 2.03454,-7.05295 2.03454,-10.74219 0,-5.26258 -1.30209,-9.847 -3.90625,-13.75325 -2.60417,-3.90625 -6.0493,-5.85938 -10.3353,-5.85938 -2.98397,0 -5.58813,0.97654 -7.81251,2.92967 -2.27867,1.95312 -3.9605,4.47592 -5.04559,7.56838 0.97659,-0.43404 1.926,-0.65104 2.8483,-0.65104 2.27866,0 4.23179,0.81379 5.85938,2.44137 1.62762,1.68188 2.44141,3.66214 2.44141,5.94078 0,2.44141 -0.78666,4.53017 -2.36,6.26628 -1.62762,1.68187 -3.60788,2.52279 -5.94079,2.52279 -2.49563,0 -4.69292,-0.84092 -6.59179,-2.52279 -1.84462,-1.73611 -2.76693,-3.82487 -2.76693,-6.26628 0,-5.53386 1.89887,-10.30815 5.69663,-14.32291 3.74346,-4.01479 8.3008,-6.02217 13.67189,-6.02217" id="path48"/>
 <path d="m 216.78314,163.84553 c 0,0.54254 0.29837,1.05795 0.89517,1.54623 0.65104,0.48828 1.32921,0.97656 2.0345,1.46485 0.70529,0.43402 1.38346,1.30208 2.0345,2.60418 0.59679,1.24783 0.89521,2.84829 0.89521,4.80142 0,3.7435 -1.3835,6.61892 -4.15042,8.62629 -2.82117,2.00738 -6.40192,3.01109 -10.74218,3.01109 -3.418,0 -6.40192,-0.86804 -8.95184,-2.60417 -2.60417,-1.68188 -3.90625,-3.9605 -3.90625,-6.83592 0,-1.51913 0.54253,-2.82121 1.62761,-3.90625 1.08507,-1.03084 2.38715,-1.54626 3.90623,-1.54626 1.46487,0 2.71271,0.54255 3.7435,1.62763 1.08508,1.08504 1.62763,2.36 1.62763,3.82488 0,0.70529 -0.54255,1.46483 -1.62763,2.27863 -1.13933,0.75954 -1.70896,1.49196 -1.70896,2.19725 0,1.03083 0.51538,1.79037 1.54621,2.27867 1.03083,0.48829 2.27867,0.73241 3.7435,0.73241 1.89888,0 3.25521,-0.92229 4.06901,-2.76692 0.75954,-1.89887 1.13933,-4.20467 1.13933,-6.91733 l 0,-1.38346 c 0,-1.84463 -0.0543,-3.22809 -0.16275,-4.1504 -0.10854,-0.92231 -0.48829,-1.76324 -1.13933,-2.52278 -0.5968,-0.75956 -1.54625,-1.13933 -2.84834,-1.13933 l -6.67317,0 c -0.75954,0 -1.13934,-0.4069 -1.13934,-1.22071 0,-0.75954 0.3798,-1.16645 1.13934,-1.2207 l 6.67317,0 c 1.51913,0 2.60417,-0.48828 3.25521,-1.46484 0.48829,-0.75955 0.78671,-2.11588 0.89521,-4.06901 0,-0.65104 0,-1.54625 0,-2.68554 l 0,-0.65104 c 0,-5.04559 -1.84463,-7.56838 -5.53388,-7.56838 -3.25521,0 -4.90992,0.89516 -4.96417,2.68554 0,0.59679 0.51538,1.24783 1.54621,1.95313 0.97658,0.70529 1.46484,1.35633 1.46484,1.95312 0,1.35634 -0.48826,2.5228 -1.46484,3.49934 -0.92229,0.92233 -2.06163,1.3835 -3.41796,1.3835 -1.30208,0 -2.41429,-0.46117 -3.3366,-1.3835 -0.92231,-0.97654 -1.38347,-2.143 -1.38347,-3.49934 0,-2.60417 1.13933,-4.69292 3.41799,-6.26625 2.27862,-1.51913 4.99129,-2.27867 8.138,-2.27867 4.1233,0 7.48701,0.78667 10.09118,2.36004 2.65842,1.57334 3.98762,3.96051 3.98762,7.16147 0,2.27862 -0.24416,4.04188 -0.73241,5.28971 -0.48829,1.24783 -1.03084,2.00737 -1.62763,2.27864 -0.59679,0.27127 -1.13929,0.59679 -1.62758,0.97656 -0.4883,0.37977 -0.73242,0.89518 -0.73242,1.54622" id="path56"/>
 <path d="m 214.3746,203.55941 c 2.71267,-2.92967 4.069,-5.75089 4.069,-8.46355 0,-2.22438 -0.94942,-3.98763 -2.84829,-5.28972 -1.89888,-1.30208 -4.17751,-1.95312 -6.83597,-1.95312 -1.89883,0 -3.41796,0.59679 -4.55725,1.79037 -1.13934,1.19359 -1.709,2.54992 -1.709,4.06901 0,1.89887 0.84092,3.36371 2.52279,4.39454 l 9.35872,5.45247 m 2.52279,1.38346 c 4.61155,2.65842 6.91734,6.21204 6.91734,10.66084 0,3.25521 -1.38346,6.04925 -4.15042,8.38213 -2.82117,2.38717 -6.7003,3.58075 -11.63738,3.58075 -4.12326,0 -7.67684,-1.08508 -10.6608,-3.25521 -3.0382,-2.17013 -4.5573,-4.96421 -4.5573,-8.38217 0,-1.30209 0.37977,-2.6313 1.13933,-3.98763 0.75954,-1.30209 1.46484,-2.27865 2.11588,-2.92969 0.59679,-0.7053 1.62763,-1.73612 3.09246,-3.09245 -3.36373,-2.3329 -5.07271,-5.2897 -5.12696,-8.87046 0,-3.03821 1.3292,-5.6695 3.98763,-7.89388 2.60417,-2.17013 6.18492,-3.25521 10.74217,-3.25521 3.63501,0 6.78172,0.81379 9.44014,2.44142 2.60416,1.62758 3.90625,3.87913 3.90625,6.75455 -0.0543,2.92971 -1.79038,6.21204 -5.20834,9.84701 m -15.21809,2.44141 c -3.41801,2.98395 -5.1541,5.83226 -5.20836,8.54493 0,2.76691 1.16644,5.07271 3.49935,6.91733 2.27863,1.84463 4.96422,2.76692 8.05664,2.76692 2.17016,0 3.90625,-0.70529 5.20833,-2.11587 1.30209,-1.35634 1.95313,-2.95684 1.95313,-4.80147 0,-2.33287 -0.94942,-4.04187 -2.84829,-5.12696 l -10.6608,-6.18488" id="path64"/>
 <path d="m 216.78314,382.59553 c 0,0.54254 0.29837,1.05795 0.89517,1.54623 0.65104,0.48828 1.32921,0.97656 2.0345,1.46485 0.70529,0.43402 1.38346,1.30208 2.0345,2.60418 0.59679,1.24783 0.89521,2.84829 0.89521,4.80142 0,3.7435 -1.3835,6.61892 -4.15042,8.62629 -2.82117,2.00738 -6.40192,3.01109 -10.74218,3.01109 -3.418,0 -6.40192,-0.86804 -8.95184,-2.60417 -2.60417,-1.68188 -3.90625,-3.9605 -3.90625,-6.83592 0,-1.51913 0.54253,-2.82121 1.62761,-3.90625 1.08507,-1.03084 2.38715,-1.54626 3.90623,-1.54626 1.46487,0 2.71271,0.54255 3.7435,1.62763 1.08508,1.08504 1.62763,2.36 1.62763,3.82488 0,0.70529 -0.54255,1.46483 -1.62763,2.27863 -1.13933,0.75954 -1.70896,1.49196 -1.70896,2.19725 0,1.03083 0.51538,1.79037 1.54621,2.27867 1.03083,0.48829 2.27867,0.73241 3.7435,0.73241 1.89888,0 3.25521,-0.92229 4.06901,-2.76692 0.75954,-1.89887 1.13933,-4.20467 1.13933,-6.91733 l 0,-1.38346 c 0,-1.84463 -0.0543,-3.22809 -0.16275,-4.1504 -0.10854,-0.92231 -0.48829,-1.76324 -1.13933,-2.52278 -0.5968,-0.75956 -1.54625,-1.13933 -2.84834,-1.13933 l -6.67317,0 c -0.75954,0 -1.13934,-0.4069 -1.13934,-1.22071 0,-0.75954 0.3798,-1.16645 1.13934,-1.2207 l 6.67317,0 c 1.51913,0 2.60417,-0.48828 3.25521,-1.46484 0.48829,-0.75955 0.78671,-2.11588 0.89521,-4.06901 0,-0.65104 0,-1.54625 0,-2.68554 l 0,-0.65104 c 0,-5.04559 -1.84463,-7.56838 -5.53388,-7.56838 -3.25521,0 -4.90992,0.89516 -4.96417,2.68554 0,0.59679 0.51538,1.24783 1.54621,1.95313 0.97658,0.70529 1.46484,1.35633 1.46484,1.95312 0,1.35634 -0.48826,2.5228 -1.46484,3.49934 -0.92229,0.92233 -2.06163,1.3835 -3.41796,1.3835 -1.30208,0 -2.41429,-0.46117 -3.3366,-1.3835 -0.92231,-0.97654 -1.38347,-2.143 -1.38347,-3.49934 0,-2.60417 1.13933,-4.69292 3.41799,-6.26625 2.27862,-1.51913 4.99129,-2.27867 8.138,-2.27867 4.1233,0 7.48701,0.78667 10.09118,2.36004 2.65842,1.57334 3.98762,3.96051 3.98762,7.16147 0,2.27862 -0.24416,4.04188 -0.73241,5.28971 -0.48829,1.24783 -1.03084,2.00737 -1.62763,2.27864 -0.59679,0.27127 -1.13929,0.59679 -1.62758,0.97656 -0.4883,0.37977 -0.73242,0.89518 -0.73242,1.54622" id="path72"/>
 <path d="m 214.3746,422.30941 c 2.71267,-2.92967 4.069,-5.75089 4.069,-8.46355 0,-2.22438 -0.94942,-3.98763 -2.84829,-5.28972 -1.89888,-1.30208 -4.17751,-1.95312 -6.83597,-1.95312 -1.89883,0 -3.41796,0.59679 -4.55725,1.79037 -1.13934,1.19359 -1.709,2.54992 -1.709,4.06901 0,1.89887 0.84092,3.36371 2.52279,4.39454 l 9.35872,5.45247 m 2.52279,1.38346 c 4.61155,2.65842 6.91734,6.21204 6.91734,10.66084 0,3.25521 -1.38346,6.04925 -4.15042,8.38213 -2.82117,2.38717 -6.7003,3.58075 -11.63738,3.58075 -4.12326,0 -7.67684,-1.08508 -10.6608,-3.25521 -3.0382,-2.17013 -4.5573,-4.96421 -4.5573,-8.38217 0,-1.30209 0.37977,-2.6313 1.13933,-3.98763 0.75954,-1.30209 1.46484,-2.27865 2.11588,-2.92969 0.59679,-0.7053 1.62763,-1.73612 3.09246,-3.09245 -3.36373,-2.3329 -5.07271,-5.2897 -5.12696,-8.87046 0,-3.03821 1.3292,-5.6695 3.98763,-7.89388 2.60417,-2.17013 6.18492,-3.25521 10.74217,-3.25521 3.63501,0 6.78172,0.81379 9.44014,2.44142 2.60416,1.62758 3.90625,3.87913 3.90625,6.75455 -0.0543,2.92971 -1.79038,6.21204 -5.20834,9.84701 m -15.21809,2.44141 c -3.41801,2.98395 -5.1541,5.83226 -5.20836,8.54493 0,2.76691 1.16644,5.07271 3.49935,6.91733 2.27863,1.84463 4.96422,2.76692 8.05664,2.76692 2.17016,0 3.90625,-0.70529 5.20833,-2.11587 1.30209,-1.35634 1.95313,-2.95684 1.95313,-4.80147 0,-2.33287 -0.94942,-4.04187 -2.84829,-5.12696 l -10.6608,-6.18488" id="path80"/>
 <path d="m 259.78783,158.56203 0,63.79559" id="polyline86" fill="none" stroke="#000000" stroke-linejoin="bevel" stroke-linecap="round" stroke-width="2.708"/>
 <path d="m 276.74439,143.17461 c 2.71267,0 4.90996,0.67816 6.59179,2.03454 1.68188,1.41058 2.5228,3.25517 2.5228,5.53384 0,3.74349 -1.926,7.24284 -5.77801,10.49805 -3.90625,3.25521 -8.08375,4.88283 -12.53255,4.88283 -2.71267,0 -4.90996,-0.67816 -6.5918,-2.03454 -1.68186,-1.41058 -2.52279,-3.25517 -2.52279,-5.53384 0,-3.74349 1.95313,-7.24284 5.85938,-10.49805 3.852,-3.25521 8.00238,-4.88283 12.45118,-4.88283" id="path92"/>
 <path d="m 258.43319,217.14996 69.92964,5.41834 0,10.41668 -69.92964,-5.41834 0,-10.41668" id="path98" fill-rule="evenodd"/>
 <path d="m 258.43319,201.52495 69.92964,5.41834 0,10.41668 -69.92964,-5.41834 0,-10.41668" id="path100" fill-rule="evenodd"/>
 <path d="m 264.29321,387.55939 c 1.57333,0 2.76692,0.434 3.58071,1.30209 0.75958,0.86804 1.19359,1.79033 1.30209,2.76692 0.16279,1.03083 0.43404,1.95312 0.81383,2.76692 0.434,0.86808 1.05792,1.30208 1.87175,1.30208 0.59679,0 1.49196,-0.67817 2.68554,-2.0345 1.19359,-1.35634 1.98026,-2.4143 2.36001,-3.17384 0.27129,-0.54254 0.65104,-0.81379 1.13933,-0.81379 0.0542,0 0.0814,0 0.0814,0 0.54254,0.0542 0.92233,0.32554 1.13933,0.81379 l -10.25392,34.99353 c -0.5968,0.54254 -1.35634,0.81379 -2.27863,0.81379 -0.92234,0 -1.68188,-0.27125 -2.27867,-0.81379 l 9.76563,-27.18102 c -3.41796,1.24783 -6.34767,1.87175 -8.78905,1.87175 -1.95312,0 -3.63499,-0.62392 -5.04558,-1.87175 -1.46485,-1.24784 -2.19727,-2.82117 -2.19727,-4.72005 0,-1.68187 0.59679,-3.09246 1.79037,-4.23179 1.19357,-1.19354 2.63127,-1.79034 4.31315,-1.79034" id="path106"/>
 <path d="m 262.12772,479.27489 c -1.46483,0 -2.82117,0.81379 -4.069,2.44138 -1.30208,1.68187 -2.27867,3.55363 -2.92971,5.61525 -0.65104,2.00738 -0.97654,3.74351 -0.97654,5.20834 0,2.06164 0.78666,3.09245 2.36004,3.09245 1.41059,0 2.577,-0.51541 3.49934,-1.54624 1.03079,-1.13929 1.98025,-3.14667 2.84829,-6.02213 0.81379,-2.92967 1.22071,-4.99134 1.22071,-6.18488 0,-1.73613 -0.65104,-2.60417 -1.95313,-2.60417 m -12.53255,-3.90625 c 1.46484,0 2.68555,0.37975 3.66209,1.13929 1.03083,0.75958 1.709,1.76325 2.03454,3.01109 1.13929,-1.24784 2.44138,-2.25151 3.90625,-3.01109 1.46484,-0.75954 2.87542,-1.13929 4.23176,-1.13929 2.65842,0 4.72004,0.84092 6.18492,2.52275 1.46483,1.68188 2.19725,3.852 2.19725,6.51042 0,4.39455 -1.54621,7.9753 -4.63867,10.74222 -2.71267,2.38716 -5.26259,3.58073 -7.64975,3.58073 -1.24784,0 -2.36005,-0.13563 -3.33659,-0.4069 -0.92229,-0.21701 -1.65475,-0.46115 -2.19725,-0.73242 -0.54254,-0.27127 -0.92234,-0.40691 -1.13934,-0.40691 -0.70529,0 -1.16646,0.27127 -1.38346,0.81381 l -3.09246,9.11457 c 0,0.10855 0,0.24417 0,0.40692 0,0.48829 0.40692,0.78667 1.22071,0.89517 0.86804,0.10854 1.709,0.18991 2.5228,0.24416 0.81379,0.0543 1.22071,0.27126 1.22071,0.65105 0,0.37975 -0.18992,0.56966 -0.56967,0.56966 -4.4488,-0.27129 -7.62263,-0.40691 -9.52151,-0.40691 -2.00738,0 -5.1812,0.13562 -9.52151,0.40691 -0.434,0 -0.651,-0.18991 -0.651,-0.56966 0,-0.32554 0.37975,-0.56967 1.13929,-0.73242 0.4883,-0.0543 1.92601,-0.0814 4.31317,-0.0814 1.13932,0 1.81749,-0.35266 2.03451,-1.05795 l 8.78905,-25.47202 c 0.16279,-0.43405 0.24416,-0.84096 0.24416,-1.22071 0,-0.97659 -0.43404,-1.46484 -1.30208,-1.46484 -1.24784,0 -2.57705,0.81379 -3.98763,2.44138 -1.35633,1.68187 -2.41429,3.418 -3.17384,5.20834 -0.21702,0.48829 -0.59679,0.73245 -1.13933,0.73245 -0.37977,0 -0.56966,-0.16279 -0.56966,-0.48829 0,-0.37979 0.13564,-0.81379 0.40691,-1.30208 1.24783,-2.76696 2.38715,-4.88284 3.41796,-6.34767 0.75954,-1.08509 1.709,-2.03451 2.84834,-2.8483 1.13929,-0.86808 2.30575,-1.30208 3.49933,-1.30208 m 41.4387,3.90625 c -1.46458,0 -2.82125,0.81379 -4.06875,2.44138 -1.30209,1.68187 -2.27875,3.55363 -2.93,5.61525 -0.65084,2.00738 -0.97625,3.74351 -0.97625,5.20834 0,2.06164 0.78666,3.09245 2.36,3.09245 1.41042,0 2.57708,-0.51541 3.49917,-1.54624 1.03083,-1.13929 1.98042,-3.14667 2.84833,-6.02213 0.81375,-2.92967 1.22084,-4.99134 1.22084,-6.18488 0,-1.73613 -0.65125,-2.60417 -1.95334,-2.60417 m -12.53242,-3.90625 c 1.46483,0 2.68575,0.37975 3.662,1.13929 1.03083,0.75958 1.70917,1.76325 2.03458,3.01109 1.13917,-1.24784 2.44126,-2.25151 3.90626,-3.01109 1.465,-0.75954 2.87542,-1.13929 4.23167,-1.13929 2.65875,0 4.72,0.84092 6.185,2.52275 1.465,1.68188 2.19709,3.852 2.19709,6.51042 0,4.39455 -1.54584,7.9753 -4.63834,10.74222 -2.71292,2.38716 -5.26292,3.58073 -7.65001,3.58073 -1.2475,0 -2.36,-0.13563 -3.33667,-0.4069 -0.92208,-0.21701 -1.65458,-0.46115 -2.19708,-0.73242 -0.5425,-0.27127 -0.92209,-0.40691 -1.13917,-0.40691 -0.70542,0 -1.16667,0.27127 -1.38375,0.81381 l -3.09229,9.11457 c 0,0.10855 0,0.24417 0,0.40692 0,0.48829 0.40691,0.78667 1.22071,0.89517 0.86804,0.10854 1.709,0.18991 2.52283,0.24416 0.81375,0.0543 1.22083,0.27126 1.22083,0.65105 0,0.37975 -0.19,0.56966 -0.57,0.56966 -4.44862,-0.27129 -7.62246,-0.40691 -9.52134,-0.40691 -2.00737,0 -5.18121,0.13562 -9.5215,0.40691 -0.434,0 -0.651,-0.18991 -0.651,-0.56966 0,-0.32554 0.37975,-0.56967 1.13929,-0.73242 0.48829,-0.0543 1.926,-0.0814 4.31317,-0.0814 1.13933,0 1.8175,-0.35266 2.0345,-1.05795 l 8.78905,-25.47202 c 0.16279,-0.43405 0.24417,-0.84096 0.24417,-1.22071 0,-0.97659 -0.43405,-1.46484 -1.30209,-1.46484 -1.24783,0 -2.57704,0.81379 -3.98763,2.44138 -1.35633,1.68187 -2.41429,3.418 -3.17383,5.20834 -0.217,0.48829 -0.5968,0.73245 -1.13934,0.73245 -0.37975,0 -0.56966,-0.16279 -0.56966,-0.48829 0,-0.37979 0.13562,-0.81379 0.40691,-1.30208 1.24784,-2.76696 2.38717,-4.88284 3.41796,-6.34767 0.75955,-1.08509 1.709,-2.03451 2.84834,-2.8483 1.13929,-0.86808 2.30575,-1.30208 3.49934,-1.30208" id="path114"/>
 <path d="m 258.44972,260.52489 c -1.46483,0 -2.82117,0.81379 -4.069,2.44138 -1.30208,1.68187 -2.27867,3.55363 -2.92971,5.61525 -0.65104,2.00738 -0.97654,3.74351 -0.97654,5.20834 0,2.06164 0.78666,3.09245 2.36004,3.09245 1.41059,0 2.577,-0.51541 3.49934,-1.54624 1.03079,-1.13929 1.98025,-3.14667 2.84829,-6.02213 0.81379,-2.92967 1.22071,-4.99134 1.22071,-6.18488 0,-1.73613 -0.65104,-2.60417 -1.95313,-2.60417 m -12.53255,-3.90625 c 1.46484,0 2.68555,0.37975 3.66209,1.13929 1.03083,0.75958 1.709,1.76325 2.03454,3.01109 1.13929,-1.24784 2.44138,-2.25151 3.90625,-3.01109 1.46484,-0.75954 2.87542,-1.13929 4.23176,-1.13929 2.65842,0 4.72004,0.84092 6.18492,2.52275 1.46483,1.68188 2.19725,3.852 2.19725,6.51042 0,4.39455 -1.54621,7.9753 -4.63867,10.74222 -2.71267,2.38716 -5.26259,3.58073 -7.64975,3.58073 -1.24784,0 -2.36005,-0.13563 -3.33659,-0.4069 -0.92229,-0.21701 -1.65475,-0.46115 -2.19725,-0.73242 -0.54254,-0.27127 -0.92234,-0.40691 -1.13934,-0.40691 -0.70529,0 -1.16646,0.27127 -1.38346,0.81381 l -3.09246,9.11457 c 0,0.10855 0,0.24417 0,0.40692 0,0.48829 0.40692,0.78667 1.22071,0.89517 0.86804,0.10854 1.709,0.18991 2.5228,0.24416 0.81379,0.0542 1.22071,0.27126 1.22071,0.65105 0,0.37975 -0.18992,0.56966 -0.56967,0.56966 -4.4488,-0.27129 -7.62263,-0.40691 -9.52151,-0.40691 -2.00738,0 -5.1812,0.13562 -9.52151,0.40691 -0.434,0 -0.651,-0.18991 -0.651,-0.56966 0,-0.32554 0.37975,-0.56967 1.13929,-0.73242 0.4883,-0.0543 1.92601,-0.0814 4.31317,-0.0814 1.13932,0 1.81749,-0.35266 2.03451,-1.05795 l 8.78905,-25.47202 c 0.16279,-0.43405 0.24416,-0.84096 0.24416,-1.22071 0,-0.97659 -0.43404,-1.46484 -1.30208,-1.46484 -1.24784,0 -2.57705,0.81379 -3.98763,2.44138 -1.35633,1.68187 -2.41429,3.418 -3.17384,5.20834 -0.21702,0.48829 -0.59679,0.73245 -1.13933,0.73245 -0.37977,0 -0.56966,-0.16279 -0.56966,-0.48829 0,-0.37979 0.13564,-0.81379 0.40691,-1.30208 1.24783,-2.76696 2.38715,-4.88284 3.41796,-6.34767 0.75954,-1.08509 1.709,-2.03451 2.84834,-2.8483 1.13929,-0.86808 2.30575,-1.30208 3.49933,-1.30208 m 41.4387,3.90625 c -1.46458,0 -2.82125,0.81379 -4.06875,2.44138 -1.30209,1.68187 -2.27875,3.55363 -2.93,5.61525 -0.65084,2.00738 -0.97625,3.74351 -0.97625,5.20834 0,2.06164 0.78666,3.09245 2.36,3.09245 1.41042,0 2.57708,-0.51541 3.49917,-1.54624 1.03083,-1.13929 1.98042,-3.14667 2.84833,-6.02213 0.81375,-2.92967 1.22084,-4.99134 1.22084,-6.18488 0,-1.73613 -0.65125,-2.60417 -1.95334,-2.60417 m -12.53242,-3.90625 c 1.46483,0 2.68575,0.37975 3.662,1.13929 1.03083,0.75958 1.70917,1.76325 2.03458,3.01109 1.13917,-1.24784 2.44126,-2.25151 3.90626,-3.01109 1.465,-0.75954 2.87542,-1.13929 4.23167,-1.13929 2.65875,0 4.72,0.84092 6.185,2.52275 1.465,1.68188 2.19709,3.852 2.19709,6.51042 0,4.39455 -1.54584,7.9753 -4.63834,10.74222 -2.71292,2.38716 -5.26292,3.58073 -7.65001,3.58073 -1.2475,0 -2.36,-0.13563 -3.33667,-0.4069 -0.92208,-0.21701 -1.65458,-0.46115 -2.19708,-0.73242 -0.5425,-0.27127 -0.92209,-0.40691 -1.13917,-0.40691 -0.70542,0 -1.16667,0.27127 -1.38375,0.81381 l -3.09229,9.11457 c 0,0.10855 0,0.24417 0,0.40692 0,0.48829 0.40691,0.78667 1.22071,0.89517 0.86804,0.10854 1.709,0.18991 2.52283,0.24416 0.81375,0.0542 1.22083,0.27126 1.22083,0.65105 0,0.37975 -0.19,0.56966 -0.57,0.56966 -4.44862,-0.27129 -7.62246,-0.40691 -9.52134,-0.40691 -2.00737,0 -5.18121,0.13562 -9.5215,0.40691 -0.434,0 -0.651,-0.18991 -0.651,-0.56966 0,-0.32554 0.37975,-0.56967 1.13929,-0.73242 0.48829,-0.0543 1.926,-0.0814 4.31317,-0.0814 1.13933,0 1.8175,-0.35266 2.0345,-1.05795 l 8.78905,-25.47202 c 0.16279,-0.43405 0.24417,-0.84096 0.24417,-1.22071 0,-0.97659 -0.43405,-1.46484 -1.30209,-1.46484 -1.24783,0 -2.57704,0.81379 -3.98763,2.44138 -1.35633,1.68187 -2.41429,3.418 -3.17383,5.20834 -0.217,0.48829 -0.5968,0.73245 -1.13934,0.73245 -0.37975,0 -0.56966,-0.16279 -0.56966,-0.48829 0,-0.37979 0.13562,-0.81379 0.40691,-1.30208 1.24784,-2.76696 2.38717,-4.88284 3.41796,-6.34767 0.75955,-1.08509 1.709,-2.03451 2.84834,-2.8483 1.13929,-0.86808 2.30575,-1.30208 3.49934,-1.30208" id="path122"/>
 <path d="m 270.75184,85.333227 0,9.30001 c 0,1.83333 0.24167,2.99166 0.725,3.475 0.48333,0.48333 1.70834,0.85833 3.675,1.125 l 0,1.250003 -16.70001,0 0,-1.250003 c 0.73333,-0.13333 1.13333,-0.2 1.2,-0.2 1.16667,-0.13333 1.95834,-0.50833 2.375,-1.125 0.41667,-0.61667 0.625,-1.70834 0.625,-3.275 l 0,-22.10002 c 0,-1.76667 -0.26666,-2.94167 -0.8,-3.52501 -0.53333,-0.58333 -1.66666,-0.94166 -3.4,-1.075 l 0,-1.25 16.10001,0 c 4.16667,0 7.39168,0.79167 9.67501,2.375 2.28334,1.58334 3.425,3.82501 3.425,6.72501 0,1.93334 -0.54166,3.63334 -1.625,5.1 -1.08333,1.46667 -2.625,2.58334 -4.625,3.35001 -1.1,0.43333 -2.3,0.71666 -3.6,0.85 -1.3,0.13333 -3.65001,0.21666 -7.05001,0.25 m 0,-1.75 c 3.26667,0 5.46667,-0.5 6.60001,-1.5 1.13333,-1.00001 1.7,-3.01667 1.7,-6.05001 0,-2.7 -0.45,-4.64167 -1.35,-5.825 -0.9,-1.18334 -2.38334,-1.77501 -4.45001,-1.77501 -1.66667,0 -2.5,0.58334 -2.5,1.75001 l 0,13.40001 m 29.98377,-6.75001 c 3.23334,0 5.91668,1.15834 8.05001,3.475 2.13334,2.31667 3.2,5.22501 3.2,8.72501 0,3.46667 -1.06666,6.35834 -3.2,8.67501 -2.13333,2.316673 -4.81667,3.475003 -8.05001,3.475003 -3.26658,0 -5.96654,-1.15833 -8.09992,-3.475003 -2.13329,-2.31667 -3.2,-5.25834 -3.2,-8.82501 0,-3.4 1.09171,-6.25834 3.27504,-8.57501 2.1833,-2.31666 4.85834,-3.475 8.02488,-3.475 m 0.05,1.55 c -1.53321,0 -2.58325,0.8 -3.14987,2.4 -0.56671,1.60001 -0.85,4.60001 -0.85,9.00001 0,3.66667 0.29166,6.22501 0.875,7.67501 0.58329,1.45 1.60833,2.175 3.07487,2.175 1.46667,0 2.48334,-0.75833 3.05001,-2.275 0.56666,-1.51667 0.85,-4.19167 0.85,-8.02501 0,-4.1 -0.28334,-6.95 -0.85,-8.55001 -0.56667,-1.6 -1.56667,-2.4 -3.00001,-2.4 m 33.00003,16.65002 0.9,0.9 c -1.46667,1.86666 -2.94167,3.20833 -4.425,4.025 -1.48334,0.816673 -3.19167,1.225003 -5.12501,1.225003 -3.1,0 -5.65833,-1.11667 -7.675,-3.350003 -2.01667,-2.23334 -3.025,-5.06667 -3.025,-8.50001 0,-3.6 1.11666,-6.58334 3.35,-8.95001 2.23333,-2.36666 5.05,-3.55 8.45,-3.55 2.20001,0 4.04167,0.525 5.52501,1.575 1.48333,1.05 2.225,2.35834 2.225,3.92501 0,0.96666 -0.3,1.73333 -0.9,2.3 -0.6,0.56666 -1.43333,0.85 -2.5,0.85 -1.83334,0 -2.76667,-1.2 -2.8,-3.6 0,-1.40001 -0.0833,-2.25001 -0.25,-2.55001 -0.33334,-0.63333 -0.95,-0.95 -1.85001,-0.95 -1.3,0 -2.325,0.74167 -3.075,2.225 -0.75,1.48334 -1.125,3.50834 -1.125,6.07501 0,3.4 0.64167,6.10834 1.925,8.12501 1.28334,2.01666 3.00834,3.025 5.17501,3.025 1.03333,0 1.925,-0.20834 2.675,-0.625 0.75,-0.41667 1.59167,-1.14167 2.525,-2.175 m 14.08543,-18.20002 c 3.23333,0 5.91667,1.15834 8.05001,3.475 2.13333,2.31667 3.2,5.22501 3.2,8.72501 0,3.46667 -1.06667,6.35834 -3.2,8.67501 -2.13334,2.316673 -4.81668,3.475003 -8.05001,3.475003 -3.26667,0 -5.96667,-1.15833 -8.10001,-3.475003 -2.13333,-2.31667 -3.2,-5.25834 -3.2,-8.82501 0,-3.4 1.09167,-6.25834 3.275,-8.57501 2.18334,-2.31666 4.85834,-3.475 8.02501,-3.475 m 0.05,1.55 c -1.53334,0 -2.58334,0.8 -3.15,2.4 -0.56667,1.60001 -0.85,4.60001 -0.85,9.00001 0,3.66667 0.29166,6.22501 0.875,7.67501 0.58333,1.45 1.60833,2.175 3.075,2.175 1.46667,0 2.48333,-0.75833 3.05,-2.275 0.56667,-1.51667 0.85,-4.19167 0.85,-8.02501 0,-4.1 -0.28333,-6.95 -0.85,-8.55001 -0.56667,-1.6 -1.56667,-2.4 -3,-2.4 m 39.60003,1.8 c -0.9,0 -1.825,0.38334 -2.775,1.15 -0.95,0.76667 -1.425,1.35001 -1.425,1.75001 l 0,13.35001 c 0,0.96666 0.16666,1.65 0.5,2.05 0.33333,0.4 0.93333,0.66667 1.8,0.8 l 0,1.200003 -12.00001,0 0,-1.200003 c 1.1,-0.2 1.83333,-0.49167 2.2,-0.875 0.36667,-0.38334 0.55,-1.09167 0.55,-2.125 l 0,-14.70002 c 0,-1.03333 -0.18333,-1.75 -0.55,-2.15 -0.36667,-0.4 -1.1,-0.66666 -2.2,-0.8 l 0,-1.2 9.55001,0 0,3.75 c 1.83333,-2.9 4.28333,-4.35 7.35,-4.35 1.56667,0 2.83334,0.33333 3.80001,1 0.96666,0.66667 1.83333,1.78334 2.6,3.35 1.3,-1.6 2.49167,-2.725 3.575,-3.375 1.08334,-0.65 2.34167,-0.975 3.775,-0.975 2.06667,0 3.70834,0.64167 4.92501,1.925 1.21667,1.28334 1.825,2.99167 1.825,5.12501 l 0,12.55001 c 0,1.06666 0.175,1.79166 0.525,2.175 0.35,0.38333 1.00833,0.60833 1.975,0.675 l 0,1.200003 -11.90001,0 0,-1.200003 c 0.96667,-0.0667 1.61667,-0.3 1.95,-0.7 0.33334,-0.4 0.5,-1.11667 0.5,-2.15 l 0,-12.10001 c 0,-1.46667 -0.20833,-2.525 -0.625,-3.17501 -0.41666,-0.65 -1.09166,-0.975 -2.025,-0.975 -0.86667,0 -1.79167,0.39167 -2.775,1.175 -0.98333,0.78334 -1.475,1.35834 -1.475,1.72501 l 0,13.35001 c 0,0.96666 0.175,1.65833 0.525,2.075 0.35,0.41667 0.95833,0.675 1.825,0.775 l 0,1.200003 -11.70001,0 0,-1.200003 c 0.93333,-0.0667 1.56667,-0.3 1.9,-0.7 0.33334,-0.4 0.5,-1.11667 0.5,-2.15 l 0,-12.10001 c 0,-1.5 -0.20833,-2.56667 -0.625,-3.20001 -0.41666,-0.63333 -1.10833,-0.95 -2.075,-0.95 m 39.4517,-3.35 c 3.23333,0 5.91667,1.15834 8.05001,3.475 2.13333,2.31667 3.2,5.22501 3.2,8.72501 0,3.46667 -1.06667,6.35834 -3.2,8.67501 -2.13334,2.316673 -4.81668,3.475003 -8.05001,3.475003 -3.26667,0 -5.96667,-1.15833 -8.10001,-3.475003 -2.13333,-2.31667 -3.2,-5.25834 -3.2,-8.82501 0,-3.4 1.09167,-6.25834 3.275,-8.57501 2.18334,-2.31666 4.85834,-3.475 8.02501,-3.475 m 0.05,1.55 c -1.53334,0 -2.58334,0.8 -3.15,2.4 -0.56667,1.60001 -0.85,4.60001 -0.85,9.00001 0,3.66667 0.29166,6.22501 0.875,7.67501 0.58333,1.45 1.60833,2.175 3.075,2.175 1.46667,0 2.48333,-0.75833 3.05,-2.275 0.56667,-1.51667 0.85,-4.19167 0.85,-8.02501 0,-4.1 -0.28333,-6.95 -0.85,-8.55001 -0.56667,-1.6 -1.56667,-2.4 -3,-2.4 m 27.65002,-0.95 0,2.2 -4.7,0 0,15.05002 c 0,1 0.15,1.725 0.45,2.175 0.3,0.45 0.8,0.675 1.5,0.675 1,0 1.95,-0.86667 2.85,-2.6 l 1.25,0.55 c -1.03333,2.03333 -2.10833,3.475 -3.225,4.325 -1.11667,0.850003 -2.50834,1.275003 -4.175,1.275003 -1.73334,0 -3.10001,-0.46667 -4.10001,-1.400003 -1,-0.93333 -1.5,-2.21667 -1.5,-3.85 l 0,-16.20002 -2.6,0 0,-1.35 c 1.63333,-1.36667 3.04167,-2.71667 4.225,-4.05 1.18334,-1.33334 2.54167,-3.08334 4.07501,-5.25001 l 1.25,0 0,8.45001 4.7,0 m 13.90168,-0.6 c 3.23333,0 5.91667,1.15834 8.05001,3.475 2.13333,2.31667 3.2,5.22501 3.2,8.72501 0,3.46667 -1.06667,6.35834 -3.2,8.67501 -2.13334,2.316673 -4.81668,3.475003 -8.05001,3.475003 -3.26667,0 -5.96667,-1.15833 -8.10001,-3.475003 -2.13333,-2.31667 -3.2,-5.25834 -3.2,-8.82501 0,-3.4 1.09167,-6.25834 3.275,-8.57501 2.18334,-2.31666 4.85834,-3.475 8.02501,-3.475 m 0.05,1.55 c -1.53334,0 -2.58334,0.8 -3.15,2.4 -0.56667,1.60001 -0.85,4.60001 -0.85,9.00001 0,3.66667 0.29166,6.22501 0.875,7.67501 0.58333,1.45 1.60833,2.175 3.075,2.175 1.46667,0 2.48333,-0.75833 3.05,-2.275 0.56667,-1.51667 0.85,-4.19167 0.85,-8.02501 0,-4.1 -0.28333,-6.95 -0.85,-8.55001 -0.56667,-1.6 -1.56667,-2.4 -3,-2.4" id="path130"/>
 <path d="m 327.00883,168.97903 0,58.58726" id="polyline136" fill="none" stroke="#000000" stroke-linejoin="bevel" stroke-linecap="round" stroke-width="2.708"/>
 <path d="m 343.96539,153.59161 c 2.71267,0 4.90996,0.67816 6.59179,2.03454 1.68188,1.41058 2.5228,3.25517 2.5228,5.53384 0,3.74349 -1.926,7.24284 -5.77801,10.49805 -3.90625,3.25521 -8.08375,4.88283 -12.53255,4.88283 -2.71267,0 -4.90996,-0.67816 -6.5918,-2.03454 -1.68186,-1.41058 -2.52279,-3.25517 -2.52279,-5.53384 0,-3.74349 1.95313,-7.24284 5.85938,-10.49805 3.852,-3.25521 8.00238,-4.88283 12.45118,-4.88283" id="path142"/>
 <path d="m 316.13989,191.02655 c 0,1.03079 -0.51542,1.54621 -1.54626,1.54621 -1.03079,0 -1.5462,-0.51542 -1.5462,-1.54621 l 0,-12.0443 -6.91734,2.60417 0,13.18364 c 0,1.03079 -0.51542,1.5462 -1.54621,1.5462 -1.03084,0 -1.54621,-0.51541 -1.54621,-1.5462 l 0,-12.12568 -2.60419,0.97654 c -0.10851,0.0543 -0.32552,0.0814 -0.65104,0.0814 -0.43403,0 -0.81381,-0.16279 -1.13933,-0.48829 -0.32552,-0.32555 -0.48828,-0.7053 -0.48828,-1.13934 l 0,-5.04559 c 0,-0.75954 0.35265,-1.27495 1.05794,-1.54621 l 3.8249,-1.30208 0,-13.34634 -2.60419,0.89516 c -0.10851,0.0543 -0.32552,0.0814 -0.65104,0.0814 -0.43403,0 -0.81381,-0.16276 -1.13933,-0.48828 -0.32552,-0.32552 -0.48828,-0.70531 -0.48828,-1.13935 l 0,-5.04554 c 0,-0.7053 0.35265,-1.19359 1.05794,-1.46488 l 3.8249,-1.46483 0,-13.10222 c 0,-1.03079 0.51537,-1.54621 1.54621,-1.54621 1.03079,0 1.54621,0.51542 1.54621,1.54621 l 0,12.0443 6.91734,-2.60417 0,-13.18364 c 0,-1.03079 0.51541,-1.54621 1.5462,-1.54621 1.03084,0 1.54626,0.51542 1.54626,1.54621 l 0,12.12568 2.68554,-0.97654 c 0.1085,-0.0543 0.29838,-0.0814 0.56967,-0.0814 0.434,0 0.84091,0.16279 1.22066,0.48829 0.32555,0.32555 0.4883,0.7053 0.4883,1.13934 l 0,5.04559 c 0,0.75954 -0.37975,1.27495 -1.1393,1.5462 l -3.82487,1.30209 0,13.34634 2.68554,-0.89516 c 0.1085,-0.0542 0.29838,-0.0814 0.56967,-0.0814 0.434,0 0.84091,0.16276 1.22066,0.48828 0.32555,0.32552 0.4883,0.70531 0.4883,1.13935 l 0,5.04554 c 0,0.7053 -0.37975,1.19359 -1.1393,1.46488 l -3.82487,1.46483 0,13.10222 m -3.09246,-33.85419 -6.91734,2.44142 0,13.34634 6.91734,-2.44142 0,-13.34634" id="path150"/>
 <path d="m 394.5425,144.23324 0,302.08357" id="polyline156" fill="none" stroke="#000000" stroke-linejoin="bevel" stroke-width="3.333"/>
 <path d="m 396.20883,144.23324 387.42822,0" id="polyline160" fill="none" stroke="#000000" stroke-linejoin="bevel" stroke-width="1.667"/>
 <path d="m 396.20883,165.06659 387.42822,0" id="polyline162" fill="none" stroke="#000000" stroke-linejoin="bevel" stroke-width="1.667"/>
 <path d="m 396.20883,185.89994 387.42822,0" id="polyline164" fill="none" stroke="#000000" stroke-linejoin="bevel" stroke-width="1.667"/>
 <path d="m 396.20883,206.73329 387.42822,0" id="polyline166" fill="none" stroke="#000000" stroke-linejoin="bevel" stroke-width="1.667"/>
 <path d="m 396.20883,227.56664 387.42822,0" id="polyline168" fill="none" stroke="#000000" stroke-linejoin="bevel" stroke-width="1.667"/>
 <path d="m 396.20883,362.98324 387.42822,0" id="polyline172" fill="none" stroke="#000000" stroke-linejoin="bevel" stroke-width="1.667"/>
 <path d="m 396.20883,383.81659 387.42822,0" id="polyline174" fill="none" stroke="#000000" stroke-linejoin="bevel" stroke-width="1.667"/>
 <path d="m 396.20883,404.64994 387.42822,0" id="polyline176" fill="none" stroke="#000000" stroke-linejoin="bevel" stroke-width="1.667"/>
 <path d="m 396.20883,425.48329 387.42822,0" id="polyline178" fill="none" stroke="#000000" stroke-linejoin="bevel" stroke-width="1.667"/>
 <path d="m 396.20883,446.31664 387.42822,0" id="polyline180" fill="none" stroke="#000000" stroke-linejoin="bevel" stroke-width="1.667"/>
 <path d="m 422.56283,158.56203 0,89.83728" id="polyline184" fill="none" stroke="#000000" stroke-linejoin="bevel" stroke-linecap="round" stroke-width="2.708"/>
 <path d="m 439.51939,143.17461 c 2.71267,0 4.90996,0.67816 6.59179,2.03454 1.68188,1.41058 2.5228,3.25517 2.5228,5.53384 0,3.74349 -1.926,7.24284 -5.77801,10.49805 -3.90625,3.25521 -8.08375,4.88283 -12.53255,4.88283 -2.71267,0 -4.90996,-0.67816 -6.5918,-2.03454 -1.68186,-1.41058 -2.52279,-3.25517 -2.52279,-5.53384 0,-3.74349 1.95313,-7.24284 5.85938,-10.49805 3.852,-3.25521 8.00238,-4.88283 12.45118,-4.88283" id="path190"/>
 <path d="m 421.20915,243.19165 302.91108,0 0,10.41668 -302.91108,0 0,-10.41668" id="path196" fill-rule="evenodd"/>
 <path d="m 421.20915,227.56664 302.91108,0 0,10.41667 -302.91108,0 0,-10.41667" id="path198" fill-rule="evenodd"/>
 <path d="m 603.06706,396.83708 -29.62243,0 c -0.54253,0 -0.8138,-0.27125 -0.8138,-0.81379 l 0,-11.39325 c 0,-0.54253 0.27127,-0.8138 0.8138,-0.8138 l 29.62243,0 c 0.54254,0 0.8138,0.27127 0.8138,0.8138 l 0,11.39325 c 0,0.54254 -0.27126,0.81379 -0.8138,0.81379" id="path204"/>
 <path d="m 487.19883,168.97903 0,79.42061" id="polyline210" fill="none" stroke="#000000" stroke-linejoin="bevel" stroke-linecap="round" stroke-width="2.708"/>
 <path d="m 504.15439,153.59161 c 2.71267,0 4.90996,0.67816 6.59179,2.03454 1.68188,1.41058 2.5228,3.25517 2.5228,5.53384 0,3.74349 -1.926,7.24284 -5.77801,10.49805 -3.90625,3.25521 -8.08375,4.88283 -12.53255,4.88283 -2.71267,0 -4.90996,-0.67816 -6.5918,-2.03454 -1.68186,-1.41058 -2.52279,-3.25517 -2.52279,-5.53384 0,-3.74349 1.95313,-7.24284 5.85938,-10.49805 3.852,-3.25521 8.00238,-4.88283 12.45118,-4.88283" id="path216"/>
 <path d="m 476.32889,191.02655 c 0,1.03079 -0.51542,1.54621 -1.54626,1.54621 -1.03079,0 -1.5462,-0.51542 -1.5462,-1.54621 l 0,-12.0443 -6.91734,2.60417 0,13.18364 c 0,1.03079 -0.51542,1.5462 -1.54621,1.5462 -1.03084,0 -1.54621,-0.51541 -1.54621,-1.5462 l 0,-12.12568 -2.60419,0.97654 c -0.10851,0.0543 -0.32552,0.0814 -0.65104,0.0814 -0.43403,0 -0.81381,-0.16279 -1.13933,-0.48829 -0.32552,-0.32555 -0.48828,-0.7053 -0.48828,-1.13934 l 0,-5.04559 c 0,-0.75954 0.35265,-1.27495 1.05794,-1.54621 l 3.8249,-1.30208 0,-13.34634 -2.60419,0.89516 c -0.10851,0.0543 -0.32552,0.0814 -0.65104,0.0814 -0.43403,0 -0.81381,-0.16276 -1.13933,-0.48828 -0.32552,-0.32552 -0.48828,-0.70531 -0.48828,-1.13935 l 0,-5.04554 c 0,-0.7053 0.35265,-1.19359 1.05794,-1.46488 l 3.8249,-1.46483 0,-13.10222 c 0,-1.03079 0.51537,-1.54621 1.54621,-1.54621 1.03079,0 1.54621,0.51542 1.54621,1.54621 l 0,12.0443 6.91734,-2.60417 0,-13.18364 c 0,-1.03079 0.51541,-1.54621 1.5462,-1.54621 1.03084,0 1.54626,0.51542 1.54626,1.54621 l 0,12.12568 2.68554,-0.97654 c 0.1085,-0.0543 0.29838,-0.0814 0.56967,-0.0814 0.434,0 0.84091,0.16279 1.22066,0.48829 0.32555,0.32555 0.4883,0.7053 0.4883,1.13934 l 0,5.04559 c 0,0.75954 -0.37975,1.27495 -1.1393,1.5462 l -3.82487,1.30209 0,13.34634 2.68554,-0.89516 c 0.1085,-0.0542 0.29838,-0.0814 0.56967,-0.0814 0.434,0 0.84091,0.16276 1.22066,0.48828 0.32555,0.32552 0.4883,0.70531 0.4883,1.13935 l 0,5.04554 c 0,0.7053 -0.37975,1.19359 -1.1393,1.46488 l -3.82487,1.46483 0,13.10222 m -3.09246,-33.85419 -6.91734,2.44142 0,13.34634 6.91734,-2.44142 0,-13.34634" id="path224"/>
 <path d="m 546.08983,158.56203 0,89.83728" id="polyline230" fill="none" stroke="#000000" stroke-linejoin="bevel" stroke-linecap="round" stroke-width="2.708"/>
 <path d="m 563.04639,143.17461 c 2.71267,0 4.90996,0.67816 6.59179,2.03454 1.68188,1.41058 2.5228,3.25517 2.5228,5.53384 0,3.74349 -1.926,7.24284 -5.77801,10.49805 -3.90625,3.25521 -8.08375,4.88283 -12.53255,4.88283 -2.71267,0 -4.90996,-0.67816 -6.5918,-2.03454 -1.68186,-1.41058 -2.52279,-3.25517 -2.52279,-5.53384 0,-3.74349 1.95313,-7.24284 5.85938,-10.49805 3.852,-3.25521 8.00238,-4.88283 12.45118,-4.88283" id="path236"/>
 <path d="m 604.98183,189.81203 0,58.58726" id="polyline242" fill="none" stroke="#000000" stroke-linejoin="bevel" stroke-linecap="round" stroke-width="2.708"/>
 <path d="m 621.93839,174.42461 c 2.71267,0 4.90996,0.67816 6.59179,2.03454 1.68188,1.41058 2.5228,3.25517 2.5228,5.53384 0,3.74349 -1.926,7.24284 -5.77801,10.49805 -3.90625,3.25521 -8.08375,4.88283 -12.53255,4.88283 -2.71267,0 -4.90996,-0.67816 -6.5918,-2.03454 -1.68186,-1.41058 -2.52279,-3.25517 -2.52279,-5.53384 0,-3.74349 1.95313,-7.24284 5.85938,-10.49805 3.852,-3.25521 8.00238,-4.88283 12.45118,-4.88283" id="path248"/>
 <path d="m 663.87383,168.97903 0,79.42061" id="polyline254" fill="none" stroke="#000000" stroke-linejoin="bevel" stroke-linecap="round" stroke-width="2.708"/>
 <path d="m 680.83039,153.59161 c 2.71267,0 4.90996,0.67816 6.59179,2.03454 1.68188,1.41058 2.5228,3.25517 2.5228,5.53384 0,3.74349 -1.926,7.24284 -5.77801,10.49805 -3.90625,3.25521 -8.08375,4.88283 -12.53255,4.88283 -2.71267,0 -4.90996,-0.67816 -6.5918,-2.03454 -1.68186,-1.41058 -2.52279,-3.25517 -2.52279,-5.53384 0,-3.74349 1.95313,-7.24284 5.85938,-10.49805 3.852,-3.25521 8.00238,-4.88283 12.45118,-4.88283" id="path260"/>
 <path d="m 642.76679,133.81621 c 0.75955,-0.37979 1.46484,-0.56966 2.11588,-0.56966 0.65105,0 1.35634,0.18987 2.11589,0.56966 l -0.24414,15.2181 8.87046,-1.62758 0.3255,0 c 0.97659,0 1.46488,0.46116 1.46488,1.38346 l 0.56962,47.52607 c -0.75954,0.3798 -1.46483,0.56967 -2.11587,0.56967 -0.65105,0 -1.35634,-0.18987 -2.11588,-0.56967 l 0.24413,-15.21809 -8.78906,1.62758 -0.32553,0 c -0.97656,0 -1.46484,-0.46116 -1.46484,-1.38346 l -0.65104,-47.52608 m 11.31184,39.14391 0.24417,-17.2526 -7.64976,1.46484 -0.24414,17.2526 7.64973,-1.46484" id="path268"/>
 <path d="m 722.76583,179.39603 0,69.00393" id="polyline274" fill="none" stroke="#000000" stroke-linejoin="bevel" stroke-linecap="round" stroke-width="2.708"/>
 <path d="m 739.72239,164.00861 c 2.71267,0 4.90996,0.67816 6.59179,2.03454 1.68188,1.41058 2.5228,3.25517 2.5228,5.53384 0,3.74349 -1.926,7.24284 -5.77801,10.49805 -3.90625,3.25521 -8.08375,4.88283 -12.53255,4.88283 -2.71267,0 -4.90996,-0.67816 -6.5918,-2.03454 -1.68186,-1.41058 -2.52279,-3.25517 -2.52279,-5.53384 0,-3.74349 1.95313,-7.24284 5.85938,-10.49805 3.852,-3.25521 8.00238,-4.88283 12.45118,-4.88283" id="path280"/>
 <path d="m 781.9705,144.23324 0,302.08357" id="polyline286" fill="none" stroke="#000000" stroke-linejoin="bevel" stroke-width="3.333"/>
 <path d="m 783.63683,144.23324 331.65987,0" id="polyline290" fill="none" stroke="#000000" stroke-linejoin="bevel" stroke-width="1.667"/>
 <path d="m 783.63683,165.06659 331.65987,0" id="polyline292" fill="none" stroke="#000000" stroke-linejoin="bevel" stroke-width="1.667"/>
 <path d="m 783.63683,185.89994 331.65987,0" id="polyline294" fill="none" stroke="#000000" stroke-linejoin="bevel" stroke-width="1.667"/>
 <path d="m 783.63683,206.73329 331.65987,0" id="polyline296" fill="none" stroke="#000000" stroke-linejoin="bevel" stroke-width="1.667"/>
 <path d="m 783.63683,227.56664 331.65987,0" id="polyline298" fill="none" stroke="#000000" stroke-linejoin="bevel" stroke-width="1.667"/>
 <path d="m 783.63683,362.98324 331.65987,0" id="polyline302" fill="none" stroke="#000000" stroke-linejoin="bevel" stroke-width="1.667"/>
 <path d="m 783.63683,383.81659 331.65987,0" id="polyline304" fill="none" stroke="#000000" stroke-linejoin="bevel" stroke-width="1.667"/>
 <path d="m 783.63683,404.64994 331.65987,0" id="polyline306" fill="none" stroke="#000000" stroke-linejoin="bevel" stroke-width="1.667"/>
 <path d="m 783.63683,425.48329 331.65987,0" id="polyline308" fill="none" stroke="#000000" stroke-linejoin="bevel" stroke-width="1.667"/>
 <path d="m 783.63683,446.31664 331.65987,0" id="polyline310" fill="none" stroke="#000000" stroke-linejoin="bevel" stroke-width="1.667"/>
 <path d="m 833.27183,149.44159 0,-20.83335 2.60417,0 c 0,2.98394 0.59679,6.07638 1.79038,9.27734 1.19358,3.14671 2.63129,6.07642 4.31312,8.78909 1.68188,2.71267 3.39088,5.45246 5.12697,8.21938 1.73612,2.76696 3.20096,5.72376 4.39454,8.87047 1.19359,3.14671 1.79038,6.23917 1.79038,9.27751 0,5.53375 -1.16646,11.28459 -3.49938,17.25251 -0.37975,0.65083 -0.89517,0.97667 -1.54621,0.97667 -0.54254,0 -1.03083,-0.21709 -1.46483,-0.65125 -0.32555,-0.32542 -0.4883,-0.7325 -0.4883,-1.22084 0,-0.1625 0,-0.29833 0,-0.40667 2.33292,-5.47958 3.49934,-10.79667 3.49934,-15.95042 0,-2.71292 -0.81379,-5.64251 -2.44138,-8.78922 -1.62762,-3.14671 -3.28233,-5.69663 -4.96421,-7.64976 -1.68188,-2.00737 -3.852,-4.39454 -6.51042,-7.16146 l -2.60417,0" id="path316"/>
 <path d="m 834.62683,192.40344 0,-63.79559" id="polyline322" fill="none" stroke="#000000" stroke-linejoin="bevel" stroke-linecap="round" stroke-width="2.708"/>
 <path d="m 826.94739,184.84161 c 2.71267,0 4.90996,0.67816 6.59179,2.03454 1.68188,1.41058 2.5228,3.25517 2.5228,5.53384 0,3.74349 -1.926,7.24284 -5.77801,10.49805 -3.90625,3.25521 -8.08375,4.88283 -12.53255,4.88283 -2.71267,0 -4.90996,-0.67816 -6.5918,-2.03454 -1.68186,-1.41058 -2.52279,-3.25517 -2.52279,-5.53384 0,-3.74349 1.95313,-7.24284 5.85938,-10.49805 3.852,-3.25521 8.00238,-4.88283 12.45118,-4.88283" id="path328"/>
 <path d="m 809.99083,439.81203 0,63.79559" id="polyline334" fill="none" stroke="#000000" stroke-linejoin="bevel" stroke-linecap="round" stroke-width="2.708"/>
 <path d="m 826.94739,424.42461 c 2.71267,0 4.90996,0.67816 6.59179,2.03454 1.68188,1.41058 2.5228,3.25517 2.5228,5.53384 0,3.74349 -1.926,7.24284 -5.77801,10.49805 -3.90625,3.25521 -8.08375,4.88283 -12.53255,4.88283 -2.71267,0 -4.90996,-0.67816 -6.5918,-2.03454 -1.68186,-1.41058 -2.52279,-3.25517 -2.52279,-5.53384 0,-3.74349 1.95313,-7.24284 5.85938,-10.49805 3.852,-3.25521 8.00238,-4.88283 12.45118,-4.88283" id="path340"/>
 <path d="m 808.63696,498.40001 103.81677,-37.43502 0,10.41667 -103.81677,37.43503 0,-10.41668" id="path346" fill-rule="evenodd"/>
 <path d="m 808.63696,482.775 103.81677,-37.43503 0,10.41668 -103.81677,37.43503 0,-10.41668" id="path348" fill-rule="evenodd"/>
 <path d="m 860.54483,398.14603 0,87.23311" id="polyline352" fill="none" stroke="#000000" stroke-linejoin="bevel" stroke-linecap="round" stroke-width="2.708"/>
 <path d="m 877.50139,382.75861 c 2.71267,0 4.90996,0.67816 6.59179,2.03454 1.68188,1.41058 2.5228,3.25517 2.5228,5.53384 0,3.74349 -1.926,7.24284 -5.77801,10.49805 -3.90625,3.25521 -8.08375,4.88283 -12.53255,4.88283 -2.71267,0 -4.90996,-0.67816 -6.5918,-2.03454 -1.68186,-1.41058 -2.52279,-3.25517 -2.52279,-5.53384 0,-3.74349 1.95313,-7.24284 5.85938,-10.49805 3.852,-3.25521 8.00238,-4.88283 12.45118,-4.88283" id="path358"/>
 <path d="m 920.16553,168.80939 c 1.5733,0 2.7398,0.434 3.4993,1.30209 0.7596,0.86804 1.2207,1.79033 1.3835,2.76692 0.1085,1.03083 0.3798,1.95312 0.8138,2.76692 0.3798,0.86808 0.9765,1.30208 1.7904,1.30208 0.5425,0 1.3563,-0.65104 2.4414,-1.95313 1.1393,-1.35633 1.926,-2.44137 2.36,-3.25521 0.2713,-0.54254 0.651,-0.81379 1.1393,-0.81379 0,0 0.027,0 0.081,0 0.4883,0.0542 0.8409,0.32554 1.0579,0.81379 l -14.8925,55.82688 c -0.5968,0.5425 -1.3564,0.81375 -2.2787,0.81375 -0.9223,0 -1.6819,-0.27125 -2.2787,-0.81375 l 8.3822,-27.2624 c -3.635,1.30209 -6.5918,1.95313 -8.8704,1.95313 -1.9531,0 -3.635,-0.62392 -5.0456,-1.87175 -1.4648,-1.24784 -2.1973,-2.82117 -2.1973,-4.72005 0,-1.68187 0.5697,-3.09246 1.709,-4.23179 1.1936,-1.19354 2.6313,-1.79035 4.3132,-1.79035 1.5733,0 2.7398,0.43401 3.4993,1.3021 0.8138,0.86804 1.3021,1.79033 1.4649,2.76692 0.1627,1.03083 0.434,1.95312 0.8138,2.76692 0.3797,0.86808 0.9765,1.30208 1.7904,1.30208 0.5967,0 1.519,-0.75954 2.7669,-2.27863 1.3021,-1.46487 2.0616,-2.57704 2.2786,-3.33658 l 3.8249,-12.61397 c -3.418,1.24783 -6.3206,1.87175 -8.7077,1.87175 -1.9531,0 -3.635,-0.62392 -5.0456,-1.87175 -1.4648,-1.24784 -2.1972,-2.82117 -2.1972,-4.72005 0,-1.68187 0.5968,-3.09246 1.7903,-4.23179 1.1936,-1.19354 2.6313,-1.79034 4.3132,-1.79034" id="path366"/>
 <path d="m 911.09883,366.89603 0,100.25396" id="polyline372" fill="none" stroke="#000000" stroke-linejoin="bevel" stroke-linecap="round" stroke-width="2.708"/>
 <path d="m 928.05943,351.50861 c 2.7126,0 4.9099,0.67816 6.5918,2.03454 1.6818,1.41058 2.5227,3.25517 2.5227,5.53384 0,3.74349 -1.926,7.24284 -5.778,10.49805 -3.9062,3.25521 -8.0837,4.88283 -12.5325,4.88283 -2.7127,0 -4.91,-0.67816 -6.5918,-2.03454 -1.6819,-1.41058 -2.5228,-3.25517 -2.5228,-5.53384 0,-3.74349 1.9531,-7.24284 5.8594,-10.49805 3.852,-3.25521 8.0024,-4.88283 12.4512,-4.88283" id="path378"/>
 <path d="m 986.28883,244.48644 0,-95.04562" id="polyline384" fill="none" stroke="#000000" stroke-linejoin="bevel" stroke-linecap="round" stroke-width="2.708"/>
 <path d="m 954.04883,248.39924 39.84378,0" id="polyline388" fill="none" stroke="#000000" stroke-linejoin="bevel" stroke-linecap="square" stroke-width="3.333"/>
 <path d="m 978.60943,236.92461 c 2.7126,0 4.9099,0.67816 6.5918,2.03454 1.6818,1.41058 2.5227,3.25517 2.5227,5.53384 0,3.74349 -1.926,7.24284 -5.778,10.49805 -3.9062,3.25521 -8.0837,4.88283 -12.5325,4.88283 -2.7127,0 -4.91,-0.67816 -6.5918,-2.03454 -1.6819,-1.41058 -2.5228,-3.25517 -2.5228,-5.53384 0,-3.74349 1.9531,-7.24284 5.8594,-10.49805 3.852,-3.25521 8.0024,-4.88283 12.4512,-4.88283" id="path394"/>
 <path d="m 984.93713,144.9308 103.81667,-26.73925 0,10.41668 -103.81667,26.73923 0,-10.41666" id="path400" fill-rule="evenodd"/>
 <path d="m 984.93713,160.55579 103.81667,-26.73922 0,10.41667 -103.81667,26.73923 0,-10.41668" id="path402" fill-rule="evenodd"/>
 <path d="m 970.71553,387.55939 c 1.5733,0 2.7398,0.434 3.4993,1.30209 0.7596,0.86804 1.2207,1.79033 1.3835,2.76692 0.1085,1.03083 0.3798,1.95312 0.8138,2.76692 0.3798,0.86808 0.9765,1.30208 1.7904,1.30208 0.5425,0 1.3563,-0.65104 2.4414,-1.95313 1.1393,-1.35633 1.926,-2.44137 2.36,-3.25521 0.2713,-0.54254 0.651,-0.81379 1.1393,-0.81379 0,0 0.027,0 0.081,0 0.4883,0.0542 0.8409,0.32554 1.0579,0.81379 l -14.8925,55.82688 c -0.5968,0.5425 -1.3564,0.81375 -2.2787,0.81375 -0.9223,0 -1.6819,-0.27125 -2.2787,-0.81375 l 8.3822,-27.2624 c -3.635,1.30209 -6.5918,1.95313 -8.8704,1.95313 -1.9531,0 -3.635,-0.62392 -5.0456,-1.87175 -1.4648,-1.24784 -2.1973,-2.82117 -2.1973,-4.72005 0,-1.68187 0.5697,-3.09246 1.709,-4.23179 1.1936,-1.19354 2.6313,-1.79035 4.3132,-1.79035 1.5733,0 2.7398,0.43401 3.4993,1.3021 0.8138,0.86804 1.3021,1.79033 1.4649,2.76692 0.1627,1.03083 0.434,1.95312 0.8138,2.76692 0.3797,0.86808 0.9765,1.30208 1.7904,1.30208 0.5967,0 1.519,-0.75954 2.7669,-2.27863 1.3021,-1.46487 2.0616,-2.57704 2.2786,-3.33658 l 3.8249,-12.61397 c -3.418,1.24783 -6.3206,1.87175 -8.7077,1.87175 -1.9531,0 -3.635,-0.62392 -5.0456,-1.87175 -1.4648,-1.24784 -2.1972,-2.82117 -2.1972,-4.72005 0,-1.68187 0.5968,-3.09246 1.7903,-4.23179 1.1936,-1.19354 2.6313,-1.79034 4.3132,-1.79034" id="path408"/>
 <path d="m 1036.8488,223.65344 0,-87.23311" id="polyline414" fill="none" stroke="#000000" stroke-linejoin="bevel" stroke-linecap="round" stroke-width="2.708"/>
 <path d="m 1029.1694,216.09161 c 2.7126,0 4.9099,0.67816 6.5918,2.03454 1.6818,1.41058 2.5227,3.25517 2.5227,5.53384 0,3.74349 -1.926,7.24284 -5.778,10.49805 -3.9062,3.25521 -8.0837,4.88283 -12.5325,4.88283 -2.7127,0 -4.91,-0.67816 -6.5918,-2.03454 -1.6819,-1.41058 -2.5228,-3.25517 -2.5228,-5.53384 0,-3.74349 1.9531,-7.24284 5.8594,-10.49805 3.852,-3.25521 8.0024,-4.88283 12.4512,-4.88283" id="path420"/>
 <path d="m 1016.7182,387.55939 c 1.5733,0 2.7669,0.434 3.5807,1.30209 0.7596,0.86804 1.1936,1.79033 1.3021,2.76692 0.1628,1.03083 0.434,1.95312 0.8138,2.76692 0.434,0.86808 1.0579,1.30208 1.8718,1.30208 0.5968,0 1.4919,-0.67817 2.6855,-2.0345 1.1936,-1.35634 1.9803,-2.4143 2.36,-3.17384 0.2713,-0.54254 0.651,-0.81379 1.1393,-0.81379 0.054,0 0.081,0 0.081,0 0.5426,0.0542 0.9223,0.32554 1.1394,0.81379 l -10.254,34.99353 c -0.5968,0.54254 -1.3563,0.81379 -2.2786,0.81379 -0.9223,0 -1.6819,-0.27125 -2.2787,-0.81379 l 9.7657,-27.18102 c -3.418,1.24783 -6.3477,1.87175 -8.7891,1.87175 -1.9531,0 -3.635,-0.62392 -5.0456,-1.87175 -1.4648,-1.24784 -2.1972,-2.82117 -2.1972,-4.72005 0,-1.68187 0.5967,-3.09246 1.7903,-4.23179 1.1936,-1.19354 2.6313,-1.79034 4.3132,-1.79034" id="path428"/>
 <path d="m 1087.3988,192.40344 0,-69.00393" id="polyline434" fill="none" stroke="#000000" stroke-linejoin="bevel" stroke-linecap="round" stroke-width="2.708"/>
 <path d="m 1079.7194,184.84161 c 2.7126,0 4.9099,0.67816 6.5918,2.03454 1.6818,1.41058 2.5227,3.25517 2.5227,5.53384 0,3.74349 -1.926,7.24284 -5.778,10.49805 -3.9062,3.25521 -8.0837,4.88283 -12.5325,4.88283 -2.7127,0 -4.91,-0.67816 -6.5918,-2.03454 -1.6819,-1.41058 -2.5228,-3.25517 -2.5228,-5.53384 0,-3.74349 1.9531,-7.24284 5.8594,-10.49805 3.852,-3.25521 8.0024,-4.88283 12.4512,-4.88283" id="path440"/>
 <path d="m 1113.6255,144.23324 0,302.08357" id="polyline446" fill="none" stroke="#000000" stroke-linejoin="bevel" stroke-width="3.333"/>
 <path d="m 1115.2988,144.23324 395.8266,0" id="polyline450" fill="none" stroke="#000000" stroke-linejoin="bevel" stroke-width="1.667"/>
 <path d="m 1115.2988,165.06659 395.8266,0" id="polyline452" fill="none" stroke="#000000" stroke-linejoin="bevel" stroke-width="1.667"/>
 <path d="m 1115.2988,185.89994 395.8266,0" id="polyline454" fill="none" stroke="#000000" stroke-linejoin="bevel" stroke-width="1.667"/>
 <path d="m 1115.2988,206.73329 395.8266,0" id="polyline456" fill="none" stroke="#000000" stroke-linejoin="bevel" stroke-width="1.667"/>
 <path d="m 1115.2988,227.56664 395.8266,0" id="polyline458" fill="none" stroke="#000000" stroke-linejoin="bevel" stroke-width="1.667"/>
 <path d="m 1115.2988,362.98324 395.8266,0" id="polyline462" fill="none" stroke="#000000" stroke-linejoin="bevel" stroke-width="1.667"/>
 <path d="m 1115.2988,383.81659 395.8266,0" id="polyline464" fill="none" stroke="#000000" stroke-linejoin="bevel" stroke-width="1.667"/>
 <path d="m 1115.2988,404.64994 395.8266,0" id="polyline466" fill="none" stroke="#000000" stroke-linejoin="bevel" stroke-width="1.667"/>
 <path d="m 1115.2988,425.48329 395.8266,0" id="polyline468" fill="none" stroke="#000000" stroke-linejoin="bevel" stroke-width="1.667"/>
 <path d="m 1115.2988,446.31664 395.8266,0" id="polyline470" fill="none" stroke="#000000" stroke-linejoin="bevel" stroke-width="1.667"/>
 <path d="m 1159.2604,198.51328 c 1.3021,0 2.6313,2.03458 3.9876,6.10375 1.3564,4.06917 2.0345,7.89376 2.0345,11.47459 0,3.03817 -0.7595,6.10351 -2.2786,9.19593 -1.5734,3.20096 -3.4451,6.02217 -5.6153,8.46359 0,0 -2.2243,2.49562 -6.6731,7.48696 -2.1702,2.49567 -4.0148,5.26259 -5.5339,8.3008 -1.5191,3.09242 -2.2786,6.18489 -2.2786,9.27734 l -2.6042,0 0,-20.83335 2.6042,0 c 1.8446,-1.13933 4.0147,-2.60417 6.5104,-4.39455 1.3021,-0.97654 3.2552,-2.60416 5.8594,-4.88279 2.0616,-1.84463 3.6621,-3.852 4.8014,-6.02217 1.1393,-2.17013 1.709,-4.36738 1.709,-6.59176 0,-5.1 -1.492,-10.22667 -4.4759,-15.38084 0,-0.10875 0,-0.21709 0,-0.32542 0,-0.48833 0.1627,-0.89542 0.4883,-1.22083 0.434,-0.43417 0.9223,-0.65125 1.4648,-0.65125" id="path476"/>
 <path d="m 1141.6488,189.81203 0,69.00393" id="polyline482" fill="none" stroke="#000000" stroke-linejoin="bevel" stroke-linecap="round" stroke-width="2.708"/>
 <path d="m 1158.6094,174.42461 c 2.7126,0 4.9099,0.67816 6.5918,2.03454 1.6818,1.41058 2.5227,3.25517 2.5227,5.53384 0,3.74349 -1.926,7.24284 -5.778,10.49805 -3.9062,3.25521 -8.0837,4.88283 -12.5325,4.88283 -2.7127,0 -4.91,-0.67816 -6.5918,-2.03454 -1.6819,-1.41058 -2.5228,-3.25517 -2.5228,-5.53384 0,-3.74349 1.9531,-7.24284 5.8594,-10.49805 3.852,-3.25521 8.0024,-4.88283 12.4512,-4.88283" id="path488"/>
 <path d="m 1166.2888,463.23644 0,-121.0873" id="polyline494" fill="none" stroke="#000000" stroke-linejoin="bevel" stroke-linecap="round" stroke-width="2.708"/>
 <path d="m 1134.0488,467.14924 39.8438,0" id="polyline498" fill="none" stroke="#000000" stroke-linejoin="bevel" stroke-linecap="square" stroke-width="3.333"/>
 <path d="m 1158.6094,455.67461 c 2.7126,0 4.9099,0.67816 6.5918,2.03454 1.6818,1.41058 2.5227,3.25517 2.5227,5.53384 0,3.74349 -1.926,7.24284 -5.778,10.49805 -3.9062,3.25521 -8.0837,4.88283 -12.5325,4.88283 -2.7127,0 -4.91,-0.67816 -6.5918,-2.03454 -1.6819,-1.41058 -2.5228,-3.25517 -2.5228,-5.53384 0,-3.74349 1.9531,-7.24284 5.8594,-10.49805 3.852,-3.25521 8.0024,-4.88283 12.4512,-4.88283" id="path504"/>
 <path d="m 1164.9331,337.73664 126.9001,-37.25345 0,10.41668 -126.9001,37.25344 0,-10.41667" id="path510" fill-rule="evenodd"/>
 <path d="m 1164.9331,353.36165 126.9001,-37.25345 0,10.41668 -126.9001,37.25344 0,-10.41667" id="path512" fill-rule="evenodd"/>
 <path d="m 1225.8388,390.32044 0,-65.65393" id="polyline516" fill="none" stroke="#000000" stroke-linejoin="bevel" stroke-linecap="round" stroke-width="2.708"/>
 <path d="m 1218.1594,382.75861 c 2.7126,0 4.9099,0.67816 6.5918,2.03454 1.6818,1.41058 2.5227,3.25517 2.5227,5.53384 0,3.74349 -1.926,7.24284 -5.778,10.49805 -3.9062,3.25521 -8.0837,4.88283 -12.5325,4.88283 -2.7127,0 -4.91,-0.67816 -6.5918,-2.03454 -1.6819,-1.41058 -2.5228,-3.25517 -2.5228,-5.53384 0,-3.74349 1.9531,-7.24284 5.8594,-10.49805 3.852,-3.25521 8.0024,-4.88283 12.4512,-4.88283" id="path522"/>
 <path d="m 1274.9055,168.80939 c 1.5733,0 2.7398,0.434 3.4993,1.30209 0.7596,0.86804 1.2207,1.79033 1.3835,2.76692 0.1085,1.03083 0.3798,1.95312 0.8138,2.76692 0.3798,0.86808 0.9765,1.30208 1.7904,1.30208 0.5425,0 1.3563,-0.65104 2.4414,-1.95313 1.1393,-1.35633 1.926,-2.44137 2.36,-3.25521 0.2713,-0.54254 0.651,-0.81379 1.1393,-0.81379 0,0 0.027,0 0.081,0 0.4883,0.0542 0.8409,0.32554 1.0579,0.81379 l -14.8925,55.82688 c -0.5968,0.5425 -1.3564,0.81375 -2.2787,0.81375 -0.9223,0 -1.6819,-0.27125 -2.2787,-0.81375 l 8.3822,-27.2624 c -3.635,1.30209 -6.5918,1.95313 -8.8704,1.95313 -1.9531,0 -3.635,-0.62392 -5.0456,-1.87175 -1.4648,-1.24784 -2.1973,-2.82117 -2.1973,-4.72005 0,-1.68187 0.5697,-3.09246 1.709,-4.23179 1.1936,-1.19354 2.6313,-1.79035 4.3132,-1.79035 1.5733,0 2.7398,0.43401 3.4993,1.3021 0.8138,0.86804 1.3021,1.79033 1.4649,2.76692 0.1627,1.03083 0.434,1.95312 0.8138,2.76692 0.3797,0.86808 0.9765,1.30208 1.7904,1.30208 0.5967,0 1.519,-0.75954 2.7669,-2.27863 1.3021,-1.46487 2.0616,-2.57704 2.2786,-3.33658 l 3.8249,-12.61397 c -3.418,1.24783 -6.3206,1.87175 -8.7077,1.87175 -1.9531,0 -3.635,-0.62392 -5.0456,-1.87175 -1.4648,-1.24784 -2.1972,-2.82117 -2.1972,-4.72005 0,-1.68187 0.5968,-3.09246 1.7903,-4.23179 1.1936,-1.19354 2.6313,-1.79034 4.3132,-1.79034" id="path530"/>
 <path d="m 1290.4788,369.48644 0,-63.79559" id="polyline536" fill="none" stroke="#000000" stroke-linejoin="bevel" stroke-linecap="round" stroke-width="2.708"/>
 <path d="m 1282.7994,361.92461 c 2.7126,0 4.9099,0.67816 6.5918,2.03454 1.6818,1.41058 2.5227,3.25517 2.5227,5.53384 0,3.74349 -1.926,7.24284 -5.778,10.49805 -3.9062,3.25521 -8.0837,4.88283 -12.5325,4.88283 -2.7127,0 -4.91,-0.67816 -6.5918,-2.03454 -1.6819,-1.41058 -2.5228,-3.25517 -2.5228,-5.53384 0,-3.74349 1.9531,-7.24284 5.8594,-10.49805 3.852,-3.25521 8.0024,-4.88283 12.4512,-4.88283" id="path542"/>
 <path d="m 1254.9739,399.35955 c 0,1.03079 -0.5155,1.54621 -1.5463,1.54621 -1.0308,0 -1.5462,-0.51542 -1.5462,-1.54621 l 0,-12.0443 -6.9173,2.60417 0,13.18364 c 0,1.03079 -0.5155,1.54621 -1.5463,1.54621 -1.0308,0 -1.5462,-0.51542 -1.5462,-1.54621 l 0,-12.12568 -2.6042,0.97654 c -0.1085,0.0543 -0.3255,0.0814 -0.651,0.0814 -0.434,0 -0.8138,-0.16279 -1.1393,-0.48829 -0.3255,-0.32555 -0.4883,-0.7053 -0.4883,-1.13934 l 0,-5.04559 c 0,-0.75954 0.3526,-1.27495 1.0579,-1.54621 l 3.8249,-1.30208 0,-13.34634 -2.6042,0.89516 c -0.1085,0.0542 -0.3255,0.0814 -0.651,0.0814 -0.434,0 -0.8138,-0.16276 -1.1393,-0.48828 -0.3255,-0.32552 -0.4883,-0.70531 -0.4883,-1.13935 l 0,-5.04554 c 0,-0.7053 0.3526,-1.19359 1.0579,-1.46488 l 3.8249,-1.46483 0,-13.10222 c 0,-1.03079 0.5154,-1.54621 1.5462,-1.54621 1.0308,0 1.5463,0.51542 1.5463,1.54621 l 0,12.0443 6.9173,-2.60417 0,-13.18364 c 0,-1.03079 0.5154,-1.5462 1.5462,-1.5462 1.0308,0 1.5463,0.51541 1.5463,1.5462 l 0,12.12568 2.6855,-0.97654 c 0.1085,-0.0543 0.2984,-0.0814 0.5697,-0.0814 0.434,0 0.8409,0.16279 1.2206,0.48829 0.3256,0.32555 0.4883,0.7053 0.4883,1.13934 l 0,5.04559 c 0,0.75954 -0.3797,1.27495 -1.1393,1.54621 l -3.8248,1.30208 0,13.34634 2.6855,-0.89516 c 0.1085,-0.0543 0.2984,-0.0814 0.5697,-0.0814 0.434,0 0.8409,0.16276 1.2206,0.48828 0.3256,0.32552 0.4883,0.70531 0.4883,1.13935 l 0,5.04554 c 0,0.7053 -0.3797,1.19359 -1.1393,1.46488 l -3.8248,1.46483 0,13.10222 m -3.0925,-33.85419 -6.9173,2.44142 0,13.34634 6.9173,-2.44142 0,-13.34634" id="path550"/>
 <path d="m 1350.0288,223.65344 0,-74.21227" id="polyline556" fill="none" stroke="#000000" stroke-linejoin="bevel" stroke-linecap="round" stroke-width="2.708"/>
 <path d="m 1342.3494,216.09161 c 2.7126,0 4.9099,0.67816 6.5918,2.03454 1.6818,1.41058 2.5227,3.25517 2.5227,5.53384 0,3.74349 -1.926,7.24284 -5.778,10.49805 -3.9062,3.25521 -8.0837,4.88283 -12.5325,4.88283 -2.7127,0 -4.91,-0.67816 -6.5918,-2.03454 -1.6819,-1.41058 -2.5228,-3.25517 -2.5228,-5.53384 0,-3.74349 1.9531,-7.24284 5.8594,-10.49805 3.852,-3.25521 8.0024,-4.88283 12.4512,-4.88283" id="path562"/>
 <path d="m 1348.679,144.80115 126.9001,-26.6096 0,10.41668 -126.9001,26.6096 0,-10.41668" id="path568" fill-rule="evenodd"/>
 <path d="m 1348.679,160.42617 126.9001,-26.6096 0,10.41667 -126.9001,26.6096 0,-10.41667" id="path570" fill-rule="evenodd"/>
 <path d="m 1334.4555,387.55939 c 1.5733,0 2.7398,0.434 3.4993,1.30209 0.7596,0.86804 1.2207,1.79033 1.3835,2.76692 0.1085,1.03083 0.3798,1.95312 0.8138,2.76692 0.3798,0.86808 0.9765,1.30208 1.7904,1.30208 0.5425,0 1.3563,-0.65104 2.4414,-1.95313 1.1393,-1.35633 1.926,-2.44137 2.36,-3.25521 0.2713,-0.54254 0.651,-0.81379 1.1393,-0.81379 0,0 0.027,0 0.081,0 0.4883,0.0542 0.8409,0.32554 1.0579,0.81379 l -14.8925,55.82688 c -0.5968,0.5425 -1.3564,0.81375 -2.2787,0.81375 -0.9223,0 -1.6819,-0.27125 -2.2787,-0.81375 l 8.3822,-27.2624 c -3.635,1.30209 -6.5918,1.95313 -8.8704,1.95313 -1.9531,0 -3.635,-0.62392 -5.0456,-1.87175 -1.4648,-1.24784 -2.1973,-2.82117 -2.1973,-4.72005 0,-1.68187 0.5697,-3.09246 1.709,-4.23179 1.1936,-1.19354 2.6313,-1.79035 4.3132,-1.79035 1.5733,0 2.7398,0.43401 3.4993,1.3021 0.8138,0.86804 1.3021,1.79033 1.4649,2.76692 0.1627,1.03083 0.434,1.95312 0.8138,2.76692 0.3797,0.86808 0.9765,1.30208 1.7904,1.30208 0.5967,0 1.519,-0.75954 2.7669,-2.27863 1.3021,-1.46487 2.0616,-2.57704 2.2786,-3.33658 l 3.8249,-12.61397 c -3.418,1.24783 -6.3206,1.87175 -8.7077,1.87175 -1.9531,0 -3.635,-0.62392 -5.0456,-1.87175 -1.4648,-1.24784 -2.1972,-2.82117 -2.1972,-4.72005 0,-1.68187 0.5968,-3.09246 1.7903,-4.23179 1.1936,-1.19354 2.6313,-1.79034 4.3132,-1.79034" id="path576"/>
 <path d="m 1414.6688,202.82044 0,-66.93226" id="polyline582" fill="none" stroke="#000000" stroke-linejoin="bevel" stroke-linecap="round" stroke-width="2.708"/>
 <path d="m 1406.9894,195.25861 c 2.7126,0 4.9099,0.67816 6.5918,2.03454 1.6818,1.41058 2.5227,3.25517 2.5227,5.53384 0,3.74349 -1.926,7.24284 -5.778,10.49805 -3.9062,3.25521 -8.0837,4.88283 -12.5325,4.88283 -2.7127,0 -4.91,-0.67816 -6.5918,-2.03454 -1.6819,-1.41058 -2.5228,-3.25517 -2.5228,-5.53384 0,-3.74349 1.9531,-7.24284 5.8594,-10.49805 3.852,-3.25521 8.0024,-4.88283 12.4512,-4.88283" id="path588"/>
 <path d="m 1379.1639,232.69355 c 0,1.03079 -0.5155,1.54621 -1.5463,1.54621 -1.0308,0 -1.5462,-0.51542 -1.5462,-1.54621 l 0,-12.0443 -6.9173,2.60417 0,13.18364 c 0,1.03079 -0.5155,1.5462 -1.5463,1.5462 -1.0308,0 -1.5462,-0.51541 -1.5462,-1.5462 l 0,-12.12568 -2.6042,0.97654 c -0.1085,0.0543 -0.3255,0.0814 -0.651,0.0814 -0.434,0 -0.8138,-0.16279 -1.1393,-0.48829 -0.3255,-0.32555 -0.4883,-0.7053 -0.4883,-1.13934 l 0,-5.04559 c 0,-0.75954 0.3526,-1.27495 1.0579,-1.5462 l 3.8249,-1.30209 0,-13.34634 -2.6042,0.89516 c -0.1085,0.0542 -0.3255,0.0814 -0.651,0.0814 -0.434,0 -0.8138,-0.16276 -1.1393,-0.48828 -0.3255,-0.32552 -0.4883,-0.70531 -0.4883,-1.13935 l 0,-5.04554 c 0,-0.7053 0.3526,-1.19359 1.0579,-1.46488 l 3.8249,-1.46483 0,-13.10222 c 0,-1.03079 0.5154,-1.54621 1.5462,-1.54621 1.0308,0 1.5463,0.51542 1.5463,1.54621 l 0,12.0443 6.9173,-2.60417 0,-13.18364 c 0,-1.03079 0.5154,-1.5462 1.5462,-1.5462 1.0308,0 1.5463,0.51541 1.5463,1.5462 l 0,12.12568 2.6855,-0.97654 c 0.1085,-0.0543 0.2984,-0.0814 0.5697,-0.0814 0.434,0 0.8409,0.16279 1.2206,0.48829 0.3256,0.32555 0.4883,0.7053 0.4883,1.13934 l 0,5.04559 c 0,0.75954 -0.3797,1.27495 -1.1393,1.54621 l -3.8248,1.30208 0,13.34634 2.6855,-0.89516 c 0.1085,-0.0543 0.2984,-0.0814 0.5697,-0.0814 0.434,0 0.8409,0.16276 1.2206,0.48828 0.3256,0.32552 0.4883,0.70531 0.4883,1.13935 l 0,5.04554 c 0,0.7053 -0.3797,1.19359 -1.1393,1.46488 l -3.8248,1.46483 0,13.10222 m -3.0925,-33.85419 -6.9173,2.44142 0,13.34634 6.9173,-2.44142 0,-13.34634" id="path596"/>
 <path d="m 1394.5382,387.55939 c 1.5733,0 2.7669,0.434 3.5807,1.30209 0.7596,0.86804 1.1936,1.79033 1.3021,2.76692 0.1628,1.03083 0.434,1.95312 0.8138,2.76692 0.434,0.86808 1.0579,1.30208 1.8718,1.30208 0.5968,0 1.4919,-0.67817 2.6855,-2.0345 1.1936,-1.35634 1.9803,-2.4143 2.36,-3.17384 0.2713,-0.54254 0.651,-0.81379 1.1393,-0.81379 0.054,0 0.081,0 0.081,0 0.5426,0.0542 0.9223,0.32554 1.1394,0.81379 l -10.254,34.99353 c -0.5968,0.54254 -1.3563,0.81379 -2.2786,0.81379 -0.9223,0 -1.6819,-0.27125 -2.2787,-0.81379 l 9.7657,-27.18102 c -3.418,1.24783 -6.3477,1.87175 -8.7891,1.87175 -1.9531,0 -3.635,-0.62392 -5.0456,-1.87175 -1.4648,-1.24784 -2.1972,-2.82117 -2.1972,-4.72005 0,-1.68187 0.5967,-3.09246 1.7903,-4.23179 1.1936,-1.19354 2.6313,-1.79034 4.3132,-1.79034" id="path604"/>
 <path d="m 1474.2188,181.98644 0,-58.58725" id="polyline610" fill="none" stroke="#000000" stroke-linejoin="bevel" stroke-linecap="round" stroke-width="2.708"/>
 <path d="m 1466.5494,174.42461 c 2.7126,0 4.9099,0.67816 6.5918,2.03454 1.6818,1.41058 2.5227,3.25517 2.5227,5.53384 0,3.74349 -1.926,7.24284 -5.778,10.49805 -3.9062,3.25521 -8.0837,4.88283 -12.5325,4.88283 -2.7127,0 -4.91,-0.67816 -6.5918,-2.03454 -1.6819,-1.41058 -2.5228,-3.25517 -2.5228,-5.53384 0,-3.74349 1.9531,-7.24284 5.8594,-10.49805 3.852,-3.25521 8.0024,-4.88283 12.4512,-4.88283" id="path616"/>
 <path d="m 1509.4555,144.23324 0,302.08357" id="polyline622" fill="none" stroke="#000000" stroke-linejoin="bevel" stroke-width="3.333"/>
 <path d="m 1511.1188,144.23324 363.7432,0" id="polyline626" fill="none" stroke="#000000" stroke-linejoin="bevel" stroke-width="1.667"/>
 <path d="m 1511.1188,165.06659 363.7432,0" id="polyline628" fill="none" stroke="#000000" stroke-linejoin="bevel" stroke-width="1.667"/>
 <path d="m 1511.1188,185.89994 363.7432,0" id="polyline630" fill="none" stroke="#000000" stroke-linejoin="bevel" stroke-width="1.667"/>
 <path d="m 1511.1188,206.73329 363.7432,0" id="polyline632" fill="none" stroke="#000000" stroke-linejoin="bevel" stroke-width="1.667"/>
 <path d="m 1511.1188,227.56664 363.7432,0" id="polyline634" fill="none" stroke="#000000" stroke-linejoin="bevel" stroke-width="1.667"/>
 <path d="m 1511.1188,362.98324 363.7432,0" id="polyline638" fill="none" stroke="#000000" stroke-linejoin="bevel" stroke-width="1.667"/>
 <path d="m 1511.1188,383.81659 363.7432,0" id="polyline640" fill="none" stroke="#000000" stroke-linejoin="bevel" stroke-width="1.667"/>
 <path d="m 1511.1188,404.64994 363.7432,0" id="polyline642" fill="none" stroke="#000000" stroke-linejoin="bevel" stroke-width="1.667"/>
 <path d="m 1511.1188,425.48329 363.7432,0" id="polyline644" fill="none" stroke="#000000" stroke-linejoin="bevel" stroke-width="1.667"/>
 <path d="m 1511.1188,446.31664 363.7432,0" id="polyline646" fill="none" stroke="#000000" stroke-linejoin="bevel" stroke-width="1.667"/>
 <path d="m 1555.0804,188.09628 c 1.3021,0 2.6313,2.03458 3.9876,6.10375 1.3564,4.06917 2.0345,7.89376 2.0345,11.47459 0,3.03817 -0.7595,6.10351 -2.2786,9.19593 -1.5734,3.20096 -3.4451,6.02217 -5.6153,8.46359 0,0 -2.2243,2.49562 -6.6731,7.48696 -2.1702,2.49567 -4.0148,5.26259 -5.5339,8.3008 -1.5191,3.09242 -2.2786,6.18489 -2.2786,9.27734 l -2.6042,0 0,-20.83335 2.6042,0 c 1.8446,-1.13933 4.0147,-2.60417 6.5104,-4.39455 1.3021,-0.97654 3.2552,-2.60416 5.8594,-4.88279 2.0616,-1.84463 3.6621,-3.852 4.8014,-6.02217 1.1393,-2.17013 1.709,-4.36738 1.709,-6.59176 0,-5.1 -1.492,-10.22667 -4.4759,-15.38084 0,-0.10875 0,-0.21709 0,-0.32542 0,-0.48833 0.1627,-0.89542 0.4883,-1.22083 0.434,-0.43417 0.9223,-0.65125 1.4648,-0.65125" id="path652"/>
 <path d="m 1537.4788,179.39603 0,69.00393" id="polyline658" fill="none" stroke="#000000" stroke-linejoin="bevel" stroke-linecap="round" stroke-width="2.708"/>
 <path d="m 1554.4294,164.00861 c 2.7126,0 4.9099,0.67816 6.5918,2.03454 1.6818,1.41058 2.5227,3.25517 2.5227,5.53384 0,3.74349 -1.926,7.24284 -5.778,10.49805 -3.9062,3.25521 -8.0837,4.88283 -12.5325,4.88283 -2.7127,0 -4.91,-0.67816 -6.5918,-2.03454 -1.6819,-1.41058 -2.5228,-3.25517 -2.5228,-5.53384 0,-3.74349 1.9531,-7.24284 5.8594,-10.49805 3.852,-3.25521 8.0024,-4.88283 12.4512,-4.88283" id="path664"/>
 <path d="m 1537.4788,439.81203 0,63.79559" id="polyline670" fill="none" stroke="#000000" stroke-linejoin="bevel" stroke-linecap="round" stroke-width="2.708"/>
 <path d="m 1554.4294,424.42461 c 2.7126,0 4.9099,0.67816 6.5918,2.03454 1.6818,1.41058 2.5227,3.25517 2.5227,5.53384 0,3.74349 -1.926,7.24284 -5.778,10.49805 -3.9062,3.25521 -8.0837,4.88283 -12.5325,4.88283 -2.7127,0 -4.91,-0.67816 -6.5918,-2.03454 -1.6819,-1.41058 -2.5228,-3.25517 -2.5228,-5.53384 0,-3.74349 1.9531,-7.24284 5.8594,-10.49805 3.852,-3.25521 8.0024,-4.88283 12.4512,-4.88283" id="path676"/>
 <path d="m 1536.125,498.40001 111.0168,-37.37002 0,10.41667 -111.0168,37.37003 0,-10.41668" id="path682" fill-rule="evenodd"/>
 <path d="m 1536.125,482.775 111.0168,-37.37003 0,10.41668 -111.0168,37.37003 0,-10.41668" id="path684" fill-rule="evenodd"/>
 <path d="m 1591.6288,398.14603 0,87.23311" id="polyline688" fill="none" stroke="#000000" stroke-linejoin="bevel" stroke-linecap="round" stroke-width="2.708"/>
 <path d="m 1608.5894,382.75861 c 2.7126,0 4.9099,0.67816 6.5918,2.03454 1.6818,1.41058 2.5227,3.25517 2.5227,5.53384 0,3.74349 -1.926,7.24284 -5.778,10.49805 -3.9062,3.25521 -8.0837,4.88283 -12.5325,4.88283 -2.7127,0 -4.91,-0.67816 -6.5918,-2.03454 -1.6819,-1.41058 -2.5228,-3.25517 -2.5228,-5.53384 0,-3.74349 1.9531,-7.24284 5.8594,-10.49805 3.852,-3.25521 8.0024,-4.88283 12.4512,-4.88283" id="path694"/>
 <path d="m 1654.8455,168.80939 c 1.5733,0 2.7398,0.434 3.4993,1.30209 0.7596,0.86804 1.2207,1.79033 1.3835,2.76692 0.1085,1.03083 0.3798,1.95312 0.8138,2.76692 0.3798,0.86808 0.9765,1.30208 1.7904,1.30208 0.5425,0 1.3563,-0.65104 2.4414,-1.95313 1.1393,-1.35633 1.926,-2.44137 2.36,-3.25521 0.2713,-0.54254 0.651,-0.81379 1.1393,-0.81379 0,0 0.027,0 0.081,0 0.4883,0.0542 0.8409,0.32554 1.0579,0.81379 l -14.8925,55.82688 c -0.5968,0.5425 -1.3564,0.81375 -2.2787,0.81375 -0.9223,0 -1.6819,-0.27125 -2.2787,-0.81375 l 8.3822,-27.2624 c -3.635,1.30209 -6.5918,1.95313 -8.8704,1.95313 -1.9531,0 -3.635,-0.62392 -5.0456,-1.87175 -1.4648,-1.24784 -2.1973,-2.82117 -2.1973,-4.72005 0,-1.68187 0.5697,-3.09246 1.709,-4.23179 1.1936,-1.19354 2.6313,-1.79035 4.3132,-1.79035 1.5733,0 2.7398,0.43401 3.4993,1.3021 0.8138,0.86804 1.3021,1.79033 1.4649,2.76692 0.1627,1.03083 0.434,1.95312 0.8138,2.76692 0.3797,0.86808 0.9765,1.30208 1.7904,1.30208 0.5967,0 1.519,-0.75954 2.7669,-2.27863 1.3021,-1.46487 2.0616,-2.57704 2.2786,-3.33658 l 3.8249,-12.61397 c -3.418,1.24783 -6.3206,1.87175 -8.7077,1.87175 -1.9531,0 -3.635,-0.62392 -5.0456,-1.87175 -1.4648,-1.24784 -2.1972,-2.82117 -2.1972,-4.72005 0,-1.68187 0.5968,-3.09246 1.7903,-4.23179 1.1936,-1.19354 2.6313,-1.79034 4.3132,-1.79034" id="path702"/>
 <path d="m 1645.7888,366.89603 0,100.25396" id="polyline708" fill="none" stroke="#000000" stroke-linejoin="bevel" stroke-linecap="round" stroke-width="2.708"/>
 <path d="m 1662.7394,351.50861 c 2.7126,0 4.9099,0.67816 6.5918,2.03454 1.6818,1.41058 2.5227,3.25517 2.5227,5.53384 0,3.74349 -1.926,7.24284 -5.778,10.49805 -3.9062,3.25521 -8.0837,4.88283 -12.5325,4.88283 -2.7127,0 -4.91,-0.67816 -6.5918,-2.03454 -1.6819,-1.41058 -2.5228,-3.25517 -2.5228,-5.53384 0,-3.74349 1.9531,-7.24284 5.8594,-10.49805 3.852,-3.25521 8.0024,-4.88283 12.4512,-4.88283" id="path714"/>
 <path d="m 1724.5788,223.65344 0,-136.712316" id="polyline720" fill="none" stroke="#000000" stroke-linejoin="bevel" stroke-linecap="round" stroke-width="2.708"/>
 <path d="m 1716.8994,216.09161 c 2.7126,0 4.9099,0.67816 6.5918,2.03454 1.6818,1.41058 2.5227,3.25517 2.5227,5.53384 0,3.74349 -1.926,7.24284 -5.778,10.49805 -3.9062,3.25521 -8.0837,4.88283 -12.5325,4.88283 -2.7127,0 -4.91,-0.67816 -6.5918,-2.03454 -1.6819,-1.41058 -2.5228,-3.25517 -2.5228,-5.53384 0,-3.74349 1.9531,-7.24284 5.8594,-10.49805 3.852,-3.25521 8.0024,-4.88283 12.4512,-4.88283" id="path726"/>
 <path d="m 1723.2252,81.733187 121.4959,0 0,10.41668 -121.4959,0 0,-10.41668" id="path732" fill-rule="evenodd"/>
 <path d="m 1723.2252,97.358197 121.4959,0 0,10.416683 -121.4959,0 0,-10.416683" id="path734" fill-rule="evenodd"/>
 <path d="m 1709.0055,387.55939 c 1.5733,0 2.7398,0.434 3.4993,1.30209 0.7596,0.86804 1.2207,1.79033 1.3835,2.76692 0.1085,1.03083 0.3798,1.95312 0.8138,2.76692 0.3798,0.86808 0.9765,1.30208 1.7904,1.30208 0.5425,0 1.3563,-0.65104 2.4414,-1.95313 1.1393,-1.35633 1.926,-2.44137 2.36,-3.25521 0.2713,-0.54254 0.651,-0.81379 1.1393,-0.81379 0,0 0.027,0 0.081,0 0.4883,0.0542 0.8409,0.32554 1.0579,0.81379 l -14.8925,55.82688 c -0.5968,0.5425 -1.3564,0.81375 -2.2787,0.81375 -0.9223,0 -1.6819,-0.27125 -2.2787,-0.81375 l 8.3822,-27.2624 c -3.635,1.30209 -6.5918,1.95313 -8.8704,1.95313 -1.9531,0 -3.635,-0.62392 -5.0456,-1.87175 -1.4648,-1.24784 -2.1973,-2.82117 -2.1973,-4.72005 0,-1.68187 0.5697,-3.09246 1.709,-4.23179 1.1936,-1.19354 2.6313,-1.79035 4.3132,-1.79035 1.5733,0 2.7398,0.43401 3.4993,1.3021 0.8138,0.86804 1.3021,1.79033 1.4649,2.76692 0.1627,1.03083 0.434,1.95312 0.8138,2.76692 0.3797,0.86808 0.9765,1.30208 1.7904,1.30208 0.5967,0 1.519,-0.75954 2.7669,-2.27863 1.3021,-1.46487 2.0616,-2.57704 2.2786,-3.33658 l 3.8249,-12.61397 c -3.418,1.24783 -6.3206,1.87175 -8.7077,1.87175 -1.9531,0 -3.635,-0.62392 -5.0456,-1.87175 -1.4648,-1.24784 -2.1972,-2.82117 -2.1972,-4.72005 0,-1.68187 0.5968,-3.09246 1.7903,-4.23179 1.1936,-1.19354 2.6313,-1.79034 4.3132,-1.79034" id="path740"/>
 <path d="m 1778.7288,150.73644 0,-63.795591" id="polyline746" fill="none" stroke="#000000" stroke-linejoin="bevel" stroke-linecap="round" stroke-width="2.708"/>
 <path d="m 1771.0494,143.17461 c 2.7126,0 4.9099,0.67816 6.5918,2.03454 1.6818,1.41058 2.5227,3.25517 2.5227,5.53384 0,3.74349 -1.926,7.24284 -5.778,10.49805 -3.9062,3.25521 -8.0837,4.88283 -12.5325,4.88283 -2.7127,0 -4.91,-0.67816 -6.5918,-2.03454 -1.6819,-1.41058 -2.5228,-3.25517 -2.5228,-5.53384 0,-3.74349 1.9531,-7.24284 5.8594,-10.49805 3.852,-3.25521 8.0024,-4.88283 12.4512,-4.88283" id="path752"/>
 <path d="m 1758.5982,387.55939 c 1.5733,0 2.7669,0.434 3.5807,1.30209 0.7596,0.86804 1.1936,1.79033 1.3021,2.76692 0.1628,1.03083 0.434,1.95312 0.8138,2.76692 0.434,0.86808 1.0579,1.30208 1.8718,1.30208 0.5968,0 1.4919,-0.67817 2.6855,-2.0345 1.1936,-1.35634 1.9803,-2.4143 2.36,-3.17384 0.2713,-0.54254 0.651,-0.81379 1.1393,-0.81379 0.054,0 0.081,0 0.081,0 0.5426,0.0542 0.9223,0.32554 1.1394,0.81379 l -10.254,34.99353 c -0.5968,0.54254 -1.3563,0.81379 -2.2786,0.81379 -0.9223,0 -1.6819,-0.27125 -2.2787,-0.81379 l 9.7657,-27.18102 c -3.418,1.24783 -6.3477,1.87175 -8.7891,1.87175 -1.9531,0 -3.635,-0.62392 -5.0456,-1.87175 -1.4648,-1.24784 -2.1972,-2.82117 -2.1972,-4.72005 0,-1.68187 0.5967,-3.09246 1.7903,-4.23179 1.1936,-1.19354 2.6313,-1.79034 4.3132,-1.79034" id="path760"/>
 <path d="m 1843.3688,161.15344 0,-74.212266" id="polyline766" fill="none" stroke="#000000" stroke-linejoin="bevel" stroke-linecap="round" stroke-width="2.708"/>
 <path d="m 1835.6894,153.59161 c 2.7126,0 4.9099,0.67816 6.5918,2.03454 1.6818,1.41058 2.5227,3.25517 2.5227,5.53384 0,3.74349 -1.926,7.24284 -5.778,10.49805 -3.9062,3.25521 -8.0837,4.88283 -12.5325,4.88283 -2.7127,0 -4.91,-0.67816 -6.5918,-2.03454 -1.6819,-1.41058 -2.5228,-3.25517 -2.5228,-5.53384 0,-3.74349 1.9531,-7.24284 5.8594,-10.49805 3.852,-3.25521 8.0024,-4.88283 12.4512,-4.88283" id="path772"/>
 <path d="m 1807.8639,191.02655 c 0,1.03079 -0.5155,1.54621 -1.5463,1.54621 -1.0308,0 -1.5462,-0.51542 -1.5462,-1.54621 l 0,-12.0443 -6.9173,2.60417 0,13.18364 c 0,1.03079 -0.5155,1.5462 -1.5463,1.5462 -1.0308,0 -1.5462,-0.51541 -1.5462,-1.5462 l 0,-12.12568 -2.6042,0.97654 c -0.1085,0.0543 -0.3255,0.0814 -0.651,0.0814 -0.434,0 -0.8138,-0.16279 -1.1393,-0.48829 -0.3255,-0.32555 -0.4883,-0.7053 -0.4883,-1.13934 l 0,-5.04559 c 0,-0.75954 0.3526,-1.27495 1.0579,-1.54621 l 3.8249,-1.30208 0,-13.34634 -2.6042,0.89516 c -0.1085,0.0543 -0.3255,0.0814 -0.651,0.0814 -0.434,0 -0.8138,-0.16276 -1.1393,-0.48828 -0.3255,-0.32552 -0.4883,-0.70531 -0.4883,-1.13935 l 0,-5.04554 c 0,-0.7053 0.3526,-1.19359 1.0579,-1.46488 l 3.8249,-1.46483 0,-13.10222 c 0,-1.03079 0.5154,-1.54621 1.5462,-1.54621 1.0308,0 1.5463,0.51542 1.5463,1.54621 l 0,12.0443 6.9173,-2.60417 0,-13.18364 c 0,-1.03079 0.5154,-1.54621 1.5462,-1.54621 1.0308,0 1.5463,0.51542 1.5463,1.54621 l 0,12.12568 2.6855,-0.97654 c 0.1085,-0.0543 0.2984,-0.0814 0.5697,-0.0814 0.434,0 0.8409,0.16279 1.2206,0.48829 0.3256,0.32555 0.4883,0.7053 0.4883,1.13934 l 0,5.04559 c 0,0.75954 -0.3797,1.27495 -1.1393,1.5462 l -3.8248,1.30209 0,13.34634 2.6855,-0.89516 c 0.1085,-0.0542 0.2984,-0.0814 0.5697,-0.0814 0.434,0 0.8409,0.16276 1.2206,0.48828 0.3256,0.32552 0.4883,0.70531 0.4883,1.13935 l 0,5.04554 c 0,0.7053 -0.3797,1.19359 -1.1393,1.46488 l -3.8248,1.46483 0,13.10222 m -3.0925,-33.85419 -6.9173,2.44142 0,13.34634 6.9173,-2.44142 0,-13.34634" id="path780"/>
 <path d="m 1873.1955,144.23324 0,302.08357" id="polyline786" fill="none" stroke="#000000" stroke-linejoin="bevel" stroke-width="3.333"/>
 <path d="m 1874.8688,144.23324 387.4283,0" id="polyline790" fill="none" stroke="#000000" stroke-linejoin="bevel" stroke-width="1.667"/>
 <path d="m 1874.8688,165.06659 387.4283,0" id="polyline792" fill="none" stroke="#000000" stroke-linejoin="bevel" stroke-width="1.667"/>
 <path d="m 1874.8688,185.89994 387.4283,0" id="polyline794" fill="none" stroke="#000000" stroke-linejoin="bevel" stroke-width="1.667"/>
 <path d="m 1874.8688,206.73329 387.4283,0" id="polyline796" fill="none" stroke="#000000" stroke-linejoin="bevel" stroke-width="1.667"/>
 <path d="m 1874.8688,227.56664 387.4283,0" id="polyline798" fill="none" stroke="#000000" stroke-linejoin="bevel" stroke-width="1.667"/>
 <path d="m 1874.8688,362.98324 387.4283,0" id="polyline802" fill="none" stroke="#000000" stroke-linejoin="bevel" stroke-width="1.667"/>
 <path d="m 1874.8688,383.81659 387.4283,0" id="polyline804" fill="none" stroke="#000000" stroke-linejoin="bevel" stroke-width="1.667"/>
 <path d="m 1874.8688,404.64994 387.4283,0" id="polyline806" fill="none" stroke="#000000" stroke-linejoin="bevel" stroke-width="1.667"/>
 <path d="m 1874.8688,425.48329 387.4283,0" id="polyline808" fill="none" stroke="#000000" stroke-linejoin="bevel" stroke-width="1.667"/>
 <path d="m 1874.8688,446.31664 387.4283,0" id="polyline810" fill="none" stroke="#000000" stroke-linejoin="bevel" stroke-width="1.667"/>
 <path d="m 1901.2188,158.56203 0,89.83728" id="polyline814" fill="none" stroke="#000000" stroke-linejoin="bevel" stroke-linecap="round" stroke-width="2.708"/>
 <path d="m 1918.1794,143.17461 c 2.7126,0 4.9099,0.67816 6.5918,2.03454 1.6818,1.41058 2.5227,3.25517 2.5227,5.53384 0,3.74349 -1.926,7.24284 -5.778,10.49805 -3.9062,3.25521 -8.0837,4.88283 -12.5325,4.88283 -2.7127,0 -4.91,-0.67816 -6.5918,-2.03454 -1.6819,-1.41058 -2.5228,-3.25517 -2.5228,-5.53384 0,-3.74349 1.9531,-7.24284 5.8594,-10.49805 3.852,-3.25521 8.0024,-4.88283 12.4512,-4.88283" id="path820"/>
 <path d="m 1899.867,243.19165 302.9127,0 0,10.41668 -302.9127,0 0,-10.41668" id="path826" fill-rule="evenodd"/>
 <path d="m 1899.867,227.56664 302.9127,0 0,10.41667 -302.9127,0 0,-10.41667" id="path828" fill-rule="evenodd"/>
 <path d="m 2081.725,396.83708 -29.6224,0 c -0.5425,0 -0.8138,-0.27125 -0.8138,-0.81379 l 0,-11.39325 c 0,-0.54253 0.2713,-0.8138 0.8138,-0.8138 l 29.6224,0 c 0.5426,0 0.8138,0.27127 0.8138,0.8138 l 0,11.39325 c 0,0.54254 -0.2712,0.81379 -0.8138,0.81379" id="path834"/>
 <path d="m 1965.8588,168.97903 0,79.42061" id="polyline840" fill="none" stroke="#000000" stroke-linejoin="bevel" stroke-linecap="round" stroke-width="2.708"/>
 <path d="m 1982.8094,153.59161 c 2.7126,0 4.9099,0.67816 6.5918,2.03454 1.6818,1.41058 2.5227,3.25517 2.5227,5.53384 0,3.74349 -1.926,7.24284 -5.778,10.49805 -3.9062,3.25521 -8.0837,4.88283 -12.5325,4.88283 -2.7127,0 -4.91,-0.67816 -6.5918,-2.03454 -1.6819,-1.41058 -2.5228,-3.25517 -2.5228,-5.53384 0,-3.74349 1.9531,-7.24284 5.8594,-10.49805 3.852,-3.25521 8.0024,-4.88283 12.4512,-4.88283" id="path846"/>
 <path d="m 1954.9839,191.02655 c 0,1.03079 -0.5155,1.54621 -1.5463,1.54621 -1.0308,0 -1.5462,-0.51542 -1.5462,-1.54621 l 0,-12.0443 -6.9173,2.60417 0,13.18364 c 0,1.03079 -0.5155,1.5462 -1.5463,1.5462 -1.0308,0 -1.5462,-0.51541 -1.5462,-1.5462 l 0,-12.12568 -2.6042,0.97654 c -0.1085,0.0543 -0.3255,0.0814 -0.651,0.0814 -0.434,0 -0.8138,-0.16279 -1.1393,-0.48829 -0.3255,-0.32555 -0.4883,-0.7053 -0.4883,-1.13934 l 0,-5.04559 c 0,-0.75954 0.3526,-1.27495 1.0579,-1.54621 l 3.8249,-1.30208 0,-13.34634 -2.6042,0.89516 c -0.1085,0.0543 -0.3255,0.0814 -0.651,0.0814 -0.434,0 -0.8138,-0.16276 -1.1393,-0.48828 -0.3255,-0.32552 -0.4883,-0.70531 -0.4883,-1.13935 l 0,-5.04554 c 0,-0.7053 0.3526,-1.19359 1.0579,-1.46488 l 3.8249,-1.46483 0,-13.10222 c 0,-1.03079 0.5154,-1.54621 1.5462,-1.54621 1.0308,0 1.5463,0.51542 1.5463,1.54621 l 0,12.0443 6.9173,-2.60417 0,-13.18364 c 0,-1.03079 0.5154,-1.54621 1.5462,-1.54621 1.0308,0 1.5463,0.51542 1.5463,1.54621 l 0,12.12568 2.6855,-0.97654 c 0.1085,-0.0543 0.2984,-0.0814 0.5697,-0.0814 0.434,0 0.8409,0.16279 1.2206,0.48829 0.3256,0.32555 0.4883,0.7053 0.4883,1.13934 l 0,5.04559 c 0,0.75954 -0.3797,1.27495 -1.1393,1.5462 l -3.8248,1.30209 0,13.34634 2.6855,-0.89516 c 0.1085,-0.0542 0.2984,-0.0814 0.5697,-0.0814 0.434,0 0.8409,0.16276 1.2206,0.48828 0.3256,0.32552 0.4883,0.70531 0.4883,1.13935 l 0,5.04554 c 0,0.7053 -0.3797,1.19359 -1.1393,1.46488 l -3.8248,1.46483 0,13.10222 m -3.0925,-33.85419 -6.9173,2.44142 0,13.34634 6.9173,-2.44142 0,-13.34634" id="path854"/>
 <path d="m 2024.7488,158.56203 0,89.83728" id="polyline860" fill="none" stroke="#000000" stroke-linejoin="bevel" stroke-linecap="round" stroke-width="2.708"/>
 <path d="m 2041.6994,143.17461 c 2.7126,0 4.9099,0.67816 6.5918,2.03454 1.6818,1.41058 2.5227,3.25517 2.5227,5.53384 0,3.74349 -1.926,7.24284 -5.778,10.49805 -3.9062,3.25521 -8.0837,4.88283 -12.5325,4.88283 -2.7127,0 -4.91,-0.67816 -6.5918,-2.03454 -1.6819,-1.41058 -2.5228,-3.25517 -2.5228,-5.53384 0,-3.74349 1.9531,-7.24284 5.8594,-10.49805 3.852,-3.25521 8.0024,-4.88283 12.4512,-4.88283" id="path866"/>
 <path d="m 2083.6388,189.81203 0,58.58726" id="polyline872" fill="none" stroke="#000000" stroke-linejoin="bevel" stroke-linecap="round" stroke-width="2.708"/>
 <path d="m 2100.5994,174.42461 c 2.7126,0 4.9099,0.67816 6.5918,2.03454 1.6818,1.41058 2.5227,3.25517 2.5227,5.53384 0,3.74349 -1.926,7.24284 -5.778,10.49805 -3.9062,3.25521 -8.0837,4.88283 -12.5325,4.88283 -2.7127,0 -4.91,-0.67816 -6.5918,-2.03454 -1.6819,-1.41058 -2.5228,-3.25517 -2.5228,-5.53384 0,-3.74349 1.9531,-7.24284 5.8594,-10.49805 3.852,-3.25521 8.0024,-4.88283 12.4512,-4.88283" id="path878"/>
 <path d="m 2142.5288,168.97903 0,79.42061" id="polyline884" fill="none" stroke="#000000" stroke-linejoin="bevel" stroke-linecap="round" stroke-width="2.708"/>
 <path d="m 2159.4894,153.59161 c 2.7126,0 4.9099,0.67816 6.5918,2.03454 1.6818,1.41058 2.5227,3.25517 2.5227,5.53384 0,3.74349 -1.926,7.24284 -5.778,10.49805 -3.9062,3.25521 -8.0837,4.88283 -12.5325,4.88283 -2.7127,0 -4.91,-0.67816 -6.5918,-2.03454 -1.6819,-1.41058 -2.5228,-3.25517 -2.5228,-5.53384 0,-3.74349 1.9531,-7.24284 5.8594,-10.49805 3.852,-3.25521 8.0024,-4.88283 12.4512,-4.88283" id="path890"/>
 <path d="m 2121.4278,133.81621 c 0.7595,-0.37979 1.4648,-0.56966 2.1158,-0.56966 0.6511,0 1.3564,0.18987 2.1159,0.56966 l -0.2441,15.2181 8.8705,-1.62758 0.3255,0 c 0.9765,0 1.4648,0.46116 1.4648,1.38346 l 0.5697,47.52607 c -0.7596,0.3798 -1.4649,0.56967 -2.1159,0.56967 -0.6511,0 -1.3564,-0.18987 -2.1159,-0.56967 l 0.2441,-15.21809 -8.789,1.62758 -0.3256,0 c -0.9765,0 -1.4648,-0.46116 -1.4648,-1.38346 l -0.651,-47.52608 m 11.3118,39.14391 0.2442,-17.2526 -7.6498,1.46484 -0.2441,17.2526 7.6497,-1.46484" id="path898"/>
 <path d="m 2201.4188,179.39603 0,69.00393" id="polyline904" fill="none" stroke="#000000" stroke-linejoin="bevel" stroke-linecap="round" stroke-width="2.708"/>
 <path d="m 2218.3794,164.00861 c 2.7126,0 4.9099,0.67816 6.5918,2.03454 1.6818,1.41058 2.5227,3.25517 2.5227,5.53384 0,3.74349 -1.926,7.24284 -5.778,10.49805 -3.9062,3.25521 -8.0837,4.88283 -12.5325,4.88283 -2.7127,0 -4.91,-0.67816 -6.5918,-2.03454 -1.6819,-1.41058 -2.5228,-3.25517 -2.5228,-5.53384 0,-3.74349 1.9531,-7.24284 5.8594,-10.49805 3.852,-3.25521 8.0024,-4.88283 12.4512,-4.88283" id="path910"/>
 <path d="m 2260.6255,144.23324 0,302.08357" id="polyline916" fill="none" stroke="#000000" stroke-linejoin="bevel" stroke-width="3.333"/>
 <path d="m 103.1995,144.23324 0,302.08357" id="polyline920" fill="none" stroke="#000000" stroke-linejoin="bevel" stroke-width="3.333"/>
 <path d="m 92.818228,251.70708 c 0,-24.33711 -16.76193,-47.99296 -16.76193,-71.30889 0,-11.74297 4.57146,-23.14556 18.66668,-33.35685 0.38096,-0.17019 0.38096,-0.17019 0.38096,-0.34037 0,-0.34038 -1.14283,-0.85095 -1.90475,-0.85095 -0.38096,0 -1.14288,0 -1.52379,0.34038 -18.28577,13.10448 -24.38098,28.2512 -24.38098,43.56829 0,24.67711 17.90476,48.50338 17.90476,72.15964 0,11.74293 -4.57142,22.80502 -18.66668,33.01628 l 0,0.34042 0,0.34041 c 14.09526,10.21126 18.66668,21.27335 18.66668,33.01628 0,23.65627 -17.90476,47.48254 -17.90476,72.15964 0,15.3171 6.09521,30.46378 24.38098,43.56837 0.38091,0.34042 1.14283,0.34042 1.52379,0.34042 0.76192,0 1.90475,-0.51084 1.90475,-0.85125 0,-0.17 0,-0.17 -0.38096,-0.34 -14.09522,-10.21126 -18.66668,-21.61419 -18.66668,-33.35711 0,-23.31586 16.76193,-46.97171 16.76193,-71.30881 0,-15.4871 -6.09525,-30.29336 -24.00002,-43.56795 17.90477,-13.2746 24.00002,-28.08086 24.00002,-43.56795" id="path924" fill-rule="evenodd"/>
 <path d="m 812.28256,522.2443 c 0,1.41059 0.37978,2.41425 1.13932,3.01104 0.81379,0.65105 1.51912,0.97659 2.11587,0.97659 0.92234,0 1.73613,-0.48829 2.44142,-1.46488 0.75954,-1.03079 1.13934,-2.17012 1.13934,-3.41796 0,-0.3255 0.24412,-0.48829 0.73241,-0.48829 0.48829,-0.0543 0.73242,0.10854 0.73242,0.48829 0,2.60417 -0.70529,4.99134 -2.11588,7.16147 -1.46483,2.17016 -3.06533,3.25521 -4.80142,3.25521 -1.24784,0 -2.4143,-0.5968 -3.49937,-1.79038 -1.03081,-1.13929 -1.54622,-2.71267 -1.54622,-4.72005 0,-3.90625 1.926,-7.62258 5.77801,-11.14909 3.852,-3.52646 8.89755,-5.28971 15.13672,-5.28971 4.1775,0 7.54126,1.27496 10.09117,3.82488 2.49563,2.54992 3.74347,5.26259 3.74347,8.138 0,1.73613 -0.4883,3.11959 -1.46484,4.15042 -0.92229,0.97655 -1.87175,1.46484 -2.84829,1.46484 -2.49567,0 -4.90996,-2.49567 -7.24284,-7.48697 -0.0543,-0.16279 0,-0.32554 0.16275,-0.48829 0.217,-0.21704 0.434,-0.32554 0.65104,-0.32554 0.217,0 0.37975,0.0814 0.48829,0.24417 0.3255,0.75954 0.86805,1.38346 1.62759,1.87175 0.75954,0.5425 1.49196,0.81379 2.19725,0.81379 0.65104,0 1.27496,-0.27129 1.87175,-0.81379 0.54254,-0.48829 0.81383,-1.22071 0.81383,-2.19729 0,-1.84463 -0.92233,-3.60784 -2.76696,-5.28972 -1.89887,-1.62758 -4.34025,-2.44142 -7.32421,-2.44142 l -0.56967,0 c -0.54254,0.97659 -1.22071,2.60417 -2.0345,4.88284 -0.81379,2.33288 -1.22071,3.71634 -1.22071,4.15038 0,1.24783 1.38346,3.47221 4.15038,6.67317 2.76696,3.20096 4.15042,5.53388 4.15042,6.99872 0,0.92233 -1.6005,3.41796 -4.80142,7.487 1.19354,0.1085 2.71267,0.56967 4.55725,1.38346 1.79038,0.81379 3.09246,1.57334 3.90626,2.27863 0.37979,0.32554 0.94946,0.24417 1.709,-0.24413 l 3.09246,-2.36004 c -0.32554,-1.62759 -0.48829,-2.95679 -0.48829,-3.98763 0,-2.82117 0.73241,-5.34396 2.19725,-7.56838 1.41062,-2.27863 3.33663,-3.41796 5.778,-3.41796 1.24775,0 2.2515,0.37979 3.01109,1.13933 0.70542,0.7053 1.05792,1.57334 1.05792,2.60417 0,2.44142 -2.19709,5.50671 -6.59176,9.19597 l -0.89521,0.73242 c 0.54254,1.03083 0.97659,1.84462 1.30209,2.44141 0.32554,0.65105 0.73241,1.24784 1.22071,1.79038 0.48829,0.48829 0.81379,0.86804 0.97658,1.13929 0.16275,0.27129 0.48842,0.37979 0.97633,0.32554 0.48834,0 0.84125,0 1.05834,0 0.21666,-0.0543 0.67792,-0.32554 1.38333,-0.81379 0.70542,-0.54254 1.24792,-0.97658 1.6275,-1.30208 0.38,-0.27129 1.085,-0.84096 2.11584,-1.709 -0.32542,-1.19359 -0.48833,-2.36001 -0.48833,-3.49934 0,-2.22442 0.78666,-4.42167 2.36,-6.5918 1.57333,-2.17016 3.4725,-3.79775 5.69667,-4.88283 -2.17,-2.98392 -4.80126,-5.53384 -7.89376,-7.64976 -3.03833,-2.11588 -6.185,-3.44509 -9.44009,-3.98763 -0.21704,0 -0.32554,-0.13562 -0.32554,-0.40687 -0.0543,-0.2713 -0.0271,-0.51542 0.0814,-0.73246 0.1085,-0.27125 0.2713,-0.40688 0.4883,-0.40688 7.54138,1.35634 14.02472,4.53017 19.44972,9.52147 5.47959,5.04559 8.21959,10.1183 8.21959,15.21814 0,2.98391 -0.9225,5.69663 -2.76709,8.13802 -1.84458,2.4414 -4.06875,3.66211 -6.67292,3.66211 -1.73625,0 -3.33667,-0.65104 -4.80167,-1.95313 -1.51917,-1.30208 -2.65833,-2.92971 -3.41792,-4.88279 -3.41792,3.09243 -5.6425,4.9913 -6.67334,5.69659 -1.08487,0.7053 -2.06141,1.05795 -2.9295,1.05795 -1.08504,0 -2.00738,-0.51541 -2.76692,-1.54623 -0.81379,-0.97656 -1.60046,-2.82119 -2.36,-5.53385 -0.59679,0.43404 -1.8175,1.41058 -3.66213,2.92971 -1.84462,1.57333 -3.20096,2.6584 -4.069,3.25519 -0.92233,0.54253 -1.6005,0.8138 -2.0345,0.8138 -0.65104,0 -1.43775,-1.30208 -2.36005,-3.90625 -0.92229,-2.65841 -1.87175,-4.12329 -2.84829,-4.39454 -3.418,4.2318 -6.0493,6.83594 -7.89388,7.81251 -0.75958,0.43403 -1.46488,0.65104 -2.11592,0.65104 -0.75954,0 -1.16646,-0.32552 -1.22071,-0.97656 0,-1.30209 1.35634,-3.09245 4.06905,-5.37111 2.71267,-2.22438 4.82854,-3.44509 6.34763,-3.66209 1.68187,-2.00737 2.52279,-3.36375 2.52279,-4.06904 0,-1.41059 -1.22071,-3.58071 -3.66209,-6.51042 -2.44141,-2.92967 -3.66212,-4.93705 -3.66212,-6.02213 0,-0.9223 0.67816,-3.17384 2.0345,-6.75455 1.35633,-3.5265 2.33292,-5.77801 2.92971,-6.75459 -4.39455,0.37979 -8.00242,1.8175 -10.82359,4.31317 -2.82117,2.54992 -4.23178,5.07271 -4.23178,7.56838 m 35.97009,7.08009 c -0.86808,0 -1.68187,0.37975 -2.44142,1.13929 -0.75954,0.70529 -1.13933,1.84463 -1.13933,3.41796 0,1.62763 0.40692,3.30951 1.22071,5.04559 3.41796,-2.92967 5.15425,-5.23546 5.20842,-6.9173 0,-0.75958 -0.29833,-1.38346 -0.89525,-1.87175 -0.54254,-0.54254 -1.19358,-0.81379 -1.95313,-0.81379 m 17.33381,-0.89521 c -1.46459,0.81379 -2.57667,2.19729 -3.33625,4.15038 -0.81417,1.95317 -1.22084,3.96054 -1.22084,6.02217 0,2.27863 0.43417,4.34025 1.30209,6.18488 0.86791,1.84463 2.06166,2.76694 3.58083,2.76694 1.30209,0 2.25125,-0.65104 2.84834,-1.95315 0.65083,-1.24779 0.97625,-2.84829 0.97625,-4.80142 -0.0542,-4.12325 -1.4375,-8.24655 -4.15042,-12.3698" id="path930"/>
 <path d="m 885.78522,529.64924 229.06228,0" id="polyline936" fill="none" stroke="#000000" stroke-linejoin="bevel" stroke-linecap="square" stroke-width="3.125"/>
 <path d="m 1114.8475,529.64924 0,-25.00002" id="polyline938" fill="none" stroke="#000000" stroke-linejoin="bevel" stroke-linecap="square" stroke-width="3.125"/>
 <path d="m 1143.9395,522.2443 c 0,1.41059 0.3798,2.41425 1.1393,3.01104 0.8138,0.65105 1.5192,0.97659 2.1159,0.97659 0.9224,0 1.7361,-0.48829 2.4414,-1.46488 0.7596,-1.03079 1.1394,-2.17012 1.1394,-3.41796 0,-0.3255 0.2441,-0.48829 0.7324,-0.48829 0.4883,-0.0543 0.7324,0.10854 0.7324,0.48829 0,2.60417 -0.7053,4.99134 -2.1159,7.16147 -1.4648,2.17016 -3.0653,3.25521 -4.8014,3.25521 -1.2478,0 -2.4143,-0.5968 -3.4994,-1.79038 -1.0308,-1.13929 -1.5462,-2.71267 -1.5462,-4.72005 0,-3.90625 1.926,-7.62258 5.778,-11.14909 3.852,-3.52646 8.8976,-5.28971 15.1368,-5.28971 4.1775,0 7.5412,1.27496 10.0911,3.82488 2.4957,2.54992 3.7435,5.26259 3.7435,8.138 0,1.73613 -0.4883,3.11959 -1.4648,4.15042 -0.9223,0.97655 -1.8718,1.46484 -2.8483,1.46484 -2.4957,0 -4.91,-2.49567 -7.2429,-7.48697 -0.054,-0.16279 0,-0.32554 0.1628,-0.48829 0.217,-0.21704 0.434,-0.32554 0.651,-0.32554 0.217,0 0.3798,0.0814 0.4883,0.24417 0.3255,0.75954 0.868,1.38346 1.6276,1.87175 0.7595,0.5425 1.4919,0.81379 2.1972,0.81379 0.6511,0 1.275,-0.27129 1.8718,-0.81379 0.5425,-0.48829 0.8138,-1.22071 0.8138,-2.19729 0,-1.84463 -0.9223,-3.60784 -2.7669,-5.28972 -1.8989,-1.62758 -4.3403,-2.44142 -7.3242,-2.44142 l -0.5697,0 c -0.5426,0.97659 -1.2207,2.60417 -2.0345,4.88284 -0.8138,2.33288 -1.2207,3.71634 -1.2207,4.15038 0,1.24783 1.3834,3.47221 4.1504,6.67317 2.7669,3.20096 4.1504,5.53388 4.1504,6.99872 0,0.92233 -1.6005,3.41796 -4.8015,7.487 1.1936,0.1085 2.7127,0.56967 4.5573,1.38346 1.7904,0.81379 3.0925,1.57334 3.9063,2.27863 0.3797,0.32554 0.9494,0.24417 1.709,-0.24413 l 3.0924,-2.36004 c -0.3255,-1.62759 -0.4883,-2.95679 -0.4883,-3.98763 0,-2.82117 0.7324,-5.34396 2.1973,-7.56838 1.4106,-2.27863 3.3366,-3.41796 5.778,-3.41796 1.2477,0 2.2515,0.37979 3.0111,1.13933 0.7054,0.7053 1.0579,1.57334 1.0579,2.60417 0,2.44142 -2.1971,5.50671 -6.5918,9.19597 l -0.8952,0.73242 c 0.5426,1.03083 0.9766,1.84462 1.3021,2.44141 0.3255,0.65105 0.7324,1.24784 1.2207,1.79038 0.4883,0.48829 0.8138,0.86804 0.9766,1.13929 0.1627,0.27129 0.4884,0.37979 0.9763,0.32554 0.4884,0 0.8413,0 1.0584,0 0.2166,-0.0543 0.6779,-0.32554 1.3833,-0.81379 0.7054,-0.54254 1.2479,-0.97658 1.6275,-1.30208 0.38,-0.27129 1.085,-0.84096 2.1158,-1.709 -0.3254,-1.19359 -0.4883,-2.36001 -0.4883,-3.49934 0,-2.22442 0.7867,-4.42167 2.36,-6.5918 1.5733,-2.17016 3.4725,-3.79775 5.6967,-4.88283 -2.17,-2.98392 -4.8013,-5.53384 -7.8938,-7.64976 -3.0383,-2.11588 -6.185,-3.44509 -9.4401,-3.98763 -0.217,0 -0.3255,-0.13562 -0.3255,-0.40687 -0.054,-0.2713 -0.027,-0.51542 0.081,-0.73246 0.1085,-0.27125 0.2713,-0.40688 0.4883,-0.40688 7.5413,1.35634 14.0247,4.53017 19.4497,9.52147 5.4796,5.04559 8.2196,10.1183 8.2196,15.21814 0,2.98391 -0.9225,5.69663 -2.7671,8.13802 -1.8446,2.4414 -4.0688,3.66211 -6.6729,3.66211 -1.7363,0 -3.3367,-0.65104 -4.8017,-1.95313 -1.5192,-1.30208 -2.6583,-2.92971 -3.4179,-4.88279 -3.4179,3.09243 -5.6425,4.9913 -6.6734,5.69659 -1.0848,0.7053 -2.0614,1.05795 -2.9295,1.05795 -1.085,0 -2.0073,-0.51541 -2.7669,-1.54623 -0.8138,-0.97656 -1.6004,-2.82119 -2.36,-5.53385 -0.5968,0.43404 -1.8175,1.41058 -3.6621,2.92971 -1.8446,1.57333 -3.201,2.6584 -4.069,3.25519 -0.9224,0.54253 -1.6005,0.8138 -2.0345,0.8138 -0.6511,0 -1.4378,-1.30208 -2.3601,-3.90625 -0.9223,-2.65841 -1.8717,-4.12329 -2.8483,-4.39454 -3.418,4.2318 -6.0493,6.83594 -7.8938,7.81251 -0.7596,0.43403 -1.4649,0.65104 -2.116,0.65104 -0.7595,0 -1.1664,-0.32552 -1.2207,-0.97656 0,-1.30209 1.3564,-3.09245 4.0691,-5.37111 2.7126,-2.22438 4.8285,-3.44509 6.3476,-3.66209 1.6819,-2.00737 2.5228,-3.36375 2.5228,-4.06904 0,-1.41059 -1.2207,-3.58071 -3.6621,-6.51042 -2.4414,-2.92967 -3.6621,-4.93705 -3.6621,-6.02213 0,-0.9223 0.6782,-3.17384 2.0345,-6.75455 1.3563,-3.5265 2.3329,-5.77801 2.9297,-6.75459 -4.3945,0.37979 -8.0024,1.8175 -10.8236,4.31317 -2.8212,2.54992 -4.2318,5.07271 -4.2318,7.56838 m 35.9701,7.08009 c -0.8681,0 -1.6819,0.37975 -2.4414,1.13929 -0.7595,0.70529 -1.1393,1.84463 -1.1393,3.41796 0,1.62763 0.4069,3.30951 1.2207,5.04559 3.4179,-2.92967 5.1542,-5.23546 5.2084,-6.9173 0,-0.75958 -0.2983,-1.38346 -0.8953,-1.87175 -0.5425,-0.54254 -1.1935,-0.81379 -1.9531,-0.81379 m 17.3338,-0.89521 c -1.4646,0.81379 -2.5766,2.19729 -3.3362,4.15038 -0.8142,1.95317 -1.2209,3.96054 -1.2209,6.02217 0,2.27863 0.4342,4.34025 1.3021,6.18488 0.8679,1.84463 2.0617,2.76694 3.5809,2.76694 1.302,0 2.2512,-0.65104 2.8483,-1.95315 0.6508,-1.24779 0.9762,-2.84829 0.9762,-4.80142 -0.054,-4.12325 -1.4375,-8.24655 -4.1504,-12.3698" id="path944"/>
 <path d="m 1217.4472,529.64924 293.154,0" id="polyline950" fill="none" stroke="#000000" stroke-linejoin="bevel" stroke-linecap="square" stroke-width="3.125"/>
 <path d="m 1510.6012,529.64924 0,-25.00002" id="polyline952" fill="none" stroke="#000000" stroke-linejoin="bevel" stroke-linecap="square" stroke-width="3.125"/>
 <path d="m 1539.7695,522.2443 c 0,1.41059 0.3798,2.41425 1.1393,3.01104 0.8138,0.65105 1.5192,0.97659 2.1159,0.97659 0.9224,0 1.7361,-0.48829 2.4414,-1.46488 0.7596,-1.03079 1.1394,-2.17012 1.1394,-3.41796 0,-0.3255 0.2441,-0.48829 0.7324,-0.48829 0.4883,-0.0543 0.7324,0.10854 0.7324,0.48829 0,2.60417 -0.7053,4.99134 -2.1159,7.16147 -1.4648,2.17016 -3.0653,3.25521 -4.8014,3.25521 -1.2478,0 -2.4143,-0.5968 -3.4994,-1.79038 -1.0308,-1.13929 -1.5462,-2.71267 -1.5462,-4.72005 0,-3.90625 1.926,-7.62258 5.778,-11.14909 3.852,-3.52646 8.8976,-5.28971 15.1368,-5.28971 4.1775,0 7.5412,1.27496 10.0911,3.82488 2.4957,2.54992 3.7435,5.26259 3.7435,8.138 0,1.73613 -0.4883,3.11959 -1.4648,4.15042 -0.9223,0.97655 -1.8718,1.46484 -2.8483,1.46484 -2.4957,0 -4.91,-2.49567 -7.2429,-7.48697 -0.054,-0.16279 0,-0.32554 0.1628,-0.48829 0.217,-0.21704 0.434,-0.32554 0.651,-0.32554 0.217,0 0.3798,0.0814 0.4883,0.24417 0.3255,0.75954 0.868,1.38346 1.6276,1.87175 0.7595,0.5425 1.4919,0.81379 2.1972,0.81379 0.6511,0 1.275,-0.27129 1.8718,-0.81379 0.5425,-0.48829 0.8138,-1.22071 0.8138,-2.19729 0,-1.84463 -0.9223,-3.60784 -2.7669,-5.28972 -1.8989,-1.62758 -4.3403,-2.44142 -7.3242,-2.44142 l -0.5697,0 c -0.5426,0.97659 -1.2207,2.60417 -2.0345,4.88284 -0.8138,2.33288 -1.2207,3.71634 -1.2207,4.15038 0,1.24783 1.3834,3.47221 4.1504,6.67317 2.7669,3.20096 4.1504,5.53388 4.1504,6.99872 0,0.92233 -1.6005,3.41796 -4.8015,7.487 1.1936,0.1085 2.7127,0.56967 4.5573,1.38346 1.7904,0.81379 3.0925,1.57334 3.9063,2.27863 0.3797,0.32554 0.9494,0.24417 1.709,-0.24413 l 3.0924,-2.36004 c -0.3255,-1.62759 -0.4883,-2.95679 -0.4883,-3.98763 0,-2.82117 0.7324,-5.34396 2.1973,-7.56838 1.4106,-2.27863 3.3366,-3.41796 5.778,-3.41796 1.2477,0 2.2515,0.37979 3.0111,1.13933 0.7054,0.7053 1.0579,1.57334 1.0579,2.60417 0,2.44142 -2.1971,5.50671 -6.5918,9.19597 l -0.8952,0.73242 c 0.5426,1.03083 0.9766,1.84462 1.3021,2.44141 0.3255,0.65105 0.7324,1.24784 1.2207,1.79038 0.4883,0.48829 0.8138,0.86804 0.9766,1.13929 0.1627,0.27129 0.4884,0.37979 0.9763,0.32554 0.4884,0 0.8413,0 1.0584,0 0.2166,-0.0543 0.6779,-0.32554 1.3833,-0.81379 0.7054,-0.54254 1.2479,-0.97658 1.6275,-1.30208 0.38,-0.27129 1.085,-0.84096 2.1158,-1.709 -0.3254,-1.19359 -0.4883,-2.36001 -0.4883,-3.49934 0,-2.22442 0.7867,-4.42167 2.36,-6.5918 1.5733,-2.17016 3.4725,-3.79775 5.6967,-4.88283 -2.17,-2.98392 -4.8013,-5.53384 -7.8938,-7.64976 -3.0383,-2.11588 -6.185,-3.44509 -9.4401,-3.98763 -0.217,0 -0.3255,-0.13562 -0.3255,-0.40687 -0.054,-0.2713 -0.027,-0.51542 0.081,-0.73246 0.1085,-0.27125 0.2713,-0.40688 0.4883,-0.40688 7.5413,1.35634 14.0247,4.53017 19.4497,9.52147 5.4796,5.04559 8.2196,10.1183 8.2196,15.21814 0,2.98391 -0.9225,5.69663 -2.7671,8.13802 -1.8446,2.4414 -4.0688,3.66211 -6.6729,3.66211 -1.7363,0 -3.3367,-0.65104 -4.8017,-1.95313 -1.5192,-1.30208 -2.6583,-2.92971 -3.4179,-4.88279 -3.4179,3.09243 -5.6425,4.9913 -6.6734,5.69659 -1.0848,0.7053 -2.0614,1.05795 -2.9295,1.05795 -1.085,0 -2.0073,-0.51541 -2.7669,-1.54623 -0.8138,-0.97656 -1.6004,-2.82119 -2.36,-5.53385 -0.5968,0.43404 -1.8175,1.41058 -3.6621,2.92971 -1.8446,1.57333 -3.201,2.6584 -4.069,3.25519 -0.9224,0.54253 -1.6005,0.8138 -2.0345,0.8138 -0.6511,0 -1.4378,-1.30208 -2.3601,-3.90625 -0.9223,-2.65841 -1.8717,-4.12329 -2.8483,-4.39454 -3.418,4.2318 -6.0493,6.83594 -7.8938,7.81251 -0.7596,0.43403 -1.4649,0.65104 -2.116,0.65104 -0.7595,0 -1.1664,-0.32552 -1.2207,-0.97656 0,-1.30209 1.3564,-3.09245 4.0691,-5.37111 2.7126,-2.22438 4.8285,-3.44509 6.3476,-3.66209 1.6819,-2.00737 2.5228,-3.36375 2.5228,-4.06904 0,-1.41059 -1.2207,-3.58071 -3.6621,-6.51042 -2.4414,-2.92967 -3.6621,-4.93705 -3.6621,-6.02213 0,-0.9223 0.6782,-3.17384 2.0345,-6.75455 1.3563,-3.5265 2.3329,-5.77801 2.9297,-6.75459 -4.3945,0.37979 -8.0024,1.8175 -10.8236,4.31317 -2.8212,2.54992 -4.2318,5.07271 -4.2318,7.56838 m 35.9701,7.08009 c -0.8681,0 -1.6819,0.37975 -2.4414,1.13929 -0.7595,0.70529 -1.1393,1.84463 -1.1393,3.41796 0,1.62763 0.4069,3.30951 1.2207,5.04559 3.4179,-2.92967 5.1542,-5.23546 5.2084,-6.9173 0,-0.75958 -0.2983,-1.38346 -0.8953,-1.87175 -0.5425,-0.54254 -1.1935,-0.81379 -1.9531,-0.81379 m 17.3338,-0.89521 c -1.4646,0.81379 -2.5766,2.19729 -3.3362,4.15038 -0.8142,1.95317 -1.2209,3.96054 -1.2209,6.02217 0,2.27863 0.4342,4.34025 1.3021,6.18488 0.8679,1.84463 2.0617,2.76694 3.5809,2.76694 1.302,0 2.2512,-0.65104 2.8483,-1.95315 0.6508,-1.24779 0.9762,-2.84829 0.9762,-4.80142 -0.054,-4.12325 -1.4375,-8.24655 -4.1504,-12.3698" id="path958"/>
 <path d="m 1613.2672,529.64924 261.1156,0" id="polyline964" fill="none" stroke="#000000" stroke-linejoin="bevel" stroke-linecap="square" stroke-width="3.125"/>
 <path d="m 1874.3828,529.64924 0,-25.00002" id="polyline966" fill="none" stroke="#000000" stroke-linejoin="bevel" stroke-linecap="square" stroke-width="3.125"/>
</svg>
