<?xml version="1.0" encoding="utf-8"?>
<!-- Generator: Adobe Illustrator 19.2.1, SVG Export Plug-In . SVG Version: 6.00 Build 0)  -->
<!DOCTYPE svg PUBLIC "-//W3C//DTD SVG 1.1//EN" "http://www.w3.org/Graphics/SVG/1.1/DTD/svg11.dtd">
<svg version="1.1" id="Layer_1" xmlns="http://www.w3.org/2000/svg" xmlns:xlink="http://www.w3.org/1999/xlink" x="0px" y="0px"
	 viewBox="0 0 280.4 185.1" style="enable-background:new 0 0 280.4 185.1;" xml:space="preserve">
<style type="text/css">
	.st0{fill:none;stroke:#FFFFFF;stroke-width:1.667;stroke-linejoin:bevel;}
	.st1{stroke:#FFFFFF;stroke-miterlimit:10;}
	.st2{fill:none;stroke:#FFFFFF;stroke-width:2.708;stroke-linecap:round;stroke-linejoin:bevel;}
	.st3{fill:none;stroke:#FFFFFF;stroke-width:3.333;stroke-linejoin:bevel;}
	.st4{fill:none;stroke:#000000;stroke-width:2.708;stroke-linecap:round;stroke-linejoin:bevel;}
	.st5{fill:none;stroke:#000000;stroke-width:3.333;stroke-linecap:square;stroke-linejoin:bevel;}
	.st6{fill:none;stroke:#000000;stroke-width:3.333;stroke-linejoin:bevel;}
	.st7{fill:none;stroke:#000000;stroke-width:1.667;stroke-linejoin:bevel;}
	.st8{fill:none;stroke:#000000;stroke-width:3.125;stroke-linecap:square;stroke-linejoin:bevel;}
</style>
<path id="polyline14" class="st0" d="M30.5,43.3h88.4"/>
<path id="polyline16" class="st0" d="M30.5,49.5h88.4"/>
<path id="polyline18" class="st0" d="M30.5,55.8h88.4"/>
<path id="polyline20" class="st0" d="M30.5,62h88.4"/>
<path id="polyline22" class="st0" d="M30.5,68.3h88.4"/>
<path id="polyline26" class="st0" d="M30.5,108.9h88.4"/>
<path id="polyline28" class="st0" d="M30.5,115.1h88.4"/>
<path id="polyline30" class="st0" d="M30.5,121.4h88.4"/>
<path id="polyline32" class="st0" d="M30.5,127.6h88.4"/>
<path id="polyline34" class="st0" d="M30.5,133.9h88.4"/>
<path id="path40" class="st1" d="M44.7,55.6c0,0,0.1,0,0.2,0c0.1,0,0.1,0,0.2,0c1.8,0,3.3,0.6,4.5,1.9c1.2,1.3,1.8,2.8,1.8,4.5
	c0,2.1-0.9,3.8-2.6,5.1c-0.5,0.4-1.1,0.7-1.8,0.9c0.1,0.9,0.1,1.8,0.1,2.6c0,0.3,0,0.8,0,1.4c-0.1,1.5-0.6,2.8-1.5,3.9
	c-1,1.1-2.1,1.6-3.5,1.6c-1.3,0-2.4-0.5-3.4-1.4c-0.9-0.9-1.4-2.1-1.4-3.4c0-0.7,0.3-1.3,0.8-1.8c0.5-0.5,1.2-0.7,1.9-0.7
	c0.7,0,1.2,0.2,1.6,0.7c0.4,0.5,0.7,1.1,0.7,1.8c0,0.6-0.2,1.2-0.7,1.6c-0.5,0.5-1,0.7-1.6,0.7c-0.3,0-0.5,0-0.8-0.1
	c0.7,1.1,1.7,1.6,2.9,1.6c1.1,0,2-0.5,2.8-1.4c0.7-0.9,1.1-2,1.2-3.3c0-0.6,0-1,0-1.3c0-0.8,0-1.6-0.1-2.2c-0.7,0.1-1.5,0.2-2.2,0.2
	c-2.3,0-4.2-0.9-5.8-2.7c-1.6-1.8-2.4-3.9-2.4-6.4c0-0.5,0.1-1,0.2-1.6c0.1-0.5,0.2-1,0.4-1.4c0.1-0.4,0.4-0.9,0.7-1.4
	c0.3-0.5,0.6-1,0.8-1.3c0.2-0.3,0.5-0.8,1-1.3c0.5-0.6,0.8-1,1-1.2c0.2-0.2,0.6-0.7,1.1-1.3c0.5-0.6,0.9-1,1.1-1.2
	c-0.6-1.9-1-3.5-1.1-4.6c-0.1-1-0.2-2.3-0.2-3.8c0-1.4,0.3-2.7,1-4c0.6-1.3,1.5-2.3,2.7-3.1c0.1,0,0.2-0.1,0.2-0.1
	c0.1,0,0.2,0,0.2,0.1c0.9,1,1.6,2.4,2.3,4.1c0.6,1.7,1,3.2,1,4.6c0,1.6-0.4,3-1.1,4.4c-0.8,1.4-1.8,2.8-3.3,4.5
	C43.7,51.9,44.2,53.5,44.7,55.6 M46.8,67c0.8-0.3,1.5-0.8,2-1.6c0.5-0.8,0.8-1.6,0.8-2.4c0-1.1-0.4-2.2-1.2-3.1
	c-0.8-0.9-1.8-1.4-3.1-1.6C46,61.8,46.5,64.6,46.8,67 M37.3,61.3c0,1.6,0.7,3,2,4.2c1.3,1.2,2.8,1.8,4.5,1.8c0.7,0,1.4,0,2-0.1
	c-0.3-2.5-0.8-5.5-1.5-8.9c-0.9,0.1-1.7,0.4-2.2,1c-0.5,0.6-0.8,1.2-0.8,1.9c0,1.3,0.7,2.3,2,3c0.1,0.1,0.2,0.2,0.2,0.4
	c0,0.1-0.1,0.3-0.2,0.4c-0.1,0.1-0.2,0.2-0.4,0.2c0,0-0.1,0-0.2,0c-0.9-0.5-1.7-1.2-2.1-2c-0.5-0.8-0.7-1.7-0.7-2.6
	c0-1.1,0.3-2.1,1-3c0.7-0.9,1.7-1.5,2.9-1.8c-0.4-1.7-0.8-3.1-1.1-4.3c-0.7,0.8-1.2,1.4-1.6,1.8c-0.4,0.4-0.8,1-1.4,1.8
	c-0.5,0.7-0.9,1.4-1.2,2c-0.3,0.6-0.5,1.3-0.7,2C37.4,59.8,37.3,60.6,37.3,61.3 M45.5,36.5c-1.2,0.6-2.2,1.4-2.9,2.6
	c-0.7,1.1-1.1,2.4-1.1,3.7c0,1.2,0.3,2.8,0.9,4.7c1.1-1.4,2-2.7,2.6-3.9c0.6-1.2,0.9-2.6,0.9-4C45.9,38.6,45.8,37.5,45.5,36.5"/>
<path id="path48" class="st1" d="M49.4,112c0-0.4,0.1-0.7,0.4-0.9c0.2-0.2,0.5-0.4,0.9-0.4c0.4,0,0.7,0.1,0.9,0.4
	c0.2,0.2,0.4,0.5,0.4,0.9c0,0.4-0.1,0.7-0.4,0.9s-0.5,0.4-0.9,0.4c-0.4,0-0.7-0.1-0.9-0.4C49.5,112.6,49.4,112.3,49.4,112
	 M49.4,118.2c0-0.4,0.1-0.7,0.4-0.9c0.2-0.2,0.5-0.4,0.9-0.4c0.4,0,0.7,0.1,0.9,0.4c0.2,0.2,0.4,0.5,0.4,0.9c0,0.4-0.1,0.7-0.4,0.9
	c-0.2,0.2-0.5,0.4-0.9,0.4c-0.4,0-0.7-0.1-0.9-0.4C49.5,118.9,49.4,118.6,49.4,118.2 M41.3,108.5c2.2,0,4,0.5,5.3,1.6
	c1.3,1.1,2,2.7,2,4.6c0,1.3-0.3,2.5-0.8,3.6c-0.5,1.2-1.1,2.2-1.9,3c-0.8,0.9-1.8,1.7-3,2.5c-1.2,0.8-2.3,1.5-3.5,2.1
	c-2.4,1.2-3.8,1.8-4,1.8c-0.2,0-0.3-0.1-0.3-0.3c0-0.1,0-0.2,0.1-0.2c1.2-0.7,2.2-1.3,3.1-1.9c0.8-0.6,1.8-1.3,2.7-2.1
	c1-0.8,1.7-1.6,2.3-2.4c0.6-0.8,1.1-1.7,1.6-2.7c0.4-1,0.6-2.1,0.6-3.2c0-1.6-0.4-3-1.2-4.1c-0.8-1.2-1.8-1.8-3.1-1.8
	c-0.9,0-1.7,0.3-2.3,0.9c-0.7,0.6-1.2,1.3-1.5,2.3c0.3-0.1,0.6-0.2,0.9-0.2c0.7,0,1.3,0.2,1.8,0.7c0.5,0.5,0.7,1.1,0.7,1.8
	c0,0.7-0.2,1.4-0.7,1.9c-0.5,0.5-1.1,0.8-1.8,0.8c-0.7,0-1.4-0.3-2-0.8c-0.6-0.5-0.8-1.1-0.8-1.9c0-1.7,0.6-3.1,1.7-4.3
	C38.3,109.2,39.7,108.5,41.3,108.5"/>
<path id="path56" class="st1" d="M65.1,49.1c0,0.2,0.1,0.3,0.3,0.5c0.2,0.1,0.4,0.3,0.6,0.4c0.2,0.1,0.4,0.4,0.6,0.8
	c0.2,0.4,0.3,0.9,0.3,1.4c0,1.1-0.4,2-1.2,2.6c-0.8,0.6-1.9,0.9-3.2,0.9c-1,0-1.9-0.3-2.7-0.8c-0.8-0.5-1.2-1.2-1.2-2.1
	c0-0.5,0.2-0.8,0.5-1.2c0.3-0.3,0.7-0.5,1.2-0.5c0.4,0,0.8,0.2,1.1,0.5c0.3,0.3,0.5,0.7,0.5,1.1c0,0.2-0.2,0.4-0.5,0.7
	c-0.3,0.2-0.5,0.4-0.5,0.7c0,0.3,0.2,0.5,0.5,0.7c0.3,0.1,0.7,0.2,1.1,0.2c0.6,0,1-0.3,1.2-0.8c0.2-0.6,0.3-1.3,0.3-2.1v-0.4
	c0-0.6,0-1,0-1.2c0-0.3-0.1-0.5-0.3-0.8c-0.2-0.2-0.5-0.3-0.9-0.3h-2c-0.2,0-0.3-0.1-0.3-0.4c0-0.2,0.1-0.3,0.3-0.4h2
	c0.5,0,0.8-0.1,1-0.4c0.1-0.2,0.2-0.6,0.3-1.2c0-0.2,0-0.5,0-0.8v-0.2c0-1.5-0.6-2.3-1.7-2.3c-1,0-1.5,0.3-1.5,0.8
	c0,0.2,0.2,0.4,0.5,0.6c0.3,0.2,0.4,0.4,0.4,0.6c0,0.4-0.1,0.8-0.4,1c-0.3,0.3-0.6,0.4-1,0.4c-0.4,0-0.7-0.1-1-0.4
	c-0.3-0.3-0.4-0.6-0.4-1c0-0.8,0.3-1.4,1-1.9c0.7-0.5,1.5-0.7,2.4-0.7c1.2,0,2.2,0.2,3,0.7c0.8,0.5,1.2,1.2,1.2,2.1
	c0,0.7-0.1,1.2-0.2,1.6c-0.1,0.4-0.3,0.6-0.5,0.7s-0.3,0.2-0.5,0.3C65.1,48.8,65.1,48.9,65.1,49.1"/>
<path id="path64" class="st1" d="M64.3,61.1c0.8-0.9,1.2-1.7,1.2-2.5c0-0.7-0.3-1.2-0.9-1.6c-0.6-0.4-1.3-0.6-2.1-0.6
	c-0.6,0-1,0.2-1.4,0.5c-0.3,0.4-0.5,0.8-0.5,1.2c0,0.6,0.3,1,0.8,1.3L64.3,61.1 M65.1,61.5c1.4,0.8,2.1,1.9,2.1,3.2
	c0,1-0.4,1.8-1.2,2.5c-0.8,0.7-2,1.1-3.5,1.1c-1.2,0-2.3-0.3-3.2-1c-0.9-0.7-1.4-1.5-1.4-2.5c0-0.4,0.1-0.8,0.3-1.2
	c0.2-0.4,0.4-0.7,0.6-0.9c0.2-0.2,0.5-0.5,0.9-0.9c-1-0.7-1.5-1.6-1.5-2.7c0-0.9,0.4-1.7,1.2-2.4c0.8-0.7,1.9-1,3.2-1
	c1.1,0,2,0.2,2.8,0.7c0.8,0.5,1.2,1.2,1.2,2C66.6,59.4,66.1,60.4,65.1,61.5 M60.5,62.2c-1,0.9-1.5,1.7-1.6,2.6c0,0.8,0.3,1.5,1,2.1
	c0.7,0.6,1.5,0.8,2.4,0.8c0.7,0,1.2-0.2,1.6-0.6c0.4-0.4,0.6-0.9,0.6-1.4c0-0.7-0.3-1.2-0.9-1.5L60.5,62.2"/>
<path id="path72" class="st1" d="M65.1,114.7c0,0.2,0.1,0.3,0.3,0.5c0.2,0.1,0.4,0.3,0.6,0.4c0.2,0.1,0.4,0.4,0.6,0.8
	c0.2,0.4,0.3,0.9,0.3,1.4c0,1.1-0.4,2-1.2,2.6c-0.8,0.6-1.9,0.9-3.2,0.9c-1,0-1.9-0.3-2.7-0.8c-0.8-0.5-1.2-1.2-1.2-2.1
	c0-0.5,0.2-0.8,0.5-1.2c0.3-0.3,0.7-0.5,1.2-0.5c0.4,0,0.8,0.2,1.1,0.5c0.3,0.3,0.5,0.7,0.5,1.1c0,0.2-0.2,0.4-0.5,0.7
	c-0.3,0.2-0.5,0.4-0.5,0.7c0,0.3,0.2,0.5,0.5,0.7c0.3,0.1,0.7,0.2,1.1,0.2c0.6,0,1-0.3,1.2-0.8c0.2-0.6,0.3-1.3,0.3-2.1v-0.4
	c0-0.6,0-1,0-1.2c0-0.3-0.1-0.5-0.3-0.8c-0.2-0.2-0.5-0.3-0.9-0.3h-2c-0.2,0-0.3-0.1-0.3-0.4c0-0.2,0.1-0.3,0.3-0.4h2
	c0.5,0,0.8-0.1,1-0.4c0.1-0.2,0.2-0.6,0.3-1.2c0-0.2,0-0.5,0-0.8v-0.2c0-1.5-0.6-2.3-1.7-2.3c-1,0-1.5,0.3-1.5,0.8
	c0,0.2,0.2,0.4,0.5,0.6c0.3,0.2,0.4,0.4,0.4,0.6c0,0.4-0.1,0.8-0.4,1c-0.3,0.3-0.6,0.4-1,0.4c-0.4,0-0.7-0.1-1-0.4
	c-0.3-0.3-0.4-0.6-0.4-1c0-0.8,0.3-1.4,1-1.9c0.7-0.5,1.5-0.7,2.4-0.7c1.2,0,2.2,0.2,3,0.7c0.8,0.5,1.2,1.2,1.2,2.1
	c0,0.7-0.1,1.2-0.2,1.6c-0.1,0.4-0.3,0.6-0.5,0.7s-0.3,0.2-0.5,0.3C65.1,114.4,65.1,114.6,65.1,114.7"/>
<path id="path80" class="st1" d="M64.3,126.7c0.8-0.9,1.2-1.7,1.2-2.5c0-0.7-0.3-1.2-0.9-1.6c-0.6-0.4-1.3-0.6-2.1-0.6
	c-0.6,0-1,0.2-1.4,0.5c-0.3,0.4-0.5,0.8-0.5,1.2c0,0.6,0.3,1,0.8,1.3L64.3,126.7 M65.1,127.1c1.4,0.8,2.1,1.9,2.1,3.2
	c0,1-0.4,1.8-1.2,2.5c-0.8,0.7-2,1.1-3.5,1.1c-1.2,0-2.3-0.3-3.2-1c-0.9-0.7-1.4-1.5-1.4-2.5c0-0.4,0.1-0.8,0.3-1.2
	c0.2-0.4,0.4-0.7,0.6-0.9c0.2-0.2,0.5-0.5,0.9-0.9c-1-0.7-1.5-1.6-1.5-2.7c0-0.9,0.4-1.7,1.2-2.4c0.8-0.7,1.9-1,3.2-1
	c1.1,0,2,0.2,2.8,0.7c0.8,0.5,1.2,1.2,1.2,2C66.6,125,66.1,126,65.1,127.1 M60.5,127.8c-1,0.9-1.5,1.7-1.6,2.6c0,0.8,0.3,1.5,1,2.1
	c0.7,0.6,1.5,0.8,2.4,0.8c0.7,0,1.2-0.2,1.6-0.6c0.4-0.4,0.6-0.9,0.6-1.4c0-0.7-0.3-1.2-0.9-1.5L60.5,127.8"/>
<path id="polyline86" class="st2" d="M78,47.6v19.1"/>
<path id="path92" class="st1" d="M83.1,42.9c0.8,0,1.5,0.2,2,0.6c0.5,0.4,0.8,1,0.8,1.7c0,1.1-0.6,2.2-1.7,3.1
	c-1.2,1-2.4,1.5-3.8,1.5c-0.8,0-1.5-0.2-2-0.6c-0.5-0.4-0.8-1-0.8-1.7c0-1.1,0.6-2.2,1.8-3.1C80.5,43.4,81.7,42.9,83.1,42.9"/>
<path id="path98" class="st1" d="M77.6,65.1l21,1.6v3.1l-21-1.6L77.6,65.1"/>
<path id="path100" class="st1" d="M77.6,60.4l21,1.6v3.1l-21-1.6L77.6,60.4"/>
<path id="path106" class="st1" d="M79.3,116.2c0.5,0,0.8,0.1,1.1,0.4c0.2,0.3,0.4,0.5,0.4,0.8c0,0.3,0.1,0.6,0.2,0.8
	c0.1,0.3,0.3,0.4,0.6,0.4c0.2,0,0.4-0.2,0.8-0.6c0.4-0.4,0.6-0.7,0.7-1c0.1-0.2,0.2-0.2,0.3-0.2c0,0,0,0,0,0c0.2,0,0.3,0.1,0.3,0.2
	l-3.1,10.5c-0.2,0.2-0.4,0.2-0.7,0.2c-0.3,0-0.5-0.1-0.7-0.2l2.9-8.2c-1,0.4-1.9,0.6-2.6,0.6c-0.6,0-1.1-0.2-1.5-0.6
	c-0.4-0.4-0.7-0.8-0.7-1.4c0-0.5,0.2-0.9,0.5-1.3C78.4,116.4,78.8,116.2,79.3,116.2"/>
<path id="path114" class="st1" d="M78.7,143.7c-0.4,0-0.8,0.2-1.2,0.7c-0.4,0.5-0.7,1.1-0.9,1.7c-0.2,0.6-0.3,1.1-0.3,1.6
	c0,0.6,0.2,0.9,0.7,0.9c0.4,0,0.8-0.2,1-0.5c0.3-0.3,0.6-0.9,0.9-1.8c0.2-0.9,0.4-1.5,0.4-1.9C79.3,144,79.1,143.7,78.7,143.7
	 M74.9,142.6c0.4,0,0.8,0.1,1.1,0.3c0.3,0.2,0.5,0.5,0.6,0.9c0.3-0.4,0.7-0.7,1.2-0.9c0.4-0.2,0.9-0.3,1.3-0.3
	c0.8,0,1.4,0.3,1.9,0.8c0.4,0.5,0.7,1.2,0.7,2c0,1.3-0.5,2.4-1.4,3.2c-0.8,0.7-1.6,1.1-2.3,1.1c-0.4,0-0.7,0-1-0.1
	c-0.3-0.1-0.5-0.1-0.7-0.2c-0.2-0.1-0.3-0.1-0.3-0.1c-0.2,0-0.3,0.1-0.4,0.2l-0.9,2.7c0,0,0,0.1,0,0.1c0,0.1,0.1,0.2,0.4,0.3
	c0.3,0,0.5,0.1,0.8,0.1c0.2,0,0.4,0.1,0.4,0.2s-0.1,0.2-0.2,0.2c-1.3-0.1-2.3-0.1-2.9-0.1c-0.6,0-1.6,0-2.9,0.1
	c-0.1,0-0.2-0.1-0.2-0.2c0-0.1,0.1-0.2,0.3-0.2c0.1,0,0.6,0,1.3,0c0.3,0,0.5-0.1,0.6-0.3l2.6-7.6c0-0.1,0.1-0.3,0.1-0.4
	c0-0.3-0.1-0.4-0.4-0.4c-0.4,0-0.8,0.2-1.2,0.7c-0.4,0.5-0.7,1-1,1.6c-0.1,0.1-0.2,0.2-0.3,0.2c-0.1,0-0.2,0-0.2-0.1
	c0-0.1,0-0.2,0.1-0.4c0.4-0.8,0.7-1.5,1-1.9c0.2-0.3,0.5-0.6,0.9-0.9C74.2,142.7,74.6,142.6,74.9,142.6 M87.3,143.7
	c-0.4,0-0.8,0.2-1.2,0.7c-0.4,0.5-0.7,1.1-0.9,1.7c-0.2,0.6-0.3,1.1-0.3,1.6c0,0.6,0.2,0.9,0.7,0.9c0.4,0,0.8-0.2,1-0.5
	c0.3-0.3,0.6-0.9,0.9-1.8c0.2-0.9,0.4-1.5,0.4-1.9C87.9,144,87.7,143.7,87.3,143.7 M83.6,142.6c0.4,0,0.8,0.1,1.1,0.3
	c0.3,0.2,0.5,0.5,0.6,0.9c0.3-0.4,0.7-0.7,1.2-0.9c0.4-0.2,0.9-0.3,1.3-0.3c0.8,0,1.4,0.3,1.9,0.8c0.4,0.5,0.7,1.2,0.7,2
	c0,1.3-0.5,2.4-1.4,3.2c-0.8,0.7-1.6,1.1-2.3,1.1c-0.4,0-0.7,0-1-0.1c-0.3-0.1-0.5-0.1-0.7-0.2c-0.2-0.1-0.3-0.1-0.3-0.1
	c-0.2,0-0.3,0.1-0.4,0.2l-0.9,2.7c0,0,0,0.1,0,0.1c0,0.1,0.1,0.2,0.4,0.3c0.3,0,0.5,0.1,0.8,0.1c0.2,0,0.4,0.1,0.4,0.2
	s-0.1,0.2-0.2,0.2c-1.3-0.1-2.3-0.1-2.9-0.1c-0.6,0-1.6,0-2.9,0.1c-0.1,0-0.2-0.1-0.2-0.2c0-0.1,0.1-0.2,0.3-0.2c0.1,0,0.6,0,1.3,0
	c0.3,0,0.5-0.1,0.6-0.3l2.6-7.6c0-0.1,0.1-0.3,0.1-0.4c0-0.3-0.1-0.4-0.4-0.4c-0.4,0-0.8,0.2-1.2,0.7c-0.4,0.5-0.7,1-1,1.6
	c-0.1,0.1-0.2,0.2-0.3,0.2c-0.1,0-0.2,0-0.2-0.1c0-0.1,0-0.2,0.1-0.4c0.4-0.8,0.7-1.5,1-1.9c0.2-0.3,0.5-0.6,0.9-0.9
	C82.9,142.7,83.2,142.6,83.6,142.6"/>
<path id="path122" class="st1" d="M77.6,78.1c-0.4,0-0.8,0.2-1.2,0.7c-0.4,0.5-0.7,1.1-0.9,1.7c-0.2,0.6-0.3,1.1-0.3,1.6
	c0,0.6,0.2,0.9,0.7,0.9c0.4,0,0.8-0.2,1-0.5c0.3-0.3,0.6-0.9,0.9-1.8c0.2-0.9,0.4-1.5,0.4-1.9C78.2,78.4,78,78.1,77.6,78.1 M73.8,77
	c0.4,0,0.8,0.1,1.1,0.3c0.3,0.2,0.5,0.5,0.6,0.9c0.3-0.4,0.7-0.7,1.2-0.9c0.4-0.2,0.9-0.3,1.3-0.3c0.8,0,1.4,0.3,1.9,0.8
	c0.4,0.5,0.7,1.2,0.7,2c0,1.3-0.5,2.4-1.4,3.2c-0.8,0.7-1.6,1.1-2.3,1.1c-0.4,0-0.7,0-1-0.1c-0.3-0.1-0.5-0.1-0.7-0.2
	c-0.2-0.1-0.3-0.1-0.3-0.1c-0.2,0-0.3,0.1-0.4,0.2l-0.9,2.7c0,0,0,0.1,0,0.1c0,0.1,0.1,0.2,0.4,0.3c0.3,0,0.5,0.1,0.8,0.1
	c0.2,0,0.4,0.1,0.4,0.2c0,0.1-0.1,0.2-0.2,0.2c-1.3-0.1-2.3-0.1-2.9-0.1c-0.6,0-1.6,0-2.9,0.1c-0.1,0-0.2-0.1-0.2-0.2
	c0-0.1,0.1-0.2,0.3-0.2c0.1,0,0.6,0,1.3,0c0.3,0,0.5-0.1,0.6-0.3l2.6-7.6c0-0.1,0.1-0.3,0.1-0.4c0-0.3-0.1-0.4-0.4-0.4
	c-0.4,0-0.8,0.2-1.2,0.7c-0.4,0.5-0.7,1-1,1.6c-0.1,0.1-0.2,0.2-0.3,0.2c-0.1,0-0.2,0-0.2-0.1c0-0.1,0-0.2,0.1-0.4
	c0.4-0.8,0.7-1.5,1-1.9c0.2-0.3,0.5-0.6,0.9-0.9C73.1,77.1,73.4,77,73.8,77 M86.2,78.1c-0.4,0-0.8,0.2-1.2,0.7
	c-0.4,0.5-0.7,1.1-0.9,1.7c-0.2,0.6-0.3,1.1-0.3,1.6c0,0.6,0.2,0.9,0.7,0.9c0.4,0,0.8-0.2,1-0.5c0.3-0.3,0.6-0.9,0.9-1.8
	c0.2-0.9,0.4-1.5,0.4-1.9C86.8,78.4,86.6,78.1,86.2,78.1 M82.5,77c0.4,0,0.8,0.1,1.1,0.3c0.3,0.2,0.5,0.5,0.6,0.9
	c0.3-0.4,0.7-0.7,1.2-0.9c0.4-0.2,0.9-0.3,1.3-0.3c0.8,0,1.4,0.3,1.9,0.8c0.4,0.5,0.7,1.2,0.7,2c0,1.3-0.5,2.4-1.4,3.2
	c-0.8,0.7-1.6,1.1-2.3,1.1c-0.4,0-0.7,0-1-0.1c-0.3-0.1-0.5-0.1-0.7-0.2s-0.3-0.1-0.3-0.1c-0.2,0-0.3,0.1-0.4,0.2l-0.9,2.7
	c0,0,0,0.1,0,0.1c0,0.1,0.1,0.2,0.4,0.3c0.3,0,0.5,0.1,0.8,0.1c0.2,0,0.4,0.1,0.4,0.2c0,0.1-0.1,0.2-0.2,0.2
	c-1.3-0.1-2.3-0.1-2.9-0.1c-0.6,0-1.6,0-2.9,0.1c-0.1,0-0.2-0.1-0.2-0.2c0-0.1,0.1-0.2,0.3-0.2c0.1,0,0.6,0,1.3,0
	c0.3,0,0.5-0.1,0.6-0.3l2.6-7.6c0-0.1,0.1-0.3,0.1-0.4c0-0.3-0.1-0.4-0.4-0.4c-0.4,0-0.8,0.2-1.2,0.7c-0.4,0.5-0.7,1-1,1.6
	c-0.1,0.1-0.2,0.2-0.3,0.2c-0.1,0-0.2,0-0.2-0.1c0-0.1,0-0.2,0.1-0.4c0.4-0.8,0.7-1.5,1-1.9c0.2-0.3,0.5-0.6,0.9-0.9
	C81.8,77.1,82.1,77,82.5,77"/>
<path id="path130" class="st1" d="M81.3,25.6v2.8c0,0.5,0.1,0.9,0.2,1c0.1,0.1,0.5,0.3,1.1,0.3v0.4h-5v-0.4c0.2,0,0.3-0.1,0.4-0.1
	c0.3,0,0.6-0.2,0.7-0.3c0.1-0.2,0.2-0.5,0.2-1v-6.6c0-0.5-0.1-0.9-0.2-1.1c-0.2-0.2-0.5-0.3-1-0.3V20h4.8c1.2,0,2.2,0.2,2.9,0.7
	c0.7,0.5,1,1.1,1,2c0,0.6-0.2,1.1-0.5,1.5c-0.3,0.4-0.8,0.8-1.4,1c-0.3,0.1-0.7,0.2-1.1,0.3C83,25.6,82.3,25.6,81.3,25.6 M81.3,25.1
	c1,0,1.6-0.1,2-0.4c0.3-0.3,0.5-0.9,0.5-1.8c0-0.8-0.1-1.4-0.4-1.7c-0.3-0.4-0.7-0.5-1.3-0.5c-0.5,0-0.7,0.2-0.7,0.5V25.1 M90.2,23
	c1,0,1.8,0.3,2.4,1c0.6,0.7,1,1.6,1,2.6c0,1-0.3,1.9-1,2.6c-0.6,0.7-1.4,1-2.4,1c-1,0-1.8-0.3-2.4-1c-0.6-0.7-1-1.6-1-2.6
	c0-1,0.3-1.9,1-2.6C88.5,23.4,89.3,23,90.2,23 M90.3,23.5c-0.5,0-0.8,0.2-0.9,0.7c-0.2,0.5-0.3,1.4-0.3,2.7c0,1.1,0.1,1.9,0.3,2.3
	c0.2,0.4,0.5,0.7,0.9,0.7c0.4,0,0.7-0.2,0.9-0.7c0.2-0.5,0.3-1.3,0.3-2.4c0-1.2-0.1-2.1-0.3-2.6C91,23.7,90.7,23.5,90.3,23.5
	 M100.2,28.5l0.3,0.3c-0.4,0.6-0.9,1-1.3,1.2c-0.4,0.2-1,0.4-1.5,0.4c-0.9,0-1.7-0.3-2.3-1s-0.9-1.5-0.9-2.5c0-1.1,0.3-2,1-2.7
	c0.7-0.7,1.5-1.1,2.5-1.1c0.7,0,1.2,0.2,1.7,0.5c0.4,0.3,0.7,0.7,0.7,1.2c0,0.3-0.1,0.5-0.3,0.7c-0.2,0.2-0.4,0.3-0.7,0.3
	c-0.5,0-0.8-0.4-0.8-1.1c0-0.4,0-0.7-0.1-0.8c-0.1-0.2-0.3-0.3-0.6-0.3c-0.4,0-0.7,0.2-0.9,0.7c-0.2,0.4-0.3,1.1-0.3,1.8
	c0,1,0.2,1.8,0.6,2.4c0.4,0.6,0.9,0.9,1.6,0.9c0.3,0,0.6-0.1,0.8-0.2C99.6,29,99.9,28.8,100.2,28.5 M104.4,23c1,0,1.8,0.3,2.4,1
	c0.6,0.7,1,1.6,1,2.6c0,1-0.3,1.9-1,2.6c-0.6,0.7-1.4,1-2.4,1c-1,0-1.8-0.3-2.4-1s-1-1.6-1-2.6c0-1,0.3-1.9,1-2.6
	C102.6,23.4,103.4,23,104.4,23 M104.4,23.5c-0.5,0-0.8,0.2-0.9,0.7c-0.2,0.5-0.3,1.4-0.3,2.7c0,1.1,0.1,1.9,0.3,2.3
	c0.2,0.4,0.5,0.7,0.9,0.7c0.4,0,0.7-0.2,0.9-0.7c0.2-0.5,0.3-1.3,0.3-2.4c0-1.2-0.1-2.1-0.3-2.6C105.1,23.7,104.8,23.5,104.4,23.5
	 M116.3,24c-0.3,0-0.5,0.1-0.8,0.3c-0.3,0.2-0.4,0.4-0.4,0.5v4c0,0.3,0,0.5,0.1,0.6s0.3,0.2,0.5,0.2v0.4h-3.6v-0.4
	c0.3-0.1,0.5-0.1,0.7-0.3c0.1-0.1,0.2-0.3,0.2-0.6v-4.4c0-0.3-0.1-0.5-0.2-0.6s-0.3-0.2-0.7-0.2v-0.4h2.9v1.1
	c0.5-0.9,1.3-1.3,2.2-1.3c0.5,0,0.8,0.1,1.1,0.3s0.5,0.5,0.8,1c0.4-0.5,0.7-0.8,1.1-1s0.7-0.3,1.1-0.3c0.6,0,1.1,0.2,1.5,0.6
	c0.4,0.4,0.5,0.9,0.5,1.5v3.8c0,0.3,0.1,0.5,0.2,0.7c0.1,0.1,0.3,0.2,0.6,0.2v0.4h-3.6v-0.4c0.3,0,0.5-0.1,0.6-0.2
	c0.1-0.1,0.1-0.3,0.1-0.6v-3.6c0-0.4-0.1-0.8-0.2-1c-0.1-0.2-0.3-0.3-0.6-0.3c-0.3,0-0.5,0.1-0.8,0.4s-0.4,0.4-0.4,0.5v4
	c0,0.3,0.1,0.5,0.2,0.6c0.1,0.1,0.3,0.2,0.5,0.2v0.4h-3.5v-0.4c0.3,0,0.5-0.1,0.6-0.2c0.1-0.1,0.1-0.3,0.1-0.6v-3.6
	c0-0.4-0.1-0.8-0.2-1C116.8,24.1,116.6,24,116.3,24 M128.1,23c1,0,1.8,0.3,2.4,1c0.6,0.7,1,1.6,1,2.6c0,1-0.3,1.9-1,2.6
	c-0.6,0.7-1.4,1-2.4,1c-1,0-1.8-0.3-2.4-1c-0.6-0.7-1-1.6-1-2.6c0-1,0.3-1.9,1-2.6C126.4,23.4,127.2,23,128.1,23 M128.1,23.5
	c-0.5,0-0.8,0.2-0.9,0.7c-0.2,0.5-0.3,1.4-0.3,2.7c0,1.1,0.1,1.9,0.3,2.3s0.5,0.7,0.9,0.7c0.4,0,0.7-0.2,0.9-0.7
	c0.2-0.5,0.3-1.3,0.3-2.4c0-1.2-0.1-2.1-0.3-2.6C128.9,23.7,128.6,23.5,128.1,23.5 M136.4,23.2v0.7H135v4.5c0,0.3,0,0.5,0.1,0.7
	c0.1,0.1,0.2,0.2,0.4,0.2c0.3,0,0.6-0.3,0.9-0.8l0.4,0.2c-0.3,0.6-0.6,1-1,1.3c-0.3,0.3-0.8,0.4-1.3,0.4c-0.5,0-0.9-0.1-1.2-0.4
	c-0.3-0.3-0.4-0.7-0.4-1.2v-4.9h-0.8v-0.4c0.5-0.4,0.9-0.8,1.3-1.2c0.4-0.4,0.8-0.9,1.2-1.6h0.4v2.5L136.4,23.2 M140.6,23
	c1,0,1.8,0.3,2.4,1c0.6,0.7,1,1.6,1,2.6c0,1-0.3,1.9-1,2.6s-1.4,1-2.4,1c-1,0-1.8-0.3-2.4-1s-1-1.6-1-2.6c0-1,0.3-1.9,1-2.6
	C138.8,23.4,139.6,23,140.6,23 M140.6,23.5c-0.5,0-0.8,0.2-0.9,0.7c-0.2,0.5-0.3,1.4-0.3,2.7c0,1.1,0.1,1.9,0.3,2.3
	c0.2,0.4,0.5,0.7,0.9,0.7s0.7-0.2,0.9-0.7c0.2-0.5,0.3-1.3,0.3-2.4c0-1.2-0.1-2.1-0.3-2.6C141.3,23.7,141,23.5,140.6,23.5"/>
<path id="polyline136" class="st2" d="M98.1,50.7v17.6"/>
<path id="path142" class="st1" d="M103.2,46.1c0.8,0,1.5,0.2,2,0.6c0.5,0.4,0.8,1,0.8,1.7c0,1.1-0.6,2.2-1.7,3.1
	c-1.2,1-2.4,1.5-3.8,1.5c-0.8,0-1.5-0.2-2-0.6c-0.5-0.4-0.8-1-0.8-1.7c0-1.1,0.6-2.2,1.8-3.1C100.6,46.6,101.9,46.1,103.2,46.1"/>
<path id="path150" class="st1" d="M94.9,57.3c0,0.3-0.2,0.5-0.5,0.5c-0.3,0-0.5-0.2-0.5-0.5v-3.6l-2.1,0.8v4c0,0.3-0.2,0.5-0.5,0.5
	c-0.3,0-0.5-0.2-0.5-0.5v-3.6l-0.8,0.3c0,0-0.1,0-0.2,0c-0.1,0-0.2,0-0.3-0.1c-0.1-0.1-0.1-0.2-0.1-0.3v-1.5c0-0.2,0.1-0.4,0.3-0.5
	l1.1-0.4v-4l-0.8,0.3c0,0-0.1,0-0.2,0c-0.1,0-0.2,0-0.3-0.1c-0.1-0.1-0.1-0.2-0.1-0.3v-1.5c0-0.2,0.1-0.4,0.3-0.4l1.1-0.4v-3.9
	c0-0.3,0.2-0.5,0.5-0.5s0.5,0.2,0.5,0.5v3.6l2.1-0.8v-4c0-0.3,0.2-0.5,0.5-0.5c0.3,0,0.5,0.2,0.5,0.5v3.6l0.8-0.3c0,0,0.1,0,0.2,0
	c0.1,0,0.3,0,0.4,0.1c0.1,0.1,0.1,0.2,0.1,0.3v1.5c0,0.2-0.1,0.4-0.3,0.5l-1.1,0.4v4l0.8-0.3c0,0,0.1,0,0.2,0c0.1,0,0.3,0,0.4,0.1
	c0.1,0.1,0.1,0.2,0.1,0.3v1.5c0,0.2-0.1,0.4-0.3,0.4l-1.1,0.4L94.9,57.3 M93.9,47.1l-2.1,0.7v4l2.1-0.7V47.1"/>
<path id="polyline156" class="st3" d="M118.4,43.3v90.6"/>
<path id="polyline160" class="st0" d="M118.9,43.3h116.2"/>
<path id="polyline162" class="st0" d="M118.9,49.5h116.2"/>
<path id="polyline164" class="st0" d="M118.9,55.8h116.2"/>
<path id="polyline166" class="st0" d="M118.9,62h116.2"/>
<path id="polyline168" class="st0" d="M118.9,68.3h116.2"/>
<path id="polyline172" class="st0" d="M118.9,108.9h116.2"/>
<path id="polyline174" class="st0" d="M118.9,115.1h116.2"/>
<path id="polyline176" class="st0" d="M118.9,121.4h116.2"/>
<path id="polyline178" class="st0" d="M118.9,127.6h116.2"/>
<path id="polyline180" class="st0" d="M118.9,133.9h116.2"/>
<path id="polyline184" class="st2" d="M126.8,47.6v26.9"/>
<path id="path190" class="st1" d="M131.9,42.9c0.8,0,1.5,0.2,2,0.6c0.5,0.4,0.8,1,0.8,1.7c0,1.1-0.6,2.2-1.7,3.1
	c-1.2,1-2.4,1.5-3.8,1.5c-0.8,0-1.5-0.2-2-0.6c-0.5-0.4-0.8-1-0.8-1.7c0-1.1,0.6-2.2,1.8-3.1C129.3,43.4,130.5,42.9,131.9,42.9"/>
<path id="path196" class="st1" d="M126.4,72.9h90.8v3.1h-90.8L126.4,72.9"/>
<path id="path198" class="st1" d="M126.4,68.3h90.8v3.1h-90.8L126.4,68.3"/>
<path id="path204" class="st1" d="M180.9,119H172c-0.2,0-0.2-0.1-0.2-0.2v-3.4c0-0.2,0.1-0.2,0.2-0.2h8.9c0.2,0,0.2,0.1,0.2,0.2v3.4
	C181.2,118.9,181.1,119,180.9,119"/>
<path id="polyline210" class="st2" d="M146.2,50.7v23.8"/>
<path id="path216" class="st1" d="M151.3,46.1c0.8,0,1.5,0.2,2,0.6c0.5,0.4,0.8,1,0.8,1.7c0,1.1-0.6,2.2-1.7,3.1
	c-1.2,1-2.4,1.5-3.8,1.5c-0.8,0-1.5-0.2-2-0.6c-0.5-0.4-0.8-1-0.8-1.7c0-1.1,0.6-2.2,1.8-3.1C148.7,46.6,149.9,46.1,151.3,46.1"/>
<path id="path224" class="st1" d="M142.9,57.3c0,0.3-0.2,0.5-0.5,0.5c-0.3,0-0.5-0.2-0.5-0.5v-3.6l-2.1,0.8v4c0,0.3-0.2,0.5-0.5,0.5
	c-0.3,0-0.5-0.2-0.5-0.5v-3.6l-0.8,0.3c0,0-0.1,0-0.2,0c-0.1,0-0.2,0-0.3-0.1c-0.1-0.1-0.1-0.2-0.1-0.3v-1.5c0-0.2,0.1-0.4,0.3-0.5
	l1.1-0.4v-4l-0.8,0.3c0,0-0.1,0-0.2,0c-0.1,0-0.2,0-0.3-0.1c-0.1-0.1-0.1-0.2-0.1-0.3v-1.5c0-0.2,0.1-0.4,0.3-0.4l1.1-0.4v-3.9
	c0-0.3,0.2-0.5,0.5-0.5c0.3,0,0.5,0.2,0.5,0.5v3.6l2.1-0.8v-4c0-0.3,0.2-0.5,0.5-0.5c0.3,0,0.5,0.2,0.5,0.5v3.6l0.8-0.3
	c0,0,0.1,0,0.2,0c0.1,0,0.3,0,0.4,0.1c0.1,0.1,0.1,0.2,0.1,0.3v1.5c0,0.2-0.1,0.4-0.3,0.5l-1.1,0.4v4l0.8-0.3c0,0,0.1,0,0.2,0
	c0.1,0,0.3,0,0.4,0.1c0.1,0.1,0.1,0.2,0.1,0.3v1.5c0,0.2-0.1,0.4-0.3,0.4l-1.1,0.4L142.9,57.3 M142,47.1l-2.1,0.7v4l2.1-0.7V47.1"/>
<path id="polyline230" class="st2" d="M163.8,47.6v26.9"/>
<path id="path236" class="st1" d="M168.9,42.9c0.8,0,1.5,0.2,2,0.6c0.5,0.4,0.8,1,0.8,1.7c0,1.1-0.6,2.2-1.7,3.1
	c-1.2,1-2.4,1.5-3.8,1.5c-0.8,0-1.5-0.2-2-0.6c-0.5-0.4-0.8-1-0.8-1.7c0-1.1,0.6-2.2,1.8-3.1C166.3,43.4,167.6,42.9,168.9,42.9"/>
<path id="polyline242" class="st2" d="M181.5,56.9v17.6"/>
<path id="path248" class="st1" d="M186.6,52.3c0.8,0,1.5,0.2,2,0.6c0.5,0.4,0.8,1,0.8,1.7c0,1.1-0.6,2.2-1.7,3.1
	c-1.2,1-2.4,1.5-3.8,1.5c-0.8,0-1.5-0.2-2-0.6c-0.5-0.4-0.8-1-0.8-1.7c0-1.1,0.6-2.2,1.8-3.1C184,52.8,185.2,52.3,186.6,52.3"/>
<path id="polyline254" class="st2" d="M199.2,50.7v23.8"/>
<path id="path260" class="st1" d="M204.2,46.1c0.8,0,1.5,0.2,2,0.6c0.5,0.4,0.8,1,0.8,1.7c0,1.1-0.6,2.2-1.7,3.1
	c-1.2,1-2.4,1.5-3.8,1.5c-0.8,0-1.5-0.2-2-0.6c-0.5-0.4-0.8-1-0.8-1.7c0-1.1,0.6-2.2,1.8-3.1C201.7,46.6,202.9,46.1,204.2,46.1"/>
<path id="path268" class="st1" d="M192.8,40.1c0.2-0.1,0.4-0.2,0.6-0.2c0.2,0,0.4,0.1,0.6,0.2l-0.1,4.6l2.7-0.5h0.1
	c0.3,0,0.4,0.1,0.4,0.4l0.2,14.3c-0.2,0.1-0.4,0.2-0.6,0.2c-0.2,0-0.4-0.1-0.6-0.2l0.1-4.6l-2.6,0.5h-0.1c-0.3,0-0.4-0.1-0.4-0.4
	L192.8,40.1 M196.2,51.9l0.1-5.2l-2.3,0.4l-0.1,5.2L196.2,51.9"/>
<path id="polyline274" class="st2" d="M216.8,53.8v20.7"/>
<path id="path280" class="st1" d="M221.9,49.2c0.8,0,1.5,0.2,2,0.6c0.5,0.4,0.8,1,0.8,1.7c0,1.1-0.6,2.2-1.7,3.1
	c-1.2,1-2.4,1.5-3.8,1.5c-0.8,0-1.5-0.2-2-0.6c-0.5-0.4-0.8-1-0.8-1.7c0-1.1,0.6-2.2,1.8-3.1C219.3,49.7,220.6,49.2,221.9,49.2"/>
<path id="polyline286" class="st3" d="M234.6,43.3v90.6"/>
<path id="polyline290" class="st0" d="M235.1,43.3h99.5"/>
<path id="polyline292" class="st0" d="M235.1,49.5h99.5"/>
<path id="polyline294" class="st0" d="M235.1,55.8h99.5"/>
<path id="polyline296" class="st0" d="M235.1,62h99.5"/>
<path id="polyline298" class="st0" d="M235.1,68.3h99.5"/>
<path id="polyline302" class="st0" d="M235.1,108.9h99.5"/>
<path id="polyline304" class="st0" d="M235.1,115.1h99.5"/>
<path id="polyline306" class="st0" d="M235.1,121.4h99.5"/>
<path id="polyline308" class="st0" d="M235.1,127.6h99.5"/>
<path id="polyline310" class="st0" d="M235.1,133.9h99.5"/>
<path id="path316" d="M250,44.8v-6.2h0.8c0,0.9,0.2,1.8,0.5,2.8c0.4,0.9,0.8,1.8,1.3,2.6c0.5,0.8,1,1.6,1.5,2.5
	c0.5,0.8,1,1.7,1.3,2.7c0.4,0.9,0.5,1.9,0.5,2.8c0,1.7-0.3,3.4-1,5.2c-0.1,0.2-0.3,0.3-0.5,0.3c-0.2,0-0.3-0.1-0.4-0.2
	c-0.1-0.1-0.1-0.2-0.1-0.4c0,0,0-0.1,0-0.1c0.7-1.6,1-3.2,1-4.8c0-0.8-0.2-1.7-0.7-2.6c-0.5-0.9-1-1.7-1.5-2.3
	c-0.5-0.6-1.2-1.3-2-2.1L250,44.8"/>
<path id="polyline322" class="st4" d="M250.4,57.7V38.6"/>
<path id="path328" class="st1" d="M248.1,55.4c0.8,0,1.5,0.2,2,0.6c0.5,0.4,0.8,1,0.8,1.7c0,1.1-0.6,2.2-1.7,3.1
	c-1.2,1-2.4,1.5-3.8,1.5c-0.8,0-1.5-0.2-2-0.6c-0.5-0.4-0.8-1-0.8-1.7c0-1.1,0.6-2.2,1.8-3.1C245.5,55.9,246.7,55.4,248.1,55.4"/>
<path id="polyline334" class="st2" d="M243,131.9V151"/>
<path id="path340" class="st1" d="M248.1,127.3c0.8,0,1.5,0.2,2,0.6c0.5,0.4,0.8,1,0.8,1.7c0,1.1-0.6,2.2-1.7,3.1
	c-1.2,1-2.4,1.5-3.8,1.5c-0.8,0-1.5-0.2-2-0.6c-0.5-0.4-0.8-1-0.8-1.7c0-1.1,0.6-2.2,1.8-3.1C245.5,127.8,246.7,127.3,248.1,127.3"
	/>
<path id="path346" class="st1" d="M242.6,149.5l31.1-11.2v3.1l-31.1,11.2V149.5"/>
<path id="path348" class="st1" d="M242.6,144.8l31.1-11.2v3.1l-31.1,11.2V144.8"/>
<path id="polyline352" class="st4" d="M258.1,119.4v26.2"/>
<path id="path358" d="M263.2,114.8c0.8,0,1.5,0.2,2,0.6c0.5,0.4,0.8,1,0.8,1.7c0,1.1-0.6,2.2-1.7,3.1c-1.2,1-2.4,1.5-3.8,1.5
	c-0.8,0-1.5-0.2-2-0.6c-0.5-0.4-0.8-1-0.8-1.7c0-1.1,0.6-2.2,1.8-3.1C260.7,115.3,261.9,114.8,263.2,114.8"/>
<path id="path366" d="M276,50.6c0.5,0,0.8,0.1,1,0.4c0.2,0.3,0.4,0.5,0.4,0.8c0,0.3,0.1,0.6,0.2,0.8c0.1,0.3,0.3,0.4,0.5,0.4
	c0.2,0,0.4-0.2,0.7-0.6c0.3-0.4,0.6-0.7,0.7-1c0.1-0.2,0.2-0.2,0.3-0.2c0,0,0,0,0,0c0.1,0,0.3,0.1,0.3,0.2l-4.5,16.7
	c-0.2,0.2-0.4,0.2-0.7,0.2c-0.3,0-0.5-0.1-0.7-0.2l2.5-8.2c-1.1,0.4-2,0.6-2.7,0.6c-0.6,0-1.1-0.2-1.5-0.6c-0.4-0.4-0.7-0.8-0.7-1.4
	c0-0.5,0.2-0.9,0.5-1.3c0.4-0.4,0.8-0.5,1.3-0.5c0.5,0,0.8,0.1,1,0.4c0.2,0.3,0.4,0.5,0.4,0.8c0,0.3,0.1,0.6,0.2,0.8
	c0.1,0.3,0.3,0.4,0.5,0.4c0.2,0,0.5-0.2,0.8-0.7c0.4-0.4,0.6-0.8,0.7-1l1.1-3.8c-1,0.4-1.9,0.6-2.6,0.6c-0.6,0-1.1-0.2-1.5-0.6
	c-0.4-0.4-0.7-0.8-0.7-1.4c0-0.5,0.2-0.9,0.5-1.3C275.1,50.8,275.5,50.6,276,50.6"/>
<path id="polyline372" class="st4" d="M273.3,110v30.1"/>
<path id="path378" d="M278.4,105.4c0.8,0,1.5,0.2,2,0.6c0.5,0.4,0.8,1,0.8,1.7c0,1.1-0.6,2.2-1.7,3.1c-1.2,1-2.4,1.5-3.8,1.5
	c-0.8,0-1.5-0.2-2-0.6c-0.5-0.4-0.8-1-0.8-1.7c0-1.1,0.6-2.2,1.8-3.1C275.8,105.9,277.1,105.4,278.4,105.4"/>
<path id="polyline384" class="st4" d="M295.9,73.3V44.8"/>
<path id="polyline388" class="st5" d="M286.2,74.5h11.9"/>
<path id="path394" d="M293.6,71.1c0.8,0,1.5,0.2,2,0.6c0.5,0.4,0.8,1,0.8,1.7c0,1.1-0.6,2.2-1.7,3.1c-1.2,1-2.4,1.5-3.8,1.5
	c-0.8,0-1.5-0.2-2-0.6c-0.5-0.4-0.8-1-0.8-1.7c0-1.1,0.6-2.2,1.8-3.1C291,71.5,292.2,71.1,293.6,71.1"/>
<path id="path400" d="M295.5,43.5l31.1-8v3.1l-31.1,8V43.5"/>
<path id="path402" d="M295.5,48.2l31.1-8v3.1l-31.1,8V48.2"/>
<path id="path408" d="M291.2,116.2c0.5,0,0.8,0.1,1,0.4c0.2,0.3,0.4,0.5,0.4,0.8c0,0.3,0.1,0.6,0.2,0.8c0.1,0.3,0.3,0.4,0.5,0.4
	c0.2,0,0.4-0.2,0.7-0.6c0.3-0.4,0.6-0.7,0.7-1c0.1-0.2,0.2-0.2,0.3-0.2c0,0,0,0,0,0c0.1,0,0.3,0.1,0.3,0.2l-4.5,16.7
	c-0.2,0.2-0.4,0.2-0.7,0.2s-0.5-0.1-0.7-0.2l2.5-8.2c-1.1,0.4-2,0.6-2.7,0.6c-0.6,0-1.1-0.2-1.5-0.6c-0.4-0.4-0.7-0.8-0.7-1.4
	c0-0.5,0.2-0.9,0.5-1.3c0.4-0.4,0.8-0.5,1.3-0.5c0.5,0,0.8,0.1,1,0.4c0.2,0.3,0.4,0.5,0.4,0.8c0,0.3,0.1,0.6,0.2,0.8
	c0.1,0.3,0.3,0.4,0.5,0.4c0.2,0,0.5-0.2,0.8-0.7c0.4-0.4,0.6-0.8,0.7-1l1.1-3.8c-1,0.4-1.9,0.6-2.6,0.6c-0.6,0-1.1-0.2-1.5-0.6
	c-0.4-0.4-0.7-0.8-0.7-1.4c0-0.5,0.2-0.9,0.5-1.3C290.3,116.4,290.7,116.2,291.2,116.2"/>
<path id="polyline414" class="st4" d="M311,67.1V40.9"/>
<path id="path420" d="M308.7,64.8c0.8,0,1.5,0.2,2,0.6c0.5,0.4,0.8,1,0.8,1.7c0,1.1-0.6,2.2-1.7,3.1c-1.2,1-2.4,1.5-3.8,1.5
	c-0.8,0-1.5-0.2-2-0.6c-0.5-0.4-0.8-1-0.8-1.7c0-1.1,0.6-2.2,1.8-3.1C306.1,65.3,307.4,64.8,308.7,64.8"/>
<path id="path428" d="M305,116.2c0.5,0,0.8,0.1,1.1,0.4c0.2,0.3,0.4,0.5,0.4,0.8c0,0.3,0.1,0.6,0.2,0.8c0.1,0.3,0.3,0.4,0.6,0.4
	c0.2,0,0.4-0.2,0.8-0.6c0.4-0.4,0.6-0.7,0.7-1c0.1-0.2,0.2-0.2,0.3-0.2c0,0,0,0,0,0c0.2,0,0.3,0.1,0.3,0.2l-3.1,10.5
	c-0.2,0.2-0.4,0.2-0.7,0.2s-0.5-0.1-0.7-0.2l2.9-8.2c-1,0.4-1.9,0.6-2.6,0.6c-0.6,0-1.1-0.2-1.5-0.6c-0.4-0.4-0.7-0.8-0.7-1.4
	c0-0.5,0.2-0.9,0.5-1.3C304,116.4,304.5,116.2,305,116.2"/>
<path id="polyline434" class="st4" d="M326.2,57.7V37"/>
<path id="path440" d="M323.9,55.4c0.8,0,1.5,0.2,2,0.6c0.5,0.4,0.8,1,0.8,1.7c0,1.1-0.6,2.2-1.7,3.1c-1.2,1-2.4,1.5-3.8,1.5
	c-0.8,0-1.5-0.2-2-0.6c-0.5-0.4-0.8-1-0.8-1.7c0-1.1,0.6-2.2,1.8-3.1C321.3,55.9,322.5,55.4,323.9,55.4"/>
<path id="polyline446" class="st6" d="M334,43.3v90.6"/>
<path id="polyline450" class="st7" d="M334.6,43.3h118.7"/>
<path id="polyline452" class="st7" d="M334.6,49.5h118.7"/>
<path id="polyline454" class="st7" d="M334.6,55.8h118.7"/>
<path id="polyline456" class="st7" d="M334.6,62h118.7"/>
<path id="polyline458" class="st7" d="M334.6,68.3h118.7"/>
<path id="polyline462" class="st7" d="M334.6,108.9h118.7"/>
<path id="polyline464" class="st7" d="M334.6,115.1h118.7"/>
<path id="polyline466" class="st7" d="M334.6,121.4h118.7"/>
<path id="polyline468" class="st7" d="M334.6,127.6h118.7"/>
<path id="polyline470" class="st7" d="M334.6,133.9h118.7"/>
<path id="path476" d="M347.7,59.5c0.4,0,0.8,0.6,1.2,1.8c0.4,1.2,0.6,2.4,0.6,3.4c0,0.9-0.2,1.8-0.7,2.8c-0.5,1-1,1.8-1.7,2.5
	c0,0-0.7,0.7-2,2.2c-0.7,0.7-1.2,1.6-1.7,2.5c-0.5,0.9-0.7,1.9-0.7,2.8H342v-6.2h0.8c0.6-0.3,1.2-0.8,2-1.3c0.4-0.3,1-0.8,1.8-1.5
	c0.6-0.6,1.1-1.2,1.4-1.8c0.3-0.7,0.5-1.3,0.5-2c0-1.5-0.4-3.1-1.3-4.6c0,0,0-0.1,0-0.1c0-0.1,0-0.3,0.1-0.4
	C347.4,59.6,347.6,59.5,347.7,59.5"/>
<path id="polyline482" class="st4" d="M342.5,56.9v20.7"/>
<path id="path488" d="M347.5,52.3c0.8,0,1.5,0.2,2,0.6c0.5,0.4,0.8,1,0.8,1.7c0,1.1-0.6,2.2-1.7,3.1c-1.2,1-2.4,1.5-3.8,1.5
	c-0.8,0-1.5-0.2-2-0.6c-0.5-0.4-0.8-1-0.8-1.7c0-1.1,0.6-2.2,1.8-3.1C345,52.8,346.2,52.3,347.5,52.3"/>
<path id="polyline494" class="st4" d="M349.8,138.9v-36.3"/>
<path id="polyline498" class="st5" d="M340.2,140.1h11.9"/>
<path id="path504" d="M347.5,136.7c0.8,0,1.5,0.2,2,0.6c0.5,0.4,0.8,1,0.8,1.7c0,1.1-0.6,2.2-1.7,3.1c-1.2,1-2.4,1.5-3.8,1.5
	c-0.8,0-1.5-0.2-2-0.6c-0.5-0.4-0.8-1-0.8-1.7c0-1.1,0.6-2.2,1.8-3.1C345,137.2,346.2,136.7,347.5,136.7"/>
<path id="path510" d="M349.4,101.3l38.1-11.2v3.1l-38.1,11.2V101.3"/>
<path id="path512" d="M349.4,106l38.1-11.2v3.1l-38.1,11.2V106"/>
<path id="polyline516" class="st4" d="M367.7,117.1V97.4"/>
<path id="path522" d="M365.4,114.8c0.8,0,1.5,0.2,2,0.6c0.5,0.4,0.8,1,0.8,1.7c0,1.1-0.6,2.2-1.7,3.1c-1.2,1-2.4,1.5-3.8,1.5
	c-0.8,0-1.5-0.2-2-0.6c-0.5-0.4-0.8-1-0.8-1.7c0-1.1,0.6-2.2,1.8-3.1C362.8,115.3,364.1,114.8,365.4,114.8"/>
<path id="path530" d="M382.4,50.6c0.5,0,0.8,0.1,1,0.4c0.2,0.3,0.4,0.5,0.4,0.8c0,0.3,0.1,0.6,0.2,0.8c0.1,0.3,0.3,0.4,0.5,0.4
	c0.2,0,0.4-0.2,0.7-0.6c0.3-0.4,0.6-0.7,0.7-1c0.1-0.2,0.2-0.2,0.3-0.2c0,0,0,0,0,0c0.1,0,0.3,0.1,0.3,0.2l-4.5,16.7
	c-0.2,0.2-0.4,0.2-0.7,0.2c-0.3,0-0.5-0.1-0.7-0.2l2.5-8.2c-1.1,0.4-2,0.6-2.7,0.6c-0.6,0-1.1-0.2-1.5-0.6c-0.4-0.4-0.7-0.8-0.7-1.4
	c0-0.5,0.2-0.9,0.5-1.3c0.4-0.4,0.8-0.5,1.3-0.5c0.5,0,0.8,0.1,1,0.4c0.2,0.3,0.4,0.5,0.4,0.8c0,0.3,0.1,0.6,0.2,0.8
	c0.1,0.3,0.3,0.4,0.5,0.4c0.2,0,0.5-0.2,0.8-0.7c0.4-0.4,0.6-0.8,0.7-1l1.1-3.8c-1,0.4-1.9,0.6-2.6,0.6c-0.6,0-1.1-0.2-1.5-0.6
	c-0.4-0.4-0.7-0.8-0.7-1.4c0-0.5,0.2-0.9,0.5-1.3C381.5,50.8,381.9,50.6,382.4,50.6"/>
<path id="polyline536" class="st4" d="M387.1,110.8V91.7"/>
<path id="path542" d="M384.8,108.5c0.8,0,1.5,0.2,2,0.6c0.5,0.4,0.8,1,0.8,1.7c0,1.1-0.6,2.2-1.7,3.1c-1.2,1-2.4,1.5-3.8,1.5
	c-0.8,0-1.5-0.2-2-0.6c-0.5-0.4-0.8-1-0.8-1.7c0-1.1,0.6-2.2,1.8-3.1C382.2,109,383.5,108.5,384.8,108.5"/>
<path id="path550" d="M376.4,119.8c0,0.3-0.2,0.5-0.5,0.5s-0.5-0.2-0.5-0.5v-3.6l-2.1,0.8v4c0,0.3-0.2,0.5-0.5,0.5
	c-0.3,0-0.5-0.2-0.5-0.5v-3.6l-0.8,0.3c0,0-0.1,0-0.2,0c-0.1,0-0.2,0-0.3-0.1c-0.1-0.1-0.1-0.2-0.1-0.3v-1.5c0-0.2,0.1-0.4,0.3-0.5
	l1.1-0.4v-4l-0.8,0.3c0,0-0.1,0-0.2,0c-0.1,0-0.2,0-0.3-0.1s-0.1-0.2-0.1-0.3V109c0-0.2,0.1-0.4,0.3-0.4l1.1-0.4v-3.9
	c0-0.3,0.2-0.5,0.5-0.5c0.3,0,0.5,0.2,0.5,0.5v3.6l2.1-0.8v-4c0-0.3,0.2-0.5,0.5-0.5s0.5,0.2,0.5,0.5v3.6l0.8-0.3c0,0,0.1,0,0.2,0
	c0.1,0,0.3,0,0.4,0.1c0.1,0.1,0.1,0.2,0.1,0.3v1.5c0,0.2-0.1,0.4-0.3,0.5l-1.1,0.4v4l0.8-0.3c0,0,0.1,0,0.2,0c0.1,0,0.3,0,0.4,0.1
	c0.1,0.1,0.1,0.2,0.1,0.3v1.5c0,0.2-0.1,0.4-0.3,0.4l-1.1,0.4V119.8 M375.5,109.6l-2.1,0.7v4l2.1-0.7V109.6"/>
<path id="polyline556" class="st4" d="M405,67.1V44.8"/>
<path id="path562" d="M402.6,64.8c0.8,0,1.5,0.2,2,0.6c0.5,0.4,0.8,1,0.8,1.7c0,1.1-0.6,2.2-1.7,3.1c-1.2,1-2.4,1.5-3.8,1.5
	c-0.8,0-1.5-0.2-2-0.6c-0.5-0.4-0.8-1-0.8-1.7c0-1.1,0.6-2.2,1.8-3.1C400.1,65.3,401.3,64.8,402.6,64.8"/>
<path id="path568" d="M404.5,43.4l38.1-8v3.1l-38.1,8V43.4"/>
<path id="path570" d="M404.5,48.1l38.1-8v3.1l-38.1,8V48.1"/>
<path id="path576" d="M400.3,116.2c0.5,0,0.8,0.1,1,0.4c0.2,0.3,0.4,0.5,0.4,0.8c0,0.3,0.1,0.6,0.2,0.8c0.1,0.3,0.3,0.4,0.5,0.4
	c0.2,0,0.4-0.2,0.7-0.6c0.3-0.4,0.6-0.7,0.7-1c0.1-0.2,0.2-0.2,0.3-0.2c0,0,0,0,0,0c0.1,0,0.3,0.1,0.3,0.2l-4.5,16.7
	c-0.2,0.2-0.4,0.2-0.7,0.2c-0.3,0-0.5-0.1-0.7-0.2l2.5-8.2c-1.1,0.4-2,0.6-2.7,0.6c-0.6,0-1.1-0.2-1.5-0.6c-0.4-0.4-0.7-0.8-0.7-1.4
	c0-0.5,0.2-0.9,0.5-1.3c0.4-0.4,0.8-0.5,1.3-0.5c0.5,0,0.8,0.1,1,0.4c0.2,0.3,0.4,0.5,0.4,0.8c0,0.3,0.1,0.6,0.2,0.8
	c0.1,0.3,0.3,0.4,0.5,0.4c0.2,0,0.5-0.2,0.8-0.7c0.4-0.4,0.6-0.8,0.7-1l1.1-3.8c-1,0.4-1.9,0.6-2.6,0.6c-0.6,0-1.1-0.2-1.5-0.6
	c-0.4-0.4-0.7-0.8-0.7-1.4c0-0.5,0.2-0.9,0.5-1.3C399.3,116.4,399.8,116.2,400.3,116.2"/>
<path id="polyline582" class="st4" d="M424.3,60.8V40.8"/>
<path id="path588" d="M422,58.6c0.8,0,1.5,0.2,2,0.6c0.5,0.4,0.8,1,0.8,1.7c0,1.1-0.6,2.2-1.7,3.1c-1.2,1-2.4,1.5-3.8,1.5
	c-0.8,0-1.5-0.2-2-0.6c-0.5-0.4-0.8-1-0.8-1.7c0-1.1,0.6-2.2,1.8-3.1C419.5,59,420.7,58.6,422,58.6"/>
<path id="path596" d="M413.7,69.8c0,0.3-0.2,0.5-0.5,0.5s-0.5-0.2-0.5-0.5v-3.6l-2.1,0.8v4c0,0.3-0.2,0.5-0.5,0.5s-0.5-0.2-0.5-0.5
	v-3.6l-0.8,0.3c0,0-0.1,0-0.2,0c-0.1,0-0.2,0-0.3-0.1c-0.1-0.1-0.1-0.2-0.1-0.3v-1.5c0-0.2,0.1-0.4,0.3-0.5l1.1-0.4v-4L409,61
	c0,0-0.1,0-0.2,0c-0.1,0-0.2,0-0.3-0.1s-0.1-0.2-0.1-0.3V59c0-0.2,0.1-0.4,0.3-0.4l1.1-0.4v-3.9c0-0.3,0.2-0.5,0.5-0.5
	s0.5,0.2,0.5,0.5v3.6l2.1-0.8v-4c0-0.3,0.2-0.5,0.5-0.5s0.5,0.2,0.5,0.5v3.6l0.8-0.3c0,0,0.1,0,0.2,0c0.1,0,0.3,0,0.4,0.1
	c0.1,0.1,0.1,0.2,0.1,0.3v1.5c0,0.2-0.1,0.4-0.3,0.5l-1.1,0.4v4l0.8-0.3c0,0,0.1,0,0.2,0c0.1,0,0.3,0,0.4,0.1
	c0.1,0.1,0.1,0.2,0.1,0.3V65c0,0.2-0.1,0.4-0.3,0.4l-1.1,0.4V69.8 M412.8,59.6l-2.1,0.7v4l2.1-0.7V59.6"/>
<path id="path604" d="M418.3,116.2c0.5,0,0.8,0.1,1.1,0.4c0.2,0.3,0.4,0.5,0.4,0.8c0,0.3,0.1,0.6,0.2,0.8c0.1,0.3,0.3,0.4,0.6,0.4
	c0.2,0,0.4-0.2,0.8-0.6c0.4-0.4,0.6-0.7,0.7-1c0.1-0.2,0.2-0.2,0.3-0.2c0,0,0,0,0,0c0.2,0,0.3,0.1,0.3,0.2l-3.1,10.5
	c-0.2,0.2-0.4,0.2-0.7,0.2c-0.3,0-0.5-0.1-0.7-0.2l2.9-8.2c-1,0.4-1.9,0.6-2.6,0.6c-0.6,0-1.1-0.2-1.5-0.6c-0.4-0.4-0.7-0.8-0.7-1.4
	c0-0.5,0.2-0.9,0.5-1.3C417.4,116.4,417.8,116.2,418.3,116.2"/>
<path id="polyline610" class="st4" d="M442.2,54.6V37"/>
<path id="path616" d="M439.9,52.3c0.8,0,1.5,0.2,2,0.6c0.5,0.4,0.8,1,0.8,1.7c0,1.1-0.6,2.2-1.7,3.1c-1.2,1-2.4,1.5-3.8,1.5
	c-0.8,0-1.5-0.2-2-0.6c-0.5-0.4-0.8-1-0.8-1.7c0-1.1,0.6-2.2,1.8-3.1C437.3,52.8,438.6,52.3,439.9,52.3"/>
<path id="polyline622" class="st6" d="M452.8,43.3v90.6"/>
<path id="polyline626" class="st7" d="M453.3,43.3h109.1"/>
<path id="polyline628" class="st7" d="M453.3,49.5h109.1"/>
<path id="polyline630" class="st7" d="M453.3,55.8h109.1"/>
<path id="polyline632" class="st7" d="M453.3,62h109.1"/>
<path id="polyline634" class="st7" d="M453.3,68.3h109.1"/>
<path id="polyline638" class="st7" d="M453.3,108.9h109.1"/>
<path id="polyline640" class="st7" d="M453.3,115.1h109.1"/>
<path id="polyline642" class="st7" d="M453.3,121.4h109.1"/>
<path id="polyline644" class="st7" d="M453.3,127.6h109.1"/>
<path id="polyline646" class="st7" d="M453.3,133.9h109.1"/>
<path id="path652" d="M466.5,56.4c0.4,0,0.8,0.6,1.2,1.8c0.4,1.2,0.6,2.4,0.6,3.4c0,0.9-0.2,1.8-0.7,2.8c-0.5,1-1,1.8-1.7,2.5
	c0,0-0.7,0.7-2,2.2c-0.7,0.7-1.2,1.6-1.7,2.5c-0.5,0.9-0.7,1.9-0.7,2.8h-0.8v-6.2h0.8c0.6-0.3,1.2-0.8,2-1.3c0.4-0.3,1-0.8,1.8-1.5
	c0.6-0.6,1.1-1.2,1.4-1.8c0.3-0.7,0.5-1.3,0.5-2c0-1.5-0.4-3.1-1.3-4.6c0,0,0-0.1,0-0.1c0-0.1,0-0.3,0.1-0.4
	C466.1,56.5,466.3,56.4,466.5,56.4"/>
<path id="polyline658" class="st4" d="M461.2,53.8v20.7"/>
<path id="path664" d="M466.3,49.2c0.8,0,1.5,0.2,2,0.6c0.5,0.4,0.8,1,0.8,1.7c0,1.1-0.6,2.2-1.7,3.1c-1.2,1-2.4,1.5-3.8,1.5
	c-0.8,0-1.5-0.2-2-0.6c-0.5-0.4-0.8-1-0.8-1.7c0-1.1,0.6-2.2,1.8-3.1C463.7,49.7,464.9,49.2,466.3,49.2"/>
<path id="polyline670" class="st4" d="M461.2,131.9V151"/>
<path id="path676" d="M466.3,127.3c0.8,0,1.5,0.2,2,0.6c0.5,0.4,0.8,1,0.8,1.7c0,1.1-0.6,2.2-1.7,3.1c-1.2,1-2.4,1.5-3.8,1.5
	c-0.8,0-1.5-0.2-2-0.6c-0.5-0.4-0.8-1-0.8-1.7c0-1.1,0.6-2.2,1.8-3.1C463.7,127.8,464.9,127.3,466.3,127.3"/>
<path id="path682" d="M460.8,149.5l33.3-11.2v3.1l-33.3,11.2V149.5"/>
<path id="path684" d="M460.8,144.8l33.3-11.2v3.1l-33.3,11.2V144.8"/>
<path id="polyline688" class="st4" d="M477.4,119.4v26.2"/>
<path id="path694" d="M482.5,114.8c0.8,0,1.5,0.2,2,0.6c0.5,0.4,0.8,1,0.8,1.7c0,1.1-0.6,2.2-1.7,3.1c-1.2,1-2.4,1.5-3.8,1.5
	c-0.8,0-1.5-0.2-2-0.6c-0.5-0.4-0.8-1-0.8-1.7c0-1.1,0.6-2.2,1.8-3.1C479.9,115.3,481.2,114.8,482.5,114.8"/>
<path id="path702" d="M496.4,50.6c0.5,0,0.8,0.1,1,0.4c0.2,0.3,0.4,0.5,0.4,0.8c0,0.3,0.1,0.6,0.2,0.8c0.1,0.3,0.3,0.4,0.5,0.4
	c0.2,0,0.4-0.2,0.7-0.6c0.3-0.4,0.6-0.7,0.7-1c0.1-0.2,0.2-0.2,0.3-0.2c0,0,0,0,0,0c0.1,0,0.3,0.1,0.3,0.2l-4.5,16.7
	c-0.2,0.2-0.4,0.2-0.7,0.2c-0.3,0-0.5-0.1-0.7-0.2l2.5-8.2c-1.1,0.4-2,0.6-2.7,0.6c-0.6,0-1.1-0.2-1.5-0.6c-0.4-0.4-0.7-0.8-0.7-1.4
	c0-0.5,0.2-0.9,0.5-1.3c0.4-0.4,0.8-0.5,1.3-0.5c0.5,0,0.8,0.1,1,0.4c0.2,0.3,0.4,0.5,0.4,0.8c0,0.3,0.1,0.6,0.2,0.8
	c0.1,0.3,0.3,0.4,0.5,0.4c0.2,0,0.5-0.2,0.8-0.7c0.4-0.4,0.6-0.8,0.7-1l1.1-3.8c-1,0.4-1.9,0.6-2.6,0.6c-0.6,0-1.1-0.2-1.5-0.6
	c-0.4-0.4-0.7-0.8-0.7-1.4c0-0.5,0.2-0.9,0.5-1.3C495.4,50.8,495.9,50.6,496.4,50.6"/>
<path id="polyline708" class="st4" d="M493.7,110v30.1"/>
<path id="path714" d="M498.7,105.4c0.8,0,1.5,0.2,2,0.6c0.5,0.4,0.8,1,0.8,1.7c0,1.1-0.6,2.2-1.7,3.1c-1.2,1-2.4,1.5-3.8,1.5
	c-0.8,0-1.5-0.2-2-0.6c-0.5-0.4-0.8-1-0.8-1.7c0-1.1,0.6-2.2,1.8-3.1C496.2,105.9,497.4,105.4,498.7,105.4"/>
<path id="polyline720" class="st4" d="M517.3,67.1v-41"/>
<path id="path726" d="M515,64.8c0.8,0,1.5,0.2,2,0.6c0.5,0.4,0.8,1,0.8,1.7c0,1.1-0.6,2.2-1.7,3.1c-1.2,1-2.4,1.5-3.8,1.5
	c-0.8,0-1.5-0.2-2-0.6c-0.5-0.4-0.8-1-0.8-1.7c0-1.1,0.6-2.2,1.8-3.1C512.4,65.3,513.6,64.8,515,64.8"/>
<path id="path732" d="M516.9,24.5h36.4v3.1h-36.4V24.5"/>
<path id="path734" d="M516.9,29.2h36.4v3.1h-36.4V29.2"/>
<path id="path740" d="M512.6,116.2c0.5,0,0.8,0.1,1,0.4c0.2,0.3,0.4,0.5,0.4,0.8c0,0.3,0.1,0.6,0.2,0.8c0.1,0.3,0.3,0.4,0.5,0.4
	c0.2,0,0.4-0.2,0.7-0.6c0.3-0.4,0.6-0.7,0.7-1c0.1-0.2,0.2-0.2,0.3-0.2c0,0,0,0,0,0c0.1,0,0.3,0.1,0.3,0.2l-4.5,16.7
	c-0.2,0.2-0.4,0.2-0.7,0.2c-0.3,0-0.5-0.1-0.7-0.2l2.5-8.2c-1.1,0.4-2,0.6-2.7,0.6c-0.6,0-1.1-0.2-1.5-0.6c-0.4-0.4-0.7-0.8-0.7-1.4
	c0-0.5,0.2-0.9,0.5-1.3c0.4-0.4,0.8-0.5,1.3-0.5c0.5,0,0.8,0.1,1,0.4c0.2,0.3,0.4,0.5,0.4,0.8c0,0.3,0.1,0.6,0.2,0.8
	c0.1,0.3,0.3,0.4,0.5,0.4c0.2,0,0.5-0.2,0.8-0.7c0.4-0.4,0.6-0.8,0.7-1l1.1-3.8c-1,0.4-1.9,0.6-2.6,0.6c-0.6,0-1.1-0.2-1.5-0.6
	c-0.4-0.4-0.7-0.8-0.7-1.4c0-0.5,0.2-0.9,0.5-1.3C511.7,116.4,512.1,116.2,512.6,116.2"/>
<path id="polyline746" class="st4" d="M533.5,45.2V26.1"/>
<path id="path752" d="M531.2,42.9c0.8,0,1.5,0.2,2,0.6c0.5,0.4,0.8,1,0.8,1.7c0,1.1-0.6,2.2-1.7,3.1c-1.2,1-2.4,1.5-3.8,1.5
	c-0.8,0-1.5-0.2-2-0.6c-0.5-0.4-0.8-1-0.8-1.7c0-1.1,0.6-2.2,1.8-3.1C528.6,43.4,529.9,42.9,531.2,42.9"/>
<path id="path760" d="M527.5,116.2c0.5,0,0.8,0.1,1.1,0.4c0.2,0.3,0.4,0.5,0.4,0.8c0,0.3,0.1,0.6,0.2,0.8c0.1,0.3,0.3,0.4,0.6,0.4
	c0.2,0,0.4-0.2,0.8-0.6c0.4-0.4,0.6-0.7,0.7-1c0.1-0.2,0.2-0.2,0.3-0.2c0,0,0,0,0,0c0.2,0,0.3,0.1,0.3,0.2l-3.1,10.5
	c-0.2,0.2-0.4,0.2-0.7,0.2s-0.5-0.1-0.7-0.2l2.9-8.2c-1,0.4-1.9,0.6-2.6,0.6c-0.6,0-1.1-0.2-1.5-0.6c-0.4-0.4-0.7-0.8-0.7-1.4
	c0-0.5,0.2-0.9,0.5-1.3C526.6,116.4,527,116.2,527.5,116.2"/>
<path id="polyline766" class="st4" d="M552.9,48.3V26.1"/>
<path id="path772" d="M550.6,46.1c0.8,0,1.5,0.2,2,0.6c0.5,0.4,0.8,1,0.8,1.7c0,1.1-0.6,2.2-1.7,3.1c-1.2,1-2.4,1.5-3.8,1.5
	c-0.8,0-1.5-0.2-2-0.6c-0.5-0.4-0.8-1-0.8-1.7c0-1.1,0.6-2.2,1.8-3.1C548,46.6,549.3,46.1,550.6,46.1"/>
<path id="path780" d="M542.3,57.3c0,0.3-0.2,0.5-0.5,0.5s-0.5-0.2-0.5-0.5v-3.6l-2.1,0.8v4c0,0.3-0.2,0.5-0.5,0.5s-0.5-0.2-0.5-0.5
	v-3.6l-0.8,0.3c0,0-0.1,0-0.2,0c-0.1,0-0.2,0-0.3-0.1c-0.1-0.1-0.1-0.2-0.1-0.3v-1.5c0-0.2,0.1-0.4,0.3-0.5l1.1-0.4v-4l-0.8,0.3
	c0,0-0.1,0-0.2,0c-0.1,0-0.2,0-0.3-0.1c-0.1-0.1-0.1-0.2-0.1-0.3v-1.5c0-0.2,0.1-0.4,0.3-0.4l1.1-0.4v-3.9c0-0.3,0.2-0.5,0.5-0.5
	s0.5,0.2,0.5,0.5v3.6l2.1-0.8v-4c0-0.3,0.2-0.5,0.5-0.5s0.5,0.2,0.5,0.5v3.6l0.8-0.3c0,0,0.1,0,0.2,0c0.1,0,0.3,0,0.4,0.1
	c0.1,0.1,0.1,0.2,0.1,0.3v1.5c0,0.2-0.1,0.4-0.3,0.5l-1.1,0.4v4l0.8-0.3c0,0,0.1,0,0.2,0c0.1,0,0.3,0,0.4,0.1
	c0.1,0.1,0.1,0.2,0.1,0.3v1.5c0,0.2-0.1,0.4-0.3,0.4l-1.1,0.4V57.3 M541.3,47.1l-2.1,0.7v4l2.1-0.7V47.1"/>
<path id="polyline786" class="st6" d="M561.9,43.3v90.6"/>
<path id="polyline790" class="st7" d="M562.4,43.3h116.2"/>
<path id="polyline792" class="st7" d="M562.4,49.5h116.2"/>
<path id="polyline794" class="st7" d="M562.4,55.8h116.2"/>
<path id="polyline796" class="st7" d="M562.4,62h116.2"/>
<path id="polyline798" class="st7" d="M562.4,68.3h116.2"/>
<path id="polyline802" class="st7" d="M562.4,108.9h116.2"/>
<path id="polyline804" class="st7" d="M562.4,115.1h116.2"/>
<path id="polyline806" class="st7" d="M562.4,121.4h116.2"/>
<path id="polyline808" class="st7" d="M562.4,127.6h116.2"/>
<path id="polyline810" class="st7" d="M562.4,133.9h116.2"/>
<path id="polyline814" class="st4" d="M570.3,47.6v26.9"/>
<path id="path820" d="M575.4,42.9c0.8,0,1.5,0.2,2,0.6c0.5,0.4,0.8,1,0.8,1.7c0,1.1-0.6,2.2-1.7,3.1c-1.2,1-2.4,1.5-3.8,1.5
	c-0.8,0-1.5-0.2-2-0.6c-0.5-0.4-0.8-1-0.8-1.7c0-1.1,0.6-2.2,1.8-3.1C572.8,43.4,574,42.9,575.4,42.9"/>
<path id="path826" d="M569.9,72.9h90.8v3.1h-90.8L569.9,72.9"/>
<path id="path828" d="M569.9,68.3h90.8v3.1h-90.8L569.9,68.3"/>
<path id="path834" d="M624.4,119h-8.9c-0.2,0-0.2-0.1-0.2-0.2v-3.4c0-0.2,0.1-0.2,0.2-0.2h8.9c0.2,0,0.2,0.1,0.2,0.2v3.4
	C624.6,118.9,624.6,119,624.4,119"/>
<path id="polyline840" class="st4" d="M589.7,50.7v23.8"/>
<path id="path846" d="M594.7,46.1c0.8,0,1.5,0.2,2,0.6c0.5,0.4,0.8,1,0.8,1.7c0,1.1-0.6,2.2-1.7,3.1c-1.2,1-2.4,1.5-3.8,1.5
	c-0.8,0-1.5-0.2-2-0.6c-0.5-0.4-0.8-1-0.8-1.7c0-1.1,0.6-2.2,1.8-3.1C592.2,46.6,593.4,46.1,594.7,46.1"/>
<path id="path854" d="M586.4,57.3c0,0.3-0.2,0.5-0.5,0.5s-0.5-0.2-0.5-0.5v-3.6l-2.1,0.8v4c0,0.3-0.2,0.5-0.5,0.5s-0.5-0.2-0.5-0.5
	v-3.6l-0.8,0.3c0,0-0.1,0-0.2,0c-0.1,0-0.2,0-0.3-0.1c-0.1-0.1-0.1-0.2-0.1-0.3v-1.5c0-0.2,0.1-0.4,0.3-0.5l1.1-0.4v-4l-0.8,0.3
	c0,0-0.1,0-0.2,0c-0.1,0-0.2,0-0.3-0.1c-0.1-0.1-0.1-0.2-0.1-0.3v-1.5c0-0.2,0.1-0.4,0.3-0.4l1.1-0.4v-3.9c0-0.3,0.2-0.5,0.5-0.5
	s0.5,0.2,0.5,0.5v3.6l2.1-0.8v-4c0-0.3,0.2-0.5,0.5-0.5s0.5,0.2,0.5,0.5v3.6l0.8-0.3c0,0,0.1,0,0.2,0c0.1,0,0.3,0,0.4,0.1
	c0.1,0.1,0.1,0.2,0.1,0.3v1.5c0,0.2-0.1,0.4-0.3,0.5l-1.1,0.4v4l0.8-0.3c0,0,0.1,0,0.2,0c0.1,0,0.3,0,0.4,0.1
	c0.1,0.1,0.1,0.2,0.1,0.3v1.5c0,0.2-0.1,0.4-0.3,0.4l-1.1,0.4V57.3 M585.5,47.1l-2.1,0.7v4l2.1-0.7V47.1"/>
<path id="polyline860" class="st4" d="M607.3,47.6v26.9"/>
<path id="path866" d="M612.4,42.9c0.8,0,1.5,0.2,2,0.6c0.5,0.4,0.8,1,0.8,1.7c0,1.1-0.6,2.2-1.7,3.1c-1.2,1-2.4,1.5-3.8,1.5
	c-0.8,0-1.5-0.2-2-0.6c-0.5-0.4-0.8-1-0.8-1.7c0-1.1,0.6-2.2,1.8-3.1C609.8,43.4,611.1,42.9,612.4,42.9"/>
<path id="polyline872" class="st4" d="M625,56.9v17.6"/>
<path id="path878" d="M630.1,52.3c0.8,0,1.5,0.2,2,0.6c0.5,0.4,0.8,1,0.8,1.7c0,1.1-0.6,2.2-1.7,3.1c-1.2,1-2.4,1.5-3.8,1.5
	c-0.8,0-1.5-0.2-2-0.6c-0.5-0.4-0.8-1-0.8-1.7c0-1.1,0.6-2.2,1.8-3.1C627.5,52.8,628.7,52.3,630.1,52.3"/>
<path id="polyline884" class="st4" d="M642.6,50.7v23.8"/>
<path id="path890" d="M647.7,46.1c0.8,0,1.5,0.2,2,0.6c0.5,0.4,0.8,1,0.8,1.7c0,1.1-0.6,2.2-1.7,3.1c-1.2,1-2.4,1.5-3.8,1.5
	c-0.8,0-1.5-0.2-2-0.6c-0.5-0.4-0.8-1-0.8-1.7c0-1.1,0.6-2.2,1.8-3.1C645.1,46.6,646.4,46.1,647.7,46.1"/>
<path id="path898" d="M636.3,40.1c0.2-0.1,0.4-0.2,0.6-0.2c0.2,0,0.4,0.1,0.6,0.2l-0.1,4.6l2.7-0.5h0.1c0.3,0,0.4,0.1,0.4,0.4
	l0.2,14.3c-0.2,0.1-0.4,0.2-0.6,0.2c-0.2,0-0.4-0.1-0.6-0.2l0.1-4.6l-2.6,0.5h-0.1c-0.3,0-0.4-0.1-0.4-0.4L636.3,40.1 M639.7,51.9
	l0.1-5.2l-2.3,0.4l-0.1,5.2L639.7,51.9"/>
<path id="polyline904" class="st4" d="M660.3,53.8v20.7"/>
<path id="path910" d="M665.4,49.2c0.8,0,1.5,0.2,2,0.6c0.5,0.4,0.8,1,0.8,1.7c0,1.1-0.6,2.2-1.7,3.1c-1.2,1-2.4,1.5-3.8,1.5
	c-0.8,0-1.5-0.2-2-0.6c-0.5-0.4-0.8-1-0.8-1.7c0-1.1,0.6-2.2,1.8-3.1C662.8,49.7,664.1,49.2,665.4,49.2"/>
<path id="polyline916" class="st6" d="M678.1,43.3v90.6"/>
<path id="polyline920" class="st3" d="M31,43.3v90.6"/>
<path id="path924" class="st1" d="M27.9,75.5c0-7.3-5-14.4-5-21.4c0-3.5,1.4-6.9,5.6-10c0.1-0.1,0.1-0.1,0.1-0.1
	c0-0.1-0.3-0.3-0.6-0.3c-0.1,0-0.3,0-0.5,0.1c-5.5,3.9-7.3,8.5-7.3,13.1c0,7.4,5.4,14.5,5.4,21.6c0,3.5-1.4,6.8-5.6,9.9v0.1v0.1
	c4.2,3.1,5.6,6.4,5.6,9.9c0,7.1-5.4,14.2-5.4,21.6c0,4.6,1.8,9.1,7.3,13.1c0.1,0.1,0.3,0.1,0.5,0.1c0.2,0,0.6-0.2,0.6-0.3
	c0-0.1,0-0.1-0.1-0.1c-4.2-3.1-5.6-6.5-5.6-10c0-7,5-14.1,5-21.4c0-4.6-1.8-9.1-7.2-13.1C26.1,84.6,27.9,80.1,27.9,75.5"/>
<path id="path930" class="st1" d="M243.7,156.6c0,0.4,0.1,0.7,0.3,0.9c0.2,0.2,0.5,0.3,0.6,0.3c0.3,0,0.5-0.1,0.7-0.4
	c0.2-0.3,0.3-0.7,0.3-1c0-0.1,0.1-0.1,0.2-0.1c0.1,0,0.2,0,0.2,0.1c0,0.8-0.2,1.5-0.6,2.1c-0.4,0.7-0.9,1-1.4,1
	c-0.4,0-0.7-0.2-1-0.5c-0.3-0.3-0.5-0.8-0.5-1.4c0-1.2,0.6-2.3,1.7-3.3c1.2-1.1,2.7-1.6,4.5-1.6c1.3,0,2.3,0.4,3,1.1
	c0.7,0.8,1.1,1.6,1.1,2.4c0,0.5-0.1,0.9-0.4,1.2c-0.3,0.3-0.6,0.4-0.9,0.4c-0.7,0-1.5-0.7-2.2-2.2c0,0,0-0.1,0-0.1
	c0.1-0.1,0.1-0.1,0.2-0.1c0.1,0,0.1,0,0.1,0.1c0.1,0.2,0.3,0.4,0.5,0.6c0.2,0.2,0.4,0.2,0.7,0.2c0.2,0,0.4-0.1,0.6-0.2
	c0.2-0.1,0.2-0.4,0.2-0.7c0-0.6-0.3-1.1-0.8-1.6c-0.6-0.5-1.3-0.7-2.2-0.7h-0.2c-0.2,0.3-0.4,0.8-0.6,1.5c-0.2,0.7-0.4,1.1-0.4,1.2
	c0,0.4,0.4,1,1.2,2c0.8,1,1.2,1.7,1.2,2.1c0,0.3-0.5,1-1.4,2.2c0.4,0,0.8,0.2,1.4,0.4c0.5,0.2,0.9,0.5,1.2,0.7
	c0.1,0.1,0.3,0.1,0.5-0.1l0.9-0.7c-0.1-0.5-0.1-0.9-0.1-1.2c0-0.8,0.2-1.6,0.7-2.3c0.4-0.7,1-1,1.7-1c0.4,0,0.7,0.1,0.9,0.3
	c0.2,0.2,0.3,0.5,0.3,0.8c0,0.7-0.7,1.7-2,2.8l-0.3,0.2c0.2,0.3,0.3,0.6,0.4,0.7c0.1,0.2,0.2,0.4,0.4,0.5c0.1,0.1,0.2,0.3,0.3,0.3
	c0,0.1,0.1,0.1,0.3,0.1c0.1,0,0.3,0,0.3,0c0.1,0,0.2-0.1,0.4-0.2c0.2-0.2,0.4-0.3,0.5-0.4c0.1-0.1,0.3-0.3,0.6-0.5
	c-0.1-0.4-0.1-0.7-0.1-1c0-0.7,0.2-1.3,0.7-2c0.5-0.7,1-1.1,1.7-1.5c-0.7-0.9-1.4-1.7-2.4-2.3c-0.9-0.6-1.9-1-2.8-1.2
	c-0.1,0-0.1,0-0.1-0.1c0-0.1,0-0.2,0-0.2c0-0.1,0.1-0.1,0.1-0.1c2.3,0.4,4.2,1.4,5.8,2.9c1.6,1.5,2.5,3,2.5,4.6
	c0,0.9-0.3,1.7-0.8,2.4c-0.6,0.7-1.2,1.1-2,1.1c-0.5,0-1-0.2-1.4-0.6c-0.5-0.4-0.8-0.9-1-1.5c-1,0.9-1.7,1.5-2,1.7
	c-0.3,0.2-0.6,0.3-0.9,0.3c-0.3,0-0.6-0.2-0.8-0.5c-0.2-0.3-0.5-0.8-0.7-1.7c-0.2,0.1-0.5,0.4-1.1,0.9c-0.6,0.5-1,0.8-1.2,1
	c-0.3,0.2-0.5,0.2-0.6,0.2c-0.2,0-0.4-0.4-0.7-1.2c-0.3-0.8-0.6-1.2-0.9-1.3c-1,1.3-1.8,2.1-2.4,2.3c-0.2,0.1-0.4,0.2-0.6,0.2
	c-0.2,0-0.3-0.1-0.4-0.3c0-0.4,0.4-0.9,1.2-1.6c0.8-0.7,1.4-1,1.9-1.1c0.5-0.6,0.8-1,0.8-1.2c0-0.4-0.4-1.1-1.1-2
	c-0.7-0.9-1.1-1.5-1.1-1.8c0-0.3,0.2-1,0.6-2c0.4-1.1,0.7-1.7,0.9-2c-1.3,0.1-2.4,0.5-3.2,1.3C244.1,155.1,243.7,155.9,243.7,156.6
	 M254.5,158.8c-0.3,0-0.5,0.1-0.7,0.3c-0.2,0.2-0.3,0.6-0.3,1c0,0.5,0.1,1,0.4,1.5c1-0.9,1.5-1.6,1.6-2.1c0-0.2-0.1-0.4-0.3-0.6
	C254.9,158.8,254.7,158.8,254.5,158.8 M259.7,158.5c-0.4,0.2-0.8,0.7-1,1.2c-0.2,0.6-0.4,1.2-0.4,1.8c0,0.7,0.1,1.3,0.4,1.9
	c0.3,0.6,0.6,0.8,1.1,0.8c0.4,0,0.7-0.2,0.9-0.6c0.2-0.4,0.3-0.9,0.3-1.4C260.9,161,260.5,159.7,259.7,158.5"/>
<path id="polyline936" class="st8" d="M265.7,158.9h68.7"/>
<path id="polyline938" class="st8" d="M334.4,158.9v-7.5"/>
<path id="path944" d="M343.1,156.6c0,0.4,0.1,0.7,0.3,0.9c0.2,0.2,0.5,0.3,0.6,0.3c0.3,0,0.5-0.1,0.7-0.4c0.2-0.3,0.3-0.7,0.3-1
	c0-0.1,0.1-0.1,0.2-0.1c0.1,0,0.2,0,0.2,0.1c0,0.8-0.2,1.5-0.6,2.1c-0.4,0.7-0.9,1-1.4,1c-0.4,0-0.7-0.2-1-0.5
	c-0.3-0.3-0.5-0.8-0.5-1.4c0-1.2,0.6-2.3,1.7-3.3c1.2-1.1,2.7-1.6,4.5-1.6c1.3,0,2.3,0.4,3,1.1c0.7,0.8,1.1,1.6,1.1,2.4
	c0,0.5-0.1,0.9-0.4,1.2c-0.3,0.3-0.6,0.4-0.9,0.4c-0.7,0-1.5-0.7-2.2-2.2c0,0,0-0.1,0-0.1c0.1-0.1,0.1-0.1,0.2-0.1
	c0.1,0,0.1,0,0.1,0.1c0.1,0.2,0.3,0.4,0.5,0.6c0.2,0.2,0.4,0.2,0.7,0.2c0.2,0,0.4-0.1,0.6-0.2c0.2-0.1,0.2-0.4,0.2-0.7
	c0-0.6-0.3-1.1-0.8-1.6c-0.6-0.5-1.3-0.7-2.2-0.7h-0.2c-0.2,0.3-0.4,0.8-0.6,1.5c-0.2,0.7-0.4,1.1-0.4,1.2c0,0.4,0.4,1,1.2,2
	c0.8,1,1.2,1.7,1.2,2.1c0,0.3-0.5,1-1.4,2.2c0.4,0,0.8,0.2,1.4,0.4c0.5,0.2,0.9,0.5,1.2,0.7c0.1,0.1,0.3,0.1,0.5-0.1l0.9-0.7
	c-0.1-0.5-0.1-0.9-0.1-1.2c0-0.8,0.2-1.6,0.7-2.3c0.4-0.7,1-1,1.7-1c0.4,0,0.7,0.1,0.9,0.3c0.2,0.2,0.3,0.5,0.3,0.8
	c0,0.7-0.7,1.7-2,2.8l-0.3,0.2c0.2,0.3,0.3,0.6,0.4,0.7c0.1,0.2,0.2,0.4,0.4,0.5c0.1,0.1,0.2,0.3,0.3,0.3c0,0.1,0.1,0.1,0.3,0.1
	c0.1,0,0.3,0,0.3,0c0.1,0,0.2-0.1,0.4-0.2c0.2-0.2,0.4-0.3,0.5-0.4c0.1-0.1,0.3-0.3,0.6-0.5c-0.1-0.4-0.1-0.7-0.1-1
	c0-0.7,0.2-1.3,0.7-2c0.5-0.7,1-1.1,1.7-1.5c-0.7-0.9-1.4-1.7-2.4-2.3c-0.9-0.6-1.9-1-2.8-1.2c-0.1,0-0.1,0-0.1-0.1
	c0-0.1,0-0.2,0-0.2c0-0.1,0.1-0.1,0.1-0.1c2.3,0.4,4.2,1.4,5.8,2.9c1.6,1.5,2.5,3,2.5,4.6c0,0.9-0.3,1.7-0.8,2.4
	c-0.6,0.7-1.2,1.1-2,1.1c-0.5,0-1-0.2-1.4-0.6c-0.5-0.4-0.8-0.9-1-1.5c-1,0.9-1.7,1.5-2,1.7c-0.3,0.2-0.6,0.3-0.9,0.3
	c-0.3,0-0.6-0.2-0.8-0.5c-0.2-0.3-0.5-0.8-0.7-1.7c-0.2,0.1-0.5,0.4-1.1,0.9c-0.6,0.5-1,0.8-1.2,1c-0.3,0.2-0.5,0.2-0.6,0.2
	c-0.2,0-0.4-0.4-0.7-1.2c-0.3-0.8-0.6-1.2-0.9-1.3c-1,1.3-1.8,2.1-2.4,2.3c-0.2,0.1-0.4,0.2-0.6,0.2c-0.2,0-0.3-0.1-0.4-0.3
	c0-0.4,0.4-0.9,1.2-1.6c0.8-0.7,1.4-1,1.9-1.1c0.5-0.6,0.8-1,0.8-1.2c0-0.4-0.4-1.1-1.1-2c-0.7-0.9-1.1-1.5-1.1-1.8
	c0-0.3,0.2-1,0.6-2c0.4-1.1,0.7-1.7,0.9-2c-1.3,0.1-2.4,0.5-3.2,1.3C343.6,155.1,343.1,155.9,343.1,156.6 M353.9,158.8
	c-0.3,0-0.5,0.1-0.7,0.3c-0.2,0.2-0.3,0.6-0.3,1c0,0.5,0.1,1,0.4,1.5c1-0.9,1.5-1.6,1.6-2.1c0-0.2-0.1-0.4-0.3-0.6
	C354.4,158.8,354.2,158.8,353.9,158.8 M359.1,158.5c-0.4,0.2-0.8,0.7-1,1.2c-0.2,0.6-0.4,1.2-0.4,1.8c0,0.7,0.1,1.3,0.4,1.9
	s0.6,0.8,1.1,0.8c0.4,0,0.7-0.2,0.9-0.6c0.2-0.4,0.3-0.9,0.3-1.4C360.4,161,359.9,159.7,359.1,158.5"/>
<path id="polyline950" class="st8" d="M365.2,158.9h87.9"/>
<path id="polyline952" class="st8" d="M453.1,158.9v-7.5"/>
<path id="path958" d="M461.9,156.6c0,0.4,0.1,0.7,0.3,0.9c0.2,0.2,0.5,0.3,0.6,0.3c0.3,0,0.5-0.1,0.7-0.4c0.2-0.3,0.3-0.7,0.3-1
	c0-0.1,0.1-0.1,0.2-0.1c0.1,0,0.2,0,0.2,0.1c0,0.8-0.2,1.5-0.6,2.1c-0.4,0.7-0.9,1-1.4,1c-0.4,0-0.7-0.2-1-0.5
	c-0.3-0.3-0.5-0.8-0.5-1.4c0-1.2,0.6-2.3,1.7-3.3c1.2-1.1,2.7-1.6,4.5-1.6c1.3,0,2.3,0.4,3,1.1c0.7,0.8,1.1,1.6,1.1,2.4
	c0,0.5-0.1,0.9-0.4,1.2c-0.3,0.3-0.6,0.4-0.9,0.4c-0.7,0-1.5-0.7-2.2-2.2c0,0,0-0.1,0-0.1c0.1-0.1,0.1-0.1,0.2-0.1s0.1,0,0.1,0.1
	c0.1,0.2,0.3,0.4,0.5,0.6c0.2,0.2,0.4,0.2,0.7,0.2c0.2,0,0.4-0.1,0.6-0.2c0.2-0.1,0.2-0.4,0.2-0.7c0-0.6-0.3-1.1-0.8-1.6
	c-0.6-0.5-1.3-0.7-2.2-0.7h-0.2c-0.2,0.3-0.4,0.8-0.6,1.5c-0.2,0.7-0.4,1.1-0.4,1.2c0,0.4,0.4,1,1.2,2c0.8,1,1.2,1.7,1.2,2.1
	c0,0.3-0.5,1-1.4,2.2c0.4,0,0.8,0.2,1.4,0.4c0.5,0.2,0.9,0.5,1.2,0.7c0.1,0.1,0.3,0.1,0.5-0.1l0.9-0.7c-0.1-0.5-0.1-0.9-0.1-1.2
	c0-0.8,0.2-1.6,0.7-2.3c0.4-0.7,1-1,1.7-1c0.4,0,0.7,0.1,0.9,0.3c0.2,0.2,0.3,0.5,0.3,0.8c0,0.7-0.7,1.7-2,2.8l-0.3,0.2
	c0.2,0.3,0.3,0.6,0.4,0.7c0.1,0.2,0.2,0.4,0.4,0.5c0.1,0.1,0.2,0.3,0.3,0.3c0,0.1,0.1,0.1,0.3,0.1c0.1,0,0.3,0,0.3,0
	c0.1,0,0.2-0.1,0.4-0.2c0.2-0.2,0.4-0.3,0.5-0.4c0.1-0.1,0.3-0.3,0.6-0.5c-0.1-0.4-0.1-0.7-0.1-1c0-0.7,0.2-1.3,0.7-2
	c0.5-0.7,1-1.1,1.7-1.5c-0.7-0.9-1.4-1.7-2.4-2.3c-0.9-0.6-1.9-1-2.8-1.2c-0.1,0-0.1,0-0.1-0.1c0-0.1,0-0.2,0-0.2
	c0-0.1,0.1-0.1,0.1-0.1c2.3,0.4,4.2,1.4,5.8,2.9c1.6,1.5,2.5,3,2.5,4.6c0,0.9-0.3,1.7-0.8,2.4c-0.6,0.7-1.2,1.1-2,1.1
	c-0.5,0-1-0.2-1.4-0.6c-0.5-0.4-0.8-0.9-1-1.5c-1,0.9-1.7,1.5-2,1.7c-0.3,0.2-0.6,0.3-0.9,0.3c-0.3,0-0.6-0.2-0.8-0.5
	c-0.2-0.3-0.5-0.8-0.7-1.7c-0.2,0.1-0.5,0.4-1.1,0.9c-0.6,0.5-1,0.8-1.2,1c-0.3,0.2-0.5,0.2-0.6,0.2c-0.2,0-0.4-0.4-0.7-1.2
	c-0.3-0.8-0.6-1.2-0.9-1.3c-1,1.3-1.8,2.1-2.4,2.3c-0.2,0.1-0.4,0.2-0.6,0.2c-0.2,0-0.3-0.1-0.4-0.3c0-0.4,0.4-0.9,1.2-1.6
	c0.8-0.7,1.4-1,1.9-1.1c0.5-0.6,0.8-1,0.8-1.2c0-0.4-0.4-1.1-1.1-2c-0.7-0.9-1.1-1.5-1.1-1.8c0-0.3,0.2-1,0.6-2
	c0.4-1.1,0.7-1.7,0.9-2c-1.3,0.1-2.4,0.5-3.2,1.3C462.3,155.1,461.9,155.9,461.9,156.6 M472.6,158.8c-0.3,0-0.5,0.1-0.7,0.3
	c-0.2,0.2-0.3,0.6-0.3,1c0,0.5,0.1,1,0.4,1.5c1-0.9,1.5-1.6,1.6-2.1c0-0.2-0.1-0.4-0.3-0.6C473.1,158.8,472.9,158.8,472.6,158.8
	 M477.8,158.5c-0.4,0.2-0.8,0.7-1,1.2c-0.2,0.6-0.4,1.2-0.4,1.8c0,0.7,0.1,1.3,0.4,1.9c0.3,0.6,0.6,0.8,1.1,0.8
	c0.4,0,0.7-0.2,0.9-0.6c0.2-0.4,0.3-0.9,0.3-1.4C479.1,161,478.7,159.7,477.8,158.5"/>
<path id="polyline964" class="st8" d="M483.9,158.9h78.3"/>
<path id="polyline966" class="st8" d="M562.2,158.9v-7.5"/>
</svg>
