<svg id="Layer_1" data-name="Layer 1" xmlns="http://www.w3.org/2000/svg" viewBox="0 0 220.37 42.46"><defs><style>.cls-1,.cls-3,.cls-4,.cls-5{fill:none;stroke-linejoin:bevel;}.cls-1,.cls-2,.cls-3,.cls-4{stroke:#fff;}.cls-1{stroke-width:1.67px;}.cls-2{stroke-miterlimit:10;}.cls-3,.cls-5{stroke-linecap:round;stroke-width:2.71px;}.cls-4{stroke-width:3.33px;}.cls-5{stroke:#000;}</style></defs><title>Fur_Elise</title><path id="polyline14" class="cls-1" d="M-29.5,8.76H58.88"/><path id="polyline16" class="cls-1" d="M-29.5,15H58.88"/><path id="polyline18" class="cls-1" d="M-29.5,21.25H58.88"/><path id="polyline20" class="cls-1" d="M-29.5,27.5H58.88"/><path id="polyline22" class="cls-1" d="M-29.5,33.75H58.88"/><path id="path56" class="cls-2" d="M5.07,14.64a0.61,0.61,0,0,0,.27.46l0.61,0.44a1.88,1.88,0,0,1,.61.78,3.35,3.35,0,0,1,.27,1.44,3,3,0,0,1-1.24,2.59,5.42,5.42,0,0,1-3.22.9,4.65,4.65,0,0,1-2.68-.78A2.33,2.33,0,0,1-1.5,18.42,1.6,1.6,0,0,1-1,17.25a1.64,1.64,0,0,1,1.17-.46,1.49,1.49,0,0,1,1.12.49,1.57,1.57,0,0,1,.49,1.15,1,1,0,0,1-.49.68,0.91,0.91,0,0,0-.51.66,0.72,0.72,0,0,0,.46.68,2.61,2.61,0,0,0,1.12.22,1.25,1.25,0,0,0,1.22-.83,5.59,5.59,0,0,0,.34-2.07V17.35a11.62,11.62,0,0,0,0-1.24,1.4,1.4,0,0,0-.34-0.76A1,1,0,0,0,2.68,15h-2a0.31,0.31,0,0,1-.34-0.37,0.33,0.33,0,0,1,.34-0.37h2a1.09,1.09,0,0,0,1-.44,2.7,2.7,0,0,0,.27-1.22v-1q0-2.27-1.66-2.27-1.46,0-1.49.81a0.84,0.84,0,0,0,.46.59,0.84,0.84,0,0,1,.44.59,1.43,1.43,0,0,1-.44,1,1.39,1.39,0,0,1-1,.41,1.36,1.36,0,0,1-1-.41,1.48,1.48,0,0,1-.41-1,2.18,2.18,0,0,1,1-1.88,4.3,4.3,0,0,1,2.44-.68,5.79,5.79,0,0,1,3,.71,2.33,2.33,0,0,1,1.2,2.15,4.52,4.52,0,0,1-.22,1.59,1.19,1.19,0,0,1-.49.68,2.43,2.43,0,0,0-.49.29,0.56,0.56,0,0,0-.22.46"/><path id="path64" class="cls-2" d="M4.35,26.55A3.84,3.84,0,0,0,5.57,24a1.83,1.83,0,0,0-.85-1.59,3.54,3.54,0,0,0-2.05-.59,1.8,1.8,0,0,0-1.37.54A1.72,1.72,0,0,0,.78,23.6a1.46,1.46,0,0,0,.76,1.32l2.81,1.64M5.1,27a3.6,3.6,0,0,1,2.07,3.2,3.19,3.19,0,0,1-1.24,2.51,5.24,5.24,0,0,1-3.49,1.07,5.29,5.29,0,0,1-3.2-1,3,3,0,0,1-1.37-2.51,2.44,2.44,0,0,1,.34-1.2,4.4,4.4,0,0,1,.63-0.88,12,12,0,0,1,.93-0.93A3.2,3.2,0,0,1-1.75,24.6a3,3,0,0,1,1.2-2.37,4.88,4.88,0,0,1,3.22-1A5.32,5.32,0,0,1,5.49,22a2.28,2.28,0,0,1,1.17,2A4.75,4.75,0,0,1,5.1,27m-4.56.73A3.75,3.75,0,0,0-1,30.26a2.54,2.54,0,0,0,1,2.07,3.72,3.72,0,0,0,2.42.83A2,2,0,0,0,4,32.53a2,2,0,0,0,.59-1.44,1.64,1.64,0,0,0-.85-1.54L0.54,27.7"/><path id="polyline86" class="cls-3" d="M18,13.06V32.19"/><path id="path92" class="cls-2" d="M23.05,8.44a3.05,3.05,0,0,1,2,.61,2.06,2.06,0,0,1,.76,1.66,4.15,4.15,0,0,1-1.73,3.15,5.77,5.77,0,0,1-3.76,1.46,3.05,3.05,0,0,1-2-.61,2.06,2.06,0,0,1-.76-1.66,4.14,4.14,0,0,1,1.76-3.15,5.68,5.68,0,0,1,3.73-1.46"/><path id="path98" class="cls-2" d="M17.56,30.63l21,1.63v3.12l-21-1.63V30.63"/><path id="path100" class="cls-2" d="M17.56,25.94l21,1.63v3.12l-21-1.63V25.94"/><path id="path122" class="cls-2" d="M17.57,43.64a1.56,1.56,0,0,0-1.22.73,5.37,5.37,0,0,0-.88,1.68,5.19,5.19,0,0,0-.29,1.56q0,0.93.71,0.93a1.35,1.35,0,0,0,1-.46,4.9,4.9,0,0,0,.85-1.81,8.2,8.2,0,0,0,.37-1.85q0-.78-0.59-0.78m-3.76-1.17a1.74,1.74,0,0,1,1.1.34,1.59,1.59,0,0,1,.61.9,4.19,4.19,0,0,1,1.17-.9A2.76,2.76,0,0,1,18,42.46a2.33,2.33,0,0,1,1.85.76,2.87,2.87,0,0,1,.66,2,4.12,4.12,0,0,1-1.39,3.22,3.59,3.59,0,0,1-2.29,1.07,3.75,3.75,0,0,1-1-.12,3.1,3.1,0,0,1-.66-0.22A1,1,0,0,0,14.78,49a0.4,0.4,0,0,0-.41.24L13.44,52v0.12q0,0.22.37,0.27l0.76,0.07q0.37,0,.37.2a0.15,0.15,0,0,1-.17.17q-2-.12-2.86-0.12T9,52.81a0.16,0.16,0,0,1-.2-0.17q0-.15.34-0.22t1.29,0a0.55,0.55,0,0,0,.61-0.32l2.64-7.64a1,1,0,0,0,.07-0.37,0.37,0.37,0,0,0-.39-0.44,1.71,1.71,0,0,0-1.2.73,6.6,6.6,0,0,0-1,1.56,0.35,0.35,0,0,1-.34.22A0.14,0.14,0,0,1,10.76,46a0.83,0.83,0,0,1,.12-0.39,12,12,0,0,1,1-1.9,3.55,3.55,0,0,1,.85-0.85,1.72,1.72,0,0,1,1-.39m12.43,1.17a1.56,1.56,0,0,0-1.22.73,5.37,5.37,0,0,0-.88,1.68,5.19,5.19,0,0,0-.29,1.56q0,0.93.71,0.93a1.35,1.35,0,0,0,1-.46,4.9,4.9,0,0,0,.85-1.81,8.2,8.2,0,0,0,.37-1.85q0-.78-0.59-0.78m-3.76-1.17a1.73,1.73,0,0,1,1.1.34,1.59,1.59,0,0,1,.61.9,4.19,4.19,0,0,1,1.17-.9,2.76,2.76,0,0,1,1.27-.34,2.33,2.33,0,0,1,1.85.76,2.87,2.87,0,0,1,.66,2,4.12,4.12,0,0,1-1.39,3.22,3.59,3.59,0,0,1-2.29,1.07,3.75,3.75,0,0,1-1-.12,3.1,3.1,0,0,1-.66-0.22A1,1,0,0,0,23.45,49a0.4,0.4,0,0,0-.42.24L22.11,52v0.12q0,0.22.37,0.27l0.76,0.07q0.37,0,.37.2a0.15,0.15,0,0,1-.17.17q-2-.12-2.86-0.12t-2.86.12a0.16,0.16,0,0,1-.2-0.17q0-.15.34-0.22t1.29,0a0.55,0.55,0,0,0,.61-0.32l2.64-7.64a1,1,0,0,0,.07-0.37,0.37,0.37,0,0,0-.39-0.44,1.71,1.71,0,0,0-1.2.73,6.6,6.6,0,0,0-1,1.56,0.35,0.35,0,0,1-.34.22A0.14,0.14,0,0,1,19.43,46a0.83,0.83,0,0,1,.12-0.39,12,12,0,0,1,1-1.9,3.55,3.55,0,0,1,.85-0.85,1.72,1.72,0,0,1,1-.39"/><path id="polyline136" class="cls-3" d="M38.13,16.18V33.75"/><path id="path142" class="cls-2" d="M43.21,11.57a3.05,3.05,0,0,1,2,.61,2.06,2.06,0,0,1,.76,1.66A4.15,4.15,0,0,1,44.21,17a5.77,5.77,0,0,1-3.76,1.46,3.05,3.05,0,0,1-2-.61,2.06,2.06,0,0,1-.76-1.66A4.14,4.14,0,0,1,39.48,13a5.68,5.68,0,0,1,3.73-1.46"/><path id="path150" class="cls-2" d="M34.87,22.79a0.46,0.46,0,0,1-.93,0V19.18L31.87,20v4a0.46,0.46,0,1,1-.93,0V20.28l-0.78.29a0.51,0.51,0,0,1-.2,0,0.5,0.5,0,0,1-.49-0.49V18.59a0.46,0.46,0,0,1,.32-0.46l1.15-.39v-4L30.16,14a0.51,0.51,0,0,1-.2,0,0.5,0.5,0,0,1-.49-0.49V12a0.44,0.44,0,0,1,.32-0.44l1.15-.44V7.22a0.46,0.46,0,0,1,.93,0v3.61l2.07-.78v-4a0.46,0.46,0,0,1,.93,0V9.73l0.81-.29a0.42,0.42,0,0,1,.17,0,0.55,0.55,0,0,1,.37.15,0.47,0.47,0,0,1,.15.34v1.51a0.46,0.46,0,0,1-.34.46l-1.15.39v4L35.67,16a0.42,0.42,0,0,1,.17,0,0.55,0.55,0,0,1,.37.15,0.47,0.47,0,0,1,.15.34V18a0.45,0.45,0,0,1-.34.44l-1.15.44v3.93M33.94,12.64l-2.07.73v4l2.07-.73v-4"/><path id="polyline156" class="cls-4" d="M58.38,8.76v90.6"/><path id="polyline160" class="cls-1" d="M58.88,8.76h116.2"/><path id="polyline162" class="cls-1" d="M58.88,15h116.2"/><path id="polyline164" class="cls-1" d="M58.88,21.25h116.2"/><path id="polyline166" class="cls-1" d="M58.88,27.5h116.2"/><path id="polyline168" class="cls-1" d="M58.88,33.75h116.2"/><path id="polyline184" class="cls-3" d="M66.79,13.06V40"/><path id="path190" class="cls-2" d="M71.87,8.44a3.05,3.05,0,0,1,2,.61,2.06,2.06,0,0,1,.76,1.66,4.15,4.15,0,0,1-1.73,3.15,5.77,5.77,0,0,1-3.76,1.46,3.05,3.05,0,0,1-2-.61,2.06,2.06,0,0,1-.76-1.66,4.14,4.14,0,0,1,1.76-3.15,5.68,5.68,0,0,1,3.73-1.46"/><path id="path196" class="cls-2" d="M66.38,38.44h90.85v3.12H66.38V38.44"/><path id="path198" class="cls-2" d="M66.38,33.75h90.85v3.12H66.38V33.75"/><path id="polyline210" class="cls-3" d="M86.17,16.18V40"/><path id="path216" class="cls-2" d="M91.26,11.57a3.05,3.05,0,0,1,2,.61A2.06,2.06,0,0,1,94,13.83,4.15,4.15,0,0,1,92.26,17a5.77,5.77,0,0,1-3.76,1.46,3.05,3.05,0,0,1-2-.61,2.06,2.06,0,0,1-.76-1.66A4.14,4.14,0,0,1,87.52,13a5.68,5.68,0,0,1,3.73-1.46"/><path id="path224" class="cls-2" d="M82.91,22.79a0.46,0.46,0,0,1-.93,0V19.18L79.91,20v4a0.46,0.46,0,1,1-.93,0V20.28l-0.78.29a0.51,0.51,0,0,1-.2,0,0.5,0.5,0,0,1-.49-0.49V18.59a0.46,0.46,0,0,1,.32-0.46L79,17.74v-4L78.2,14a0.51,0.51,0,0,1-.2,0,0.5,0.5,0,0,1-.49-0.49V12a0.44,0.44,0,0,1,.32-0.44L79,11.15V7.22a0.46,0.46,0,0,1,.93,0v3.61L82,10.05v-4a0.46,0.46,0,0,1,.93,0V9.73l0.81-.29a0.42,0.42,0,0,1,.17,0,0.55,0.55,0,0,1,.37.15,0.47,0.47,0,0,1,.15.34v1.51a0.46,0.46,0,0,1-.34.46l-1.15.39v4L83.72,16a0.42,0.42,0,0,1,.17,0,0.55,0.55,0,0,1,.37.15,0.47,0.47,0,0,1,.15.34V18a0.45,0.45,0,0,1-.34.44l-1.15.44v3.93M82,12.64l-2.07.73v4L82,16.64v-4"/><path id="polyline230" class="cls-3" d="M103.83,13.06V40"/><path id="path236" class="cls-2" d="M108.92,8.44a3.05,3.05,0,0,1,2,.61,2.06,2.06,0,0,1,.76,1.66,4.15,4.15,0,0,1-1.73,3.15,5.77,5.77,0,0,1-3.76,1.46,3.05,3.05,0,0,1-2-.61,2.06,2.06,0,0,1-.76-1.66,4.14,4.14,0,0,1,1.76-3.15,5.68,5.68,0,0,1,3.73-1.46"/><path id="polyline242" class="cls-3" d="M121.5,22.43V40"/><path id="path248" class="cls-2" d="M126.58,17.81a3.05,3.05,0,0,1,2,.61,2.06,2.06,0,0,1,.76,1.66,4.15,4.15,0,0,1-1.73,3.15,5.77,5.77,0,0,1-3.76,1.46,3.05,3.05,0,0,1-2-.61,2.06,2.06,0,0,1-.76-1.66,4.14,4.14,0,0,1,1.76-3.15,5.68,5.68,0,0,1,3.73-1.46"/><path id="polyline254" class="cls-3" d="M139.16,16.18V40"/><path id="path260" class="cls-2" d="M144.25,11.57a3.05,3.05,0,0,1,2,.61,2.06,2.06,0,0,1,.76,1.66A4.15,4.15,0,0,1,145.25,17a5.77,5.77,0,0,1-3.76,1.46,3.05,3.05,0,0,1-2-.61,2.06,2.06,0,0,1-.76-1.66A4.14,4.14,0,0,1,140.51,13a5.68,5.68,0,0,1,3.73-1.46"/><path id="path268" class="cls-2" d="M132.83,5.63a1.26,1.26,0,0,1,1.27,0L134,10.2l2.66-.49h0.1a0.38,0.38,0,0,1,.44.41l0.17,14.25a1.26,1.26,0,0,1-1.27,0l0.07-4.56-2.64.49h-0.1a0.38,0.38,0,0,1-.44-0.41l-0.2-14.25m3.39,11.74,0.07-5.17-2.29.44-0.07,5.17,2.29-.44"/><path id="polyline274" class="cls-3" d="M156.82,19.3V40"/><path id="path280" class="cls-2" d="M161.91,14.69a3.05,3.05,0,0,1,2,.61,2.06,2.06,0,0,1,.76,1.66,4.15,4.15,0,0,1-1.73,3.15,5.77,5.77,0,0,1-3.76,1.46,3.05,3.05,0,0,1-2-.61,2.06,2.06,0,0,1-.76-1.66,4.14,4.14,0,0,1,1.76-3.15,5.68,5.68,0,0,1,3.73-1.46"/><path id="polyline286" class="cls-4" d="M174.58,8.76v90.6"/><path id="polyline290" class="cls-1" d="M175.08,8.76h99.47"/><path id="polyline292" class="cls-1" d="M175.08,15h99.47"/><path id="polyline294" class="cls-1" d="M175.08,21.25h99.47"/><path id="polyline296" class="cls-1" d="M175.08,27.5h99.47"/><path id="polyline298" class="cls-1" d="M175.08,33.75h99.47"/><path id="path316" d="M190,10.32V4.07h0.78a8,8,0,0,0,.54,2.78,15.26,15.26,0,0,0,1.29,2.64L194.12,12a15,15,0,0,1,1.32,2.66A7.81,7.81,0,0,1,196,17.4a14.19,14.19,0,0,1-1,5.17,0.52,0.52,0,0,1-.46.29,0.61,0.61,0,0,1-.44-0.2,0.5,0.5,0,0,1-.15-0.37V22.18a12.18,12.18,0,0,0,1-4.78,5.78,5.78,0,0,0-.73-2.64,11.92,11.92,0,0,0-1.49-2.29q-0.76-.9-2-2.15H190"/><path id="polyline322" class="cls-5" d="M190.37,23.21V4.07"/><path id="path328" class="cls-2" d="M188.07,20.94a3.05,3.05,0,0,1,2,.61,2.06,2.06,0,0,1,.76,1.66,4.15,4.15,0,0,1-1.73,3.15,5.77,5.77,0,0,1-3.76,1.46,3.05,3.05,0,0,1-2-.61,2.06,2.06,0,0,1-.76-1.66,4.14,4.14,0,0,1,1.76-3.15,5.68,5.68,0,0,1,3.73-1.46"/><path id="path366" d="M216,16.13a1.32,1.32,0,0,1,1,.39,1.67,1.67,0,0,1,.41.83,2.25,2.25,0,0,0,.24.83,0.56,0.56,0,0,0,.54.39A1.36,1.36,0,0,0,219,18a6.25,6.25,0,0,0,.71-1,0.38,0.38,0,0,1,.34-0.24h0a0.38,0.38,0,0,1,.32.24l-4.47,16.74a1.08,1.08,0,0,1-1.37,0l2.51-8.18a8.33,8.33,0,0,1-2.66.59,2.21,2.21,0,0,1-1.51-.56,1.78,1.78,0,0,1-.66-1.42,1.72,1.72,0,0,1,.51-1.27,1.76,1.76,0,0,1,1.29-.54,1.32,1.32,0,0,1,1,.39,1.6,1.6,0,0,1,.44.83,3.1,3.1,0,0,0,.24.83,0.56,0.56,0,0,0,.54.39,1.58,1.58,0,0,0,.83-0.68,3.15,3.15,0,0,0,.68-1L219,19.35a7.87,7.87,0,0,1-2.61.56,2.21,2.21,0,0,1-1.51-.56,1.78,1.78,0,0,1-.66-1.42,1.68,1.68,0,0,1,.54-1.27,1.76,1.76,0,0,1,1.29-.54"/></svg>